<svg xmlns="http://www.w3.org/2000/svg" width="298" height="40" viewBox="0 0 298 40">
  <g id="Grupo_5090" data-name="Grupo 5090" transform="translate(-333 -4410)">
    <g id="Grupo_5089" data-name="Grupo 5089">
      <path id="Caminho_16581" data-name="Caminho 16581" d="M371.518,4427.7c-2.161,3.625-4.98,8.472-7.413,11.08a13.828,13.828,0,1,1-10.8-22.538,12.748,12.748,0,0,1,4.991.954,4.918,4.918,0,0,1,1.677,1.253,2.894,2.894,0,0,1,.672,1.593,2.347,2.347,0,0,1-1.591,2.566,3.857,3.857,0,0,1-2.127,0,8.8,8.8,0,0,1-2.249-.945.337.337,0,0,0-.445.1l-2.031,2.946a.338.338,0,0,0,.076.462,13.252,13.252,0,0,0,3.276,1.811,8.688,8.688,0,0,0,4.623.39,7.4,7.4,0,0,0,4.32-2.663,7.6,7.6,0,0,0,1.243-2.278,7.752,7.752,0,0,0,.319-1.288,7.5,7.5,0,0,0,.078-1.279,8.513,8.513,0,0,0-1.542-4.735,10.547,10.547,0,0,0-3.468-3.1,14.81,14.81,0,0,0-3.943-1.525,17.4,17.4,0,0,0-4.027-.511,20.009,20.009,0,0,0-14.242,5.69,20.141,20.141,0,0,0,0,28.509,20.416,20.416,0,0,0,14.529,5.634,19.971,19.971,0,0,0,15.3-7.016s.587-.708,1.367-1.693a.336.336,0,0,1,.573.079,14.279,14.279,0,0,0,3.214,4.543,15.77,15.77,0,0,0,21.547,0,14.056,14.056,0,0,0,4.421-10.5,15.435,15.435,0,0,0-.369-3.409.234.234,0,0,1,.208-.288,4.945,4.945,0,0,0,2.395-.869.238.238,0,0,1,.386.188v10.067c0,6.023,2.929,9.006,8.785,9.006a7.378,7.378,0,0,0,5.657-2.115.329.329,0,0,1,.5-.006,6.078,6.078,0,0,0,4.908,1.9c.1,0,.182-.006.273-.008l0,0c3.728,0,6.822-2.416,8-3.481a.323.323,0,0,1,.434,0,14.948,14.948,0,0,0,10.23,3.7,14.584,14.584,0,0,0,10.937-4.57.342.342,0,0,0,0-.469l-3.626-3.774a.336.336,0,0,0-.478,0,9.335,9.335,0,0,1-6.829,2.792,8.327,8.327,0,0,1-6.134-2.486,9.232,9.232,0,0,1,0-12.486,8.326,8.326,0,0,1,6.134-2.486,9.343,9.343,0,0,1,6.829,2.792.331.331,0,0,0,.478,0l3.626-3.772a.342.342,0,0,0,0-.469,14.579,14.579,0,0,0-10.937-4.57,14.968,14.968,0,0,0-10.775,4.253,13.926,13.926,0,0,0-4.363,10.5,14.574,14.574,0,0,0,1.7,7.088.336.336,0,0,1-.094.429,5.355,5.355,0,0,1-2.668,1.074c-.056.006-.115.011-.173.015-.135.009-.268.017-.411.013-1.491,0-1.932-.773-1.932-2.927v-19.222a.335.335,0,0,0-.335-.335h-5.959a.335.335,0,0,0-.335.335v20.821c-.056.053-.108.1-.162.146a5.962,5.962,0,0,1-3.58,1.286c-2.242-.078-3.071-1.247-3.071-3.859V4411a.335.335,0,0,0-.335-.335h-5.958a.336.336,0,0,0-.337.335v11.285c-.006,3.107-4.347,4.673-7.478,2.064l0,0a15.779,15.779,0,0,0-21.108.4,14.775,14.775,0,0,0-2.382,2.95Zm19.288,13.787a8.875,8.875,0,0,1-12.32,0,8.757,8.757,0,0,1-2.431-6.241,8.541,8.541,0,0,1,2.431-6.189,8.737,8.737,0,0,1,12.32,0,8.373,8.373,0,0,1,2.487,6.189A8.581,8.581,0,0,1,390.806,4441.49Z" fill="#DCDCFF" fill-rule="evenodd"/>
      <path id="Caminho_16582" data-name="Caminho 16582" d="M599.093,4427.688a3.576,3.576,0,0,1,0-4.988,3.427,3.427,0,0,1,2.494-.993,3.478,3.478,0,0,1,2.516.993,3.515,3.515,0,0,1,0,4.988,3.471,3.471,0,0,1-2.516.994A3.42,3.42,0,0,1,599.093,4427.688Zm5.586-2.494a3.069,3.069,0,1,0-6.138,0,3.069,3.069,0,0,0,6.138,0Zm-4.411,2.032V4423h1.48a1.341,1.341,0,0,1,.6,2.538l1.014,1.686H602.6l-.944-1.547h-.74v1.547Zm.649-2.124h.807a.713.713,0,0,0,.7-.762.7.7,0,0,0-.7-.715h-.807Z" fill="#DCDCFF" fill-rule="evenodd"/>
      <path id="Caminho_16583" data-name="Caminho 16583" d="M419.246,4418.065a3.922,3.922,0,1,0-3.978-3.923A3.9,3.9,0,0,0,419.246,4418.065Z" fill="#DCDCFF" fill-rule="evenodd"/>
      <path id="Caminho_16584" data-name="Caminho 16584" d="M539.134,4447.084a.332.332,0,0,1,.521,0q2.161,2.855,7.1,2.857a8.122,8.122,0,0,0,5.679-1.73.335.335,0,0,1,.563.246v.263a.449.449,0,0,0,.45.447h5.788a.335.335,0,0,0,.335-.335v-15.688c0-3.755,2.325-6.462,5.418-6.462,3.147,0,4.97,2.375,4.97,6.186v15.964a.336.336,0,0,0,.338.335h5.9a.335.335,0,0,0,.335-.335v-15.688c0-3.755,2.27-6.462,5.362-6.462s4.861,2.375,4.861,6.186v9.283c0,4.861,2.155,7.292,6.518,7.292a10.574,10.574,0,0,0,2.62-.254.339.339,0,0,0,.255-.328v-4.93a.335.335,0,0,0-.385-.332,3.911,3.911,0,0,1-.554.043c-1.495,0-1.88-.773-1.88-2.927v-8.786c0-6.905-3.482-11.158-9.5-11.158-4.1,0-6.981,1.411-8.641,4.281a.332.332,0,0,1-.584-.013c-1.445-2.863-4-4.268-7.572-4.268a8,8,0,0,0-6.836,3.384.339.339,0,0,1-.625-.176v-2.321a.335.335,0,0,0-.335-.335h-5.9a.335.335,0,0,0-.336.335v18.521c0,1.831-2.212,3.739-5.08,3.739-2.431,0-3.315-1.16-3.315-3.866V4411a.337.337,0,0,0-.335-.337h-5.962a.337.337,0,0,0-.335.337v29.184a3.82,3.82,0,0,1-3.531,3.835c-.139.01-.269.015-.392.015-1.491,0-2.043-.884-2.043-3.258v-19.113a.335.335,0,0,0-.335-.335h-5.957a.335.335,0,0,0-.337.335v2.386a.334.334,0,0,1-.608.191c-1.454-2.071-4.469-3.52-8.289-3.52a13.23,13.23,0,0,0-9.942,4.2,14.2,14.2,0,0,0-2.273,3.107l0-.006c-1.838,3.213-4.767,8.127-7.228,10.766a13.829,13.829,0,1,1-10.8-22.538,12.749,12.749,0,0,1,4.991.954,4.919,4.919,0,0,1,1.677,1.253,2.92,2.92,0,0,1,.675,1.593,2.354,2.354,0,0,1-1.594,2.566,3.856,3.856,0,0,1-2.127,0,8.9,8.9,0,0,1-2.249-.945.34.34,0,0,0-.447.1l-2.026,2.946a.336.336,0,0,0,.074.462,13.226,13.226,0,0,0,3.275,1.811,8.672,8.672,0,0,0,4.624.388,7.394,7.394,0,0,0,4.319-2.661,7.648,7.648,0,0,0,1.243-2.278,7.756,7.756,0,0,0,.321-1.288,7.936,7.936,0,0,0,.078-1.281,8.522,8.522,0,0,0-1.542-4.733,10.547,10.547,0,0,0-3.468-3.1,14.842,14.842,0,0,0-3.946-1.525,17.9,17.9,0,0,0-3.741-.5c-.239,0-.761,0-1.088.013a19.834,19.834,0,0,0-13.439,5.668,20.136,20.136,0,0,0,0,28.509,20.416,20.416,0,0,0,14.527,5.634,20.039,20.039,0,0,0,13.017-4.728,19.684,19.684,0,0,0,2.289-2.288s.6-.726,1.4-1.732a.336.336,0,0,1,.576.087,14.234,14.234,0,0,0,2.888,4.461,13.223,13.223,0,0,0,9.942,4.2c4.124,0,7.189-1.249,9.151-3.794a.334.334,0,0,1,.583.111,5.168,5.168,0,0,0,2.09,2.688,7.292,7.292,0,0,0,3.867.886C536.557,4449.724,538.495,4447.888,539.134,4447.084Zm-15.746-5.758a8.264,8.264,0,0,1-6.025,2.43,8,8,0,0,1-5.91-2.43,9.122,9.122,0,0,1,0-12.156,8,8,0,0,1,5.91-2.431,8.262,8.262,0,0,1,6.025,2.431,8.673,8.673,0,0,1,0,12.156Z" fill="#DCDCFF" fill-rule="evenodd"/>
    </g>
  </g>
</svg>