<svg xmlns="http://www.w3.org/2000/svg" width="290" height="158.182" viewBox="0 0 290 158.182">
  <g id="Caminho_3646" data-name="Caminho 3646" transform="translate(-10273 -871.818)" fill="none" stroke-linecap="round" stroke-linejoin="round">
    <path d="M10523.455,950.909a39.468,39.468,0,0,0-13.24,2.279c.022-.759.059-1.515.059-2.279a79.087,79.087,0,0,0-156.1-18.019,52.724,52.724,0,1,0-28.451,97.11h197.729a39.546,39.546,0,0,0,0-79.091Z" stroke="none"/>
    <path d="M 10431.181640625 873.3179931640625 C 10422.1884765625 873.3179931640625 10413.376953125 874.84326171875 10404.9921875 877.851318359375 C 10396.8896484375 880.7582397460938 10389.3642578125 884.9802856445312 10382.625 890.400146484375 C 10375.9453125 895.7711791992188 10370.2333984375 902.1596069335938 10365.6474609375 909.3880615234375 C 10360.978515625 916.7459106445312 10357.611328125 924.7677001953125 10355.638671875 933.2305908203125 C 10355.5283203125 933.705322265625 10355.193359375 934.0966796875 10354.7412109375 934.2799682617188 C 10354.2880859375 934.4631958007812 10353.7763671875 934.4155883789062 10353.3671875 934.152099609375 C 10345.109375 928.848388671875 10335.5517578125 926.0449829101562 10325.7265625 926.0449829101562 C 10318.810546875 926.0449829101562 10312.1025390625 927.3992309570312 10305.7880859375 930.0701293945312 C 10299.6875 932.6502075195312 10294.208984375 936.3441162109375 10289.50390625 941.0492553710938 C 10284.798828125 945.7544555664062 10281.10546875 951.233154296875 10278.525390625 957.3331298828125 C 10275.8544921875 963.6478881835938 10274.5 970.3566284179688 10274.5 977.2730102539062 C 10274.5 984.1891479492188 10275.8544921875 990.897705078125 10278.525390625 997.2122802734375 C 10281.10546875 1003.312133789062 10284.798828125 1008.790710449219 10289.50390625 1013.495849609375 C 10294.208984375 1018.200927734375 10299.6875 1021.894836425781 10305.7880859375 1024.474853515625 C 10312.1025390625 1027.145751953125 10318.810546875 1028.5 10325.7265625 1028.5 L 10523.455078125 1028.5 C 10528.591796875 1028.5 10533.57421875 1027.494384765625 10538.263671875 1025.510864257812 C 10542.7939453125 1023.5947265625 10546.8623046875 1020.851318359375 10550.3564453125 1017.356872558594 C 10553.8515625 1013.862365722656 10556.5947265625 1009.793518066406 10558.5107421875 1005.263366699219 C 10560.494140625 1000.573913574219 10561.5 995.5916748046875 10561.5 990.4550170898438 C 10561.5 985.318115234375 10560.494140625 980.3356323242188 10558.5107421875 975.6461181640625 C 10556.5947265625 971.1157836914062 10553.8515625 967.0468139648438 10550.3564453125 963.55224609375 C 10546.8623046875 960.0577392578125 10542.7939453125 957.3143310546875 10538.263671875 955.398193359375 C 10533.57421875 953.4146728515625 10528.591796875 952.4089965820312 10523.455078125 952.4089965820312 C 10519.09765625 952.4089965820312 10514.8125 953.1466674804688 10510.716796875 954.6014404296875 C 10510.2509765625 954.7672119140625 10509.7314453125 954.6919555664062 10509.33203125 954.4004516601562 C 10508.931640625 954.1089477539062 10508.701171875 953.6386108398438 10508.7158203125 953.1436157226562 C 10508.7216796875 952.9329833984375 10508.728515625 952.7225341796875 10508.736328125 952.5120849609375 C 10508.755859375 951.95947265625 10508.7734375 951.4375 10508.7734375 950.9089965820312 C 10508.7734375 940.43359375 10506.7216796875 930.2722778320312 10502.6767578125 920.7074584960938 C 10500.732421875 916.1101684570312 10498.3251953125 911.676025390625 10495.5234375 907.528076171875 C 10492.7470703125 903.419189453125 10489.55859375 899.5552978515625 10486.0478515625 896.0438232421875 C 10482.5361328125 892.5322875976562 10478.671875 889.3442993164062 10474.5634765625 886.568359375 C 10470.4150390625 883.76611328125 10465.98046875 881.3593139648438 10461.3837890625 879.4148559570312 C 10451.818359375 875.3692626953125 10441.6572265625 873.3179931640625 10431.181640625 873.3179931640625 M 10431.181640625 871.8179931640625 C 10474.86328125 871.8179931640625 10510.2734375 907.22802734375 10510.2734375 950.9089965820312 C 10510.2734375 951.6729736328125 10510.2373046875 952.4290161132812 10510.21484375 953.18798828125 C 10514.35546875 951.7169799804688 10518.8095703125 950.9089965820312 10523.455078125 950.9089965820312 C 10545.294921875 950.9089965820312 10563 968.614013671875 10563 990.4550170898438 C 10563 1012.294982910156 10545.294921875 1030 10523.455078125 1030 L 10325.7265625 1030 C 10296.607421875 1030 10273 1006.393005371094 10273 977.2730102539062 C 10273 948.1519775390625 10296.607421875 924.5449829101562 10325.7265625 924.5449829101562 C 10336.208984375 924.5449829101562 10345.9677734375 927.6170043945312 10354.177734375 932.8900146484375 C 10362.3359375 897.89599609375 10393.703125 871.8179931640625 10431.181640625 871.8179931640625 Z" stroke="none" fill="#2380aa"/>
  </g>
</svg>
