<svg xmlns="http://www.w3.org/2000/svg" width="21.517" height="27.5" viewBox="0 0 21.517 27.5">
  <path id="Caminho_15855" data-name="Caminho 15855" d="M2754.139,486.133h5.012a.86.86,0,1,0,0-1.72h-12.512a2.783,2.783,0,0,1,0-5.566h10.148a.86.86,0,0,0,0-1.721l-10.148,0c-.046,0-.2-.006-.23-.01a2.783,2.783,0,0,1,.23-5.557h3.24a2.455,2.455,0,0,0,2.452-2.452V466.9a.86.86,0,0,0-1.72,0v2.208a.733.733,0,0,1-.733.733h-3.24a4.5,4.5,0,0,0-2.636,8.142,4.5,4.5,0,0,0,2.636,8.148h4.14a4.462,4.462,0,0,0-.963,2.769v3.781a.86.86,0,0,0,1.721,0l0-3.78a2.787,2.787,0,0,1,2.53-2.759.584.584,0,0,0,.075-.011Zm9.514-.859a4.507,4.507,0,0,1-4.5,4.5h-3.24a.733.733,0,0,0-.733.733v2.173a.86.86,0,1,1-1.72,0V490.51a2.455,2.455,0,0,1,2.452-2.452h3.24a2.784,2.784,0,0,0,0-5.567h-12.555a.86.86,0,0,1,0-1.72h10.192a2.783,2.783,0,0,0,0-5.567l-10.148,0a.861.861,0,0,1,0-1.721l5.054,0c.032-.008.064-.013.1-.018a2.765,2.765,0,0,0,2.466-2.752V466.9a.859.859,0,0,1,1.719,0v3.815a4.465,4.465,0,0,1-.963,2.768h1.775a4.5,4.5,0,0,1,3.429,7.415,4.51,4.51,0,0,1,3.437,4.375Z" transform="translate(-2742.136 -466.043)" fill="#3c3c46"/>
</svg>
