<svg xmlns="http://www.w3.org/2000/svg" width="63.31" height="69.548" viewBox="0 0 63.31 69.548">
  <g id="Branch" transform="translate(-5046.976 -443.794)">
    <g id="Grupo_1649" data-name="Grupo 1649">
      <path id="Caminho_6553" data-name="Caminho 6553" d="M5048.552,509.479a.828.828,0,0,0,.327.147c.314.055.807-.287,1.091-.409s.556-.251.831-.379l.824-.387.411-.193.205-.1c.069-.033.135-.068.2-.1l.806-.408.8-.408.2-.1.2-.107.394-.215.785-.428.391-.214.195-.107.192-.112,1.528-.9.19-.111.187-.117.373-.233.742-.466.37-.232.185-.116c.061-.039.121-.08.182-.12l.722-.483c.969-.631,1.893-1.309,2.817-1.967l1.35-1.022.336-.254c.11-.086.218-.175.328-.262l.651-.524.648-.521c.054-.043.108-.086.161-.13l.157-.134.315-.268c.417-.357.835-.71,1.246-1.066.805-.731,1.613-1.44,2.37-2.183l.573-.549c.1-.091.191-.181.285-.274l.276-.28,1.1-1.111c.184-.182.356-.374.532-.561l.523-.562.519-.557c.087-.092.17-.187.254-.282l.249-.283.988-1.124c.083-.092.16-.188.239-.283l.236-.284.469-.565.464-.56c.078-.092.152-.188.226-.282l.222-.284.879-1.124.109-.139c.036-.046.07-.094.1-.141l.209-.283.414-.561.41-.557.2-.277.195-.281.77-1.11.19-.275.094-.136.091-.139.36-.552.709-1.089c.059-.089.114-.181.17-.272l.166-.272.329-.539.326-.534c.107-.178.218-.352.317-.531l.6-1.056a72.243,72.243,0,0,0,3.8-7.754l.361-.863c.03-.07.057-.142.084-.213l.081-.212.16-.417.309-.811.15-.394.037-.1.033-.1.068-.193.507-1.475c.04-.118.081-.233.118-.348l.1-.342.2-.659.189-.622.09-.3.044-.146c.014-.048.026-.1.039-.144l.283-1.073q.13-.5.236-.92t.165-.77a.725.725,0,1,0-.344-.1c-.076.222-.157.47-.247.743s-.2.569-.315.891l-.36,1.039-.048.14-.053.142-.108.288-.226.605-.237.639-.122.332c-.043.112-.09.224-.135.338l-.573,1.432-.075.189-.038.094-.041.1-.165.382-.34.787-.174.406-.088.2c-.03.069-.059.139-.092.207l-.389.838a78.722,78.722,0,0,1-3.974,7.522l-.618,1.023c-.1.174-.215.343-.325.515l-.332.517-.336.523-.169.264c-.057.088-.112.177-.173.263l-.719,1.055-.364.535-.092.135-.1.132-.192.266-.778,1.075-.2.273-.2.267-.413.54-.416.544-.209.274c-.035.045-.069.092-.106.136l-.109.135-.881,1.088-.222.275c-.074.091-.148.184-.226.273l-.464.543-.468.547-.236.275c-.079.091-.156.185-.238.273l-.984,1.088-.249.275c-.082.092-.165.184-.252.273l-.516.539-.519.544c-.175.181-.345.367-.528.543l-1.086,1.076-.274.272c-.093.089-.188.176-.282.265l-.567.531c-.749.72-1.548,1.406-2.341,2.114-.406.344-.818.686-1.23,1.032l-.309.259-.155.13c-.052.043-.106.085-.159.127l-.638.5-.641.508c-.107.084-.213.17-.322.253l-.33.246-1.327.991c-.908.637-1.815,1.3-2.765,1.906l-.708.469c-.059.038-.118.078-.178.116l-.181.113-.363.225-.727.451-.365.227-.183.113-.186.108-1.5.869-.187.109-.191.1-.383.208-.767.416-.385.209-.193.1-.2.1-.785.4-.788.4c-.066.033-.131.067-.2.1l-.2.093-.4.188-.805.376c-.269.125-.536.255-.811.369-.42.174-1.157.3-1.275.823a.764.764,0,0,0,.1.516A1.644,1.644,0,0,0,5048.552,509.479Z" fill="#7b9a2f"/>
    </g>
    <g id="Grupo_1650" data-name="Grupo 1650">
      <path id="Caminho_6554" data-name="Caminho 6554" d="M5065.435,499.321l.039,0c1.183.149,2.357.249,3.516.312l.434.02c.145.006.289.016.433.019l.86.022c.285.005.57,0,.853.005.142,0,.283,0,.424,0l.423-.007c.561-.006,1.117-.034,1.668-.056l.822-.051.2-.013.2-.017.405-.034.4-.034c.134-.01.267-.027.4-.04l.793-.085c.524-.069,1.043-.129,1.552-.211a49.066,49.066,0,0,0,10.567-2.8c1.451-.565,2.736-1.147,3.842-1.7l.408-.2c.133-.068.262-.137.389-.2l.374-.2c.122-.065.241-.127.356-.193l.663-.371.155-.087.15-.089.288-.172c.186-.111.363-.215.527-.317l.455-.29.389-.252c.116-.079.221-.152.315-.218.374-.264.561-.415.545-.441a2.12,2.12,0,0,0-.639.288l-.336.181-.407.214-.474.253c-.169.09-.351.181-.543.28l-.295.153-.153.08-.159.078-.675.334c-.117.06-.238.116-.362.175l-.379.178c-.128.061-.259.124-.393.186l-.411.184c-1.116.5-2.4,1.038-3.851,1.559s-3.055,1.029-4.806,1.476a52.249,52.249,0,0,1-5.657,1.108c-.5.075-1.013.129-1.529.191l-.78.077c-.131.011-.262.027-.394.036l-.4.03-.4.031-.2.014-.2.011-.808.045c-.541.018-1.088.043-1.64.045l-.415.006c-.138,0-.277,0-.416,0-.279,0-.558,0-.839-.009l-.845-.024c-.141,0-.283-.013-.424-.019l-.426-.022c-1.138-.064-2.291-.165-3.452-.311l-.039,0Z" fill="#7b9a2f"/>
    </g>
    <g id="Berry">
      <ellipse id="Elipse_614" data-name="Elipse 614" cx="6.553" cy="6.246" rx="6.553" ry="6.246" transform="matrix(0.055, -0.998, 0.998, 0.055, 5094.781, 497.267)" fill="#253f80"/>
      <path id="Caminho_6555" data-name="Caminho 6555" d="M5106.088,495.346a5.979,5.979,0,0,1-1.178.051,6.405,6.405,0,0,1-5.875-6.888,6.737,6.737,0,0,1,1.526-3.933,6.479,6.479,0,0,0-5.419,6.148,6.4,6.4,0,0,0,5.875,6.887A6.135,6.135,0,0,0,5106.088,495.346Z" fill="#203b79"/>
      <path id="Caminho_6556" data-name="Caminho 6556" d="M5105.522,495.947a5.984,5.984,0,0,1-3.258.754,6.4,6.4,0,0,1-5.875-6.887,6.694,6.694,0,0,1,2.091-4.535,6.619,6.619,0,0,0-3.338,5.445,6.4,6.4,0,0,0,5.875,6.887A6.076,6.076,0,0,0,5105.522,495.947Z" fill="#223467"/>
      <path id="Caminho_6557" data-name="Caminho 6557" d="M5103.108,490.312c.167.185.586.475.5.754-.1.314-.449.515-.528.849a.408.408,0,0,0,.217.484c.468.158.74-.8,1.158-.21.18.254-.032,1.051.561.9.317-.08.358-.512.349-.786a2.3,2.3,0,0,1-.011-.467c.046-.27.237-.324.472-.358.219-.032.471-.12.528-.333s-.132-.43-.331-.543a1.553,1.553,0,0,1-.566-.376c-.244-.346-.1-.834-.387-1.182-.146-.18-.446-.319-.637-.131-.211.208.008.556-.182.775-.323.371-.8-.336-1.187-.1C5102.753,489.779,5102.908,490.091,5103.108,490.312Z" fill="#223261"/>
      <path id="Caminho_6558" data-name="Caminho 6558" d="M5103.2,490.352c.157.173.55.446.468.707-.093.3-.421.484-.5.8a.384.384,0,0,0,.2.454c.439.148.695-.751,1.087-.2.169.239-.03.987.527.848.3-.074.336-.48.327-.737a2.132,2.132,0,0,1-.01-.439c.043-.254.222-.3.443-.336.205-.03.442-.112.5-.312s-.124-.4-.311-.51a1.467,1.467,0,0,1-.531-.354c-.229-.324-.1-.782-.363-1.109-.138-.169-.42-.3-.6-.122-.2.2.007.521-.171.726-.3.349-.752-.314-1.114-.094C5102.866,489.851,5103.012,490.144,5103.2,490.352Z" fill="#1f294e"/>
      <ellipse id="Elipse_615" data-name="Elipse 615" cx="0.681" cy="0.978" rx="0.681" ry="0.978" transform="translate(5103.593 490.241) rotate(-22.533)" fill="#1c2544"/>
      <path id="Caminho_6559" data-name="Caminho 6559" d="M5104.688,490.24a1.294,1.294,0,0,1,.448,1.306.686.686,0,0,1-.107.213.594.594,0,0,0,.259-.349,1.291,1.291,0,0,0-.448-1.306.557.557,0,0,0-.827.041A.6.6,0,0,1,5104.688,490.24Z" fill="#222f5c"/>
      <path id="Caminho_6560" data-name="Caminho 6560" d="M5104.689,490.59a.488.488,0,0,1,.169.492.208.208,0,0,1-.352.1.488.488,0,0,1-.169-.492A.208.208,0,0,1,5104.689,490.59Z" fill="#1b213d"/>
      <path id="Caminho_6561" data-name="Caminho 6561" d="M5105.16,486.9a.163.163,0,0,0-.187.2.664.664,0,0,0,.208.346,5.092,5.092,0,0,1,.367.45,2.791,2.791,0,0,1,.368.745,6.409,6.409,0,0,1,.046,1.217c.047.379.5.635.76.272a1.5,1.5,0,0,0,.039-1.4,3.3,3.3,0,0,0-.435-.833,4.9,4.9,0,0,0-.523-.6A1.147,1.147,0,0,0,5105.16,486.9Z" fill="#8e9cc2" opacity="0.5"/>
    </g>
    <g id="Grupo_1651" data-name="Grupo 1651">
      <path id="Caminho_6562" data-name="Caminho 6562" d="M5059.963,502.194l0-.012c-.171-.718-.307-1.425-.414-2.113l-.076-.512-.061-.5c-.023-.166-.035-.331-.052-.494s-.034-.324-.043-.484l-.034-.473c-.01-.156-.015-.31-.023-.461l-.011-.226-.006-.223-.011-.435v-.42c0-.138,0-.274,0-.406l.008-.39c0-.063,0-.126.005-.189l.008-.184c.011-.243.018-.475.035-.694s.023-.426.041-.619l.041-.54c.016-.165.029-.317.039-.454l.013-.2c0-.061.01-.117.013-.17.007-.106.011-.2.011-.271,0-.147-.014-.228-.044-.234s-.074.062-.131.2c-.029.069-.06.154-.1.256l-.054.165c-.018.059-.035.123-.054.19-.036.134-.075.284-.116.449s-.075.345-.115.539-.073.4-.111.625-.067.457-.1.705l-.024.188c-.008.063-.013.128-.019.193l-.037.4c-.014.135-.02.274-.029.416s-.018.286-.024.432l-.013.449c0,.076,0,.152,0,.23v.233c0,.157,0,.316,0,.477l.018.49c0,.165.017.332.028.5s.021.34.039.513l.052.523.068.531c.1.715.235,1.451.412,2.2l0,.013Z" fill="#7b9a2f"/>
    </g>
    <g id="Grupo_1659" data-name="Grupo 1659">
      <path id="Caminho_6563" data-name="Caminho 6563" d="M5110.286,505.7c-11.982-18.759-23.464-8.1-23.464-8.1S5086.559,511.758,5110.286,505.7Z" fill="#377d32"/>
      <path id="Caminho_6564" data-name="Caminho 6564" d="M5110.286,505.7l-.057-.089-.651-.131c-1.444-.291-2.721-.962-4.174-1.255-4.873-.984-15.424-5.2-18.581-6.5C5086.866,499.1,5087.871,511.423,5110.286,505.7Z" fill="#2a692d"/>
      <g id="Grupo_1652" data-name="Grupo 1652">
        <path id="Caminho_6565" data-name="Caminho 6565" d="M5085.937,497.512c.083.174.472.265.662.349q.979.431,1.974.839,1.9.783,3.852,1.495,1.139.418,2.288.817c2.768.961,5.293,1.758,7.421,2.408s3.859,1.155,5.059,1.495a15.236,15.236,0,0,0,1.885.485,14.562,14.562,0,0,0-1.805-.654c-1.176-.393-2.884-.945-4.992-1.634s-4.611-1.515-7.357-2.494c-2.575-.918-5.12-1.894-7.6-2.97-.34-.148-.678-.333-1.032-.455a.261.261,0,0,0-.368.281A.175.175,0,0,0,5085.937,497.512Z" fill="#7b9a2f"/>
      </g>
      <g id="Grupo_1653" data-name="Grupo 1653">
        <path id="Caminho_6566" data-name="Caminho 6566" d="M5089.524,498.9v.006a6.781,6.781,0,0,0,.162,1.105l.065.262.078.254c.023.084.056.166.085.247s.056.162.091.24l.1.231c.034.076.07.149.1.222l.052.109.056.105.111.2c.038.067.079.131.117.2s.074.126.116.185c.082.119.154.236.237.341s.153.209.233.3.147.182.222.26.139.154.2.221l.182.178.079.075.073.063c.045.039.084.071.117.1.064.051.1.076.109.07s-.015-.039-.065-.1c-.025-.031-.056-.068-.094-.111l-.062-.069-.068-.08-.16-.189c-.057-.069-.116-.146-.181-.228s-.13-.171-.2-.265-.139-.2-.212-.3-.14-.223-.215-.341c-.038-.059-.071-.122-.106-.185s-.072-.127-.107-.193l-.1-.2-.051-.1-.048-.107c-.031-.072-.065-.144-.1-.218l-.089-.227c-.032-.077-.056-.156-.084-.235s-.056-.159-.078-.241l-.071-.249-.061-.255a7.159,7.159,0,0,1-.152-1.073v-.007Z" fill="#7b9a2f"/>
      </g>
      <g id="Grupo_1654" data-name="Grupo 1654">
        <path id="Caminho_6567" data-name="Caminho 6567" d="M5089.789,498.727l.006,0a9.732,9.732,0,0,1,1.1-.671l.28-.142.282-.13c.092-.044.189-.081.282-.12s.184-.078.279-.111l.276-.1.273-.09.135-.044.134-.038.262-.075c.087-.023.173-.043.258-.065s.166-.043.249-.058c.164-.033.321-.071.474-.094s.3-.054.435-.07.269-.04.392-.05.237-.026.343-.036l.29-.021.124-.01.108-.005c.068,0,.125-.007.171-.011.093-.008.141-.016.142-.024s-.049-.016-.142-.023c-.046,0-.1-.008-.172-.011l-.11-.006h-.421c-.108,0-.225.011-.351.017s-.259.02-.4.033-.291.033-.448.055-.319.052-.489.081c-.086.014-.17.035-.258.053l-.266.06-.271.071-.139.037-.139.043c-.093.028-.189.056-.284.087l-.286.1c-.1.032-.192.072-.29.11s-.2.075-.291.12l-.293.131-.291.144a9.767,9.767,0,0,0-1.137.688l-.006.005Z" fill="#7b9a2f"/>
      </g>
      <path id="Caminho_6568" data-name="Caminho 6568" d="M5103.084,497.916a4.4,4.4,0,0,0-3.576-.786c-1.931.5-2.911,2.67-1.338,3.865a5.664,5.664,0,0,0,1.709.758l3.665,1.169c.679.217,2.249,1.024,2.969.8,1.881-.593-1.093-3.685-1.75-4.368A10.225,10.225,0,0,0,5103.084,497.916Z" fill="#4c8134"/>
      <g id="Grupo_1655" data-name="Grupo 1655">
        <path id="Caminho_6569" data-name="Caminho 6569" d="M5094.765,500.7v.007a4.542,4.542,0,0,0,.078,1.178l.063.279.084.27a2.665,2.665,0,0,0,.1.26,2.488,2.488,0,0,0,.107.252l.117.241c.042.078.088.154.131.229l.065.112c.023.036.048.071.072.107l.141.208c.05.066.1.13.151.194s.1.126.152.183l.155.171c.025.028.049.056.076.082l.08.077c.1.1.2.2.307.282s.2.169.295.236.184.136.27.193l.24.149c.037.022.07.043.1.062l.1.049c.059.03.11.055.151.074.082.039.128.056.134.049s-.03-.037-.1-.087c-.035-.026-.08-.056-.133-.092l-.086-.057c-.03-.021-.06-.045-.093-.069l-.22-.161c-.079-.061-.159-.13-.248-.2s-.176-.156-.271-.242-.187-.184-.284-.285l-.074-.077c-.025-.026-.046-.054-.07-.082l-.143-.169c-.051-.057-.093-.12-.139-.182s-.094-.125-.14-.191l-.13-.2c-.022-.034-.045-.069-.066-.1l-.06-.109c-.039-.073-.082-.147-.12-.223l-.108-.234a2.266,2.266,0,0,1-.1-.243c-.03-.083-.067-.166-.089-.252l-.076-.26-.057-.268a4.471,4.471,0,0,1-.069-1.128v-.006Z" fill="#7b9a2f"/>
      </g>
      <g id="Grupo_1656" data-name="Grupo 1656">
        <path id="Caminho_6570" data-name="Caminho 6570" d="M5094.976,500.888l0-.005a6.9,6.9,0,0,1,1.022-.815l.272-.172.28-.156c.09-.054.188-.1.281-.143s.185-.094.281-.132l.28-.12c.094-.037.188-.07.281-.1l.137-.051c.046-.016.093-.03.139-.044l.271-.085c.09-.026.18-.048.267-.071s.173-.048.26-.064l.252-.054c.041-.008.081-.018.122-.025l.121-.019c.16-.025.311-.054.457-.067s.282-.036.412-.042.249-.019.36-.023l.3-.008c.046,0,.089,0,.13,0l.114,0h.179c.1,0,.149-.006.15-.014s-.048-.019-.145-.033l-.179-.022-.115-.012c-.041,0-.085-.005-.132-.007l-.31-.013c-.113,0-.236,0-.369,0s-.273.015-.424.025-.307.031-.472.052l-.125.016c-.042.006-.084.015-.127.022l-.262.047c-.09.015-.178.039-.27.06s-.184.042-.278.066l-.282.083c-.048.014-.1.027-.145.042l-.143.05c-.1.034-.2.067-.293.1l-.293.119c-.1.039-.2.087-.294.133s-.2.091-.293.145l-.292.159-.285.177a6.9,6.9,0,0,0-1.068.845l-.006.005Z" fill="#7b9a2f"/>
      </g>
      <g id="Grupo_1657" data-name="Grupo 1657">
        <path id="Caminho_6571" data-name="Caminho 6571" d="M5100.132,502.681l0,0a5.551,5.551,0,0,0,.821,1.448l.122.153.126.144.062.07.064.068.126.131c.087.083.169.165.254.239s.164.147.247.211a5.972,5.972,0,0,0,.825.563c.051.03.1.055.141.076l.107.05c.059.026.092.037.1.03s-.016-.029-.064-.068c-.023-.019-.053-.041-.089-.068s-.078-.056-.124-.091a9.245,9.245,0,0,1-.746-.6c-.076-.066-.148-.14-.227-.215s-.153-.157-.233-.24l-.116-.131-.059-.067-.058-.07c-.038-.047-.078-.094-.116-.142l-.113-.15a5.832,5.832,0,0,1-.772-1.4v0Z" fill="#7b9a2f"/>
      </g>
      <g id="Grupo_1658" data-name="Grupo 1658">
        <path id="Caminho_6572" data-name="Caminho 6572" d="M5100.4,502.694l0,0a2.815,2.815,0,0,1,.646-.518,3.43,3.43,0,0,1,.366-.194c.124-.059.25-.111.376-.157a7.694,7.694,0,0,1,1.411-.354c.417-.07.761-.112,1-.147a1.161,1.161,0,0,0,.365-.077,1.2,1.2,0,0,0-.377-.014c-.242.008-.591.025-1.021.075a7.054,7.054,0,0,0-1.484.32c-.134.046-.27.1-.4.159a3.978,3.978,0,0,0-.4.2,3.031,3.031,0,0,0-.711.565l0,0Z" fill="#7b9a2f"/>
      </g>
    </g>
    <g id="Grupo_1667" data-name="Grupo 1667">
      <path id="Caminho_6573" data-name="Caminho 6573" d="M5090.342,479.163c-15,8.629-7.133,17.928-7.133,17.928S5094.194,497.8,5090.342,479.163Z" fill="#377d32"/>
      <path id="Caminho_6574" data-name="Caminho 6574" d="M5090.342,479.163l-.071.041-.125.5c-.277,1.11-.845,2.078-1.125,3.2-.938,3.748-4.594,11.789-5.715,14.193C5084.379,497.111,5093.981,496.774,5090.342,479.163Z" fill="#2a692d"/>
      <g id="Grupo_1660" data-name="Grupo 1660">
        <path id="Caminho_6575" data-name="Caminho 6575" d="M5083.11,497.775c.138-.058.222-.357.294-.5q.369-.745.722-1.5.678-1.451,1.3-2.937.366-.87.717-1.748c.846-2.114,1.555-4.046,2.136-5.675s1.036-2.955,1.344-3.875a11.952,11.952,0,0,0,.444-1.445,11.135,11.135,0,0,0-.573,1.377c-.348.9-.838,2.206-1.448,3.817s-1.343,3.526-2.2,5.623c-.805,1.967-1.654,3.908-2.579,5.8-.127.259-.283.514-.391.785a.2.2,0,0,0,.205.295A.107.107,0,0,0,5083.11,497.775Z" fill="#7b9a2f"/>
      </g>
      <g id="Grupo_1661" data-name="Grupo 1661">
        <path id="Caminho_6576" data-name="Caminho 6576" d="M5084.318,495.04h.005a5.159,5.159,0,0,0,.863-.086l.206-.041.2-.051c.066-.015.131-.038.2-.057s.128-.038.189-.062l.184-.067.176-.074.086-.036.084-.04.163-.079c.053-.027.1-.056.155-.084s.1-.053.148-.083c.1-.059.189-.112.274-.172s.168-.112.242-.17.147-.108.211-.163.124-.1.178-.151l.145-.135.061-.058.052-.054.079-.088c.042-.048.062-.076.059-.082s-.032.01-.081.047l-.089.069-.056.046-.065.049-.152.118c-.056.042-.118.085-.183.133s-.138.094-.214.145-.158.1-.243.153-.178.1-.273.155c-.047.028-.1.051-.147.076s-.1.051-.154.076l-.161.072-.082.036-.085.033c-.057.022-.114.046-.173.068l-.179.061c-.061.022-.123.038-.186.056s-.125.038-.19.052l-.195.047-.2.038a5.438,5.438,0,0,1-.839.079h0Z" fill="#7b9a2f"/>
      </g>
      <g id="Grupo_1662" data-name="Grupo 1662">
        <path id="Caminho_6577" data-name="Caminho 6577" d="M5084.191,494.828l0-.005a7.684,7.684,0,0,1-.481-.877l-.1-.223-.091-.224c-.031-.073-.056-.149-.083-.223s-.054-.146-.076-.22l-.069-.218c-.021-.073-.04-.145-.06-.216l-.03-.106c-.009-.035-.016-.071-.025-.106l-.049-.206c-.014-.068-.027-.136-.04-.2s-.028-.131-.037-.2c-.019-.129-.043-.252-.056-.371s-.031-.232-.039-.341-.021-.21-.024-.306-.012-.185-.015-.268l-.006-.226c0-.034,0-.066,0-.1v-.084c0-.053,0-.1,0-.133,0-.072-.007-.111-.013-.111s-.015.037-.024.109l-.015.133-.008.085c0,.031,0,.063,0,.1l-.01.229c0,.084,0,.175,0,.273s.007.2.011.314.016.227.027.35.029.249.046.382c.007.067.02.134.032.2s.023.138.036.209l.046.213c.008.037.015.073.024.11l.028.109c.019.073.037.148.057.223l.068.226c.022.077.049.152.075.229s.052.155.083.231l.091.232.1.231a7.432,7.432,0,0,0,.493.907l0,.005Z" fill="#7b9a2f"/>
      </g>
      <path id="Caminho_6578" data-name="Caminho 6578" d="M5084.04,484.475a3.418,3.418,0,0,0-.739,2.748c.321,1.518,1.969,2.357,2.953,1.179a4.368,4.368,0,0,0,.65-1.3l1.04-2.8c.192-.519.876-1.709.725-2.277-.392-1.481-2.9.716-3.454,1.2A7.951,7.951,0,0,0,5084.04,484.475Z" fill="#4c8134"/>
      <g id="Grupo_1663" data-name="Grupo 1663">
        <path id="Caminho_6579" data-name="Caminho 6579" d="M5085.9,491.035h.005a3.556,3.556,0,0,0,.918-.018l.219-.039.212-.055a2.029,2.029,0,0,0,.206-.066,1.864,1.864,0,0,0,.2-.074l.192-.082c.062-.03.122-.063.182-.094l.089-.046.086-.052.166-.1c.054-.036.1-.075.156-.111s.1-.07.149-.11l.138-.115c.022-.019.045-.036.066-.056l.063-.059c.082-.078.161-.15.23-.229s.138-.145.194-.22.112-.138.159-.2l.124-.181c.019-.028.037-.053.052-.078l.042-.072.063-.115c.033-.063.048-.1.043-.1s-.03.022-.072.075l-.076.1-.047.065c-.017.022-.037.045-.057.07l-.133.165c-.05.058-.107.118-.166.185s-.128.131-.2.2-.15.138-.232.21l-.062.054c-.021.019-.044.035-.066.052l-.137.105c-.046.037-.1.067-.146.1s-.1.068-.153.1l-.163.094c-.028.015-.055.032-.084.047l-.086.043c-.059.028-.117.058-.178.085l-.185.076c-.063.027-.128.045-.193.067s-.131.046-.2.06l-.205.05-.21.035a3.531,3.531,0,0,1-.879.012h-.005Z" fill="#7b9a2f"/>
      </g>
      <g id="Grupo_1664" data-name="Grupo 1664">
        <path id="Caminho_6580" data-name="Caminho 6580" d="M5086.056,490.878l0,0a5.4,5.4,0,0,1-.6-.823l-.124-.218-.111-.222c-.038-.072-.068-.15-.1-.224s-.066-.147-.092-.223l-.083-.222c-.025-.074-.047-.148-.071-.221l-.034-.109c-.011-.036-.02-.073-.03-.109l-.056-.214c-.017-.07-.031-.141-.046-.21s-.03-.136-.04-.2l-.032-.2c-.005-.033-.011-.064-.015-.1l-.011-.1c-.014-.125-.03-.243-.035-.357s-.018-.22-.018-.321-.006-.195-.005-.281l0-.237c0-.035,0-.069,0-.1l.006-.088c0-.055,0-.1.006-.14a.313.313,0,0,0-.006-.117c-.006,0-.017.038-.03.112-.007.037-.015.084-.024.138l-.014.089c0,.032-.006.066-.01.1l-.021.24c0,.088-.006.184-.01.287s0,.213,0,.33.013.24.024.369l.008.1c0,.033.008.065.012.1l.028.2c.008.07.023.14.036.211s.026.145.042.219l.053.222c.01.038.018.076.029.114l.033.113c.023.076.045.154.07.231l.082.232c.027.079.061.155.093.233s.063.158.1.233l.113.232.127.228a5.379,5.379,0,0,0,.617.86l0,0Z" fill="#7b9a2f"/>
      </g>
      <g id="Grupo_1665" data-name="Grupo 1665">
        <path id="Caminho_6581" data-name="Caminho 6581" d="M5087.634,486.938h0a4.32,4.32,0,0,0,1.154-.585l.123-.09c.04-.03.078-.062.116-.092l.057-.046.055-.047.106-.093c.068-.065.134-.126.195-.188s.12-.123.172-.185a4.523,4.523,0,0,0,.468-.62c.025-.039.046-.075.063-.107s.032-.059.044-.081c.022-.045.031-.071.026-.075s-.023.011-.055.047l-.056.067c-.021.027-.046.059-.075.092a7.023,7.023,0,0,1-.5.558c-.054.057-.114.11-.175.168s-.127.114-.195.173l-.1.086-.055.043-.056.042c-.038.028-.075.057-.115.085l-.12.083a4.573,4.573,0,0,1-1.117.548h0Z" fill="#7b9a2f"/>
      </g>
      <g id="Grupo_1666" data-name="Grupo 1666">
        <path id="Caminho_6582" data-name="Caminho 6582" d="M5087.654,486.728l0,0a2.205,2.205,0,0,1-.38-.52,3.04,3.04,0,0,1-.137-.292c-.041-.1-.077-.2-.108-.3a6.008,6.008,0,0,1-.225-1.108c-.039-.327-.059-.6-.078-.78a.949.949,0,0,0-.046-.287.918.918,0,0,0-.025.293c0,.188,0,.46.022.8a5.491,5.491,0,0,0,.2,1.163c.031.106.067.213.109.32a2.935,2.935,0,0,0,.144.316,2.343,2.343,0,0,0,.412.572l0,0Z" fill="#7b9a2f"/>
      </g>
    </g>
    <g id="Grupo_1668" data-name="Grupo 1668">
      <path id="Caminho_6583" data-name="Caminho 6583" d="M5075.819,499.316l.008.005c.452.29.881.592,1.285.9l.3.23.287.233c.1.076.185.156.276.233s.182.153.267.232l.257.231.245.231.12.113.115.114.225.223.213.22c.069.073.139.142.2.215.129.143.258.276.373.411s.231.258.332.382.2.235.291.346l.25.3q.114.143.209.258l.092.109.079.1c.05.059.093.109.131.147.074.078.123.113.143.1s.009-.071-.03-.172c-.019-.05-.045-.111-.078-.183l-.054-.114c-.02-.041-.043-.083-.067-.127-.048-.09-.1-.188-.164-.3s-.134-.22-.21-.343-.164-.249-.256-.385-.2-.275-.3-.421-.227-.3-.35-.451c-.061-.079-.128-.155-.195-.234s-.135-.16-.205-.24l-.22-.243-.113-.123-.118-.123c-.08-.082-.16-.166-.243-.249l-.256-.249c-.086-.085-.177-.166-.269-.249s-.182-.169-.28-.25l-.291-.249-.3-.245c-.413-.324-.856-.643-1.327-.943l-.007-.005Z" fill="#7b9a2f"/>
    </g>
    <g id="Berry-2" data-name="Berry">
      <ellipse id="Elipse_616" data-name="Elipse 616" cx="6.61" cy="6.299" rx="6.61" ry="6.299" transform="matrix(0.729, -0.684, 0.684, 0.729, 5051.675, 489.069)" fill="#253f80"/>
      <path id="Caminho_6584" data-name="Caminho 6584" d="M5061.26,495.545a5.984,5.984,0,0,1-.894-.783,6.459,6.459,0,0,1,.513-9.116,6.788,6.788,0,0,1,3.853-1.806,6.536,6.536,0,0,0-8.236.708,6.462,6.462,0,0,0-.513,9.117A6.19,6.19,0,0,0,5061.26,495.545Z" fill="#203b79"/>
      <path id="Caminho_6585" data-name="Caminho 6585" d="M5060.429,495.59a6.05,6.05,0,0,1-2.9-1.721,6.459,6.459,0,0,1,.513-9.116,6.752,6.752,0,0,1,4.685-1.85,6.678,6.678,0,0,0-6.229,1.645,6.462,6.462,0,0,0-.513,9.117A6.138,6.138,0,0,0,5060.429,495.59Z" fill="#223467"/>
      <g id="Grupo_1669" data-name="Grupo 1669">
        <path id="Caminho_6586" data-name="Caminho 6586" d="M5062.042,485.259c-.007.25.1.754-.162.9-.29.16-.686.064-.977.252a.411.411,0,0,0-.178.5c.231.441,1.1-.067.991.653-.046.311-.756.745-.22,1.05.286.163.618-.123.8-.33a2.319,2.319,0,0,1,.318-.348c.222-.165.4-.071.594.067a.593.593,0,0,0,.617.126.542.542,0,0,0,.136-.627,1.583,1.583,0,0,1-.15-.669c.063-.423.5-.68.541-1.132.019-.232-.1-.543-.374-.539-.3,0-.381.411-.672.438-.494.046-.351-.8-.8-.9C5062.155,484.622,5062.05,484.958,5062.042,485.259Z" fill="#223261"/>
        <path id="Caminho_6587" data-name="Caminho 6587" d="M5062.081,485.351c-.006.236.09.709-.152.842-.273.15-.644.06-.917.236a.386.386,0,0,0-.168.473c.218.414,1.03-.063.931.614-.043.292-.71.7-.206.985.268.152.579-.116.752-.31a2.11,2.11,0,0,1,.3-.327c.208-.155.374-.066.557.063s.4.227.58.118a.508.508,0,0,0,.128-.588,1.482,1.482,0,0,1-.141-.628c.059-.4.474-.639.508-1.062.017-.219-.1-.51-.352-.506-.28,0-.358.385-.63.411-.465.043-.33-.754-.748-.845C5062.187,484.754,5062.089,485.069,5062.081,485.351Z" fill="#1f294e"/>
      </g>
      <g id="Grupo_1670" data-name="Grupo 1670">
        <ellipse id="Elipse_617" data-name="Elipse 617" cx="0.956" cy="0.748" rx="0.956" ry="0.748" transform="translate(5061.574 487.181) rotate(-59.48)" fill="#1c2544"/>
        <path id="Caminho_6588" data-name="Caminho 6588" d="M5062.661,486.086a.664.664,0,0,1,.721.8,1.132,1.132,0,0,1-.063.279,1.165,1.165,0,0,0,.187-.528.663.663,0,0,0-.72-.8,1.082,1.082,0,0,0-.822.722A1.02,1.02,0,0,1,5062.661,486.086Z" fill="#222f5c"/>
        <path id="Caminho_6589" data-name="Caminho 6589" d="M5062.735,486.4a.251.251,0,0,1,.271.3.42.42,0,0,1-.333.377.25.25,0,0,1-.272-.3A.422.422,0,0,1,5062.735,486.4Z" fill="#1b213d"/>
      </g>
      <path id="Caminho_6590" data-name="Caminho 6590" d="M5066.466,488.739a.165.165,0,0,0-.276.016.688.688,0,0,0-.089.4,5.325,5.325,0,0,1-.046.584,2.787,2.787,0,0,1-.25.8c-.184.378-.57.59-.814.919-.229.309-.082.808.365.728a1.51,1.51,0,0,0,1.006-1,3.308,3.308,0,0,0,.263-.91,4.925,4.925,0,0,0,.039-.8A1.149,1.149,0,0,0,5066.466,488.739Z" fill="#8e9cc2" opacity="0.5"/>
    </g>
    <g id="Berry-3" data-name="Berry">
      <ellipse id="Elipse_618" data-name="Elipse 618" cx="5.581" cy="5.319" rx="5.581" ry="5.319" transform="matrix(0.833, -0.553, 0.553, 0.833, 5074.999, 504.478)" fill="#253f80"/>
      <path id="Caminho_6591" data-name="Caminho 6591" d="M5082.07,511.217a5.123,5.123,0,0,1-.635-.777,5.454,5.454,0,0,1,1.709-7.518,5.731,5.731,0,0,1,3.462-.962,5.52,5.52,0,0,0-6.957-.568,5.456,5.456,0,0,0-1.709,7.518A5.224,5.224,0,0,0,5082.07,511.217Z" fill="#203b79"/>
      <path id="Caminho_6592" data-name="Caminho 6592" d="M5081.371,511.138a5.107,5.107,0,0,1-2.174-1.84,5.454,5.454,0,0,1,1.709-7.518,5.7,5.7,0,0,1,4.16-.882,5.637,5.637,0,0,0-5.417.494,5.456,5.456,0,0,0-1.709,7.518A5.181,5.181,0,0,0,5081.371,511.138Z" fill="#223467"/>
      <path id="Caminho_6593" data-name="Caminho 6593" d="M5083.988,506.62c-.041.208-.026.642-.261.724-.265.092-.581-.044-.849.072a.348.348,0,0,0-.22.394c.131.4.923.1.734.684-.082.252-.734.513-.331.843.215.175.532-.016.714-.163a2,2,0,0,1,.313-.245c.208-.106.342,0,.485.14s.321.26.5.191.227-.31.2-.5a1.338,1.338,0,0,1-.031-.578c.112-.343.516-.495.61-.866.048-.191-.01-.467-.236-.5-.249-.039-.376.288-.621.27-.418-.031-.179-.718-.536-.862C5084.171,506.106,5084.037,506.371,5083.988,506.62Z" fill="#223261"/>
      <path id="Caminho_6594" data-name="Caminho 6594" d="M5084.007,506.7c-.038.2-.024.6-.245.68-.248.086-.545-.041-.8.068a.326.326,0,0,0-.207.37c.123.375.867.092.689.641-.077.237-.689.483-.31.792.2.164.5-.015.669-.153a1.85,1.85,0,0,1,.295-.23c.195-.1.32,0,.455.131s.3.245.465.18.213-.291.19-.472a1.254,1.254,0,0,1-.029-.543c.1-.322.484-.465.572-.813.045-.179-.009-.438-.221-.471-.234-.036-.353.271-.583.254-.393-.029-.169-.674-.5-.808C5084.179,506.22,5084.053,506.469,5084.007,506.7Z" fill="#1f294e"/>
      <ellipse id="Elipse_619" data-name="Elipse 619" cx="0.833" cy="0.58" rx="0.833" ry="0.58" transform="translate(5083.432 508.347) rotate(-59.263)" fill="#1c2544"/>
      <path id="Caminho_6595" data-name="Caminho 6595" d="M5084.841,507.661a1.1,1.1,0,0,1-.663.971.593.593,0,0,1-.2.036.5.5,0,0,0,.37,0,1.1,1.1,0,0,0,.663-.971.476.476,0,0,0-.449-.544A.511.511,0,0,1,5084.841,507.661Z" fill="#222f5c"/>
      <path id="Caminho_6596" data-name="Caminho 6596" d="M5084.6,507.84a.412.412,0,0,1-.25.366c-.136.048-.245-.038-.244-.192a.415.415,0,0,1,.25-.365C5084.5,507.6,5084.6,507.686,5084.6,507.84Z" fill="#1b213d"/>
      <path id="Caminho_6597" data-name="Caminho 6597" d="M5087.361,506.283a.139.139,0,0,0-.232-.026.574.574,0,0,0-.13.318,4.358,4.358,0,0,1-.12.48,2.407,2.407,0,0,1-.321.631c-.207.289-.558.411-.808.651-.234.225-.181.661.2.657a1.276,1.276,0,0,0,.978-.688,2.815,2.815,0,0,0,.347-.722,4.1,4.1,0,0,0,.146-.664A.971.971,0,0,0,5087.361,506.283Z" fill="#8e9cc2" opacity="0.5"/>
    </g>
    <g id="Grupo_1678" data-name="Grupo 1678">
      <path id="Caminho_6598" data-name="Caminho 6598" d="M5047.026,488.178c-.893,16.311,10.515,14.875,10.515,14.875S5063.761,494.728,5047.026,488.178Z" fill="#377d32"/>
      <path id="Caminho_6599" data-name="Caminho 6599" d="M5047.026,488.178l0,.078.332.357c.736.791,1.209,1.738,1.95,2.535,2.483,2.673,6.964,9.7,8.289,11.83C5058.159,502.138,5062.836,494.366,5047.026,488.178Z" fill="#2a692d"/>
      <g id="Grupo_1671" data-name="Grupo 1671">
        <path id="Caminho_6600" data-name="Caminho 6600" d="M5058.031,503.484c.025-.139-.168-.36-.245-.491q-.4-.677-.817-1.345-.8-1.283-1.656-2.541-.5-.736-1.013-1.467c-1.238-1.758-2.4-3.314-3.392-4.612s-1.805-2.341-2.374-3.058a11.23,11.23,0,0,0-.916-1.1,10.585,10.585,0,0,0,.8,1.163c.532.738,1.314,1.8,2.275,3.111s2.1,2.877,3.316,4.637c1.141,1.649,2.24,3.321,3.258,5.024.139.234.261.489.419.714a.192.192,0,0,0,.34-.011A.117.117,0,0,0,5058.031,503.484Z" fill="#7b9a2f"/>
      </g>
      <g id="Grupo_1672" data-name="Grupo 1672">
        <path id="Caminho_6601" data-name="Caminho 6601" d="M5056.488,501.12l0,0a4.99,4.99,0,0,0,.376-.728l.073-.184.063-.185c.022-.06.037-.123.055-.183s.036-.121.049-.182l.041-.179c.012-.06.022-.12.032-.178l.016-.087.011-.087.022-.169c.006-.056.009-.112.014-.166s.009-.108.01-.161c0-.106.009-.206,0-.3s0-.191-.01-.28-.01-.171-.021-.25-.017-.151-.027-.219l-.032-.184c0-.028-.01-.054-.015-.078l-.016-.069c-.011-.043-.02-.079-.029-.108-.016-.058-.028-.089-.035-.089s-.008.03,0,.088c0,.029.005.064.009.106l.007.068.006.077.015.18c0,.066.006.138.011.214s0,.158,0,.244,0,.177,0,.272-.012.193-.018.295c0,.052-.01.1-.016.156s-.011.106-.019.16l-.026.165-.014.084-.017.084c-.012.056-.023.114-.036.171l-.044.174c-.014.059-.033.116-.051.175s-.034.119-.056.178l-.064.178-.073.178a5.276,5.276,0,0,1-.369.7l0,0Z" fill="#7b9a2f"/>
      </g>
      <g id="Grupo_1673" data-name="Grupo 1673">
        <path id="Caminho_6602" data-name="Caminho 6602" d="M5056.256,501.111h-.006a7.126,7.126,0,0,1-.942-.071l-.228-.035-.223-.044c-.074-.013-.147-.032-.219-.049s-.144-.032-.214-.053l-.208-.058c-.069-.02-.136-.043-.2-.063l-.1-.032-.1-.034-.189-.068c-.062-.023-.122-.048-.181-.072s-.117-.045-.173-.071c-.113-.051-.222-.1-.323-.147s-.2-.1-.29-.145-.177-.091-.255-.138-.152-.086-.219-.126l-.182-.111c-.028-.017-.054-.032-.078-.048l-.067-.043c-.042-.027-.077-.049-.106-.066-.059-.035-.091-.052-.095-.047s.022.03.074.075l.1.08.063.05c.023.018.048.036.075.055l.176.125c.066.045.139.091.216.141s.164.1.254.153.188.1.291.159.212.1.326.161c.057.028.116.052.176.078l.184.079.193.073.1.038.1.034c.068.023.137.047.207.069l.214.063c.072.023.145.039.219.058s.15.039.226.054l.23.047.235.038a6.913,6.913,0,0,0,.972.077h.006Z" fill="#7b9a2f"/>
      </g>
      <path id="Caminho_6603" data-name="Caminho 6603" d="M5047.985,495.9a3.227,3.227,0,0,0,1.795,2c1.366.528,2.878-.344,2.453-1.73a4.15,4.15,0,0,0-.694-1.183l-1.684-2.267c-.312-.42-.9-1.573-1.428-1.746-1.375-.452-.927,2.664-.828,3.352A7.542,7.542,0,0,0,5047.985,495.9Z" fill="#4c8134"/>
      <g id="Grupo_1674" data-name="Grupo 1674">
        <path id="Caminho_6604" data-name="Caminho 6604" d="M5054.136,497.8l0,0a3.3,3.3,0,0,0,.458-.735l.082-.194.066-.2c.024-.064.037-.132.055-.2s.034-.129.043-.195l.034-.194c.008-.065.013-.13.02-.193l.009-.094c0-.032,0-.064,0-.1l0-.184c0-.061,0-.121-.007-.18s0-.117-.012-.175l-.019-.168c0-.027-.006-.054-.01-.081l-.015-.08c-.02-.106-.035-.206-.063-.3s-.044-.184-.074-.267-.052-.16-.078-.231l-.08-.191c-.012-.029-.023-.056-.035-.081l-.036-.07c-.022-.044-.042-.08-.058-.109-.032-.059-.052-.089-.059-.087s0,.035.023.095c.01.031.023.068.04.112l.027.071c.009.025.017.052.026.081l.062.19c.021.07.039.146.061.227s.038.168.058.26.032.19.047.292l.011.077c0,.026,0,.052.007.079l.012.162c.006.056,0,.111,0,.168s0,.115,0,.174l-.01.177c0,.03,0,.06,0,.09l-.011.091c-.008.061-.014.123-.024.184l-.036.186c-.01.064-.029.124-.045.187s-.032.127-.056.188l-.065.188-.081.184a3.351,3.351,0,0,1-.442.7l0,0Z" fill="#7b9a2f"/>
      </g>
      <g id="Grupo_1675" data-name="Grupo 1675">
        <path id="Caminho_6605" data-name="Caminho 6605" d="M5054.09,497.6h0a5.148,5.148,0,0,1-.959.048l-.235-.014-.234-.027c-.076-.007-.153-.023-.228-.035s-.151-.024-.224-.042l-.219-.049c-.071-.018-.142-.039-.211-.057l-.1-.029-.1-.033-.2-.066c-.064-.023-.127-.048-.189-.072s-.124-.045-.182-.073l-.174-.076c-.028-.013-.056-.024-.083-.037l-.081-.041c-.106-.053-.208-.1-.3-.156s-.183-.1-.263-.151-.157-.1-.225-.14l-.185-.126c-.027-.019-.054-.036-.079-.054l-.067-.049-.107-.077c-.059-.04-.092-.06-.1-.055s.021.032.073.081c.026.025.059.055.1.09l.063.057.075.06.179.14c.067.05.142.1.222.156s.17.108.263.166.2.113.3.172l.082.044c.027.014.056.027.085.041l.176.084c.06.03.123.053.186.08s.128.054.195.079l.2.072.1.037.107.031c.071.021.144.044.218.064l.226.054c.076.02.154.032.232.047s.157.031.237.039l.242.03.246.017a5.069,5.069,0,0,0,1-.046h.006Z" fill="#7b9a2f"/>
      </g>
      <g id="Grupo_1676" data-name="Grupo 1676">
        <path id="Caminho_6606" data-name="Caminho 6606" d="M5051.785,494.325v0a4.083,4.083,0,0,0,.13-1.215l-.007-.143c0-.047-.009-.094-.013-.14l-.007-.068-.009-.068-.019-.132c-.016-.087-.031-.171-.049-.251s-.035-.158-.057-.232a4.33,4.33,0,0,0-.25-.688c-.018-.04-.036-.076-.052-.106l-.042-.076c-.024-.041-.04-.061-.046-.06s0,.025.009.068c.006.021.014.048.024.079s.023.067.035.107a7.019,7.019,0,0,1,.185.68c.017.072.028.147.043.225s.024.16.036.244l.014.127.006.066.005.066c0,.044.006.089.008.134l0,.138a4.252,4.252,0,0,1-.141,1.166v0Z" fill="#7b9a2f"/>
      </g>
      <g id="Grupo_1677" data-name="Grupo 1677">
        <path id="Caminho_6607" data-name="Caminho 6607" d="M5051.628,494.2h0a2.087,2.087,0,0,1-.607.032,2.758,2.758,0,0,1-.3-.041c-.1-.018-.2-.041-.291-.067a5.747,5.747,0,0,1-.993-.393c-.278-.138-.5-.26-.657-.34a.867.867,0,0,0-.251-.111c0,.011.073.071.22.17s.362.238.64.393a5.271,5.271,0,0,0,1.021.445q.15.045.309.078a2.882,2.882,0,0,0,.324.048,2.225,2.225,0,0,0,.666-.031h0Z" fill="#7b9a2f"/>
      </g>
    </g>
    <g id="Grupo_1686" data-name="Grupo 1686">
      <path id="Caminho_6608" data-name="Caminho 6608" d="M5080.867,512.7c-4.286-17.222-15.672-12.086-15.672-12.086S5061.4,511.245,5080.867,512.7Z" fill="#377d32"/>
      <path id="Caminho_6609" data-name="Caminho 6609" d="M5080.867,512.7l-.021-.082-.459-.265c-1.017-.586-1.811-1.419-2.834-2.009-3.433-1.982-10.333-7.852-12.389-9.635C5064.846,501.76,5062.473,511.325,5080.867,512.7Z" fill="#2a692d"/>
      <g id="Grupo_1679" data-name="Grupo 1679">
        <path id="Caminho_6610" data-name="Caminho 6610" d="M5064.548,500.321c.018.153.289.32.412.432q.63.574,1.278,1.136,1.241,1.075,2.531,2.109.754.606,1.521,1.2c1.847,1.43,3.553,2.674,5,3.706s2.622,1.854,3.443,2.416a11.993,11.993,0,0,0,1.3.845,11.614,11.614,0,0,0-1.2-.953c-.789-.6-1.939-1.447-3.357-2.5s-3.1-2.317-4.925-3.755c-1.712-1.348-3.387-2.733-4.988-4.177-.22-.2-.428-.423-.664-.606a.209.209,0,0,0-.35.119A.175.175,0,0,0,5064.548,500.321Z" fill="#7b9a2f"/>
      </g>
      <g id="Grupo_1680" data-name="Grupo 1680">
        <path id="Caminho_6611" data-name="Caminho 6611" d="M5066.906,502.284l0,0a5.536,5.536,0,0,0-.158.876l-.017.215-.006.212c0,.069,0,.139,0,.208s0,.137.008.2l.015.2c.006.065.015.13.023.194l.011.1.016.094.032.183c.012.06.026.119.038.177s.025.115.041.17c.032.111.057.217.092.318s.063.2.1.287.065.175.1.253.067.152.1.219l.092.181c.014.027.027.052.041.076l.039.066c.024.041.045.076.063.1.036.056.058.083.065.081s0-.033-.024-.092c-.011-.029-.025-.065-.043-.108l-.029-.068-.031-.078-.073-.182c-.025-.067-.05-.141-.079-.219s-.054-.163-.084-.252-.054-.184-.082-.283-.05-.2-.076-.312c-.014-.055-.022-.11-.033-.167s-.022-.114-.032-.173l-.025-.179-.013-.091-.009-.093c0-.062-.013-.126-.017-.19l-.01-.194c0-.066,0-.132,0-.2s0-.135,0-.2l.009-.206.019-.208a5.569,5.569,0,0,1,.158-.85v0Z" fill="#7b9a2f"/>
      </g>
      <g id="Grupo_1681" data-name="Grupo 1681">
        <path id="Caminho_6612" data-name="Caminho 6612" d="M5067.15,502.218h.006a7.88,7.88,0,0,1,1-.228l.248-.036.247-.026c.081-.01.163-.013.243-.019s.159-.012.239-.013l.234-.007c.078,0,.155,0,.23,0h.113l.111,0,.217.01.211.017c.069.006.137.01.2.019.133.017.261.028.382.05s.238.035.347.057.213.039.309.062.186.041.268.061l.225.057c.034.009.066.016.1.025l.083.023.132.035c.072.018.111.024.113.018s-.032-.024-.1-.053l-.127-.053-.082-.032c-.029-.011-.061-.021-.094-.032l-.224-.074c-.082-.026-.172-.05-.269-.077s-.2-.051-.312-.078-.229-.048-.353-.072-.255-.042-.391-.063c-.068-.011-.137-.017-.208-.025l-.216-.023-.223-.015-.115-.007-.115,0c-.078,0-.157-.005-.237-.005l-.242,0c-.082,0-.164.005-.247.009s-.167.008-.251.017l-.254.024-.256.036a7.347,7.347,0,0,0-1.034.231h-.006Z" fill="#7b9a2f"/>
      </g>
      <path id="Caminho_6613" data-name="Caminho 6613" d="M5077.4,504.985a3.505,3.505,0,0,0-2.5-1.5c-1.587-.111-2.878,1.277-1.993,2.58a4.5,4.5,0,0,0,1.1,1.007l2.473,1.816c.458.336,1.439,1.345,2.041,1.356,1.571.03.111-3.062-.212-3.745A8.13,8.13,0,0,0,5077.4,504.985Z" fill="#4c8134"/>
      <g id="Grupo_1682" data-name="Grupo 1682">
        <path id="Caminho_6614" data-name="Caminho 6614" d="M5070.408,504.976l0,0a3.617,3.617,0,0,0-.241.91l-.023.227-.006.225c0,.074,0,.148.007.221a1.858,1.858,0,0,0,.017.217l.027.213c.012.069.028.138.041.206l.021.1c.008.033.018.066.027.1l.054.193c.02.063.044.124.065.185s.04.12.067.177l.074.169c.012.027.023.055.037.081l.04.078c.054.1.1.2.161.292s.1.177.163.253.1.15.155.215l.144.173c.022.026.041.051.062.073l.06.061c.037.038.068.07.1.1.052.05.082.075.088.071s-.013-.035-.053-.092l-.078-.1-.05-.065c-.018-.023-.034-.049-.053-.075l-.125-.178c-.044-.066-.087-.139-.136-.216s-.094-.163-.144-.252-.094-.187-.142-.288l-.036-.077c-.012-.026-.021-.053-.032-.079l-.065-.165c-.024-.056-.039-.114-.059-.173s-.039-.118-.057-.179l-.046-.187c-.008-.032-.017-.064-.024-.1l-.017-.1c-.011-.065-.025-.131-.035-.2l-.022-.2a1.984,1.984,0,0,1-.012-.209c0-.07-.008-.142,0-.213l.008-.215.025-.218a3.624,3.624,0,0,1,.235-.869l0-.005Z" fill="#7b9a2f"/>
      </g>
      <g id="Grupo_1683" data-name="Grupo 1683">
        <path id="Caminho_6615" data-name="Caminho 6615" d="M5070.52,505.17l.006,0a5.572,5.572,0,0,1,.979-.356l.25-.06.25-.047c.082-.018.167-.025.249-.037s.163-.023.246-.028l.242-.019c.08,0,.16-.005.239-.008l.116,0c.039,0,.078,0,.116,0l.227,0,.22.014c.072.006.143.008.212.018l.2.024c.034,0,.067.007.1.012l.1.016c.127.022.248.039.362.066s.222.044.322.073.193.049.278.074l.232.071c.035.011.069.02.1.031l.086.03.136.045c.074.023.114.033.117.027s-.032-.027-.1-.061c-.034-.018-.078-.038-.13-.063l-.083-.038c-.03-.013-.063-.025-.1-.039l-.231-.088c-.085-.03-.179-.058-.28-.09s-.211-.059-.326-.09-.24-.054-.371-.08l-.1-.02-.1-.016-.21-.03c-.071-.012-.144-.017-.219-.024s-.15-.015-.227-.02l-.234-.01c-.04,0-.08,0-.12,0h-.121c-.082,0-.165,0-.248,0l-.252.016c-.085,0-.169.015-.255.025s-.174.018-.259.035l-.261.046-.261.061a5.562,5.562,0,0,0-1.021.367l-.006,0Z" fill="#7b9a2f"/>
      </g>
      <g id="Grupo_1684" data-name="Grupo 1684">
        <path id="Caminho_6616" data-name="Caminho 6616" d="M5073.961,507.836v0a4.46,4.46,0,0,0,.253,1.3l.053.147c.019.047.039.094.059.141l.028.069.032.067.062.131c.044.085.086.168.13.245s.087.153.134.222a4.76,4.76,0,0,0,.48.636c.031.035.061.066.087.092s.049.049.068.066c.038.035.061.051.067.048s0-.027-.031-.068c-.013-.02-.03-.045-.051-.074l-.07-.1a7.084,7.084,0,0,1-.409-.648c-.041-.069-.077-.143-.117-.219s-.076-.158-.116-.241l-.054-.129-.028-.065-.025-.068c-.017-.045-.035-.09-.052-.137l-.048-.142a4.69,4.69,0,0,1-.226-1.256v0Z" fill="#7b9a2f"/>
      </g>
      <g id="Grupo_1685" data-name="Grupo 1685">
        <path id="Caminho_6617" data-name="Caminho 6617" d="M5074.163,507.915l0,0a2.294,2.294,0,0,1,.619-.227,3.049,3.049,0,0,1,.327-.054c.108-.012.216-.02.323-.023a6.287,6.287,0,0,1,1.157.091c.333.054.6.11.791.143a.151.151,0,1,0,.013-.071c-.184-.056-.452-.132-.79-.2a5.688,5.688,0,0,0-1.2-.135c-.113,0-.229.006-.345.018a3.108,3.108,0,0,0-.353.053,2.442,2.442,0,0,0-.68.245l0,0Z" fill="#7b9a2f"/>
      </g>
    </g>
    <g id="Grupo_1687" data-name="Grupo 1687">
      <path id="Caminho_6618" data-name="Caminho 6618" d="M5077.149,487.7l0-.011a12.017,12.017,0,0,1-.478-2.06c-.025-.169-.042-.338-.061-.505s-.031-.333-.038-.5-.015-.328-.021-.49,0-.321,0-.479a13.12,13.12,0,0,1,.154-1.788,13.518,13.518,0,0,1,.334-1.535c.129-.464.27-.878.407-1.238s.265-.667.376-.917l.076-.177c.026-.056.049-.108.07-.157l.056-.135c.018-.042.033-.079.047-.114.053-.137.069-.218.043-.234s-.091.031-.195.139c-.025.027-.054.058-.084.092l-.094.117-.107.139c-.037.05-.074.105-.114.162a8.2,8.2,0,0,0-.527.882,10.6,10.6,0,0,0-.551,1.247,11.783,11.783,0,0,0-.461,1.594,12.226,12.226,0,0,0-.248,1.894c-.011.169-.012.339-.017.512s0,.348.008.524.017.355.028.535.032.362.056.544a11.742,11.742,0,0,0,.5,2.224l0,.012Z" fill="#7b9a2f"/>
    </g>
    <g id="Berry-4" data-name="Berry">
      <ellipse id="Elipse_620" data-name="Elipse 620" cx="6.61" cy="6.299" rx="6.61" ry="6.299" transform="matrix(0.729, -0.684, 0.684, 0.729, 5068.446, 476.222)" fill="#253f80"/>
      <path id="Caminho_6619" data-name="Caminho 6619" d="M5078.032,482.7a6.017,6.017,0,0,1-.9-.783,6.46,6.46,0,0,1,.514-9.116,6.788,6.788,0,0,1,3.853-1.806,6.535,6.535,0,0,0-8.236.709,6.459,6.459,0,0,0-.513,9.116A6.188,6.188,0,0,0,5078.032,482.7Z" fill="#203b79"/>
      <path id="Caminho_6620" data-name="Caminho 6620" d="M5077.2,482.742a6.056,6.056,0,0,1-2.9-1.72,6.46,6.46,0,0,1,.514-9.116,6.753,6.753,0,0,1,4.684-1.851,6.677,6.677,0,0,0-6.228,1.646,6.459,6.459,0,0,0-.513,9.116A6.135,6.135,0,0,0,5077.2,482.742Z" fill="#223467"/>
      <g id="Grupo_1688" data-name="Grupo 1688">
        <path id="Caminho_6621" data-name="Caminho 6621" d="M5078.814,472.411c-.007.251.1.755-.162.9-.291.16-.687.063-.977.252a.411.411,0,0,0-.179.5c.232.442,1.1-.067.991.654-.046.311-.755.745-.219,1.05.286.162.617-.124.8-.331a2.316,2.316,0,0,1,.318-.348c.222-.165.4-.071.594.068a.6.6,0,0,0,.617.125.543.543,0,0,0,.136-.627,1.579,1.579,0,0,1-.15-.669c.063-.422.5-.68.541-1.131.019-.233-.1-.544-.374-.539-.3,0-.382.41-.672.438-.5.046-.351-.8-.8-.9C5078.926,471.775,5078.822,472.111,5078.814,472.411Z" fill="#223261"/>
        <path id="Caminho_6622" data-name="Caminho 6622" d="M5078.853,472.5c-.007.235.09.708-.152.841-.273.15-.645.06-.917.237a.385.385,0,0,0-.168.472c.217.415,1.03-.062.93.614-.043.292-.709.7-.206.985.269.153.58-.116.752-.31a2.211,2.211,0,0,1,.3-.326c.208-.155.374-.067.557.063a.556.556,0,0,0,.579.118.508.508,0,0,0,.128-.589,1.476,1.476,0,0,1-.141-.628c.06-.4.475-.638.508-1.062.018-.218-.1-.51-.351-.506-.28,0-.358.386-.631.411-.464.044-.329-.754-.747-.845C5078.958,471.906,5078.861,472.222,5078.853,472.5Z" fill="#1f294e"/>
      </g>
      <g id="Grupo_1689" data-name="Grupo 1689">
        <ellipse id="Elipse_621" data-name="Elipse 621" cx="0.956" cy="0.748" rx="0.956" ry="0.748" transform="translate(5078.345 474.334) rotate(-59.481)" fill="#1c2544"/>
        <path id="Caminho_6623" data-name="Caminho 6623" d="M5079.433,473.238a.664.664,0,0,1,.72.8,1.041,1.041,0,0,1-.063.279,1.145,1.145,0,0,0,.188-.528.663.663,0,0,0-.72-.8,1.081,1.081,0,0,0-.822.723A1.019,1.019,0,0,1,5079.433,473.238Z" fill="#222f5c"/>
        <ellipse id="Elipse_622" data-name="Elipse 622" cx="0.36" cy="0.282" rx="0.36" ry="0.282" transform="matrix(0.508, -0.861, 0.861, 0.508, 5079.05, 474.057)" fill="#1b213d"/>
      </g>
      <path id="Caminho_6624" data-name="Caminho 6624" d="M5083.238,475.891a.166.166,0,0,0-.276.016.682.682,0,0,0-.089.4,5.171,5.171,0,0,1-.046.584,2.838,2.838,0,0,1-.25.8c-.184.379-.57.591-.814.92-.23.309-.082.808.364.728a1.51,1.51,0,0,0,1.007-1,3.3,3.3,0,0,0,.262-.91,4.819,4.819,0,0,0,.04-.805A1.156,1.156,0,0,0,5083.238,475.891Z" fill="#8e9cc2" opacity="0.5"/>
    </g>
    <g id="Grupo_1697" data-name="Grupo 1697">
      <path id="Caminho_6625" data-name="Caminho 6625" d="M5068.553,471.759c-8.367,15.65,3.524,19.474,3.524,19.474S5082.024,485.891,5068.553,471.759Z" fill="#377d32"/>
      <path id="Caminho_6626" data-name="Caminho 6626" d="M5068.553,471.759l-.04.074.164.5c.361,1.117.392,2.267.755,3.392,1.218,3.772,2.4,12.753,2.731,15.454C5073.106,490.615,5081.279,485.11,5068.553,471.759Z" fill="#2a692d"/>
      <g id="Grupo_1690" data-name="Grupo 1690">
        <path id="Caminho_6627" data-name="Caminho 6627" d="M5072.362,491.882c.089-.125,0-.431-.016-.6q-.084-.849-.187-1.7c-.132-1.086-.289-2.174-.463-3.262q-.155-.954-.325-1.909c-.412-2.3-.843-4.366-1.222-6.1s-.7-3.134-.934-4.1a12.276,12.276,0,0,0-.4-1.5,11.622,11.622,0,0,0,.249,1.51c.186.971.468,2.374.812,4.107s.746,3.8,1.137,6.089c.366,2.148.68,4.3.9,6.443.03.294.033.6.086.9a.208.208,0,0,0,.339.146A.146.146,0,0,0,5072.362,491.882Z" fill="#7b9a2f"/>
      </g>
      <g id="Grupo_1691" data-name="Grupo 1691">
        <path id="Caminho_6628" data-name="Caminho 6628" d="M5071.928,488.846l0,0a5.448,5.448,0,0,0,.7-.544l.157-.147.146-.153c.05-.05.094-.1.139-.156s.09-.1.131-.156l.123-.158c.039-.053.076-.108.114-.16l.055-.079.051-.08.1-.157c.031-.052.061-.105.09-.157s.059-.1.084-.153c.051-.1.1-.2.145-.3s.085-.188.118-.279.069-.174.1-.257.052-.157.073-.227l.053-.2c.008-.029.015-.057.021-.084l.016-.075c.009-.047.016-.087.022-.119.01-.065.012-.1.006-.1s-.022.026-.045.085c-.011.029-.024.065-.04.109l-.024.07-.029.078-.069.185c-.025.067-.056.138-.087.215s-.069.157-.107.243-.083.173-.129.265-.1.185-.153.283c-.026.05-.057.1-.087.146s-.06.1-.092.149l-.1.15-.051.076-.056.075c-.038.05-.075.1-.114.153l-.123.15c-.041.052-.086.1-.131.15s-.088.1-.137.149l-.145.146-.154.142a5.594,5.594,0,0,1-.687.524l0,0Z" fill="#7b9a2f"/>
      </g>
      <g id="Grupo_1692" data-name="Grupo 1692">
        <path id="Caminho_6629" data-name="Caminho 6629" d="M5071.7,488.73l0,0a7.932,7.932,0,0,1-.9-.5l-.208-.14-.2-.146c-.067-.046-.13-.1-.194-.148s-.126-.1-.186-.151l-.178-.152c-.058-.052-.114-.105-.17-.156l-.082-.076c-.027-.025-.054-.052-.08-.078l-.154-.153c-.05-.051-.1-.1-.145-.154s-.1-.1-.138-.15c-.087-.1-.175-.2-.251-.293s-.153-.185-.218-.276-.133-.171-.188-.252-.111-.155-.158-.225l-.128-.194c-.02-.029-.039-.056-.055-.082l-.046-.073q-.043-.069-.075-.114c-.041-.062-.066-.093-.071-.09s.007.04.038.108l.06.124.039.079c.014.027.031.056.048.087l.116.205c.044.074.095.152.149.238s.115.172.179.266.138.19.214.291.16.2.247.308c.043.054.091.1.138.158s.1.108.145.162l.155.161.08.082.084.08c.056.054.113.109.172.163l.181.16c.061.055.125.1.19.158s.129.107.2.156l.205.153.214.145a7.542,7.542,0,0,0,.922.522l0,0Z" fill="#7b9a2f"/>
      </g>
      <path id="Caminho_6630" data-name="Caminho 6630" d="M5065.952,479.8a3.508,3.508,0,0,0,.849,2.793c1.1,1.146,2.992.982,3.209-.578a4.509,4.509,0,0,0-.139-1.484l-.618-3c-.114-.557-.165-1.963-.6-2.376-1.146-1.075-2.136,2.2-2.355,2.922A8.147,8.147,0,0,0,5065.952,479.8Z" fill="#4c8134"/>
      <g id="Grupo_1693" data-name="Grupo 1693">
        <path id="Caminho_6631" data-name="Caminho 6631" d="M5071.135,484.5l.005,0a3.644,3.644,0,0,0,.789-.514l.169-.153.155-.163a2.215,2.215,0,0,0,.144-.169,2.109,2.109,0,0,0,.133-.172l.122-.176c.038-.06.072-.121.108-.18l.052-.089c.017-.03.031-.061.047-.092l.089-.179c.027-.06.051-.122.076-.181s.05-.116.069-.177l.058-.174c.009-.029.02-.056.027-.085l.023-.085c.028-.113.059-.219.076-.325s.041-.2.049-.3.023-.182.029-.264l.009-.225c0-.034,0-.065,0-.1l0-.085c0-.053,0-.1-.007-.134-.006-.072-.012-.111-.018-.112s-.014.035-.022.1c0,.034-.008.077-.012.128l-.006.082c0,.029-.008.06-.011.092l-.027.216c-.011.078-.028.161-.044.251s-.04.184-.062.283-.056.2-.088.309l-.024.081c-.009.027-.02.054-.03.081l-.062.165c-.02.058-.047.111-.072.168s-.051.114-.078.172l-.091.17c-.016.028-.031.058-.047.086l-.053.084c-.035.056-.07.115-.107.171l-.121.167c-.039.057-.086.109-.131.163a2.037,2.037,0,0,1-.141.159l-.15.155-.165.144a3.562,3.562,0,0,1-.757.488l0,0Z" fill="#7b9a2f"/>
      </g>
      <g id="Grupo_1694" data-name="Grupo 1694">
        <path id="Caminho_6632" data-name="Caminho 6632" d="M5071.182,484.281l-.006,0a5.609,5.609,0,0,1-.965-.392l-.226-.123-.217-.133c-.073-.042-.141-.093-.209-.14s-.137-.092-.2-.144l-.192-.148c-.063-.051-.122-.1-.182-.154l-.089-.076-.085-.079-.165-.155c-.053-.053-.1-.107-.154-.158s-.1-.1-.145-.156l-.136-.154c-.022-.026-.044-.05-.065-.076l-.061-.076c-.08-.1-.158-.2-.225-.292s-.135-.182-.189-.27-.111-.166-.157-.241l-.125-.209c-.018-.031-.037-.061-.053-.089l-.043-.08c-.027-.049-.051-.091-.071-.124-.039-.067-.062-.1-.068-.1s.006.041.034.114c.014.036.032.08.055.133l.036.085c.013.03.03.061.046.094l.112.22c.043.08.095.164.148.255s.117.185.182.285.142.2.221.308l.06.081c.02.027.043.053.065.08l.135.163c.045.057.1.109.146.165l.155.167.168.164c.028.028.056.057.086.084l.09.08c.062.054.123.11.186.164l.2.156c.066.055.137.1.207.153s.141.1.216.147l.224.141.234.13a5.646,5.646,0,0,0,1,.413h.006Z" fill="#7b9a2f"/>
      </g>
      <g id="Grupo_1695" data-name="Grupo 1695">
        <path id="Caminho_6633" data-name="Caminho 6633" d="M5070.417,480l0,0a4.428,4.428,0,0,0,.686-1.136l.059-.144c.018-.048.034-.1.051-.144l.025-.07.022-.071.042-.139c.024-.093.048-.182.067-.27s.038-.171.05-.254a4.727,4.727,0,0,0,.07-.793c0-.047,0-.09,0-.128s0-.068-.006-.094c0-.051-.011-.078-.018-.08s-.014.023-.022.071c0,.024-.008.054-.012.089s-.009.076-.016.121a7.025,7.025,0,0,1-.13.755c-.015.079-.039.158-.06.242s-.05.167-.076.256l-.046.131-.023.068-.026.067c-.018.045-.035.091-.054.136l-.06.137a4.686,4.686,0,0,1-.674,1.084l0,0Z" fill="#7b9a2f"/>
      </g>
      <g id="Grupo_1696" data-name="Grupo 1696">
        <path id="Caminho_6634" data-name="Caminho 6634" d="M5070.32,479.8h0a2.344,2.344,0,0,1-.612-.247,3.241,3.241,0,0,1-.278-.179c-.089-.064-.174-.131-.255-.2a6.188,6.188,0,0,1-.8-.843c-.211-.263-.375-.486-.492-.636s-.185-.232-.2-.224a.969.969,0,0,0,.138.268c.1.164.248.4.451.68a5.612,5.612,0,0,0,.8.907c.084.076.174.149.268.219a3.353,3.353,0,0,0,.3.2,2.44,2.44,0,0,0,.67.274h0Z" fill="#7b9a2f"/>
      </g>
    </g>
    <g id="Grupo_1705" data-name="Grupo 1705">
      <path id="Caminho_6635" data-name="Caminho 6635" d="M5079.04,456.543c-2.265,14.347,7.956,14.109,7.956,14.109S5093.251,463.851,5079.04,456.543Z" fill="#377d32"/>
      <path id="Caminho_6636" data-name="Caminho 6636" d="M5079.04,456.543l-.01.068.261.346c.58.766.913,1.647,1.5,2.419,1.955,2.589,5.283,9.215,6.263,11.215C5087.625,469.9,5092.465,463.447,5079.04,456.543Z" fill="#2a692d"/>
      <g id="Grupo_1698" data-name="Grupo 1698">
        <path id="Caminho_6637" data-name="Caminho 6637" d="M5087.39,471.078c.035-.121-.116-.333-.172-.457q-.292-.635-.6-1.264-.593-1.206-1.235-2.4-.375-.7-.764-1.389c-.936-1.667-1.824-3.149-2.582-4.388s-1.385-2.234-1.824-2.919a9.866,9.866,0,0,0-.711-1.052,9.615,9.615,0,0,0,.6,1.1c.4.7,1,1.71,1.731,2.958s1.6,2.735,2.514,4.4c.86,1.563,1.681,3.14,2.426,4.74.1.219.187.455.307.668a.171.171,0,0,0,.3.022A.088.088,0,0,0,5087.39,471.078Z" fill="#7b9a2f"/>
      </g>
      <g id="Grupo_1699" data-name="Grupo 1699">
        <path id="Caminho_6638" data-name="Caminho 6638" d="M5086.24,468.847l0,0a4.63,4.63,0,0,0,.4-.61l.081-.156.072-.158c.025-.051.045-.105.066-.157s.042-.1.059-.157l.053-.155c.016-.051.03-.1.045-.154l.021-.075.018-.076.035-.148c.01-.049.018-.1.027-.146s.018-.094.023-.141c.012-.093.027-.182.032-.269s.016-.168.017-.248.007-.153,0-.223,0-.136,0-.2l-.012-.166c0-.025,0-.049-.006-.071l-.008-.062c-.006-.039-.011-.071-.015-.1-.01-.053-.017-.081-.023-.082s-.01.026-.012.077c0,.026,0,.058,0,.1v.061l0,.068,0,.162c0,.058-.006.121-.009.19s-.011.139-.018.216-.017.156-.028.24-.028.169-.043.26c-.006.045-.018.09-.028.136s-.02.093-.031.14l-.038.143-.02.073-.023.073c-.015.049-.03.1-.047.148l-.055.15c-.017.051-.039.1-.06.151s-.041.1-.066.151l-.073.153-.081.15a4.584,4.584,0,0,1-.39.591l0,0Z" fill="#7b9a2f"/>
      </g>
      <g id="Grupo_1700" data-name="Grupo 1700">
        <path id="Caminho_6639" data-name="Caminho 6639" d="M5086.034,468.818h0a6.194,6.194,0,0,1-.827-.148l-.2-.051-.194-.059c-.064-.018-.127-.042-.189-.063s-.124-.042-.184-.067l-.179-.07c-.059-.024-.116-.05-.173-.074l-.084-.037-.083-.039-.16-.077c-.053-.026-.1-.054-.154-.08s-.1-.051-.147-.079c-.094-.055-.187-.1-.272-.159s-.168-.1-.243-.154-.149-.1-.213-.146l-.183-.131-.151-.115-.064-.049-.056-.044-.088-.068c-.048-.037-.076-.054-.079-.05s.016.028.059.072c.021.022.047.049.079.08l.051.051.061.054.145.128c.054.045.114.092.178.144s.136.1.211.157.157.11.243.168.178.112.274.171c.048.031.1.057.149.086l.155.086.164.083.084.042.086.039.176.08.184.075c.061.026.125.048.189.071s.128.048.194.068l.2.063.2.055a6.268,6.268,0,0,0,.853.156h0Z" fill="#7b9a2f"/>
      </g>
      <path id="Caminho_6640" data-name="Caminho 6640" d="M5079.19,463.461a2.873,2.873,0,0,0,1.406,1.931c1.161.59,2.578-.045,2.327-1.309a3.7,3.7,0,0,0-.507-1.11l-1.284-2.157c-.238-.4-.655-1.473-1.106-1.674-1.175-.524-1.06,2.273-1.035,2.891A6.642,6.642,0,0,0,5079.19,463.461Z" fill="#4c8134"/>
      <g id="Grupo_1701" data-name="Grupo 1701">
        <path id="Caminho_6641" data-name="Caminho 6641" d="M5084.459,465.7l0,0a2.95,2.95,0,0,0,.472-.609l.09-.164.076-.168c.027-.054.044-.113.066-.169a1.708,1.708,0,0,0,.056-.169l.047-.168c.014-.057.024-.114.035-.169l.017-.083c0-.027.007-.055.011-.083l.021-.163c0-.054.007-.107.01-.16a1.5,1.5,0,0,0,.006-.155l0-.15c0-.025,0-.049,0-.073l-.005-.072a2.69,2.69,0,0,0-.029-.271c-.013-.086-.022-.167-.041-.243s-.031-.147-.049-.211l-.053-.177c-.008-.026-.015-.051-.024-.075l-.025-.065c-.016-.04-.03-.074-.041-.1-.024-.054-.039-.083-.044-.082s0,.031.011.087c.006.027.015.062.025.1l.017.065c.006.023.011.048.016.074l.038.174c.012.064.021.132.034.206s.018.153.027.236.011.171.015.262l0,.069c0,.024,0,.047,0,.071l0,.145c0,.049-.006.1-.01.149s-.009.1-.015.153l-.024.156c0,.026-.008.053-.013.08l-.018.079c-.013.052-.024.107-.038.161l-.048.161c-.015.055-.038.107-.058.161a1.618,1.618,0,0,1-.066.161l-.075.16-.088.156a2.978,2.978,0,0,1-.454.581l0,0Z" fill="#7b9a2f"/>
      </g>
      <g id="Grupo_1702" data-name="Grupo 1702">
        <path id="Caminho_6642" data-name="Caminho 6642" d="M5084.436,465.518h0a4.462,4.462,0,0,1-.851-.044l-.208-.034-.2-.045c-.067-.013-.133-.034-.2-.051s-.131-.035-.194-.058l-.189-.063c-.062-.022-.122-.047-.182-.07l-.089-.034-.087-.039-.169-.076c-.055-.026-.109-.054-.162-.081s-.1-.051-.154-.081l-.146-.083c-.024-.014-.048-.026-.071-.041l-.067-.043c-.089-.056-.175-.108-.253-.165s-.153-.1-.219-.157-.13-.1-.186-.145l-.152-.128-.065-.054-.055-.05c-.034-.031-.064-.057-.088-.078-.048-.041-.076-.061-.08-.058s.016.031.057.079c.021.024.047.054.078.088l.051.056c.019.02.04.039.061.061l.146.14c.055.05.117.1.183.157s.14.112.217.172.164.117.253.179l.069.046.071.044.149.09c.05.032.1.059.157.088s.108.059.165.088l.173.082.089.042.092.037c.062.025.124.052.188.076l.195.069c.065.024.133.042.2.062s.136.042.206.056l.211.049.216.037a4.447,4.447,0,0,0,.887.049h0Z" fill="#7b9a2f"/>
      </g>
      <g id="Grupo_1703" data-name="Grupo 1703">
        <path id="Caminho_6643" data-name="Caminho 6643" d="M5082.694,462.411v0a3.613,3.613,0,0,0,.225-1.063l.007-.127c0-.042,0-.084,0-.125v-.061l0-.061,0-.119c-.007-.078-.011-.153-.02-.226s-.017-.143-.03-.21a3.829,3.829,0,0,0-.159-.632c-.012-.037-.025-.07-.036-.1s-.022-.052-.031-.071c-.017-.038-.029-.058-.035-.057s0,.022,0,.061c0,.019.008.043.014.072s.014.061.021.1a5.9,5.9,0,0,1,.1.618c.009.065.012.133.019.2s.006.143.009.219V461l0,.059c0,.039,0,.079,0,.12l-.01.122a3.808,3.808,0,0,1-.23,1.019v0Z" fill="#7b9a2f"/>
      </g>
      <g id="Grupo_1704" data-name="Grupo 1704">
        <path id="Caminho_6644" data-name="Caminho 6644" d="M5082.567,462.286h0a1.852,1.852,0,0,1-.54-.026,2.354,2.354,0,0,1-.263-.064c-.086-.025-.17-.054-.251-.086a5.075,5.075,0,0,1-.843-.437c-.234-.147-.42-.275-.551-.36s-.205-.13-.211-.121.057.069.178.17.3.244.531.406a4.72,4.72,0,0,0,.863.486c.086.035.175.068.267.1a2.383,2.383,0,0,0,.282.073,1.987,1.987,0,0,0,.591.032h0Z" fill="#7b9a2f"/>
      </g>
    </g>
    <g id="Grupo_1713" data-name="Grupo 1713">
      <path id="Caminho_6645" data-name="Caminho 6645" d="M5096.156,443.794c-12.994,9.511-4.771,17.312-4.771,17.312S5101.619,460.646,5096.156,443.794Z" fill="#377d32"/>
      <path id="Caminho_6646" data-name="Caminho 6646" d="M5096.156,443.794l-.062.046-.065.476c-.143,1.055-.569,2.008-.714,3.071-.487,3.563-3.048,11.374-3.841,13.712C5092.469,461.005,5101.317,459.715,5096.156,443.794Z" fill="#2a692d"/>
      <g id="Grupo_1706" data-name="Grupo 1706">
        <path id="Caminho_6647" data-name="Caminho 6647" d="M5091.362,461.749c.122-.068.17-.353.221-.494.178-.485.349-.973.516-1.463.319-.941.618-1.892.9-2.85q.249-.841.485-1.69c.566-2.042,1.026-3.9,1.4-5.468s.657-2.839.848-3.721a10.888,10.888,0,0,0,.263-1.382,10.521,10.521,0,0,0-.389,1.333c-.23.867-.55,2.125-.95,3.678s-.883,3.4-1.464,5.426c-.544,1.9-1.132,3.783-1.795,5.624-.091.252-.209.5-.282.765a.189.189,0,0,0,.22.253A.077.077,0,0,0,5091.362,461.749Z" fill="#7b9a2f"/>
      </g>
      <g id="Grupo_1707" data-name="Grupo 1707">
        <path id="Caminho_6648" data-name="Caminho 6648" d="M5092.2,459.1h0a4.948,4.948,0,0,0,.789-.168l.187-.059.18-.068c.059-.021.117-.048.174-.072s.114-.049.169-.077l.163-.081c.053-.028.1-.058.155-.086l.076-.042.074-.046.142-.089c.047-.031.091-.063.136-.093s.087-.06.128-.093c.082-.064.163-.122.236-.186s.144-.121.206-.182.125-.115.179-.173.1-.108.149-.157l.121-.14.05-.06.042-.056c.026-.035.048-.064.065-.089.034-.049.05-.077.046-.082s-.028.013-.07.052c-.021.019-.046.043-.075.073l-.047.048-.055.052-.129.124c-.047.045-.1.091-.156.142s-.118.1-.183.157-.136.109-.21.166-.154.112-.236.171c-.041.031-.085.057-.129.085s-.088.058-.134.086l-.141.083-.073.042-.075.039c-.05.026-.1.054-.153.08l-.16.075c-.054.026-.109.048-.165.071s-.113.048-.171.068l-.176.063-.182.055a5.07,5.07,0,0,1-.768.159h0Z" fill="#7b9a2f"/>
      </g>
      <g id="Grupo_1708" data-name="Grupo 1708">
        <path id="Caminho_6649" data-name="Caminho 6649" d="M5092.062,458.912l0,0a7.017,7.017,0,0,1-.534-.762l-.116-.2-.106-.2c-.037-.064-.067-.132-.1-.2s-.065-.13-.093-.2l-.086-.2c-.027-.064-.052-.129-.078-.193l-.038-.1c-.011-.032-.022-.064-.034-.1l-.066-.186c-.02-.062-.039-.123-.058-.183s-.039-.118-.054-.177c-.031-.117-.066-.228-.09-.338s-.052-.212-.07-.311-.041-.192-.054-.281-.03-.17-.041-.246l-.029-.208c0-.031-.009-.061-.013-.089l-.009-.078c-.005-.049-.011-.09-.015-.123-.01-.066-.018-.1-.024-.1s-.009.036-.01.1c0,.034,0,.076,0,.125l0,.08c0,.028,0,.058.005.09l.014.213c.007.078.018.162.028.253s.026.187.042.289.038.209.06.321.053.228.082.349c.014.061.033.122.05.184s.036.125.055.189l.064.193c.011.033.021.066.033.1l.037.1c.025.066.05.133.076.2l.086.2c.028.069.061.135.093.2s.063.138.1.2l.108.205.118.2a6.979,6.979,0,0,0,.548.79l0,0Z" fill="#7b9a2f"/>
      </g>
      <path id="Caminho_6650" data-name="Caminho 6650" d="M5090.867,449.351a3.182,3.182,0,0,0-.4,2.618c.451,1.371,2.061,1.979,2.852.789a4.114,4.114,0,0,0,.469-1.269l.675-2.7c.126-.5.637-1.67.44-2.18-.515-1.33-2.611.958-3.074,1.464A7.415,7.415,0,0,0,5090.867,449.351Z" fill="#4c8134"/>
      <g id="Grupo_1709" data-name="Grupo 1709">
        <path id="Caminho_6651" data-name="Caminho 6651" d="M5093.26,455.23h.005a3.228,3.228,0,0,0,.847-.11l.2-.058.191-.073c.063-.021.123-.054.183-.081s.121-.055.177-.089l.169-.1c.054-.034.107-.07.159-.1l.078-.052.074-.056.143-.112c.046-.039.09-.08.133-.118s.087-.076.126-.118l.116-.12c.019-.019.038-.038.056-.058l.052-.061c.068-.081.134-.156.189-.235s.113-.149.157-.224.09-.139.127-.2l.1-.18c.014-.028.028-.053.039-.078l.031-.071c.019-.044.035-.081.047-.112.025-.061.035-.1.03-.1s-.026.023-.059.077c-.017.026-.037.06-.06.1l-.037.065c-.014.022-.03.045-.046.07l-.106.166c-.04.06-.087.121-.135.189s-.1.134-.162.207-.125.143-.193.218l-.052.056c-.018.019-.037.036-.056.055l-.116.111c-.039.039-.082.072-.125.109s-.086.073-.131.109l-.141.1c-.024.018-.048.036-.073.053l-.076.048c-.051.032-.1.066-.155.1l-.164.088c-.055.032-.113.055-.171.082a1.867,1.867,0,0,1-.178.075l-.184.068-.191.053a3.279,3.279,0,0,1-.811.1h-.005Z" fill="#7b9a2f"/>
      </g>
      <g id="Grupo_1710" data-name="Grupo 1710">
        <path id="Caminho_6652" data-name="Caminho 6652" d="M5093.384,455.069l0,0a5.067,5.067,0,0,1-.636-.7l-.136-.189-.125-.2c-.043-.062-.079-.131-.117-.2s-.076-.129-.108-.2l-.1-.2c-.031-.066-.059-.133-.088-.2l-.043-.1c-.014-.033-.026-.066-.039-.1l-.074-.192c-.022-.064-.042-.128-.063-.19s-.043-.123-.058-.184l-.05-.18c-.008-.029-.017-.058-.024-.087l-.019-.087c-.026-.114-.053-.222-.07-.327s-.039-.2-.049-.3-.025-.179-.033-.259l-.02-.22c0-.033-.007-.064-.008-.093l0-.083c0-.051,0-.094-.008-.129-.006-.07-.012-.108-.018-.108s-.011.036-.016.107c0,.035,0,.078-.008.13l0,.084c0,.029,0,.061,0,.1l.005.224c0,.082.013.171.021.267s.023.2.037.3.037.221.059.339l.018.09c.006.03.014.06.021.09l.047.187c.014.064.036.127.055.192s.039.131.061.2l.072.2c.012.034.024.068.038.1l.042.1c.029.068.057.137.088.206l.1.206c.033.071.072.137.109.206s.075.14.119.206l.128.2.141.2a4.941,4.941,0,0,0,.659.732l0,0Z" fill="#7b9a2f"/>
      </g>
      <g id="Grupo_1711" data-name="Grupo 1711">
        <path id="Caminho_6653" data-name="Caminho 6653" d="M5094.443,451.263h0a4.05,4.05,0,0,0,1.007-.659l.1-.1.1-.1.048-.048.046-.049.089-.1c.056-.067.111-.13.161-.194s.1-.126.141-.188a4.356,4.356,0,0,0,.369-.621c.019-.039.035-.075.048-.106s.023-.058.031-.08c.016-.043.022-.068.017-.072s-.02.013-.046.049l-.045.068c-.017.028-.036.059-.06.093a6.461,6.461,0,0,1-.4.567c-.044.058-.094.113-.144.173s-.107.118-.163.18l-.089.09-.046.046-.047.044-.1.091-.1.088a4.217,4.217,0,0,1-.977.622h0Z" fill="#7b9a2f"/>
      </g>
      <g id="Grupo_1712" data-name="Grupo 1712">
        <path id="Caminho_6654" data-name="Caminho 6654" d="M5094.44,451.066l0,0a2.069,2.069,0,0,1-.4-.442,2.471,2.471,0,0,1-.157-.256c-.048-.087-.092-.175-.131-.264a5.657,5.657,0,0,1-.32-1c-.07-.3-.116-.545-.152-.714a.9.9,0,0,0-.072-.26.81.81,0,0,0,.007.273c.017.174.045.426.1.734a5.149,5.149,0,0,0,.3,1.056,3,3,0,0,0,.134.285,2.9,2.9,0,0,0,.165.278,2.171,2.171,0,0,0,.44.487l0,0Z" fill="#7b9a2f"/>
      </g>
    </g>
    <g id="Grupo_1714" data-name="Grupo 1714">
      <path id="Caminho_6655" data-name="Caminho 6655" d="M5088.04,470.837l.01-.005a36.762,36.762,0,0,0,3.2-1.943l.351-.241.338-.24c.222-.157.433-.317.639-.468.407-.309.781-.6,1.116-.879.669-.554,1.188-1.028,1.531-1.372s.514-.554.484-.588-.259.109-.651.39-.952.7-1.651,1.2c-.349.251-.735.519-1.151.8-.21.14-.424.289-.649.435l-.341.224-.354.227c-.954.61-2.025,1.247-3.174,1.869l-.01.005Z" fill="#7b9a2f"/>
    </g>
    <g id="Berry-5" data-name="Berry">
      <ellipse id="Elipse_623" data-name="Elipse 623" cx="5.581" cy="5.319" rx="5.581" ry="5.319" transform="matrix(0.055, -0.998, 0.998, 0.055, 5092.615, 471.055)" fill="#253f80"/>
      <path id="Caminho_6656" data-name="Caminho 6656" d="M5102.244,469.419a5.059,5.059,0,0,1-1,.044,5.455,5.455,0,0,1-5-5.866,5.734,5.734,0,0,1,1.3-3.35,5.52,5.52,0,0,0-4.616,5.236,5.456,5.456,0,0,0,5,5.866A5.228,5.228,0,0,0,5102.244,469.419Z" fill="#203b79"/>
      <path id="Caminho_6657" data-name="Caminho 6657" d="M5101.763,469.931a5.107,5.107,0,0,1-2.776.643,5.455,5.455,0,0,1-5-5.866,5.7,5.7,0,0,1,1.782-3.862,5.639,5.639,0,0,0-2.844,4.637,5.456,5.456,0,0,0,5,5.866A5.183,5.183,0,0,0,5101.763,469.931Z" fill="#223467"/>
      <path id="Caminho_6658" data-name="Caminho 6658" d="M5099.707,465.132c.142.157.5.4.424.642-.085.267-.382.439-.45.724a.346.346,0,0,0,.185.411c.4.135.63-.68.986-.178.153.216-.027.9.478.769.269-.068.3-.436.3-.669a1.907,1.907,0,0,1-.009-.4c.039-.23.2-.276.4-.305s.4-.1.45-.284-.113-.366-.283-.462a1.332,1.332,0,0,1-.481-.321c-.208-.294-.089-.71-.33-1.006-.124-.153-.38-.272-.543-.111-.18.177.007.473-.155.659-.275.317-.682-.286-1.011-.085C5099.4,464.678,5099.536,464.944,5099.707,465.132Z" fill="#223261"/>
      <path id="Caminho_6659" data-name="Caminho 6659" d="M5099.784,465.166c.134.148.469.38.4.6-.08.25-.359.412-.422.679a.325.325,0,0,0,.173.386c.374.127.592-.639.926-.168.144.2-.026.841.448.722.253-.063.287-.409.279-.628a1.8,1.8,0,0,1-.009-.373c.037-.216.19-.259.378-.287s.376-.1.422-.265-.106-.345-.265-.435a1.234,1.234,0,0,1-.452-.3c-.2-.276-.083-.666-.309-.944-.117-.144-.357-.255-.51-.105-.169.166.006.445-.146.619-.258.3-.64-.268-.949-.08C5099.5,464.74,5099.625,464.989,5099.784,465.166Z" fill="#1f294e"/>
      <ellipse id="Elipse_624" data-name="Elipse 624" cx="0.58" cy="0.833" rx="0.58" ry="0.833" transform="translate(5100.12 465.071) rotate(-22.533)" fill="#1c2544"/>
      <path id="Caminho_6660" data-name="Caminho 6660" d="M5101.052,465.071a1.1,1.1,0,0,1,.381,1.113.562.562,0,0,1-.09.18.5.5,0,0,0,.22-.3,1.1,1.1,0,0,0-.381-1.112.475.475,0,0,0-.705.035A.513.513,0,0,1,5101.052,465.071Z" fill="#222f5c"/>
      <path id="Caminho_6661" data-name="Caminho 6661" d="M5101.053,465.369a.415.415,0,0,1,.144.419.178.178,0,0,1-.3.081.416.416,0,0,1-.144-.419A.178.178,0,0,1,5101.053,465.369Z" fill="#1b213d"/>
      <path id="Caminho_6662" data-name="Caminho 6662" d="M5101.454,462.227a.14.14,0,0,0-.159.171.569.569,0,0,0,.177.294,4.509,4.509,0,0,1,.313.384,2.387,2.387,0,0,1,.313.634,5.443,5.443,0,0,1,.039,1.037c.041.322.422.54.648.231a1.28,1.28,0,0,0,.033-1.2,2.826,2.826,0,0,0-.371-.709,4.157,4.157,0,0,0-.445-.514A.981.981,0,0,0,5101.454,462.227Z" fill="#8e9cc2" opacity="0.5"/>
    </g>
    <g id="Grupo_1722" data-name="Grupo 1722">
      <path id="Caminho_6663" data-name="Caminho 6663" d="M5105.277,475.969c-9.559-12.8-17.22-4.57-17.22-4.57S5088.61,481.547,5105.277,475.969Z" fill="#377d32"/>
      <path id="Caminho_6664" data-name="Caminho 6664" d="M5105.277,475.969l-.046-.061-.473-.06c-1.049-.132-2-.546-3.053-.68-3.54-.449-11.312-2.916-13.64-3.68C5088.168,472.474,5089.532,481.239,5105.277,475.969Z" fill="#2a692d"/>
      <g id="Grupo_1715" data-name="Grupo 1715">
        <path id="Caminho_6665" data-name="Caminho 6665" d="M5087.42,471.383c.068.12.351.165.492.215q.723.257,1.456.5,1.406.462,2.836.869.837.24,1.681.465c2.031.543,3.88.981,5.437,1.335s2.823.625,3.7.806a10.974,10.974,0,0,0,1.374.248,10.407,10.407,0,0,0-1.326-.374c-.862-.22-2.114-.526-3.658-.908s-3.38-.843-5.4-1.4c-1.891-.522-3.764-1.088-5.6-1.728-.251-.088-.5-.2-.762-.272a.187.187,0,0,0-.249.22A.112.112,0,0,0,5087.42,471.383Z" fill="#7b9a2f"/>
      </g>
      <g id="Grupo_1716" data-name="Grupo 1716">
        <path id="Caminho_6666" data-name="Caminho 6666" d="M5090.06,472.19v.005a4.832,4.832,0,0,0,.174.782l.06.184.069.178c.021.059.049.115.073.172s.049.113.078.167l.082.16c.028.053.058.1.087.154l.043.075.045.072.09.141c.031.046.063.09.094.133s.06.087.093.127c.065.081.123.161.187.232s.121.142.183.2.115.123.173.175.107.1.157.147l.14.118.06.05.056.041c.034.026.064.047.088.064.049.033.077.048.082.044s-.012-.027-.051-.068c-.02-.021-.044-.046-.074-.074l-.048-.047-.052-.054-.125-.126c-.044-.047-.09-.1-.142-.154s-.1-.116-.157-.18-.109-.133-.167-.206-.112-.152-.172-.233c-.03-.04-.057-.083-.085-.127s-.058-.087-.087-.132l-.083-.14-.043-.071-.039-.074c-.027-.05-.055-.1-.081-.151l-.076-.158c-.027-.053-.048-.108-.072-.164s-.049-.111-.069-.169l-.064-.174-.056-.179a4.9,4.9,0,0,1-.165-.76v-.005Z" fill="#7b9a2f"/>
      </g>
      <g id="Grupo_1717" data-name="Grupo 1717">
        <path id="Caminho_6667" data-name="Caminho 6667" d="M5090.24,472.051l0,0a6.894,6.894,0,0,1,.752-.538l.193-.116.195-.108c.064-.037.131-.068.2-.1s.128-.065.194-.094l.192-.087.192-.079.093-.038.094-.035.184-.067.181-.06c.06-.019.117-.039.175-.055.116-.032.226-.067.335-.092s.209-.054.308-.073.19-.042.278-.056.168-.031.243-.043l.207-.031c.031,0,.06-.01.088-.013l.077-.01.122-.017c.066-.01.1-.018.1-.024s-.035-.009-.1-.009c-.034,0-.075,0-.124,0l-.079,0-.09.005-.212.017c-.077.007-.16.019-.25.03s-.185.028-.286.044-.207.04-.318.063-.226.054-.346.084c-.06.014-.12.034-.181.052l-.188.056-.19.065-.1.034-.1.038c-.065.025-.132.05-.2.077l-.2.087c-.068.029-.134.062-.2.094s-.137.065-.2.1l-.2.109-.2.118a7,7,0,0,0-.778.552l0,0Z" fill="#7b9a2f"/>
      </g>
      <path id="Caminho_6668" data-name="Caminho 6668" d="M5099.714,470.775a3.156,3.156,0,0,0-2.6-.376c-1.356.461-1.944,2.064-.755,2.837a4.062,4.062,0,0,0,1.263.453l2.684.645c.5.119,1.664.615,2.167.415,1.315-.523-.975-2.581-1.481-3.035A7.311,7.311,0,0,0,5099.714,470.775Z" fill="#4c8134"/>
      <g id="Grupo_1718" data-name="Grupo 1718">
        <path id="Caminho_6669" data-name="Caminho 6669" d="M5093.9,473.2v.005a3.223,3.223,0,0,0,.118.839l.059.2.074.189c.022.062.055.121.083.181s.055.119.089.174l.1.167c.034.054.071.105.106.157l.052.077.057.072.112.142c.039.045.08.088.119.131s.075.085.117.123l.12.114c.02.019.039.038.059.055l.061.051c.081.067.156.132.235.186s.149.11.223.153.14.088.2.124l.18.094c.027.014.052.028.077.039l.071.03c.044.019.081.034.112.045.061.024.094.034.1.029s-.023-.025-.077-.058c-.026-.016-.06-.036-.1-.058l-.064-.037c-.023-.013-.046-.029-.071-.044l-.165-.1c-.06-.039-.121-.085-.189-.132s-.134-.1-.206-.159-.144-.122-.219-.189l-.056-.052c-.019-.017-.036-.036-.055-.054l-.111-.114c-.039-.038-.072-.081-.109-.123s-.074-.085-.11-.129l-.1-.139c-.017-.024-.036-.047-.053-.072l-.048-.075c-.032-.05-.066-.1-.1-.153l-.09-.162c-.032-.054-.056-.112-.083-.169s-.056-.115-.076-.175l-.068-.182-.055-.189a3.249,3.249,0,0,1-.109-.8v0Z" fill="#7b9a2f"/>
      </g>
      <g id="Grupo_1719" data-name="Grupo 1719">
        <path id="Caminho_6670" data-name="Caminho 6670" d="M5094.066,473.326l0,0a5.067,5.067,0,0,1,.689-.637l.186-.137.192-.126c.062-.043.13-.079.194-.117s.127-.077.194-.109l.194-.1c.065-.031.131-.06.2-.089l.095-.044.1-.038.19-.076c.063-.023.126-.043.188-.064s.121-.044.182-.06l.178-.051c.029-.008.057-.018.086-.024l.086-.021c.112-.026.219-.054.323-.071s.2-.041.293-.052.177-.026.256-.036l.218-.021.093-.01.081,0,.129-.009a.334.334,0,0,0,.107-.018c0-.006-.036-.011-.106-.016l-.13-.006-.083,0c-.029,0-.061,0-.094,0l-.223.007c-.081,0-.169.014-.264.022s-.2.025-.3.04-.218.039-.335.062l-.089.018-.09.023-.184.048c-.064.014-.126.036-.19.056s-.13.04-.2.062l-.2.074-.1.038-.1.043c-.067.03-.136.058-.2.09l-.2.1c-.069.032-.135.072-.2.11s-.138.076-.2.119l-.2.13-.195.141a5.009,5.009,0,0,0-.72.66l0,0Z" fill="#7b9a2f"/>
      </g>
      <g id="Grupo_1720" data-name="Grupo 1720">
        <path id="Caminho_6671" data-name="Caminho 6671" d="M5097.851,474.34v0a4,4,0,0,0,.664.993l.095.1c.032.033.066.065.1.1l.048.047.049.045.1.087c.067.055.13.109.194.158s.126.1.188.138a4.3,4.3,0,0,0,.62.36c.038.019.074.034.1.046l.079.031c.044.016.068.022.072.017s-.013-.021-.049-.046l-.068-.044c-.027-.016-.059-.036-.093-.059a6.45,6.45,0,0,1-.565-.394c-.058-.043-.114-.092-.174-.142s-.118-.1-.18-.159l-.09-.088-.046-.045-.044-.047c-.03-.031-.061-.063-.091-.1l-.089-.1a4.232,4.232,0,0,1-.626-.963v0Z" fill="#7b9a2f"/>
      </g>
      <g id="Grupo_1721" data-name="Grupo 1721">
        <path id="Caminho_6672" data-name="Caminho 6672" d="M5098.046,474.335l0,0a2.047,2.047,0,0,1,.436-.4,2.545,2.545,0,0,1,.252-.158,2.9,2.9,0,0,1,.26-.132,5.591,5.591,0,0,1,.992-.328c.3-.071.539-.119.706-.157a.8.8,0,0,0,.257-.074.881.881,0,0,0-.271.01c-.172.018-.421.049-.727.107a5.085,5.085,0,0,0-1.045.307c-.094.04-.188.085-.28.135a2.584,2.584,0,0,0-.274.167,2.175,2.175,0,0,0-.48.441l0,0Z" fill="#7b9a2f"/>
      </g>
    </g>
  </g>
</svg>
