<svg xmlns="http://www.w3.org/2000/svg" width="30.001" height="30" viewBox="0 0 30.001 30">
  <path id="Caminho_16588" data-name="Caminho 16588" d="M1230.78,4410h-25.566a2.19,2.19,0,0,0-2.214,2.162v25.673a2.192,2.192,0,0,0,2.214,2.165h25.566a2.2,2.2,0,0,0,2.221-2.165v-25.673A2.194,2.194,0,0,0,1230.78,4410Zm-18.882,25.564h-4.45v-14.317h4.45Zm-2.224-16.274a2.58,2.58,0,1,1,2.578-2.581A2.581,2.581,0,0,1,1209.674,4419.29Zm18.89,16.274h-4.446V4428.6c0-1.66-.031-3.795-2.313-3.795-2.315,0-2.67,1.808-2.67,3.675v7.083h-4.446v-14.317h4.268v1.956h.059a4.677,4.677,0,0,1,4.211-2.312c4.505,0,5.337,2.965,5.337,6.82Z" transform="translate(-1203 -4410)" fill="#2380aa"/>
</svg>
