<svg xmlns="http://www.w3.org/2000/svg" xmlns:xlink="http://www.w3.org/1999/xlink" width="180" height="180" viewBox="0 0 180 180">
  <defs>
    <clipPath id="clip-path">
      <rect id="Retângulo_1127" data-name="Retângulo 1127" width="180" height="180" transform="translate(623 4350)" fill="none"/>
    </clipPath>
  </defs>
  <g id="Grupo_4962" data-name="Grupo 4962" transform="translate(-623 -4350)">
    <g id="Grupo_4961" data-name="Grupo 4961" clip-path="url(#clip-path)">
      <g id="Grupo_4960" data-name="Grupo 4960">
        <g id="Grupo_4959" data-name="Grupo 4959">
          <path id="Caminho_16076" data-name="Caminho 16076" d="M611.26,4370.9a162.388,162.388,0,0,0,18.237,28.281c7.562,9.219,16.622,16.881,26.156,23.981,3.739,2.784,9.633.611,11.8-3.094,2.572-4.4.653-9.01-3.095-11.8a127.97,127.97,0,0,1-22.665-21.284c-5.854-7.137-11.058-16.188-15.539-24.789-5.131-9.849-20.023-1.137-14.9,8.706Z" fill="none" stroke="#dcdcff" stroke-width="0.75"/>
          <path id="Caminho_16077" data-name="Caminho 16077" d="M791.26,4370.9a162.388,162.388,0,0,0,18.237,28.281c7.562,9.219,16.622,16.881,26.156,23.981,3.739,2.784,9.633.611,11.8-3.094,2.572-4.4.653-9.01-3.095-11.8a127.97,127.97,0,0,1-22.665-21.284c-5.854-7.137-11.058-16.188-15.539-24.789-5.131-9.849-20.023-1.137-14.9,8.706Z" fill="none" stroke="#dcdcff" stroke-width="0.75"/>
          <path id="Caminho_16078" data-name="Caminho 16078" d="M666.731,4391.4c13.453-2.338,27.1-.331,39.671,4.822,4.312,1.768,9.482-1.917,10.61-6.024,1.359-4.946-1.7-8.836-6.024-10.61-15.526-6.366-32.383-7.682-48.843-4.822-4.593.8-7.173,6.43-6.024,10.61,1.333,4.852,6,6.825,10.61,6.024Z" fill="none" stroke="#dcdcff" stroke-width="0.75"/>
          <path id="Caminho_16079" data-name="Caminho 16079" d="M732.856,4422.646c-11.061-13.558-27.675-21.42-45.016-22.483-4.654-.285-8.625,4.169-8.625,8.625,0,4.907,3.957,8.339,8.625,8.625,12.993.8,24.646,7.413,32.818,17.43,2.947,3.612,9.138,3.06,12.2,0,3.571-3.571,2.954-8.576,0-12.2Z" fill="none" stroke="#dcdcff" stroke-width="0.75"/>
          <path id="Caminho_16080" data-name="Caminho 16080" d="M807.287,4418.164a102.877,102.877,0,0,1-31.994.814c-4.61-.627-9.26,1.11-10.61,6.024-1.1,4.021,1.378,9.977,6.024,10.609a129.509,129.509,0,0,0,41.166-.813c4.586-.834,7.18-6.4,6.024-10.61-1.325-4.823-6.011-6.861-10.61-6.024Z" fill="none" stroke="#dcdcff" stroke-width="0.75"/>
          <path id="Caminho_16081" data-name="Caminho 16081" d="M627.287,4418.164a102.877,102.877,0,0,1-31.994.814c-4.61-.627-9.26,1.11-10.61,6.024-1.1,4.021,1.378,9.977,6.024,10.609a129.509,129.509,0,0,0,41.166-.813c4.586-.834,7.18-6.4,6.024-10.61-1.325-4.823-6.011-6.861-10.61-6.024Z" fill="none" stroke="#dcdcff" stroke-width="0.75"/>
          <path id="Caminho_16082" data-name="Caminho 16082" d="M760.52,4416.584a104.923,104.923,0,0,0,23.885-30.207c5.167-9.815-9.716-18.544-14.9-8.706a91.6,91.6,0,0,1-21.187,26.715c-3.516,3.059-3.133,9.065,0,12.2,3.488,3.488,8.672,3.066,12.2,0Z" fill="none" stroke="#dcdcff" stroke-width="0.75"/>
          <path id="Caminho_16083" data-name="Caminho 16083" d="M759.616,4367.293a55.283,55.283,0,0,1,17.737-22.529c3.737-2.769,5.627-7.47,3.094-11.8-2.155-3.686-8.036-5.884-11.8-3.095a76.976,76.976,0,0,0-25.665,32.838c-1.8,4.3,1.94,9.488,6.024,10.61,4.973,1.366,8.8-1.709,10.61-6.024Z" fill="none" stroke="#dcdcff" stroke-width="0.75"/>
          <path id="Caminho_16084" data-name="Caminho 16084" d="M638.234,4541.9c20.648-3.141,40.426-12.367,55.558-26.848,8.037-7.69-4.173-19.877-12.2-12.2-13.1,12.541-30.152,19.706-47.946,22.412-4.61.7-7.154,6.5-6.024,10.61,1.354,4.927,5.986,6.727,10.609,6.024Z" fill="none" stroke="#dcdcff" stroke-width="0.75"/>
          <path id="Caminho_16085" data-name="Caminho 16085" d="M638.234,4361.9c20.648-3.141,40.426-12.367,55.558-26.848,8.037-7.69-4.173-19.877-12.2-12.2-13.1,12.541-30.152,19.706-47.946,22.412-4.61.7-7.154,6.5-6.024,10.61,1.354,4.927,5.986,6.727,10.609,6.024Z" fill="none" stroke="#dcdcff" stroke-width="0.75"/>
          <path id="Caminho_16086" data-name="Caminho 16086" d="M759.616,4547.293a55.283,55.283,0,0,1,17.737-22.529c3.737-2.769,5.627-7.47,3.094-11.8-2.155-3.686-8.036-5.884-11.8-3.095a76.976,76.976,0,0,0-25.665,32.838c-1.8,4.3,1.94,9.488,6.024,10.61,4.973,1.366,8.8-1.709,10.61-6.024Z" fill="none" stroke="#dcdcff" stroke-width="0.75"/>
          <path id="Caminho_16087" data-name="Caminho 16087" d="M646.9,4437.356a118.075,118.075,0,0,1-37.093,27.167c-4.216,1.98-5.294,8.039-3.094,11.8,2.527,4.32,7.568,5.081,11.8,3.094a130.813,130.813,0,0,0,40.584-29.865c7.5-8.163-4.668-20.394-12.2-12.2Z" fill="none" stroke="#dcdcff" stroke-width="0.75"/>
          <path id="Caminho_16088" data-name="Caminho 16088" d="M826.9,4437.356a118.075,118.075,0,0,1-37.093,27.167c-4.216,1.98-5.294,8.039-3.094,11.8,2.527,4.32,7.568,5.081,11.8,3.094a130.813,130.813,0,0,0,40.584-29.865c7.5-8.163-4.668-20.394-12.2-12.2Z" fill="none" stroke="#dcdcff" stroke-width="0.75"/>
          <path id="Caminho_16089" data-name="Caminho 16089" d="M659.466,4471.221a154.244,154.244,0,0,0,29.7,20.177c9.85,5.082,18.586-9.8,8.706-14.9a135.28,135.28,0,0,1-26.209-17.48c-3.533-3.032-8.728-3.47-12.2,0-3.1,3.1-3.55,9.151,0,12.2Z" fill="none" stroke="#dcdcff" stroke-width="0.75"/>
          <path id="Caminho_16090" data-name="Caminho 16090" d="M740.707,4450.74l31.927,12.577c4.336,1.708,9.47-1.873,10.61-6.024,1.345-4.9-1.673-8.9-6.024-10.61l-31.927-12.577c-4.335-1.708-9.469,1.873-10.61,6.024-1.345,4.9,1.673,8.9,6.024,10.61Z" fill="none" stroke="#dcdcff" stroke-width="0.75"/>
          <path id="Caminho_16091" data-name="Caminho 16091" d="M719.375,4466.476a72.907,72.907,0,0,1-9.18,27.329c-5.481,9.672,9.416,18.375,14.9,8.706a94.344,94.344,0,0,0,11.535-36.035c.542-4.634-4.352-8.625-8.625-8.625-5.112,0-8.082,3.977-8.625,8.625Z" fill="none" stroke="#dcdcff" stroke-width="0.75"/>
          <path id="Caminho_16092" data-name="Caminho 16092" d="M648.521,4485.452A96.113,96.113,0,0,1,608,4488.6c-4.627-.606-8.625,4.4-8.625,8.625,0,5.164,3.984,8.017,8.625,8.625a108.35,108.35,0,0,0,45.106-3.769c10.606-3.182,6.088-19.836-4.585-16.634Z" fill="none" stroke="#dcdcff" stroke-width="0.75"/>
          <path id="Caminho_16093" data-name="Caminho 16093" d="M828.521,4485.452A96.113,96.113,0,0,1,788,4488.6c-4.627-.606-8.625,4.4-8.625,8.625,0,5.164,3.984,8.017,8.625,8.625a108.35,108.35,0,0,0,45.106-3.769c10.606-3.182,6.088-19.836-4.585-16.634Z" fill="none" stroke="#dcdcff" stroke-width="0.75"/>
          <path id="Caminho_16094" data-name="Caminho 16094" d="M681.9,4449.524a31.446,31.446,0,0,1,18.44,8.693c8.038,7.656,20.256-4.522,12.2-12.2a50.563,50.563,0,0,0-30.638-13.746c-4.643-.45-8.625,4.286-8.625,8.625,0,5.039,3.968,8.174,8.625,8.625Z" fill="none" stroke="#dcdcff" stroke-width="0.75"/>
          <path id="Caminho_16095" data-name="Caminho 16095" d="M753.433,4507.637a54.713,54.713,0,0,1,16.61-20.654c3.747-2.755,5.621-7.48,3.094-11.8-2.162-3.7-8.027-5.87-11.8-3.1a72.317,72.317,0,0,0-22.8,26.842c-2.019,4.195-1.152,9.317,3.094,11.8,3.774,2.207,9.772,1.121,11.8-3.094Z" fill="none" stroke="#dcdcff" stroke-width="0.75"/>
          <path id="Caminho_16096" data-name="Caminho 16096" d="M701.571,4542.321a60.486,60.486,0,0,1,24.948-6.476,8.8,8.8,0,0,0,8.625-8.625c0-4.524-3.949-8.817-8.625-8.625a80.987,80.987,0,0,0-33.654,8.831c-4.152,2.109-5.347,7.95-3.094,11.8,2.469,4.221,7.632,5.211,11.8,3.094Z" fill="none" stroke="#dcdcff" stroke-width="0.75"/>
          <path id="Caminho_16097" data-name="Caminho 16097" d="M701.571,4362.321a60.486,60.486,0,0,1,24.948-6.476,8.8,8.8,0,0,0,8.625-8.625c0-4.524-3.949-8.817-8.625-8.625a80.987,80.987,0,0,0-33.654,8.831c-4.152,2.109-5.347,7.95-3.094,11.8,2.469,4.221,7.632,5.211,11.8,3.094Z" fill="none" stroke="#dcdcff" stroke-width="0.75"/>
        </g>
      </g>
      <circle id="Elipse_707" data-name="Elipse 707" cx="8.54" cy="8.54" r="8.54" transform="translate(729.514 4380)" fill="none" stroke="#dcdcff" stroke-width="0.75"/>
    </g>
  </g>
</svg>
