<svg xmlns="http://www.w3.org/2000/svg" width="30" height="30" viewBox="0 0 30 30">
  <g id="Grupo_5091" data-name="Grupo 5091" transform="translate(-1063.001 -4410)">
    <path id="Caminho_16586" data-name="Caminho 16586" d="M1078,4412.7c4.005,0,4.48.015,6.061.087a8.289,8.289,0,0,1,2.786.517,4.971,4.971,0,0,1,2.846,2.846,8.3,8.3,0,0,1,.517,2.786c.072,1.581.087,2.056.087,6.061s-.015,4.48-.087,6.061a8.3,8.3,0,0,1-.517,2.786,4.971,4.971,0,0,1-2.846,2.846,8.289,8.289,0,0,1-2.786.517c-1.581.072-2.056.087-6.061.087s-4.48-.015-6.061-.087a8.288,8.288,0,0,1-2.786-.517,4.971,4.971,0,0,1-2.846-2.846,8.3,8.3,0,0,1-.517-2.786c-.072-1.581-.087-2.056-.087-6.061s.015-4.48.087-6.061a8.3,8.3,0,0,1,.517-2.786,4.971,4.971,0,0,1,2.846-2.846,8.288,8.288,0,0,1,2.786-.517c1.581-.072,2.056-.087,6.061-.087m0-2.7c-4.074,0-4.585.017-6.184.09a11.045,11.045,0,0,0-3.642.7,7.684,7.684,0,0,0-4.387,4.387,11.046,11.046,0,0,0-.7,3.642c-.073,1.6-.09,2.11-.09,6.184s.017,4.585.09,6.184a11.046,11.046,0,0,0,.7,3.642,7.684,7.684,0,0,0,4.387,4.387,11.045,11.045,0,0,0,3.642.7c1.6.073,2.11.09,6.184.09s4.585-.017,6.184-.09a11.047,11.047,0,0,0,3.642-.7,7.678,7.678,0,0,0,4.386-4.387,11.018,11.018,0,0,0,.7-3.642c.073-1.6.09-2.11.09-6.184s-.017-4.585-.09-6.184a11.018,11.018,0,0,0-.7-3.642,7.678,7.678,0,0,0-4.386-4.387,11.047,11.047,0,0,0-3.642-.7c-1.6-.073-2.11-.09-6.184-.09Z" fill="#005f9b"/>
    <path id="Caminho_16587" data-name="Caminho 16587" d="M1078,4417.3a7.7,7.7,0,1,0,7.7,7.7A7.7,7.7,0,0,0,1078,4417.3Zm0,12.7a5,5,0,1,1,5-5A5,5,0,0,1,1078,4430Z" fill="#005f9b"/>
    <circle id="Elipse_721" data-name="Elipse 721" cx="1.8" cy="1.8" r="1.8" transform="translate(1084.208 4415.193)" fill="#005f9b"/>
  </g>
</svg>
