<svg xmlns="http://www.w3.org/2000/svg" width="25.016" height="25.001" viewBox="0 0 25.016 25.001">
  <path id="Caminho_16612" data-name="Caminho 16612" d="M691.981,3354.913a4.935,4.935,0,0,1-4.072,4.071,31.053,31.053,0,0,1-9.826,0,4.933,4.933,0,0,1-4.071-4.071,29.931,29.931,0,0,1-.391-4.913c0-.781.035-1.562.093-2.344l6.285,4.176a5.406,5.406,0,0,0,5.994,0l6.285-4.176q.094,1.173.093,2.344a29.936,29.936,0,0,1-.39,4.913Zm-13.9-13.9a29.875,29.875,0,0,1,9.823,0,4.933,4.933,0,0,1,3.836,3.21l-7.574,5.075a2.1,2.1,0,0,1-2.324,0l-7.594-5.058a4.935,4.935,0,0,1,3.833-3.227Zm10.339-3.067a33,33,0,0,0-10.852,0,8.062,8.062,0,0,0-6.64,6.64,33.044,33.044,0,0,0,0,10.852,8.059,8.059,0,0,0,6.64,6.64,34.145,34.145,0,0,0,10.853-.03,8.065,8.065,0,0,0,6.64-6.64,33.475,33.475,0,0,0-.015-10.838,8.06,8.06,0,0,0-6.625-6.625Z" transform="translate(-670.481 -3337.5)" fill="#3c3c46"/>
</svg>
