<svg xmlns="http://www.w3.org/2000/svg" width="16.6" height="20" viewBox="0 0 16.6 20">
  <g id="Grupo_5144" data-name="Grupo 5144" transform="translate(-674.695 -830)">
    <path id="Caminho_16614" data-name="Caminho 16614" d="M683,835.434a2.281,2.281,0,1,0,1.611.668,2.28,2.28,0,0,0-1.611-.668ZM683,832.627a5.662,5.662,0,0,1,5.684,5.674c0,1.136-1.516,3.761-3.2,5.8a28,28,0,0,1-2.473,2.669,27.014,27.014,0,0,1-2.485-2.669c-1.685-2.037-3.2-4.662-3.2-5.8A5.653,5.653,0,0,1,683,832.627ZM683,830a8.32,8.32,0,0,0-8.3,8.3c0,2.723,1.99,5.288,3.8,7.477a46.274,46.274,0,0,0,3.608,3.869,1.314,1.314,0,0,0,1.793,0,46.286,46.286,0,0,0,3.608-3.869c1.809-2.189,3.791-4.755,3.791-7.477a8.32,8.32,0,0,0-8.3-8.3Z" fill="#3c3c46"/>
  </g>
</svg>
