<svg xmlns="http://www.w3.org/2000/svg" width="30" height="30" viewBox="0 0 30 30">
  <path id="Caminho_3668" data-name="Caminho 3668" d="M10631.746,2262.158v-8.98a1.254,1.254,0,1,1,2.508,0v8.929a1.254,1.254,0,0,1-2.508.05Zm0,4.916v-.251a1.445,1.445,0,0,1,.351-.9,1.212,1.212,0,0,1,1.154-.351c.1,0,.15.05.251.05.05.05.15.05.2.1s.15.1.2.151a1.208,1.208,0,0,1,.351.9.457.457,0,0,1-.05.251c0,.1-.05.15-.05.25-.051.051-.051.151-.1.2s-.1.151-.15.2-.15.1-.2.15a.382.382,0,0,1-.2.1.326.326,0,0,1-.251.1H10633a1.449,1.449,0,0,1-.9-.351.7.7,0,0,1-.149-.2.377.377,0,0,1-.1-.2c-.05-.05-.05-.15-.1-.2Zm1.254-19.565a12.491,12.491,0,1,1-12.491,12.491A12.524,12.524,0,0,1,10633,2247.509Zm0,27.491a15,15,0,1,0-15-15A15.009,15.009,0,0,0,10633,2275Z" transform="translate(-10618 -2245)" fill="#3c3c46"/>
</svg>
