<svg xmlns="http://www.w3.org/2000/svg" width="22.222" height="20" viewBox="0 0 22.222 20">
  <path id="Caminho_1871" data-name="Caminho 1871" d="M985.768,5202.782H970.212a1.05,1.05,0,0,1-1.112-1.111v-6.222a4.017,4.017,0,0,0,2.223.667h13.334a4,4,0,0,0,2.222-.667v6.222a1.05,1.05,0,0,1-1.111,1.111Zm-15.556-12.223h15.555a1.051,1.051,0,0,1,1.112,1.112,2.229,2.229,0,0,1-2.222,2.222H971.323a2.229,2.229,0,0,1-2.222-2.222,1.05,1.05,0,0,1,1.111-1.112Zm6.667-3.333H979.1a1.051,1.051,0,0,1,1.112,1.112h-4.445A1.051,1.051,0,0,1,976.879,5187.226Zm8.889,1.112h-3.333A3.275,3.275,0,0,0,979.1,5185H976.88a3.275,3.275,0,0,0-3.335,3.334h-3.333a3.273,3.273,0,0,0-3.333,3.333v10a3.274,3.274,0,0,0,3.333,3.333h15.555a3.274,3.274,0,0,0,3.333-3.333v-10a3.273,3.273,0,0,0-3.333-3.333Z" transform="translate(-966.879 -5185.004)" fill="#005f91"/>
</svg>
