<svg xmlns="http://www.w3.org/2000/svg" width="80.662" height="75.637" viewBox="0 0 80.662 75.637">
  <g id="Grupo_1599" data-name="Grupo 1599" transform="translate(-4209.277 -436.952)">
    <path id="Caminho_6299" data-name="Caminho 6299" d="M4228.727,506.439c-3.977-6.1-2.6-20.511,4.065-35.212s7.471-26.169,7.348-28.666c-.034-.625.527.041,1.168,2.014a3.832,3.832,0,0,0,.537.452s-.156.2.144,1.82a3.843,3.843,0,0,0,.878,2.126s-.177.064-.15,1.472.6,1.661.6,1.661-.39.051-.29,1.893.2,2.472.525,2.557-.485-.043-.42,2.446.311,2.24.46,2.359a5.033,5.033,0,0,0-.58,2.521c-.88,19.254-7.044,42.461-14.287,42.557Z" fill="#7a8251" fill-rule="evenodd"/>
    <path id="Caminho_6300" data-name="Caminho 6300" d="M4228.727,506.439c-3.977-6.1-2.6-20.511,4.065-35.212s7.471-26.169,7.348-28.666c-.034-.625.527.041,1.168,2.014a3.832,3.832,0,0,0,.537.452s-.156.2.144,1.82a3.843,3.843,0,0,0,.878,2.126s-.177.064-.15,1.472.6,1.661.6,1.661-.39.051-.29,1.893c.036.679.073,1.2.122,1.579A77.517,77.517,0,0,1,4239.7,473.3c-2.41,7.716-8.542,27.835-10.117,33.017a3.836,3.836,0,0,1-.859.123Z" fill="#698043" fill-rule="evenodd"/>
    <path id="Caminho_6301" data-name="Caminho 6301" d="M4228.17,505.456c-3.264-6.569-1.7-20.268,4.622-34.229,6.664-14.7,7.471-26.169,7.348-28.666-.034-.625.527.041,1.168,2.014a3.832,3.832,0,0,0,.537.452s-.156.2.144,1.82a3.843,3.843,0,0,0,.878,2.126s-.177.064-.15,1.472a3.187,3.187,0,0,0,.2,1.145c-.978,11.326-6.018,26.328-7.6,31.937-1.414,5.014-5.107,15.938-7.151,21.929Z" fill="#578036" fill-rule="evenodd"/>
    <path id="Caminho_6302" data-name="Caminho 6302" d="M4227.2,502.789c-1.852-7.2.024-19.276,5.59-31.562,6.664-14.7,7.471-26.169,7.348-28.666-.01-.154.019-.23.08-.227a20.911,20.911,0,0,1,1.158,4.924c.271.847.477.768.477.768s-.34.149-.331.995.028,1.319-.008,1.774a.485.485,0,0,0,.379.535,1.045,1.045,0,0,0-.394.569c-.14.42-.175,1.485-.34,1.982s.139.628.139.628-.242.124-.4.772-.568,2.753-.681,3.092a.7.7,0,0,0,.195.646s-.552.255-.785,1.4a15.125,15.125,0,0,1-.62,2.037,1.153,1.153,0,0,0,.1,1.023,1.581,1.581,0,0,0-.682.821c-.2.568-.793,2.728-1.123,3.351a.9.9,0,0,0,.171,1.076s-.512-.171-1.123,1.3a22.121,22.121,0,0,1-1.388,3.2c-.33.377.158.989.158.989s-.233-.4-1.073,1.272a32.188,32.188,0,0,0-1.477,3.213,2.231,2.231,0,0,0,.175,1.2s-.442-.27-1,1.05-1.094,2.689-1.229,3.094a2.127,2.127,0,0,0,.061,1.036s-.549-.06-.84,1.308a4.877,4.877,0,0,0-.135,1.994,3.7,3.7,0,0,0-.7,1.475,5.346,5.346,0,0,0-.451,1.848.443.443,0,0,0,.256.449s-.377.161-.682,1.079a6.579,6.579,0,0,0-.213.862c-.028.171-.051.339-.078.506-.082.6-.115,1.169-.123,1.465-.011.525.333.6.333.6l-.636,1.717q-.16,2.2-.108,4.412Z" fill="#80a16b" fill-rule="evenodd"/>
    <path id="Caminho_6303" data-name="Caminho 6303" d="M4240.829,444.28a21.574,21.574,0,0,1,.549,2.978c.271.847.477.768.477.768s-.34.149-.331.995.028,1.319-.008,1.774a.485.485,0,0,0,.379.535,1.045,1.045,0,0,0-.394.569c-.14.42-.175,1.485-.34,1.982s.139.628.139.628-.242.124-.4.772-.568,2.753-.681,3.092a.7.7,0,0,0,.195.646s-.552.255-.785,1.4a15.125,15.125,0,0,1-.62,2.037,1.153,1.153,0,0,0,.1,1.023,1.581,1.581,0,0,0-.682.821c-.2.568-.793,2.728-1.123,3.351a.9.9,0,0,0,.171,1.076s-.512-.171-1.123,1.3a22.121,22.121,0,0,1-1.388,3.2c-.33.377.158.989.158.989s-.233-.4-1.073,1.272a32.188,32.188,0,0,0-1.477,3.213,2.231,2.231,0,0,0,.175,1.2s-.442-.27-1,1.05-1.094,2.689-1.229,3.094a2.127,2.127,0,0,0,.061,1.036s-.549-.06-.84,1.308a4.877,4.877,0,0,0-.135,1.994,3.7,3.7,0,0,0-.7,1.475,5.346,5.346,0,0,0-.451,1.848.443.443,0,0,0,.256.449s-.377.161-.682,1.079a6.579,6.579,0,0,0-.213.862c-.028.171-.051.339-.078.506-.082.6-.115,1.169-.123,1.465-.011.525.333.6.333.6l-.636,1.717c-.1,1.4-.142,2.8-.113,4.218-.064-.373-.116-.746-.159-1.121-.621-5.384,1.246-12.613,2.74-17.379s6.552-13.255,8.926-22.551c2.065-8.083,2.9-11.444,2.125-17.264Z" fill="#ffdc80" fill-rule="evenodd"/>
    <path id="Caminho_6304" data-name="Caminho 6304" d="M4232.851,505.678c1.558-7.369,13.781-33.636,24.41-46.4a4.354,4.354,0,0,0,.354-.807s.2.157.6-.394a12.8,12.8,0,0,1,1.255-1.387,1.469,1.469,0,0,0,.363-.711s.206.143.839-.4a5.941,5.941,0,0,0,.941-.936.655.655,0,0,0,.118-.517s.154.3.7-.133.978-.612,1.172-.765a1.868,1.868,0,0,0,.379-.488.359.359,0,0,0,.347.1c.091-.027.337-.113.6-.177a5.5,5.5,0,0,1,2.058-.453c.881,0-4.11,2.169-6.935,7.565-6.059,11.566-6.953,32.98-16.98,43.038-4.239,4.246-9.67,5.735-10.217,2.873Z" fill="#8cae78" fill-rule="evenodd"/>
    <path id="Caminho_6305" data-name="Caminho 6305" d="M4266.983,452.2c.881,0-4.11,2.169-6.935,7.565-2.958,5.647-4.684,13.635-6.843,21.508-.423-2.015-.666-3.487-.666-3.487.28-5.027,3.686-17.515,10.154-22.961,1.257-1.06,2.931-2.623,4.29-2.625Z" fill="#80915e" fill-rule="evenodd"/>
    <path id="Caminho_6306" data-name="Caminho 6306" d="M4266.983,452.2c.443,0-.125.351-1.148,1.128a20.339,20.339,0,0,0-5.787,6.437c-3.04,5.6-4.684,13.635-6.843,21.508-.283-1.351-.486-2.453-.589-3.04a104.578,104.578,0,0,1,3.912-12.7,27.408,27.408,0,0,1,5.535-9.607c.791-.842,3.934-3.722,4.92-3.721Z" fill="#7a8251" fill-rule="evenodd"/>
    <path id="Caminho_6307" data-name="Caminho 6307" d="M4251.662,466.945a85.568,85.568,0,0,1,5.6-7.67,4.354,4.354,0,0,0,.354-.807s.2.157.6-.394a12.8,12.8,0,0,1,1.255-1.387,1.469,1.469,0,0,0,.363-.711s.206.143.839-.4a5.941,5.941,0,0,0,.941-.936.655.655,0,0,0,.118-.517s.154.3.7-.133.978-.612,1.172-.765a1.868,1.868,0,0,0,.379-.488.359.359,0,0,0,.347.1l.265-.083c-3.364,2.045-8.537,7.77-10.462,11.059a14.617,14.617,0,0,1-2.467,3.137Z" fill="#ffdc80" fill-rule="evenodd"/>
    <path id="Caminho_6308" data-name="Caminho 6308" d="M4235.9,507.7c2.249-7.552,9.544-20.151,16.37-30.295a32.446,32.446,0,0,1,3.439-5.163c.966-1.12.661-1.729.661-1.729a.766.766,0,0,0,.809-.279c.357-.434,1.536-2.072,2.249-2.936a2.663,2.663,0,0,0,.722-1.409s.3.1,1-.727,1.813-2.021,2.459-2.694.608-1.067.608-1.067a.809.809,0,0,0,.775-.164,11.639,11.639,0,0,1,1.778-1.4c1.218-.868,1.344-1.248,1.344-1.248s.42.14,1.245-.433a1.831,1.831,0,0,1,.619-.31c2.762-1.525,4.243-1.524,3.287-.778a28.711,28.711,0,0,0-3.113,2.816c-.542.643-1.416,1.711-1.87,2.4-.682,1.042-.1,1.2-.1,1.2s-.637-.126-.9.167a13.156,13.156,0,0,0-1.575,2.312c-.875,1.486-.238,1.738-.238,1.738s-.56-.1-.788.078-.505.634-1.418,2.618-.406,2.489-.406,2.489-.42-.14-.786.455a16.1,16.1,0,0,0-1.522,3.558c-.7,2.1-.276,2.11-.276,2.11s-.289-.227-1.284,1.943c-2.234,4.885-4.165,9.387-6.673,13.706-1.548,2.674-2.783,5.173-6.052,7.962-7.4,6.3-11.45,7.039-10.366,5.083Z" fill="#698043" fill-rule="evenodd"/>
    <path id="Caminho_6309" data-name="Caminho 6309" d="M4242.761,492.811c.993-.734-1.505,4.365,3.137-3.983s14.122-20.925,16.543-24.156a31.967,31.967,0,0,1,6.153-6.124.865.865,0,0,1-.482.045s-.126.38-1.344,1.248a11.639,11.639,0,0,0-1.778,1.4.809.809,0,0,1-.775.164s.041.395-.608,1.067-1.763,1.869-2.459,2.694-1,.727-1,.727a2.663,2.663,0,0,1-.722,1.409c-.713.864-1.892,2.5-2.249,2.936a.766.766,0,0,1-.809.279s.3.609-.661,1.729a32.446,32.446,0,0,0-3.439,5.163c-3.264,4.845-6.63,10.254-9.5,15.4Zm29.029-34.51c-4.457,2.538-7.987,7.974-10.11,13.718a110.127,110.127,0,0,1-8.527,18.226c-1.578,2.962-2.01,4.767-1.641,5.811.265-.465.53-.929.8-1.4,2.508-4.319,4.439-8.821,6.673-13.706,1-2.17,1.284-1.943,1.284-1.943s-.421-.013.276-2.11a16.1,16.1,0,0,1,1.522-3.558c.366-.6.786-.455.786-.455s-.507-.508.406-2.489,1.191-2.44,1.418-2.618.788-.078.788-.078-.637-.252.238-1.738a13.156,13.156,0,0,1,1.575-2.312c.265-.293.9-.167.9-.167s-.583-.153.1-1.2c.454-.688,1.328-1.756,1.87-2.4.521-.547,1.07-1.076,1.64-1.587Z" fill="#7a8251" fill-rule="evenodd"/>
    <path id="Caminho_6310" data-name="Caminho 6310" d="M4249.425,481.725a5.177,5.177,0,0,0,1.3-1.739,8.476,8.476,0,0,1,.832-1.52c-.706,1.067-1.42,2.156-2.127,3.259Zm2.856-4.355a187.17,187.17,0,0,1,11.545-14.734c.839-.839,2.664-2.4,4.735-4.074a.855.855,0,0,1-.449.031s-.126.38-1.344,1.248a11.639,11.639,0,0,0-1.778,1.4.809.809,0,0,1-.775.164s.041.395-.608,1.067-1.763,1.869-2.459,2.694-1,.727-1,.727a2.663,2.663,0,0,1-.722,1.409c-.713.864-1.892,2.5-2.249,2.936a.766.766,0,0,1-.809.279s.3.609-.661,1.729a33.085,33.085,0,0,0-3.423,5.127Zm3.314,10.973c1.134-2.377,2.22-4.832,3.391-7.393,1-2.17,1.284-1.943,1.284-1.943s-.421-.013.276-2.11a16.1,16.1,0,0,1,1.522-3.558c.366-.6.786-.455.786-.455s-.507-.508.406-2.489,1.191-2.44,1.418-2.618.788-.078.788-.078-.637-.252.238-1.738a13.156,13.156,0,0,1,1.575-2.312c.265-.293.9-.167.9-.167s-.583-.153.1-1.2c.354-.537.967-1.307,1.474-1.924a21.007,21.007,0,0,0-5.686,7.244c-2.344,4.664-3.442,8.519-5.44,13.236-1.376,3.255-2.441,4.869-3.033,7.5Z" fill="#ffdc80" fill-rule="evenodd"/>
    <path id="Caminho_6311" data-name="Caminho 6311" d="M4229.509,502.41a33.7,33.7,0,0,1,.405-3.4c.2-1.9.6-3.071.658-3.678a1.429,1.429,0,0,0-.262-1.032s.346.3,1.268-2.4.915-3.146.836-3.623a1.084,1.084,0,0,0-.223-.6,4.091,4.091,0,0,0,1.359-1.787c.6-1.33,1.656-4.192,2.059-5.086a1.561,1.561,0,0,0-.047-1.518s.718.215,1.341-1.264,1.569-3.219,1.769-3.734a1,1,0,0,0,.03-.805s.489.032,1.194-1.448,1.529-2.7,1.963-3.457.072-1,.072-1,.332.27,1.263-1.189,1.3-1.777,1.516-2.258a1.629,1.629,0,0,0,.188-.728s.122.274.871-.635a12.727,12.727,0,0,0,1.6-2.6c.458-.9.252-1.152.252-1.152s.251.19.836-1.408.977-2.7,1.19-3.345-.221-.839-.221-.839.355.2.807-1.626.619-3.535.707-4.034a.474.474,0,0,0-.3-.6s.448.227.589-1.7.307-2.746.324-3.584-.436-1.066-.436-1.066.57-.285.56-1.524c-.005-.317.032-.489.094-.554a9.3,9.3,0,0,1,.139-1.759c.151-.281.631,1.61,1,4.839,1.571,3.993.022,18.105-.868,22.385-2.9,13.93-12.593,40.931-18.235,43.107s-4.3-4.9-4.3-4.9Z" fill="#80a16b" fill-rule="evenodd"/>
    <path id="Caminho_6312" data-name="Caminho 6312" d="M4229.509,502.41s-.058.312-.1.786c1.281-4.542,3.123-11.19,4.249-15.809,1.86-7.64,6.878-14.571,10.4-21.093.912-1.685,1.682-3.079,2.326-4.363a9.665,9.665,0,0,1-.623.841c-.749.909-.871.635-.871.635a1.629,1.629,0,0,1-.188.728c-.213.481-.583.8-1.516,2.258s-1.263,1.189-1.263,1.189.362.251-.072,1-1.263,1.979-1.963,3.457-1.194,1.448-1.194,1.448a1,1,0,0,1-.03.805c-.2.515-1.146,2.254-1.769,3.734s-1.341,1.264-1.341,1.264a1.561,1.561,0,0,1,.047,1.518c-.4.894-1.457,3.756-2.059,5.086a4.091,4.091,0,0,1-1.359,1.787,1.084,1.084,0,0,1,.223.6c.079.477.089.926-.836,3.623s-1.268,2.4-1.268,2.4a1.429,1.429,0,0,1,.262,1.032c-.058.607-.454,1.773-.658,3.678a33.7,33.7,0,0,0-.405,3.4Zm18.179-43.392c-.046.014-.065,0-.065,0a.207.207,0,0,1,.033.085Z" fill="#ffdc80" fill-rule="evenodd"/>
    <path id="Caminho_6313" data-name="Caminho 6313" d="M4251.76,438.755l.013-.016a9.3,9.3,0,0,1,.139-1.759c.12-.226.454.949.775,3.1a65.088,65.088,0,0,1-.641,24.126,168.692,168.692,0,0,1-11.851,34.478c-4.858,4.765-9.23,8.288-9.749,7.326-1.181-2.185,1.607-7.532,3.652-13.351s9.89-20.27,13.152-29.159,5.421-18.387,4.51-24.743Z" fill="#80915e" fill-rule="evenodd"/>
    <path id="Caminho_6314" data-name="Caminho 6314" d="M4252.987,442.29c1.754,6.124.13,16.585-1.89,24.471a87.719,87.719,0,0,1-3.125,9.537c-3.22,8.662-9.393,19.907-13.626,27.679-2.114,1.7-3.612,2.569-3.9,2.031a2.382,2.382,0,0,1-.247-.786c2.321-6.3,4.783-12.133,7.837-19.659,1.7-4.2,5.778-11.224,8.764-18.667,3.591-8.943,5.821-18.642,6.187-24.606Z" fill="#7a8251" fill-rule="evenodd"/>
    <path id="Caminho_6315" data-name="Caminho 6315" d="M4253.511,445.009a35.472,35.472,0,0,1,.035,6.863c-.269,3.295-1.148,7.505-1.608,9.947s-1.586,6.655-2.864,12.111c-.3.912-.884,1.786-1.1,2.368-2.814,7.577-7.892,17.127-11.953,24.605-1.414-.462-2.409-1.275-2.359-1.758.145-1.433,10.5-24.88,12.795-29.56a97.779,97.779,0,0,0,7.056-24.576Z" fill="#698043" fill-rule="evenodd"/>
    <path id="Caminho_6316" data-name="Caminho 6316" d="M4253.04,455.821c-.361,2.254-.816,4.472-1.1,6-.455,2.439-1.586,6.655-2.864,12.111-.3.912-.884,1.786-1.1,2.368-2.814,7.577-7.892,17.127-11.953,24.605-1.414-.462-2.409-1.275-2.359-1.758.054-.53,1.513-4.093,3.444-8.6a328.742,328.742,0,0,0,15.936-34.724Z" fill="#578036" fill-rule="evenodd"/>
    <path id="Caminho_6317" data-name="Caminho 6317" d="M4233.9,511.055c-9.029-2.424-15.023-9.189-16.331-17s-1.053-15.1-1.274-22.7-3.573-14.922-6.222-16.961,1.822-.262,6.469,5.764,5.614,19.223,6.011,26.731.362,13.711,6.135,17.223,8.163,7.2,5.212,6.938Z" fill="#578036" fill-rule="evenodd"/>
    <path id="Caminho_6318" data-name="Caminho 6318" d="M4213.739,459.953a14.634,14.634,0,0,0-3.67-5.554c-2.65-2.039,1.822-.262,6.469,5.764,4.319,5.6,5.46,17.372,5.916,25.037-.014-.021-.032-.039-.046-.06-2.993-16.666-4.61-22.561-8.669-25.187Z" fill="#698043" fill-rule="evenodd"/>
    <path id="Caminho_6319" data-name="Caminho 6319" d="M4228,508.642a20.877,20.877,0,0,1-10.438-14.586c-1.308-7.809-1.053-15.1-1.274-22.7s-3.573-14.922-6.222-16.961c-1.04-.8-.981-1.014-.247-.61a24.975,24.975,0,0,1,2.082,1.936c.245.184.055.473.762,1.142s1.141.666,1.141.666.084.621.215,1.176a4.27,4.27,0,0,0,1.074,1.683c.608.742.972.646.972.646a1.634,1.634,0,0,0,.016.837,14.234,14.234,0,0,0,.78,1.925c.38.764.579.683.579.683a.815.815,0,0,0-.272.745c.1.423.21,1.007.472,1.843s.67.816.67.816a1.662,1.662,0,0,0-.4,1.286c.068.829.077,1.986.086,2.918a1.952,1.952,0,0,0,.411,1.336,1.508,1.508,0,0,0-.353.84c.009.417.121,1.706.06,2.836s.378,1.374.378,1.374-.361.2-.368.516-.011,1.732-.013,2.836a1.771,1.771,0,0,0,.54,1.477,1.261,1.261,0,0,0-.455.556,15.7,15.7,0,0,0,0,2.939c.091,1.647.507,1.712.507,1.712a1.744,1.744,0,0,0-.283.495,6.585,6.585,0,0,0,.11,2.316c.242,1.624.861,1.608.861,1.608s-.206.177-.234,1.073a8.186,8.186,0,0,0,.149,1.5c1.5,5.324,4.443,9.1,8.7,13.139Z" fill="#80a16b" fill-rule="evenodd"/>
    <path id="Caminho_6320" data-name="Caminho 6320" d="M4212.19,456.946a9.683,9.683,0,0,0-2.121-2.547c-1.04-.8-.981-1.014-.247-.61a24.975,24.975,0,0,1,2.082,1.936c.245.184.055.473.762,1.142s1.141.666,1.141.666.084.621.215,1.176a4.27,4.27,0,0,0,1.074,1.683c.608.742.972.646.972.646a1.634,1.634,0,0,0,.016.837,14.234,14.234,0,0,0,.78,1.925c.38.764.579.683.579.683a.815.815,0,0,0-.272.745c.1.423.21,1.007.472,1.843s.67.816.67.816a1.662,1.662,0,0,0-.4,1.286c.068.829.077,1.986.086,2.918a1.952,1.952,0,0,0,.411,1.336,1.508,1.508,0,0,0-.353.84c.009.417.121,1.706.06,2.836s.378,1.374.378,1.374-.361.2-.368.516-.011,1.732-.013,2.836a1.771,1.771,0,0,0,.54,1.477,1.261,1.261,0,0,0-.455.556,15.7,15.7,0,0,0,0,2.939c.091,1.647.507,1.712.507,1.712a1.744,1.744,0,0,0-.283.495,6.585,6.585,0,0,0,.11,2.316c.242,1.624.861,1.608.861,1.608s-.206.177-.234,1.073a8.186,8.186,0,0,0,.149,1.5,23.24,23.24,0,0,0,2.993,6.569c-3.059-4.008-4.442-7.64-4.464-14.024-.025-8.222-.3-17.942-.48-20.631s-2.23-7.068-4.13-9.452a7.46,7.46,0,0,0-1.036-1.019Z" fill="#8cae78" fill-rule="evenodd"/>
    <path id="Caminho_6321" data-name="Caminho 6321" d="M4231.827,508.747c-5.772-1.338-9.769-7.152-10.73-15.133-2.575-21.4,12.643-33.13-5.449-54.889a39.2,39.2,0,0,1,3.463,2.989,11.768,11.768,0,0,0,1.5.78,1.329,1.329,0,0,0,.068.693,4.96,4.96,0,0,0,.364.568c.149.168.292.338.436.509.137.143.293.3.481.475.9.835,1.07.572,1.07.572a3.52,3.52,0,0,0,.015.755c.059.314.476.587,1.082,1.755s1.062.918,1.062.918a1.264,1.264,0,0,0,.04,1.085c.285.684.7,1.6,1.072,2.5s.839.95.839.95a1.8,1.8,0,0,0-.144,1.159,11.986,11.986,0,0,1,.7,3.051c.088,1.424.766,1.65.766,1.65a1.414,1.414,0,0,0-.385,1.157c.008.862.323,2.575.234,3.728s.453,1.383.453,1.383a3.123,3.123,0,0,0-.48,1.371,21.353,21.353,0,0,1-.215,3.87c-.256,1.817.281,1.73.281,1.73a1.9,1.9,0,0,0-.489.828c-.1.451-.183,2.571-.43,3.88s.524,1.328.524,1.328-.853.548-.908,1.119-.241,2.5-.578,4.154.2,1.732.2,1.732a1.481,1.481,0,0,0-.554.942,10.909,10.909,0,0,0-.053,2.9c.106,1.861.716,2.277.716,2.277s-.33.107-.391.782c-.057.579.293,2.553,2.154,5.107a10.117,10.117,0,0,0,5.915,2.851c.914.3-2.631,8.469-2.631,8.469Z" fill="#80a16b" fill-rule="evenodd"/>
    <path id="Caminho_6322" data-name="Caminho 6322" d="M4222.362,449.343a43.037,43.037,0,0,0-6.714-10.618,39.2,39.2,0,0,1,3.463,2.989,11.768,11.768,0,0,0,1.5.78,1.329,1.329,0,0,0,.068.693,4.96,4.96,0,0,0,.364.568c.149.168.292.338.436.509.137.143.293.3.481.475.9.835,1.07.572,1.07.572a3.52,3.52,0,0,0,.015.755c.059.314.476.587,1.082,1.755s1.062.918,1.062.918a1.264,1.264,0,0,0,.04,1.085c.285.684.7,1.6,1.072,2.5s.839.95.839.95a1.8,1.8,0,0,0-.144,1.159,11.986,11.986,0,0,1,.7,3.051c.088,1.424.766,1.65.766,1.65a1.414,1.414,0,0,0-.385,1.157c.008.862.323,2.575.234,3.728s.453,1.383.453,1.383a3.123,3.123,0,0,0-.48,1.371,21.353,21.353,0,0,1-.215,3.87c-.256,1.817.281,1.73.281,1.73a1.9,1.9,0,0,0-.489.828c-.1.451-.183,2.571-.43,3.88s.524,1.328.524,1.328-.853.548-.908,1.119-.241,2.5-.578,4.154.2,1.732.2,1.732a1.481,1.481,0,0,0-.554.942,10.909,10.909,0,0,0-.053,2.9c.106,1.861.716,2.277.716,2.277s-.33.107-.391.782c-.057.579.293,2.553,2.154,5.107a10.107,10.107,0,0,0,5.915,2.851c.553.184-.951,5.385-1.93,7.826-6.3-1.456-9.143-8.544-9.457-16.7-.321-8.193,1.842-15.451,2.886-22.062.7-4.468-.2-14.529-3.6-20Z" fill="#80915e" fill-rule="evenodd"/>
    <path id="Caminho_6323" data-name="Caminho 6323" d="M4222.362,449.343a43.037,43.037,0,0,0-6.714-10.618,39.2,39.2,0,0,1,3.463,2.989,11.768,11.768,0,0,0,1.5.78,1.329,1.329,0,0,0,.068.693,4.96,4.96,0,0,0,.364.568c.149.168.292.338.436.509.137.143.293.3.481.475.9.835,1.07.572,1.07.572a3.52,3.52,0,0,0,.015.755c.059.314.476.587,1.082,1.755s1.062.918,1.062.918a1.264,1.264,0,0,0,.04,1.085c.285.684.7,1.6,1.072,2.5s.839.95.839.95a1.8,1.8,0,0,0-.144,1.159,11.986,11.986,0,0,1,.7,3.051c.088,1.424.766,1.65.766,1.65a1.414,1.414,0,0,0-.385,1.157c.008.862.323,2.575.234,3.728s.453,1.383.453,1.383a3.123,3.123,0,0,0-.48,1.371,21.353,21.353,0,0,1-.215,3.87c-.256,1.817.281,1.73.281,1.73a1.9,1.9,0,0,0-.489.828c-.1.451-.183,2.571-.43,3.88s.524,1.328.524,1.328-.853.548-.908,1.119-.241,2.5-.578,4.154.2,1.732.2,1.732a1.481,1.481,0,0,0-.554.942,10.909,10.909,0,0,0-.053,2.9c.106,1.861.716,2.277.716,2.277s-.33.107-.391.782c-.057.579.293,2.553,2.154,5.107a10.107,10.107,0,0,0,5.915,2.851c.35.116-.126,2.25-.769,4.418-.8-.639-2.123-1.713-4.278-3.517-4.869-4.079-6.13-8.988-3.968-22.016,1.542-9.306,3.511-20.385-2.382-28.561-.222-.442-.454-.863-.7-1.259Z" fill="#7a8251" fill-rule="evenodd"/>
    <path id="Caminho_6324" data-name="Caminho 6324" d="M4217.331,440.852q-.787-1.048-1.683-2.127a39.2,39.2,0,0,1,3.463,2.989,11.768,11.768,0,0,0,1.5.78,1.329,1.329,0,0,0,.068.693,4.96,4.96,0,0,0,.364.568c.149.168.292.338.436.509.137.143.293.3.481.475.9.835,1.07.572,1.07.572a3.52,3.52,0,0,0,.015.755c.059.314.476.587,1.082,1.755s1.062.918,1.062.918a1.264,1.264,0,0,0,.04,1.085c.285.684.7,1.6,1.072,2.5s.839.95.839.95a1.8,1.8,0,0,0-.144,1.159,11.986,11.986,0,0,1,.7,3.051c.088,1.424.766,1.65.766,1.65a1.414,1.414,0,0,0-.385,1.157c.008.862.323,2.575.234,3.728s.453,1.383.453,1.383a3.123,3.123,0,0,0-.48,1.371,21.353,21.353,0,0,1-.215,3.87c-.256,1.817.281,1.73.281,1.73a1.9,1.9,0,0,0-.489.828c-.1.451-.183,2.571-.43,3.88s.524,1.328.524,1.328-.853.548-.908,1.119-.241,2.5-.578,4.154.2,1.732.2,1.732a1.481,1.481,0,0,0-.554.942,10.909,10.909,0,0,0-.053,2.9c.106,1.861.716,2.277.716,2.277s-.33.107-.391.782c-.057.579.293,2.553,2.154,5.107a10.117,10.117,0,0,0,5.915,2.851c.177.059.186.414.086.949a7.946,7.946,0,0,1-2.318.089c-4.282-2.483-7.349-6.012-6.952-13.3s2.735-17.79,2.38-24.849-1.339-11.913-5.073-16.625a58.376,58.376,0,0,0-5.25-5.69Z" fill="#8cae78" fill-rule="evenodd"/>
    <path id="Caminho_6325" data-name="Caminho 6325" d="M4238.949,478.042c.228-.145-.322.846-.456.978s-.032-.3-.252-.24.364-1.094.536-1.217.172.479.172.479Z" fill="#ffdc80" fill-rule="evenodd"/>
    <path id="Caminho_6326" data-name="Caminho 6326" d="M4238.09,481.759c.32-.324-.066.727-.309,1.039s-.185-.528-.506-.312.332-1.318.815-.727Z" fill="#ffdc80" fill-rule="evenodd"/>
    <path id="Caminho_6327" data-name="Caminho 6327" d="M4247.3,470.115c.354.142.18.739-.2.534s.2-.534.2-.534Z" fill="#8cae78" fill-rule="evenodd"/>
    <path id="Caminho_6328" data-name="Caminho 6328" d="M4249.44,465.863c.083.351-.364.255-.317-.032s.317.032.317.032Z" fill="#8cae78" fill-rule="evenodd"/>
    <path id="Caminho_6329" data-name="Caminho 6329" d="M4250.512,464.287c.069.248-.367.353-.306-.052s.306.052.306.052Z" fill="#8cae78" fill-rule="evenodd"/>
    <path id="Caminho_6330" data-name="Caminho 6330" d="M4250.087,461.65c.489-.227.2.731.1,1.085s-.083-.441-.375-.178-.109-1.063.273-.907Z" fill="#8cae78" fill-rule="evenodd"/>
    <path id="Caminho_6331" data-name="Caminho 6331" d="M4249.136,468.156c.485.055-.016.993-.265,1.361s-.261-.914.265-1.361Z" fill="#8cae78" fill-rule="evenodd"/>
    <path id="Caminho_6332" data-name="Caminho 6332" d="M4234.669,470.013c.166-.12-.313,1.779-.381,1.527s.228-.685-.057-.678-.022-1.227.29-1.328.148.479.148.479Z" fill="#ffdc80" fill-rule="evenodd"/>
    <path id="Caminho_6333" data-name="Caminho 6333" d="M4238.192,457.949c.171-.033-.152,1.2-.257,1.044s.025-1.072.257-1.044Z" fill="#ffdc80" fill-rule="evenodd"/>
    <path id="Caminho_6334" data-name="Caminho 6334" d="M4239.9,454.342c.129-.129-.085,1.031-.182,1.224s-.027-.336-.177-.353.085-.737.108-1.163.251.292.251.292Z" fill="#ffdc80" fill-rule="evenodd"/>
    <path id="Caminho_6335" data-name="Caminho 6335" d="M4236.01,465.892c.317-.214.715.262.332.466s-.332-.466-.332-.466Z" fill="#ffdc80" fill-rule="evenodd"/>
    <path id="Caminho_6336" data-name="Caminho 6336" d="M4257.684,459.8c.448-.019-.956,2.248-.813,1.707a3.846,3.846,0,0,1,.813-1.707Z" fill="#ffdc80" fill-rule="evenodd"/>
    <path id="Caminho_6337" data-name="Caminho 6337" d="M4257.162,464.006c.2-.175-.2.883-.311,1.034s-.076-.291-.285-.2.2-1.136.355-1.278.241.445.241.445Z" fill="#8cae78" fill-rule="evenodd"/>
    <path id="Caminho_6338" data-name="Caminho 6338" d="M4260.009,457.434c.316-.21.71.265.327.469s-.327-.469-.327-.469Z" fill="#ffdc80" fill-rule="evenodd"/>
    <path id="Caminho_6339" data-name="Caminho 6339" d="M4270.088,458.448c-.872.209-1.182,1.142-.66.681s1.022-.761.66-.681Zm-5.424,5.15c-.45-.248-1.031.394-.782.542s-.259.385.121.241.931-.992.661-.783Zm-3.195,6.4c-.34.32-.76,1.584-.5,1.3s.921-1.564.5-1.3Zm-.111-2.08a1.843,1.843,0,0,0-.313.633c0,.2.512-.431.313-.633Zm-2.686,5.062c-.273-.594-.824.459-.461.281s.038.18.4.2.319-.761.061-.479Zm-.809,3.542s-.572.612-.251.755.519-1.166.251-.755Z" fill="#8cae78" fill-rule="evenodd"/>
    <path id="Caminho_6340" data-name="Caminho 6340" d="M4254.967,482.5c.2-.179-.183.885-.291,1.037s-.08-.289-.288-.194.182-1.138.333-1.285.246.442.246.442Z" fill="#ffdc80" fill-rule="evenodd"/>
    <path id="Caminho_6341" data-name="Caminho 6341" d="M4238.867,500.3a190.83,190.83,0,0,1,13.4-22.893,32.587,32.587,0,0,1,2.5-3.954c-.011,3.2-2.706,13.94-3.179,15.362-.318.955.529.254,2.338-1.309.9-.781,2.044-1.777,3.4-2.886a111.774,111.774,0,0,1-5.007,10.037,48.347,48.347,0,0,1-2.545,4.172,14.3,14.3,0,0,1-6.483,2.056,8.826,8.826,0,0,1-4.418-.585Z" fill="#578036" fill-rule="evenodd"/>
    <path id="Caminho_6342" data-name="Caminho 6342" d="M4235.6,508.267c1.776-7.509,19.965-18.455,27.731-28.642s14.242-22.617,25.13-25.476c-13.449,10.083-20.238,32.758-32.729,46.2-8.109,8.731-20.257,13.512-20.132,7.914Z" fill="#80a16b" fill-rule="evenodd"/>
    <path id="Caminho_6343" data-name="Caminho 6343" d="M4235.6,508.267c.561-2.375,2.762-5.278,5.757-8.4-.021-2.2,3.4-3.062,6.609-2.547a5.087,5.087,0,0,0,1.568-.42c.508-.285,1-.57,1.486-.861a8.094,8.094,0,0,0,.735-.6,3.965,3.965,0,0,0,.587-.808s.134.311,1.393-.458,2.742-1.748,3.189-2.737.353-.792.475-.923.327.469,1.434-.559a19.183,19.183,0,0,0,2.511-3.319.641.641,0,0,0,.03-.731s.556.238,1.336-.767a34.355,34.355,0,0,0,2.041-2.8,1.693,1.693,0,0,0,.278-.911s.29.15,1.138-1.046a24.968,24.968,0,0,0,1.43-2.32c.229-.369.133-.561.133-.561s.214.231,1.11-1.109,1.643-2.171,1.8-2.487a1.764,1.764,0,0,0,.14-.743s.5.088,1.047-.761,1.445-1.971,1.714-2.385a1.493,1.493,0,0,0,.246-.814s.393.159.86-.529,1.559-2.068,1.78-2.339a1.2,1.2,0,0,0,.207-.7s.236.238.94-.686,2.562-2.709,2.956-3.266a8.221,8.221,0,0,1,1.3-1.236c.328-.334.657-.658.984-.979-9.969,11.362-16.469,29.46-27.086,40.889-8.109,8.731-20.257,13.512-20.132,7.914Z" fill="#7a8251" fill-rule="evenodd"/>
    <path id="Caminho_6344" data-name="Caminho 6344" d="M4235.6,508.267a16.138,16.138,0,0,1,3.59-6.009c.159-.021.312-.04.463-.051,4.628-.377,10.263-4.131,14.819-7s13.291-14.26,15.08-17.267a64.179,64.179,0,0,1,6.9-9.812c-6.779,10.605-12.524,23.4-20.72,32.229-8.109,8.731-20.257,13.512-20.132,7.914Z" fill="#698043" fill-rule="evenodd"/>
    <path id="Caminho_6345" data-name="Caminho 6345" d="M4235.6,508.267a13.824,13.824,0,0,1,2.687-4.893c4.063-1.056,8.468-1.786,10.556-2.737,3.8-1.729,11.545-7.421,19.49-18.678-3.825,6.668-7.79,13.216-12.6,18.394-8.109,8.731-20.257,13.512-20.132,7.914Z" fill="#578036" fill-rule="evenodd"/>
    <path id="Caminho_6346" data-name="Caminho 6346" d="M4243.444,497.576a9.839,9.839,0,0,1,4.526-.259,5.087,5.087,0,0,0,1.568-.42c.508-.285,1-.57,1.486-.861a8.094,8.094,0,0,0,.735-.6,3.965,3.965,0,0,0,.587-.808s.134.311,1.393-.458a7.837,7.837,0,0,0,2.983-2.781c.447-.989.447-.94.429-1.118s.326.472,1.434-.559a26.433,26.433,0,0,0,2.763-3.08.641.641,0,0,0,.03-.731s.556.238,1.336-.767a34.355,34.355,0,0,0,2.041-2.8,1.693,1.693,0,0,0,.278-.911s.29.15,1.138-1.046a24.968,24.968,0,0,0,1.43-2.32c.229-.369.133-.561.133-.561s.214.231,1.11-1.109,1.643-2.171,1.8-2.487a1.764,1.764,0,0,0,.14-.743s.5.088,1.047-.761,1.445-1.971,1.714-2.385a1.493,1.493,0,0,0,.246-.814s.393.159.86-.529,1.559-2.068,1.78-2.339a1.2,1.2,0,0,0,.207-.7s.236.238.94-.686,2.562-2.709,2.956-3.266a8.221,8.221,0,0,1,1.3-1.236l.479-.48.048.028c-.794.936-1.57,1.914-2.327,2.923a74.621,74.621,0,0,0-10.2,13.275c-1.417,2.738-7.136,10.287-11.209,14.167s-8.981,8.49-13.085,8.644a1.992,1.992,0,0,1-2.1-1.424Z" fill="#ffdc80" fill-rule="evenodd"/>
    <path id="Caminho_6347" data-name="Caminho 6347" d="M4235.074,508.656c5.815-2.446,9.26-2.889,13.7-3.881,3.492-.779,8.245-2.629,14.228-8.833l.381-.393a4.548,4.548,0,0,0,.634-1.021s.117.128.892-.7,1.351-1.258,1.577-1.592a1.92,1.92,0,0,0,.265-.8s.147.368.952-.477a10.145,10.145,0,0,0,1.165-1.25,1.342,1.342,0,0,0,.088-.61s.354.3.777-.146a1.4,1.4,0,0,1,.23-.2l.266-.272c.46-.535.853-.989,1.234-1.362.683-.661.6-1.114.6-1.114s.4.3,1.443-.871,1.942-1.691,1.981-1.907a3.861,3.861,0,0,0,.049-.443s.377.159,1.066-.435a21.616,21.616,0,0,1,1.906-1.474,1.032,1.032,0,0,0,.462-.8s.313.436.849.02a14.231,14.231,0,0,1,1.915-1.009,1.459,1.459,0,0,0,.639-.741s.009.368.7.266a19.572,19.572,0,0,0,1.9-.484,1.49,1.49,0,0,0,.741-.445,6.674,6.674,0,0,0,.708.309l.379-.046c7.531-.861-.3.315-4.891,3.314s-9.923,10.8-15.578,18-13.243,13.036-21.711,13.307-12.84-2.73-9.552-3.916Z" fill="#7a8251" fill-rule="evenodd"/>
    <path id="Caminho_6348" data-name="Caminho 6348" d="M4255.974,501.791a37.245,37.245,0,0,0,7.027-5.849l.381-.393a4.548,4.548,0,0,0,.634-1.021s.117.128.892-.7,1.351-1.258,1.577-1.592a1.92,1.92,0,0,0,.265-.8s.147.368.952-.477a10.145,10.145,0,0,0,1.165-1.25,1.342,1.342,0,0,0,.088-.61s.354.3.777-.146a1.4,1.4,0,0,1,.23-.2l.266-.272c.46-.535.853-.989,1.234-1.362.683-.661.6-1.114.6-1.114s.4.3,1.443-.871,1.942-1.691,1.981-1.907a3.861,3.861,0,0,0,.049-.443s.377.159,1.066-.435a21.616,21.616,0,0,1,1.906-1.474,1.032,1.032,0,0,0,.462-.8s.313.436.849.02a14.231,14.231,0,0,1,1.915-1.009,1.459,1.459,0,0,0,.639-.741s.009.368.7.266a19.572,19.572,0,0,0,1.9-.484,1.49,1.49,0,0,0,.741-.445s.294.151.584.264c-4.977,1.464-6.873,2.528-8.054,3.334a84.161,84.161,0,0,0-8.054,7.669c-1.849,2.029-8.383,9.1-11.837,11.551a12.978,12.978,0,0,1-2.384,1.287Z" fill="#8cae78" fill-rule="evenodd"/>
    <path id="Caminho_6349" data-name="Caminho 6349" d="M4235.074,508.656c.4-.172.8-.332,1.18-.484a34.23,34.23,0,0,0,18.385-1.873,10.3,10.3,0,0,0,.955-.681c.519-.38.567-.524.567-.524s.262.407,1.72-.533,1.046-.671,1.458-.939a.715.715,0,0,0,.33-.7s.27.3,1-.209a4.184,4.184,0,0,0,1.054-.894.646.646,0,0,0,.034-.57,1.182,1.182,0,0,0,1.047-.38c.475-.505,1.164-1.312,1.449-1.651a.9.9,0,0,0,.244-.647s.357.119.916-.809a14.123,14.123,0,0,1,1.121-1.575.641.641,0,0,0,.141-.5s.218.02.531-.4.558-.768.655-.937a.685.685,0,0,0,.064-.388s.226.034.557-.371a6.96,6.96,0,0,0,.612-.844.468.468,0,0,0,.033-.333s.194.13.594-.359a12.287,12.287,0,0,0,.812-1,3.044,3.044,0,0,0,.2-.516,2.868,2.868,0,0,0,.915-.707c.084-.1.164-.187.244-.279a11.658,11.658,0,0,1,1.156-1.384,1,1,0,0,0,.353-.693,2.24,2.24,0,0,0,.968-.648,16.34,16.34,0,0,1,1.207-1.191,1.509,1.509,0,0,0,.29-.873s.327.235,1.068-.394,1.245-1.023,1.443-1.239a1.553,1.553,0,0,0,.178-.817.906.906,0,0,0,.865.156q.717-.534,1.421-1c.293-.218.568-.417.77-.543a6.231,6.231,0,0,0,1.067-.958s-.1.309.807-.076c.139-.06.262-.109.377-.149q.561-.267,1.112-.49a3.958,3.958,0,0,0,.338-.534,1.624,1.624,0,0,0,.606.181,5.1,5.1,0,0,1,1.8-.317,28.808,28.808,0,0,0-5.8,2.681c-4.59,3-9.923,10.8-15.578,18s-13.243,13.036-21.711,13.307-12.84-2.73-9.552-3.916Z" fill="#698043" fill-rule="evenodd"/>
    <path id="Caminho_6350" data-name="Caminho 6350" d="M4271.148,493.006c-1.57,2.049-3.178,4.178-4.811,6.259-5.656,7.2-13.243,13.036-21.711,13.307-5.233.168-8.9-.916-10.164-2.049a15.1,15.1,0,0,1,4.744,0c4.332.72,13.67-.346,19.566-4.565,3.522-2.517,8.36-8.231,12.376-12.949Z" fill="#578036" fill-rule="evenodd"/>
    <path id="Caminho_6351" data-name="Caminho 6351" d="M4246.752,508.368a31.524,31.524,0,0,0,7.887-2.069,10.3,10.3,0,0,0,.955-.681c.519-.38.567-.524.567-.524s.262.407,1.72-.533,1.046-.671,1.458-.939a.715.715,0,0,0,.33-.7s.27.3,1-.209a4.184,4.184,0,0,0,1.054-.894.646.646,0,0,0,.034-.57,1.182,1.182,0,0,0,1.047-.38c.475-.505,1.164-1.312,1.449-1.651a.9.9,0,0,0,.244-.647s.357.119.916-.809a14.123,14.123,0,0,1,1.121-1.575.641.641,0,0,0,.141-.5s.218.02.531-.4.558-.768.655-.937a.685.685,0,0,0,.064-.388s.226.034.557-.371a6.96,6.96,0,0,0,.612-.844.468.468,0,0,0,.033-.333s.194.13.594-.359a12.287,12.287,0,0,0,.812-1,3.044,3.044,0,0,0,.2-.516,2.868,2.868,0,0,0,.915-.707c.084-.1.164-.187.244-.279a11.658,11.658,0,0,1,1.156-1.384,1,1,0,0,0,.353-.693,2.24,2.24,0,0,0,.968-.648,16.34,16.34,0,0,1,1.207-1.191,1.509,1.509,0,0,0,.29-.873s.327.235,1.068-.394,1.245-1.023,1.443-1.239a1.553,1.553,0,0,0,.178-.817.906.906,0,0,0,.865.156q.717-.534,1.421-1c.293-.218.568-.417.77-.543a6.231,6.231,0,0,0,1.067-.958s-.1.309.807-.076c.139-.06.262-.109.377-.149q.561-.267,1.112-.49a3.958,3.958,0,0,0,.338-.534,1.624,1.624,0,0,0,.606.181,6.17,6.17,0,0,1,1.263-.3c-4.71,1.868-8.2,3.557-12.747,8.662-4.717,5.287-9.194,12.672-13.671,15.947a26.641,26.641,0,0,1-11.817,5.162,11.124,11.124,0,0,1-2.185,0Z" fill="#8cae78" fill-rule="evenodd"/>
    <path id="Caminho_6352" data-name="Caminho 6352" d="M4232.555,510.7c-3.359-2.111-3.308-4.725-1.842-7.843a15.814,15.814,0,0,1,1.056-2.117,5.525,5.525,0,0,0,.7-1.892s.2.27.891-.637,2.166-3.254,2.86-4.468.351-1.512.351-1.512.4.216,1.161-.993,2.158-3.732,2.627-4.628.1-1.11.1-1.11.376.3,1.156-1.175c.242-.456.583-1.087.955-1.765a.96.96,0,0,0-.1-.526s.286-.195.649-.463c.668-1.223,1.32-2.406,1.565-2.885.447-.891.116-1.321.116-1.321s.391.126,1.25-1.459.536-1.859.536-1.859a1.489,1.489,0,0,0,.909-.615,16.943,16.943,0,0,0,1.123-2.246c.112-.339.023-.451.023-.451s.265.088.835-1.011a16.055,16.055,0,0,1,1.325-2.224c.283-.36-.066-.812-.066-.812s.446.148,1.092-1.032l.057-.109c.065-.121.131-.259.2-.407.781-1.734,1.032-1.986,1.256-2.66s0-.749,0-.749a3.3,3.3,0,0,0,1.32-1.473c.047-.091.087-.139.122-.144.469-.883.814-1.538,1-1.9,1.606-3.084-.166,7.9-2.068,17.533s-8.169,42.881-21.15,34.951Z" fill="#80a16b" fill-rule="evenodd"/>
    <path id="Caminho_6353" data-name="Caminho 6353" d="M4231.064,502.055c.232-.487.477-.93.705-1.32a5.525,5.525,0,0,0,.7-1.892s.2.27.891-.637,2.166-3.254,2.86-4.468.351-1.512.351-1.512.4.216,1.161-.993,2.158-3.732,2.627-4.628.1-1.11.1-1.11.376.3,1.156-1.175c.242-.456.583-1.087.955-1.765a.96.96,0,0,0-.1-.526s.286-.195.649-.463c.668-1.223,1.32-2.406,1.565-2.885.447-.891.116-1.321.116-1.321s.391.126,1.25-1.459.536-1.859.536-1.859a1.489,1.489,0,0,0,.909-.615,16.943,16.943,0,0,0,1.123-2.246c.112-.339.023-.451.023-.451s.265.088.835-1.011a16.055,16.055,0,0,1,1.325-2.224c.283-.36-.066-.812-.066-.812s.446.148,1.092-1.032l.057-.109c.065-.121.131-.259.2-.407.781-1.734,1.032-1.986,1.256-2.66s0-.749,0-.749a3.3,3.3,0,0,0,1.32-1.473c.047-.091.087-.139.122-.144.469-.883.814-1.538,1-1.9a1.457,1.457,0,0,1,.355-.5c-1.278,2.821-3.064,5.952-4.947,9.954-2.013,4.283-6.179,11.472-7.219,13.492s-4.9,8.94-6.466,11.671a108.452,108.452,0,0,1-6.432,9.227Z" fill="#ffdc80" fill-rule="evenodd"/>
    <path id="Caminho_6354" data-name="Caminho 6354" d="M4232.555,510.7a5.305,5.305,0,0,1-2.724-3.516c-.673-1.386.86-4.924,1.075-4.882-.355,2.052,2.674,6.668,5.538,1.8,4.412-7.5,18.664-38.687,19.824-46.385.594.562-.935,9.791-2.563,18.036-1.9,9.636-8.169,42.881-21.15,34.951Z" fill="#80915e" fill-rule="evenodd"/>
    <path id="Caminho_6355" data-name="Caminho 6355" d="M4232.555,510.7a7.819,7.819,0,0,1-1.441-1.133c-1.322-1.009-1.653-3.693-1.378-3.819.921,2.423,4.246,2.812,6.19.953,1.719-1.638,3.17-4.524,9.11-17.823a288.806,288.806,0,0,0,11.187-28.016c-.4,3.518-1.436,9.419-2.518,14.887-1.9,9.636-8.169,42.881-21.15,34.951Z" fill="#7a8251" fill-rule="evenodd"/>
    <path id="Caminho_6356" data-name="Caminho 6356" d="M4255.6,465.228c-.5,3.164-1.191,6.933-1.9,10.516l-.057.284c-2.073,6.285-4.913,15.22-6.458,21.456a43.982,43.982,0,0,1-3.392,9.206c-2.887,4.352-6.438,6.6-10.747,4.285-.887-.348-2.653-1.844-2.432-2.041,2.4,1.536,4.193.67,5.789-1.152,2.773-3.159,4.2-6.981,8.5-16.2a271.534,271.534,0,0,0,10.7-26.353Z" fill="#698043" fill-rule="evenodd"/>
    <path id="Caminho_6357" data-name="Caminho 6357" d="M4254.758,470.176c-.283,1.568-.584,3.174-.894,4.758-2.158,5.372-4.328,12.6-6.31,19.106-2.4,7.87-4.773,14.8-9.747,17.7a6.321,6.321,0,0,1-4.18-.476c7.785-1.738,17.131-32.117,21.131-41.085Z" fill="#578036" fill-rule="evenodd"/>
    <path id="Caminho_6358" data-name="Caminho 6358" d="M4244.147,483.555c.36-.342.027.386-.263.731s0-.331-.185-.171.243-.8.488-1.074-.04.514-.04.514Z" fill="#ffdc80" fill-rule="evenodd"/>
    <path id="Caminho_6359" data-name="Caminho 6359" d="M4243.51,487.342c.446-.048-.8,2.307-.7,1.757a3.88,3.88,0,0,1,.7-1.757Z" fill="#ffdc80" fill-rule="evenodd"/>
    <path id="Caminho_6360" data-name="Caminho 6360" d="M4238.53,493.8c.33.179-.209.949-.439,1.224s-.13-.779.439-1.224Z" fill="#ffdc80" fill-rule="evenodd"/>
    <path id="Caminho_6361" data-name="Caminho 6361" d="M4237.4,498.777c.446-.273.032.752-.686,1.324s.055-.264-.4-.171.318-.316.569-1.182.519-.92.519.029Z" fill="#ffdc80" fill-rule="evenodd"/>
    <path id="Caminho_6362" data-name="Caminho 6362" d="M4241.281,491.733c.139.591-.6.429-.528-.048s.528.048.528.048Z" fill="#ffdc80" fill-rule="evenodd"/>
    <path id="Caminho_6363" data-name="Caminho 6363" d="M4245.763,495.241c.487-.223.194.732.1,1.086s-.083-.438-.376-.175-.108-1.063.275-.911Z" fill="#8cae78" fill-rule="evenodd"/>
    <path id="Caminho_6364" data-name="Caminho 6364" d="M4243.54,502.605c.354.143.183.741-.2.535s.2-.535.2-.535Z" fill="#8cae78" fill-rule="evenodd"/>
    <path id="Caminho_6365" data-name="Caminho 6365" d="M4242.987,499.626c.228-.145-.325.842-.455.975s-.036-.3-.253-.236.365-1.1.536-1.217.172.478.172.478Z" fill="#8cae78" fill-rule="evenodd"/>
    <path id="Caminho_6366" data-name="Caminho 6366" d="M4263,487.413c.61,0-.531,1.448-.517,1.1s-.307-.761.517-1.1Z" fill="#80915e" fill-rule="evenodd"/>
    <path id="Caminho_6367" data-name="Caminho 6367" d="M4253.432,499.71c.417-.009.188.594-.21.462s-.082-.469.21-.462Z" fill="#80915e" fill-rule="evenodd"/>
    <path id="Caminho_6368" data-name="Caminho 6368" d="M4258.658,495.034c.459.034-.185.643-.591.978s.122-.282-.38-.273.812-1.2,1.1-1.455-.131.75-.131.75Z" fill="#80915e" fill-rule="evenodd"/>
    <path id="Caminho_6369" data-name="Caminho 6369" d="M4256.21,498c.426-.124-.185.557-.581.691s.21-.548.581-.691Z" fill="#80915e" fill-rule="evenodd"/>
    <path id="Caminho_6370" data-name="Caminho 6370" d="M4268.672,474.491c.448-.277.345.487-.352,1.057s.248-1.644.671-2.019-.319.962-.319.962Z" fill="#ffdc80" fill-rule="evenodd"/>
    <path id="Caminho_6371" data-name="Caminho 6371" d="M4262.817,481.859c.5.319-.245,1.192-.72,1.39s.259-1.236.72-1.39Z" fill="#ffdc80" fill-rule="evenodd"/>
    <path id="Caminho_6372" data-name="Caminho 6372" d="M4265.511,478.789c.353.171.264,1.054-.365.644s.365-.644.365-.644Z" fill="#ffdc80" fill-rule="evenodd"/>
    <path id="Caminho_6373" data-name="Caminho 6373" d="M4217.385,462.4c-.3-.362-.6-.209-.361.384s-.132-.327.466.359.378-.484-.105-.743Z" fill="#8cae78" fill-rule="evenodd"/>
    <path id="Caminho_6374" data-name="Caminho 6374" d="M4219.869,475.579c-.172-.16-.679.208-.445.429s.522.128.445-.429Z" fill="#8cae78" fill-rule="evenodd"/>
    <path id="Caminho_6375" data-name="Caminho 6375" d="M4219.5,469.48c-.162-.471-.51.366-.26,1.043s.309-.671.26-1.043Z" fill="#8cae78" fill-rule="evenodd"/>
    <path id="Caminho_6376" data-name="Caminho 6376" d="M4263.429,497.463c.389-.149.082.49-.378.583s-.2-.528.378-.583Z" fill="#ffdc80" fill-rule="evenodd"/>
    <path id="Caminho_6377" data-name="Caminho 6377" d="M4260.477,501.233c.529.082.041.628-.283.4s.283-.4.283-.4Z" fill="#ffdc80" fill-rule="evenodd"/>
    <path id="Caminho_6378" data-name="Caminho 6378" d="M4254.109,504.236c.223-.2-.257.688-.756.428s.756-.428.756-.428Z" fill="#ffdc80" fill-rule="evenodd"/>
    <path id="Caminho_6379" data-name="Caminho 6379" d="M4223.331,479.435c.127-.236.123.9.072,1.075s-.174-.241-.336-.086-.212-1.135-.121-1.322.385.333.385.333Z" fill="#ffdc80" fill-rule="evenodd"/>
    <path id="Caminho_6380" data-name="Caminho 6380" d="M4224.909,468.422c.316-.214.713.266.33.47s-.33-.47-.33-.47Z" fill="#ffdc80" fill-rule="evenodd"/>
    <path id="Caminho_6381" data-name="Caminho 6381" d="M4223.95,484.294c.354.167.26,1.052-.364.64s.364-.64.364-.64Z" fill="#ffdc80" fill-rule="evenodd"/>
  </g>
</svg>
