<svg xmlns="http://www.w3.org/2000/svg" width="16.5" height="22.5" viewBox="0 0 16.5 22.5">
  <path id="Caminho_3666" data-name="Caminho 3666" d="M11139.25,1326.813l2.25-1.688V1321h3v4.125l2.25,1.688a5.644,5.644,0,0,1,1.692,2.062h-10.875A5.616,5.616,0,0,1,11139.25,1326.813Zm9.75,11.437a.751.751,0,0,1-.75.75h-10.5a.749.749,0,0,1-.75-.75v-7.125h12v7.125Zm-11.25,3h10.5a3,3,0,0,0,3-3v-6.937a7.917,7.917,0,0,0-3.149-6.3l-1.351-1.012v-5.25h-7.5V1324l-1.351,1.012a7.915,7.915,0,0,0-3.149,6.3v6.937a3,3,0,0,0,3,3Z" transform="translate(-11134.75 -1318.75)" fill="#3c3c46"/>
</svg>
