<svg xmlns="http://www.w3.org/2000/svg" width="64.366" height="66.567" viewBox="0 0 64.366 66.567">
  <g id="Grupo_4588" data-name="Grupo 4588" transform="translate(-4569.1 -439.127)">
    <g id="Grupo_4584" data-name="Grupo 4584">
      <path id="Caminho_14277" data-name="Caminho 14277" d="M4617.049,455.228c-13.51,6.541-41.064,28.17-45.932,41.813s.166,1.7,3.644-4.031c5.615-9.249,15.48-17.947,24.513-24.923,11.389-8.8,17.64-11.287,17.64-11.287Z" fill="#69802f" fill-rule="evenodd"/>
      <g id="Grupo_4581" data-name="Grupo 4581">
        <path id="Caminho_14278" data-name="Caminho 14278" d="M4594.384,475.8a3.591,3.591,0,0,0,2.545,2.7,3.791,3.791,0,0,1-1.936-2.342,6.237,6.237,0,0,0,3.25.763,6.663,6.663,0,0,1-4.093-2.117l-1.034,0a7.854,7.854,0,0,0,1.268,1Z" fill="#4f8031" fill-rule="evenodd"/>
        <path id="Caminho_14279" data-name="Caminho 14279" d="M4591.374,473.836l-.947.708c4.084,1.061,9.554.854,12.327-1.4-4.287,2.527-11.38.687-11.38.687Z" fill="#69802f" fill-rule="evenodd"/>
        <path id="Caminho_14280" data-name="Caminho 14280" d="M4597.787,474.649l-1.1.057s.8-.611,2.033-1.4c.4-.854,1.475-2.826,3.056-3.288a4.991,4.991,0,0,0-2.2,2.76c1.471-.877,3.551-2.264,5.2-2.436-2.095.554-6.986,4.3-6.986,4.3Z" fill="#69802f" fill-rule="evenodd"/>
      </g>
      <g id="Grupo_4582" data-name="Grupo 4582">
        <path id="Caminho_14281" data-name="Caminho 14281" d="M4575.076,479.556a22.316,22.316,0,0,0,1.394-5.694c.424,2.018-.773,5.379-1.117,6.288a8.77,8.77,0,0,0,1.533,2l-.154.892a7.682,7.682,0,0,1-1.9-8.164,8.9,8.9,0,0,0,.239,4.675Z" fill="#4f8031" fill-rule="evenodd"/>
        <path id="Caminho_14282" data-name="Caminho 14282" d="M4581.556,468.632l.411-.741a4.715,4.715,0,0,1,.733-3.2,5.123,5.123,0,0,0-1.144,3.946Z" fill="#4f8031" fill-rule="evenodd"/>
        <path id="Caminho_14283" data-name="Caminho 14283" d="M4578.383,471.923a5.639,5.639,0,0,0-1.682-1.667,3.6,3.6,0,0,1,1.618.928,5.255,5.255,0,0,1,.887-3.418c-.531,1.724-.773,4.289.137,5.511l-.325.752a5.8,5.8,0,0,1-.635-2.106Z" fill="#4f8031" fill-rule="evenodd"/>
        <path id="Caminho_14284" data-name="Caminho 14284" d="M4584.99,464.024a39.9,39.9,0,0,0-2.6,3.731c-2.812,4.178-5.211,12.188-5.4,20.745l-.945.605a44.252,44.252,0,0,1,4.84-19.63c2.456-4.354,4.081-5.465,4.106-5.451Z" fill="#69802f" fill-rule="evenodd"/>
        <path id="Caminho_14285" data-name="Caminho 14285" d="M4581.05,476.027c.544-.1.959-.554,2.914-2.464a6.316,6.316,0,0,1-3.482,3.153,12.987,12.987,0,0,1-2.621,2.391l.131-.89a17.675,17.675,0,0,0,5.687-6.849,18.567,18.567,0,0,1-2.629,4.659Z" fill="#69802f" fill-rule="evenodd"/>
        <path id="Caminho_14286" data-name="Caminho 14286" d="M4579.955,472.318l.189-.617s2.482-.77,4.948-4.453a8.907,8.907,0,0,1-5.137,5.07Z" fill="#69802f" fill-rule="evenodd"/>
        <path id="Caminho_14287" data-name="Caminho 14287" d="M4576.876,483.756l.2.856s4.357-2.579,4.56-6.673c-.4,3.21-3.951,5.221-4.76,5.817Z" fill="#69802f" fill-rule="evenodd"/>
      </g>
      <g id="Grupo_4583" data-name="Grupo 4583">
        <path id="Caminho_14288" data-name="Caminho 14288" d="M4622.427,456.257c3.336.493,10.337-2.209,10.48-3.085.065-.4-.34-.625-.513-.976-.2-.405.132-.6-.1-1.121-.163-.383-1.247-.477-4.442.635s-7.5,4.746-5.427,4.547Z" fill="#bfbebc" fill-rule="evenodd"/>
        <path id="Caminho_14289" data-name="Caminho 14289" d="M4622.79,456.3c3.447.267,9.978-2.283,10.117-3.126.065-.4-.34-.625-.513-.976-.2-.405.132-.6-.1-1.121a.339.339,0,0,0-.21-.184,2.063,2.063,0,0,1-.751,1.589c-.565.431-.813,1.1-.206.781s1.459-.832.425.142c-1,.938-6.369,2.742-8.764,2.895Z" fill="#cfcdcc" fill-rule="evenodd"/>
        <path id="Caminho_14290" data-name="Caminho 14290" d="M4630.973,450.862a17.392,17.392,0,0,0-3.119.848c-2.942,1.02-6.8,4.172-5.805,4.525.1-.058.22-.118.332-.182,3.2-.693,7.562-2.939,8.318-4.452a3.7,3.7,0,0,0,.274-.739Z" fill="#a5a4a2" fill-rule="evenodd"/>
        <path id="Caminho_14291" data-name="Caminho 14291" d="M4621.548,459.33c2.542,1.706,10.813,3.705,11.4,2.642s-.426-1.416-.133-1.947,1.291-1.23.026-1.976-9.942-.255-11.25.194-.043,1.087-.043,1.087Z" fill="#bfbebc" fill-rule="evenodd"/>
        <path id="Caminho_14292" data-name="Caminho 14292" d="M4621.548,459.33c1.675,1.123,5.826,2.372,8.641,2.792-2.728-1.728-6.372-3.213-7.775-3.152.437-.464,6.042,1.335,7.471,1.116,1.378-.215,1.421-1.416-.222-2.414a42.527,42.527,0,0,0-8.072.571c-1.315.449-.043,1.087-.043,1.087Z" fill="#a5a4a2" fill-rule="evenodd"/>
        <path id="Caminho_14293" data-name="Caminho 14293" d="M4620.924,460.476c.081,2.15,6.144,8.319,7.28,8.156s1.841-1.74.639-3.564-7.512-6.957-7.919-4.592Z" fill="#bfbebc" fill-rule="evenodd"/>
        <path id="Caminho_14294" data-name="Caminho 14294" d="M4620.924,460.476c.072,1.832,4.473,6.574,6.481,7.844a12.528,12.528,0,0,0-2.026-4.078c-1.214-1.707,1.369,1.7,4.049,3.1a3.09,3.09,0,0,0-.585-2.272c-1.2-1.82-7.512-6.957-7.919-4.592Z" fill="#a5a4a2" fill-rule="evenodd"/>
        <path id="Caminho_14295" data-name="Caminho 14295" d="M4619.986,460.959a20.855,20.855,0,0,0,2.353,8.611c1.6,3.342,2.386,4.627,3.029,4.236s-1.1-10.173-5.382-12.847Z" fill="#bfbebc" fill-rule="evenodd"/>
        <path id="Caminho_14296" data-name="Caminho 14296" d="M4625.329,471.562c-.461-2.8-1.911-7.5-4.382-9.853-.534,2.14,3.183,7.942,4.382,9.853Z" fill="#a5a4a2" fill-rule="evenodd"/>
        <path id="Caminho_14297" data-name="Caminho 14297" d="M4616.731,461.979c-.05,3.379,1.474,6.594,1.182,9.151s.516,2.857,1.173,1.487.681-5.09.039-7.871-2.394-2.767-2.394-2.767Z" fill="#bfbebc" fill-rule="evenodd"/>
        <path id="Caminho_14298" data-name="Caminho 14298" d="M4619.014,472.763c.023-.048.049-.1.072-.146.661-1.374.681-5.09.039-7.871a3.778,3.778,0,0,0-1.366-2.376,16.8,16.8,0,0,0,.587,4.082,15.088,15.088,0,0,1,.668,6.311Z" fill="#a5a4a2" fill-rule="evenodd"/>
        <path id="Caminho_14299" data-name="Caminho 14299" d="M4613.438,458.612c-3.066.463-8.167,3.125-9.728,5.047s-.134,2.037.528,2.252a1.045,1.045,0,0,1,.578,1.526c-.276.7,2.46-.3,6.678-3.935s4.357-5.128,4.357-5.128Z" fill="#bfbebc" fill-rule="evenodd"/>
        <path id="Caminho_14300" data-name="Caminho 14300" d="M4613.438,458.612a22.215,22.215,0,0,0-8.347,3.778c.088,0,.173-.01.262-.019a21.246,21.246,0,0,0,9.328-2.9,50.178,50.178,0,0,0-6.586,6.612.47.47,0,0,0-.06.077,34.7,34.7,0,0,0,3.459-2.654c4.213-3.632,4.357-5.128,4.357-5.128Z" fill="#a5a4a2" fill-rule="evenodd"/>
        <path id="Caminho_14301" data-name="Caminho 14301" d="M4613.2,454.616c-2.717-2.573-8.991-5.261-10.3-4.371s-.119,1.742-.475,2.316-1.361,1.272-.517,2.079,3.06,2.159,7.356,2.265,5.263-.983,5.263-.983Z" fill="#bfbebc" fill-rule="evenodd"/>
        <path id="Caminho_14302" data-name="Caminho 14302" d="M4608.912,456.893c.114.007.232.011.353.012,3.384.088,4.7-.572,5.11-.857a5.319,5.319,0,0,1-3.207-.774,22.865,22.865,0,0,0-4.932-1.96c-1.22.746-2.39,1.893,1.319,3.176.47.161.922.293,1.357.4Z" fill="#a5a4a2" fill-rule="evenodd"/>
        <path id="Caminho_14303" data-name="Caminho 14303" d="M4615.957,452.49c-1.131-3.012-4.552-7.885-5.991-8.945s-3.04-1.213-3.009-.437,2.5,4.364,4.984,7.425a15.891,15.891,0,0,0,4.289,3.993Z" fill="#bfbebc" fill-rule="evenodd"/>
        <path id="Caminho_14304" data-name="Caminho 14304" d="M4615.957,452.49a31.376,31.376,0,0,0-4.131-6.927,60.478,60.478,0,0,0,3.342,7.678,1.145,1.145,0,0,0,.96.51Zm-7.823-7.123c.956,1.471,2.378,3.4,3.807,5.166a22.671,22.671,0,0,0,2.475,2.631c-.017-.113.284.078.067-.5s-2.941-5.189-4.632-6.209-.972-.6-1.717-1.084Z" fill="#a5a4a2" fill-rule="evenodd"/>
        <path id="Caminho_14305" data-name="Caminho 14305" d="M4618.282,452.831c1.8-2.244,3.785-9.1,3.681-11.15s-.848-2.391-1.295-2.118-.807.843-1.277.075-1.1-.649-1.535.23-1.862,9.073-1.351,11.933,1.777,1.03,1.777,1.03Z" fill="#bfbebc" fill-rule="evenodd"/>
        <path id="Caminho_14306" data-name="Caminho 14306" d="M4618.282,452.831c1.663-2.075,3.487-8.085,3.666-10.6-1.4,1.567-3.032,5.069-2.361,2.965.813-2.515.55-6.461.347-3.6s-2.466,11.219-2.216,9.176c.228-1.864.63-6.819-.206-9.64-.573,2.621-1.417,8.368-1.007,10.67.518,2.861,1.777,1.03,1.777,1.03Z" fill="#a5a4a2" fill-rule="evenodd"/>
        <path id="Caminho_14307" data-name="Caminho 14307" d="M4618.761,454.177c.706-.128,6.174-5.351,8.084-8.944a3.484,3.484,0,0,0,.069-2.895c-.914-2.153-3.93,1.526-5.653,4.973s-3.7,7.122-2.5,6.866Z" fill="#bfbebc" fill-rule="evenodd"/>
        <path id="Caminho_14308" data-name="Caminho 14308" d="M4618.761,454.177a11.2,11.2,0,0,0,2.455-2.024c2.293-3.472,4.658-8.993,4.516-10.385-1.316.455-3.228,3.056-4.471,5.543-1.435,2.864-3.044,5.9-2.853,6.685.1.069.19.134.267.194.027,0,.054-.007.086-.013Z" fill="#a5a4a2" fill-rule="evenodd"/>
        <path id="Caminho_14309" data-name="Caminho 14309" d="M4621.01,454.873c1.17.3,10.5-7.308,9.228-8.928a2.18,2.18,0,0,0-3.093-.1c-.892.657-1.53,1.953-2.565,3.041-2.305,2.423-4.788,5.714-3.57,5.986Z" fill="#a5a4a2" fill-rule="evenodd"/>
        <path id="Caminho_14310" data-name="Caminho 14310" d="M4628.381,445.3a3.007,3.007,0,0,0-1.236.549c-.892.657-1.53,1.953-2.565,3.041-1.819,1.915-3.75,4.369-3.883,5.449.157.039.259.061.259.061l-.132.086c2.244-1.719,3.994-3.8,6.585-5.457s2.406-2.592,1.592-2.019-2.333,1.505-1.581.777c.726-.709,1.78-2.041.961-2.487Z" fill="#cfcdcc" fill-rule="evenodd"/>
        <path id="Caminho_14311" data-name="Caminho 14311" d="M4622.6,457.785c2.273,1.562,7.319,1.988,7.981,1.505s.873-1.571-1.444-2.231-6.52.556-6.537.726Z" fill="#cfcdcc" fill-rule="evenodd"/>
        <path id="Caminho_14312" data-name="Caminho 14312" d="M4622.641,457.81c2.289,1.544,7.279,1.96,7.937,1.48a1.2,1.2,0,0,0,.361-.422c-.351-.332-1.473-.258-1.133-.309.418-.057,1.316-.286.191-.8s-4.391-.5-7.338.042Z" fill="#fff" fill-rule="evenodd"/>
        <path id="Caminho_14313" data-name="Caminho 14313" d="M4622,459.743c1.538,2.65,6.459,7.127,8.228,7.556s1.534-.446,1.636-1.067.56-.482.653-1.277c.032-.242-.629-1.107-1.649-1.847-2.673-1.934-7.681-4.436-8.868-3.365Z" fill="#cfcdcc" fill-rule="evenodd"/>
        <path id="Caminho_14314" data-name="Caminho 14314" d="M4622,459.743a27.008,27.008,0,0,0,6.58,6.683,25.739,25.739,0,0,1-2.416-2.941c-.45-.688,3.557,3.351,4.446,3.418s-5.13-4.266-6-5.106,2.588,1.856,4.077,2.811,2.685,1.389,3.209.9-.848-1.074-1.9-1.756.608-.122,1.039,0a28.214,28.214,0,0,0-3.635-2.738c-2.293-1.166-4.642-1.958-5.406-1.268Z" fill="#fff" fill-rule="evenodd"/>
        <path id="Caminho_14315" data-name="Caminho 14315" d="M4620.753,461.224c.986,3.7,5.042,10.472,6.331,10.88s.263-3.744-1.416-6.627a11.61,11.61,0,0,0-4.915-4.253Z" fill="#cfcdcc" fill-rule="evenodd"/>
        <path id="Caminho_14316" data-name="Caminho 14316" d="M4620.753,461.224a31.986,31.986,0,0,0,3.372,7.209c-.773-2.143-1.7-4.166-2-5.112-.359-1.156,2.368,3.232,3.807,6.147s.357-.466-.726-2.313c-.838-1.436.159-1.033,1.358.12a17.22,17.22,0,0,0-.9-1.8,11.61,11.61,0,0,0-4.915-4.253Z" fill="#fff" fill-rule="evenodd"/>
        <path id="Caminho_14317" data-name="Caminho 14317" d="M4618.324,462.468a18.95,18.95,0,0,0,1.079,6.6,11.817,11.817,0,0,1,.066,6.5c-.191.992,1.071,1.1,1.869-1.382s-.262-6.3-.912-8.93-2.1-2.785-2.1-2.785Z" fill="#cfcdcc" fill-rule="evenodd"/>
        <path id="Caminho_14318" data-name="Caminho 14318" d="M4618.324,462.468a17.2,17.2,0,0,0,.675,5.192,23.014,23.014,0,0,1,1.357,3.37,10.718,10.718,0,0,1-.236,4.614c-.055.543,1.557-1.114,1-5.469a30.7,30.7,0,0,0-2.366-7.554,1.327,1.327,0,0,0-.433-.153Z" fill="#fff" fill-rule="evenodd"/>
        <path id="Caminho_14319" data-name="Caminho 14319" d="M4616.618,462.158c-1.85,1.928-1.949,3.979-2.046,6.432s-2.307,5.234-.993,5.551,2.932-2.115,3.669-4.956-.63-7.027-.63-7.027Z" fill="#cfcdcc" fill-rule="evenodd"/>
        <path id="Caminho_14320" data-name="Caminho 14320" d="M4616.618,462.158c-.107.108-.209.224-.307.337.022.073.043.147.069.217a18.334,18.334,0,0,1,.2,8.426,13.059,13.059,0,0,0,.671-1.953c.737-2.84-.63-7.027-.63-7.027Z" fill="#a5a4a2" fill-rule="evenodd"/>
        <path id="Caminho_14321" data-name="Caminho 14321" d="M4614.761,460.42a15.344,15.344,0,0,0-5.616,5.425c-.841,1.628-3.334,3.549-3.01,4.468.893,2.542,3.7.73,4.826-.635,1.193-1.447,3.75-6.354,4.859-7.273s-1.059-1.985-1.059-1.985Z" fill="#cfcdcc" fill-rule="evenodd"/>
        <path id="Caminho_14322" data-name="Caminho 14322" d="M4616.236,463.457c.5,3.411.715,7.49-.961,9.2s-1.939.643-.777-1.105,1.738-8.1,1.738-8.1Z" fill="#fff" fill-rule="evenodd"/>
        <path id="Caminho_14323" data-name="Caminho 14323" d="M4614.761,460.42a13.581,13.581,0,0,0-3.817,3.026,44.673,44.673,0,0,0-3.985,6.8c.5.375,2.629-1.7,3.681-3.436s3.636-5.327,1.721-2.109-4.086,5.535-4.96,5.932,1.044.817,2.983-1.252,2.893-5.514,5.417-8.078a.646.646,0,0,0,.06-.077,4.109,4.109,0,0,0-1.1-.8Z" fill="#fff" fill-rule="evenodd"/>
        <path id="Caminho_14324" data-name="Caminho 14324" d="M4613.544,458.3c-.042-.852-9.437-.693-10.213,1.691s4.953,1.841,7.526.827,3.146-1.765,2.687-2.518Z" fill="#cfcdcc" fill-rule="evenodd"/>
        <path id="Caminho_14325" data-name="Caminho 14325" d="M4613.581,458.341l-.042-.061c-.083-.037-.166-.074-.253-.108-2.711-.525-7.625.635-8.484,1.3s4.489-.8,5.669-.766-4.616,1.486-5.627,1.732.007.506,2.931-.122c2.437-.522.248.738-1.018,1.34a14.6,14.6,0,0,0,4.1-.84c2.57-1.012,3.237-1.681,2.778-2.434Z" fill="#fff" fill-rule="evenodd"/>
        <path id="Caminho_14326" data-name="Caminho 14326" d="M4613.546,455.82c.141-1.2-6.63-4.322-7.938-2.164s4.073,3.013,6.006,2.784,1.932-.62,1.932-.62Z" fill="#fff" fill-rule="evenodd"/>
        <path id="Caminho_14327" data-name="Caminho 14327" d="M4614.252,453.714c.132-.958-3.951-8.032-5.6-6.942s4.281,8.307,5.6,6.942Z" fill="#cfcdcc" fill-rule="evenodd"/>
        <path id="Caminho_14328" data-name="Caminho 14328" d="M4614.252,453.714c.122-.872-3.249-6.807-5.1-7.051a4.683,4.683,0,0,0,.931,3.271,27.374,27.374,0,0,0,3.8,3.948.562.562,0,0,0,.368-.168Z" fill="#fff" fill-rule="evenodd"/>
        <path id="Caminho_14329" data-name="Caminho 14329" d="M4616.317,439.854c-.471-.762-1.593-.513-1.873-.347-.462.284-1.7-.559-2.178.614s-.143,5.407.842,7.673,2.5,4.215,2.368,5.97c-.221,3.092,4.465-8.089.841-13.91Z" fill="#cfcdcc" fill-rule="evenodd"/>
        <path id="Caminho_14330" data-name="Caminho 14330" d="M4613.132,447.848c.986,2.246,2.473,4.178,2.344,5.916-.183,2.58,3.043-4.771,2.017-10.663-.237.932-.685,1.549-1.059.2-.431-1.569-1.062-2.013-.731.249s.166,7.848.066,6.417-1.116-9.9-1.538-9.366,1.333,10.929,1.186,10.328-1.491-3.939-1.963-5.614-.119-5.274-.537-4.464-.356,3.318.25,4.942,2.2,5.555,1.889,5a24.029,24.029,0,0,0-1.924-2.942Z" fill="#fff" fill-rule="evenodd"/>
        <path id="Caminho_14331" data-name="Caminho 14331" d="M4621.88,455.652c3.134-.1,10.846-4.228,9.946-6.3s-4.524.524-6.812,2.277a38.783,38.783,0,0,0-3.448,2.9c-.518.461-.272,1.694.314,1.114Z" fill="#cfcdcc" fill-rule="evenodd"/>
        <path id="Caminho_14332" data-name="Caminho 14332" d="M4621.728,455.4a11.792,11.792,0,0,0,3.8-1.056c2.967-1.624,5.365-3.752,5.087-4.275-.4-.742-2.557.461-3.51.986s-.226-.556.61-.894.377-.807-2.168,1.094c-1.186.889-2.4,1.7-3.358,2.323-.344.306-.569.524-.773.709-.518.46-.275,1.69.314,1.113Z" fill="#fff" fill-rule="evenodd"/>
        <path id="Caminho_14333" data-name="Caminho 14333" d="M4621.971,454.894c2.112-.713,7.839-4.617,7.839-4.617s-6.654,3.428-7.839,4.617Z" fill="#cfcdcc" fill-rule="evenodd"/>
        <path id="Caminho_14334" data-name="Caminho 14334" d="M4620.794,453.869a40.6,40.6,0,0,0,5.99-6.344c1.314-1.892-.7-3.052-2.9-.475s-4.38,6.374-3.091,6.819Z" fill="#fff" fill-rule="evenodd"/>
        <path id="Caminho_14335" data-name="Caminho 14335" d="M4618.664,452.995c1.195-.294,6.894-10.092,6.365-11.073s-3.106.374-5.011,4.15a12.115,12.115,0,0,0-1.354,6.923Z" fill="#cfcdcc" fill-rule="evenodd"/>
        <path id="Caminho_14336" data-name="Caminho 14336" d="M4618.664,452.995a2.122,2.122,0,0,0,.764-.666,9.043,9.043,0,0,1,1.912-4.7,21.728,21.728,0,0,0,2.71-4.582c.144-.607-.546.332-1.521,2.018s-1.737,2.326-2.338,3.784-.806,2.155-.8.945c0-1.135,1.28-4.41,1.835-5.712a13.766,13.766,0,0,0-1.21,1.985,12.115,12.115,0,0,0-1.354,6.923Zm1.108-1.087a45.289,45.289,0,0,0,5.077-8.912,78.434,78.434,0,0,0-4.873,8.344,4.125,4.125,0,0,0-.2.568Z" fill="#fff" fill-rule="evenodd"/>
        <path id="Caminho_14337" data-name="Caminho 14337" d="M4622.271,454.334a6.04,6.04,0,0,1-2.066,8.277,6.329,6.329,0,0,1-1.45.644c-2.071.62-4.221-1.176-5.162-2.874a9,9,0,0,1-.943-5.633c.2-1.248.242-1.694,1.315-2.35a6.035,6.035,0,0,1,8.306,1.936Z" fill="#ddb30b" fill-rule="evenodd"/>
        <path id="Caminho_14338" data-name="Caminho 14338" d="M4618.253,463.36c-1.9.225-3.794-1.415-4.66-2.979a9,9,0,0,1-.943-5.633c.044-.281.081-.526.123-.74a.583.583,0,0,1,.207.018c1.237.334,1.809,1.078.914.895s-.488.3.177.986,1.869.188,1.069.557-1.71,1.77-1.125,1.533,1.885-1.876,1.15-.4-.178,4.472-.1,2.607,1.881-3.269,1.162-1.862.135,4.281.159,2.932,1.113-3.527.865-1.858.44,3.306.553,1.9,1.3-2.244.869-1.253a6.766,6.766,0,0,0-.418,3.294Z" fill="#cd9d0b" fill-rule="evenodd"/>
        <path id="Caminho_14339" data-name="Caminho 14339" d="M4622.271,454.334a6.04,6.04,0,0,1-2.066,8.277,6.392,6.392,0,0,1-1,.489c.47-2.192-.408-2.567,1.391-3.541,1.237-.67,1.371-.775,1.286-1.129s-.518.214-1.145.465c-1.668.666-3.624-1.145-4.291-4.064s-.816,2.211-1.942-.075c-.439-.9-1-1.253-1.639-1.115a2.1,2.1,0,0,1,1.1-1.243,6.035,6.035,0,0,1,8.306,1.936Z" fill="#dbc10f" fill-rule="evenodd"/>
        <path id="Caminho_14340" data-name="Caminho 14340" d="M4623.1,458.068a6.123,6.123,0,0,1-2.9,4.543c-.043.021-.083.047-.124.072-.281-.826-.46-1.522-.262-1.8.28-.388.16.748.645.7s.007-1.01.349-1.3.535,1.157.663.569.259-1.732.513-1.24c.2.385.8-.513,1.113-1.541Z" fill="#ddb30b" fill-rule="evenodd"/>
        <path id="Caminho_14341" data-name="Caminho 14341" d="M4617.241,452.24c-.546,1.229-.108,3.918.386,4.15s-.23-2.142.427-2.676-.309,2.427,1.058,3.785,2.411.136,2.125-1.21,1.274.474.983,1.683,1.066,1.227.219-1.838-2.328-2.782-2.733-2.133-.682-.163-.165-.93-.148-1.117-.518-.039-.453,1.89-.435.756.677-1.53.182-1.539-1.224.119-1.3,1.465-.491-.733.258-1.411-.325-.606-.488-.063Z" fill="#ffdc80" fill-rule="evenodd"/>
        <path id="Caminho_14342" data-name="Caminho 14342" d="M4618.368,446.133c.431.173,1.544-5.9.574-6.269s-.574,6.269-.574,6.269Zm2.107-2.43c.588-.684,1.223-2.981.653-3.2s-.653,3.2-.653,3.2Z" fill="#cfcdcc" fill-rule="evenodd"/>
        <path id="Caminho_14343" data-name="Caminho 14343" d="M4608.305,443.368c-.449.142.4.612.78,1.1s-.793-.689-.786-.189,1.815,1.3,3.244,3.291a30.4,30.4,0,0,1,2.008,2.979c.3.538-3.414-7.754-5.246-7.183Z" fill="#cfcdcc" fill-rule="evenodd"/>
        <path id="Caminho_14344" data-name="Caminho 14344" d="M4610.835,453.14c-4.026-2.761-7.348-2.639-7.626-2.211s.608.323,1.417.549-.568.3-1.2.53,1.1.665,2.9.539.082-.54-.666-.543.1-.5,1.1-.36a29.673,29.673,0,0,1,4.074,1.5Z" fill="#cfcdcc" fill-rule="evenodd"/>
        <path id="Caminho_14345" data-name="Caminho 14345" d="M4610.778,461.44c-1.627,1.132-5.248,2.115-6.247,2.935s2.82.044,6.247-2.935Z" fill="#cfcdcc" fill-rule="evenodd"/>
        <path id="Caminho_14346" data-name="Caminho 14346" d="M4612.249,461.291c-1.516.859-6.257,4.026-6.6,4.919s3.016-1.639,6.6-4.919Z" fill="#fff" fill-rule="evenodd"/>
        <path id="Caminho_14347" data-name="Caminho 14347" d="M4621.226,465.077c.734,3.581,3.013,7.834,3.55,7.882s-2.169-5.663-3.55-7.882Z" fill="#cfcdcc" fill-rule="evenodd"/>
        <path id="Caminho_14348" data-name="Caminho 14348" d="M4626.963,465.977c.58,1.26,1.267,2.213,1.616,1.945s-1.035-1.871-1.616-1.945Z" fill="#cfcdcc" fill-rule="evenodd"/>
        <path id="Caminho_14349" data-name="Caminho 14349" d="M4628.407,460.542c1.973,1.027,4.108,1.638,4.18.817s-4.18-.817-4.18-.817Z" fill="#cfcdcc" fill-rule="evenodd"/>
      </g>
    </g>
    <g id="Grupo_4587" data-name="Grupo 4587">
      <g id="Grupo_4585" data-name="Grupo 4585">
        <path id="Caminho_14350" data-name="Caminho 14350" d="M4595.362,498.725l.732-.031c2.284,1.238,3.164.8,4.529.167-1.222,1.174-2.989,1.347-5.261-.136Z" fill="#69802f" fill-rule="evenodd"/>
        <path id="Caminho_14351" data-name="Caminho 14351" d="M4588.748,498.1a4.553,4.553,0,0,0-2.838-2.928l-.452-.683c1.481.232,3.328,2.519,3.29,3.611Z" fill="#69802f" fill-rule="evenodd"/>
        <path id="Caminho_14352" data-name="Caminho 14352" d="M4585.144,494.1l.341.535c-.243.351-.417.483-.6,2.07a3.433,3.433,0,0,1,.256-2.605Z" fill="#69802f" fill-rule="evenodd"/>
        <path id="Caminho_14353" data-name="Caminho 14353" d="M4583.568,493.16a11.959,11.959,0,0,1,3.364,4.978,6.664,6.664,0,0,0-2.434-4.817,6.064,6.064,0,0,1-.93-.161Z" fill="#69802f" fill-rule="evenodd"/>
        <path id="Caminho_14354" data-name="Caminho 14354" d="M4591.228,496.718c1.381,2.128,3.7,4.2,5.271,4.449-2.955-.327-5.358-3.451-5.986-4.832Z" fill="#69802f" fill-rule="evenodd"/>
        <path id="Caminho_14355" data-name="Caminho 14355" d="M4590.242,501.677a7.5,7.5,0,0,0-1.325-6.569l-.416.027c1.138.906,1.673,4.731,1.741,6.542Z" fill="#69802f" fill-rule="evenodd"/>
        <path id="Caminho_14356" data-name="Caminho 14356" d="M4594.759,498.513l-1.079-.37c1.762.59,3.537-3.068,6.93-2.644a5.748,5.748,0,0,0-3.435,1.417c-.7.609-1.461,1.633-2.416,1.6Z" fill="#4f8031" fill-rule="evenodd"/>
        <path id="Caminho_14357" data-name="Caminho 14357" d="M4578.669,491.433l-.741.73c4.8,0,11.4,3.221,13.445,5.039a6.739,6.739,0,0,0,8.925-.141,6.631,6.631,0,0,1-8.612-.318,25.99,25.99,0,0,0-13.017-5.31Z" fill="#4f8031" fill-rule="evenodd"/>
        <path id="Caminho_14358" data-name="Caminho 14358" d="M4583.98,492.723l-1.434-.338a3.06,3.06,0,0,0,3.319-2.184,2.873,2.873,0,0,1-1.885,2.522Z" fill="#4f8031" fill-rule="evenodd"/>
        <path id="Caminho_14359" data-name="Caminho 14359" d="M4587.923,493.577l-.841-.033s1.506-.035,2.163-3.141c.074.665.231,2.427-1.322,3.174Z" fill="#4f8031" fill-rule="evenodd"/>
        <path id="Caminho_14360" data-name="Caminho 14360" d="M4586.906,493.858l-1.251-.258s5.24-.34,6.294-3.3c-.4,1.98-2.205,3.424-5.043,3.554Z" fill="#4f8031" fill-rule="evenodd"/>
        <path id="Caminho_14361" data-name="Caminho 14361" d="M4591.512,496.069l.973-.017s1.57-3.881-.091-5.835c.994,2.573-.151,5.39-.882,5.852Z" fill="#4f8031" fill-rule="evenodd"/>
        <path id="Caminho_14362" data-name="Caminho 14362" d="M4591.245,496.643l-.691-.644c2.348.568,3.935-3.16,5.446-2.361-2.576.385-2.4,2.9-4.755,3.005Z" fill="#4f8031" fill-rule="evenodd"/>
        <path id="Caminho_14363" data-name="Caminho 14363" d="M4595.681,497.652l.5-.254s.108-3.2,2.223-3.919c-1.7.138-2.932,3.106-2.726,4.173Z" fill="#4f8031" fill-rule="evenodd"/>
        <path id="Caminho_14364" data-name="Caminho 14364" d="M4593.612,499.834l.684.274c.145,1.068-.056,1.662,1.878,3.722-2.4-1.144-2.345-3.432-2.562-4Z" fill="#69802f" fill-rule="evenodd"/>
        <path id="Caminho_14365" data-name="Caminho 14365" d="M4592.724,500.13a3.953,3.953,0,0,1-2.69-1.99l-.215-1.041a11.316,11.316,0,0,0,2.905,3.031Z" fill="#69802f" fill-rule="evenodd"/>
        <path id="Caminho_14366" data-name="Caminho 14366" d="M4583.725,497.005c-.774-2.745-1.973-4.544-4.124-4.758,2.763-1.166,4.23,2.8,4.124,4.758Z" fill="#69802f" fill-rule="evenodd"/>
      </g>
      <path id="Caminho_14367" data-name="Caminho 14367" d="M4612.312,490.77c-11.9-6-27.892-1.622-35.094,2.012s-3.635-.013,4.044-2.911c5.853-2.214,19.762-4.99,31.336-.19Z" fill="#69802f" fill-rule="evenodd"/>
      <g id="Grupo_4586" data-name="Grupo 4586">
        <path id="Caminho_14368" data-name="Caminho 14368" d="M4620.321,492.062c2.68-.5,4.853-.3,5.616.746s.279,3.46-2.191,2.259-5.081-2.381-3.425-3Z" fill="#a5a4a2" fill-rule="evenodd"/>
        <path id="Caminho_14369" data-name="Caminho 14369" d="M4620.574,492.018c2.563-.437,4.624-.221,5.363.79a1.811,1.811,0,0,1-.209,2.344,2.6,2.6,0,0,0-2.148-2.745,17.572,17.572,0,0,0-3.006-.389Z" fill="#bfbebc" fill-rule="evenodd"/>
        <path id="Caminho_14370" data-name="Caminho 14370" d="M4619.419,495.053c4.264,2.65,3.918,3.765,3.7,4.821-.624,3.065-2.3,1.371-3.411-.527-1.731-2.969-1.828-5.509-.291-4.294Z" fill="#bfbebc" fill-rule="evenodd"/>
        <path id="Caminho_14371" data-name="Caminho 14371" d="M4622.96,500.494c-.718,2.184-2.225.606-3.25-1.147-1.636-2.8-1.81-5.221-.534-4.468.771.843,1.633,1.788,2.292,2.6a5.589,5.589,0,0,1,1.492,3.015Z" fill="#a5a4a2" fill-rule="evenodd"/>
        <path id="Caminho_14372" data-name="Caminho 14372" d="M4615.483,496.734c-1.758,2.718-3.836,7.94-2.4,8.8s3-1.873,3.523-4.992-.073-5.659-1.118-3.807Z" fill="#a5a4a2" fill-rule="evenodd"/>
        <path id="Caminho_14373" data-name="Caminho 14373" d="M4612.952,495.628c-2.249,2.233-4.9,6.769-4.585,8.115s1.109.147,1.617.438.224.8,1.09.879,3.189-5.607,3.495-7.922-1.617-1.51-1.617-1.51Z" fill="#bfbebc" fill-rule="evenodd"/>
        <path id="Caminho_14374" data-name="Caminho 14374" d="M4612.952,495.628c-1.939,1.925-4.177,5.567-4.553,7.392a5.175,5.175,0,0,0,.688-.624,40.642,40.642,0,0,0,3.072-4.467c1.823-2.662-1.448,3.488-1.223,4.756a4.146,4.146,0,0,0,.863,1.721,23.935,23.935,0,0,0,2.77-7.268c.306-2.308-1.617-1.51-1.617-1.51Z" fill="#a5a4a2" fill-rule="evenodd"/>
        <path id="Caminho_14375" data-name="Caminho 14375" d="M4610.794,491.756c-2.563-1.572-7.8-.779-8.678.311s.684,1.575.082,2.885,6.754-.365,8.927-1.728-.44-1.6-.331-1.468Z" fill="#bfbebc" fill-rule="evenodd"/>
        <path id="Caminho_14376" data-name="Caminho 14376" d="M4603.147,495.424a22.147,22.147,0,0,0,7.978-2.2c1.365-.861.831-1.272.277-1.426-.142.014-.291.027-.448.046a11.347,11.347,0,0,0-7.072,2.658,8.028,8.028,0,0,0-.735.922Z" fill="#a5a4a2" fill-rule="evenodd"/>
        <path id="Caminho_14377" data-name="Caminho 14377" d="M4610.386,490.654a18.155,18.155,0,0,1-6.086-3.417c-1.428-1.379-.7-2.2-.456-2.955.472-1.466,3.416.991,5.649,3.24s3.232,4.22.893,3.132Z" fill="#bfbebc" fill-rule="evenodd"/>
        <path id="Caminho_14378" data-name="Caminho 14378" d="M4604.979,483.958a16.969,16.969,0,0,1,4.514,3.564c.73.734,1.348,1.372,1.772,1.857-.17-.019.355.973.133.936a14.105,14.105,0,0,1-3.4-2.014c-1.387-.976-2.868-2.625-3.019-4.343Z" fill="#a5a4a2" fill-rule="evenodd"/>
        <path id="Caminho_14379" data-name="Caminho 14379" d="M4616.4,486.932c1.416-3.548,1.663-7.952.741-9.279s-2.674-.685-2.793,3.428.977,8.937,2.052,5.851Z" fill="#bfbebc" fill-rule="evenodd"/>
        <path id="Caminho_14380" data-name="Caminho 14380" d="M4612.985,486.889c-2.008-1.764-4.392-6.661-3.471-8.231s1.531-1.277,2.84.935,2.023,7.251,1.981,8.272-1.311-1.143-1.35-.976Z" fill="#bfbebc" fill-rule="evenodd"/>
        <path id="Caminho_14381" data-name="Caminho 14381" d="M4611.526,478.342a12.224,12.224,0,0,1,.828,1.251c1.052,1.779,1.722,5.375,1.919,7.251-.177-.2-.354-.4-.524-.6-1.275-1.47-2.939-5.562-2.223-7.9Z" fill="#a5a4a2" fill-rule="evenodd"/>
        <path id="Caminho_14382" data-name="Caminho 14382" d="M4616.4,486.932a16.833,16.833,0,0,0,1.164-8.084,18.077,18.077,0,0,0-1.485,6.089c.017.6-.87-1.3-.755-3.24a13.086,13.086,0,0,1,1.057-4.63c-.9-.243-1.941.873-2.033,4.014-.124,4.116.977,8.937,2.052,5.851Z" fill="#a5a4a2" fill-rule="evenodd"/>
        <path id="Caminho_14383" data-name="Caminho 14383" d="M4620.238,488.3c2.865-2.033,5.092-5.143,4.17-6.248s-4.047,1.681-5.273,5.029,1.1,1.219,1.1,1.219Z" fill="#cfcdcc" fill-rule="evenodd"/>
        <path id="Caminho_14384" data-name="Caminho 14384" d="M4621.4,491.035c3.5.609,4.162.325,4.207-.692s-.845-1.441-.355-2.029.29-1.049.175-1.933-3.533.265-4.883,2.822,1.009,1.748.856,1.832Z" fill="#cfcdcc" fill-rule="evenodd"/>
        <path id="Caminho_14385" data-name="Caminho 14385" d="M4619.927,494.457c2.505,2.471,4.272,3.407,4.622,2.222s1.259-.958.789-2.268-1.651-1.661-3.727-1.9-3.866.723-1.684,1.942Z" fill="#cfcdcc" fill-rule="evenodd"/>
        <path id="Caminho_14386" data-name="Caminho 14386" d="M4616.255,494.659c2.206,6.5,3.705,7.87,4.619,7.465s.415-.463,1.146-1.19-.183-2.474-1.648-4.229a6.975,6.975,0,0,0-4.117-2.046Z" fill="#cfcdcc" fill-rule="evenodd"/>
        <path id="Caminho_14387" data-name="Caminho 14387" d="M4616.255,494.659c.146.433.287.839.428,1.222a6.523,6.523,0,0,0,.873.744c1.575,4.481,2.184,5.1,3.034,4.768s.432-.5-.595-2.185-1.371-2.2-.853-1.643,1.4,2.076,1.979,2.824a.727.727,0,0,0,1.13.112c.189-.867-.651-2.324-1.879-3.8a6.975,6.975,0,0,0-4.117-2.046Zm3.388-1.976c-.017.009-.031.014-.045.02.111.141,4.63,1.02,4.8,1.751.187.793-2.949-.757-3.924-1.127s-.354.536-.354.536c2.522,2.913,3.356,2.833,3.916,2.367s.245-.778.858-1.24-.382-1.2-1.725-1.779a8.284,8.284,0,0,0-3.514-.526l-.014,0Zm.854-2.117c1.689-.466,3.415,1.034,4.12-.219s-.165-1.564-1.025-1.229-1.913.936-1.884.579,1.882-.528,2.822-1.22.6-1.26.548-1.782-1.752.228-3.009,1.277a5.075,5.075,0,0,0-1.572,2.594Z" fill="#fff" fill-rule="evenodd"/>
        <path id="Caminho_14388" data-name="Caminho 14388" d="M4616.46,496.855c-1.421,2.258-2.228,6.736-1.454,7.878s1.071-1.073,1.86-.659,1.536-.036.817-3.751-.877-3.947-1.223-3.468Z" fill="#cfcdcc" fill-rule="evenodd"/>
        <path id="Caminho_14389" data-name="Caminho 14389" d="M4616.111,497.486c-1.134,2.247-1.746,5.784-1.212,7.046.37-1.567.56-2.064,1.382-1.455.876.65.514-1.379.443-3.748a13.305,13.305,0,0,1,.16-2.439.791.791,0,0,0-.1-.16,17.457,17.457,0,0,0-.705,3.943c0,2.049-.312-.832.017-3.06l.012-.127Z" fill="#fff" fill-rule="evenodd"/>
        <path id="Caminho_14390" data-name="Caminho 14390" d="M4613.91,496.887c-1.8,2.661-3.013,5.818-2.209,6.67s2.431,1.1,3.214-3.218-.266-4.6-1-3.452Z" fill="#fff" fill-rule="evenodd"/>
        <path id="Caminho_14391" data-name="Caminho 14391" d="M4611.94,494.955c-2.528,1.573-5.55,3.736-5.847,5.951a1.655,1.655,0,0,0,2.407,1.925c.675-.477,3.943-5.885,4.583-7.578s-1.143-.3-1.143-.3Z" fill="#cfcdcc" fill-rule="evenodd"/>
        <path id="Caminho_14392" data-name="Caminho 14392" d="M4612.321,492.788c-2.629-1.111-8.173,1.073-8.121,2.1s.939.911.653,1.957a.577.577,0,0,0,.472.729c.909.129,2.865-.659,4.356-1.9a10.19,10.19,0,0,0,2.64-2.887Z" fill="#cfcdcc" fill-rule="evenodd"/>
        <path id="Caminho_14393" data-name="Caminho 14393" d="M4611.664,488.306c-1.348-3.973-4.441-6.935-5.028-6.353s-.244,1.1-.842,1.238-.825,1.583.934,3.691,4.675,2.714,4.936,1.424Z" fill="#cfcdcc" fill-rule="evenodd"/>
        <path id="Caminho_14394" data-name="Caminho 14394" d="M4615.577,487.255c-.855-2.111-1.072-7.4.342-10.408s-2.665-.785-2.608.265c.021.395-1.3.605-1.591,1.722a9.239,9.239,0,0,0,.608,4.2c1.3,3.747,3.107,6.347,3.249,4.219Z" fill="#cfcdcc" fill-rule="evenodd"/>
        <path id="Caminho_14395" data-name="Caminho 14395" d="M4617.719,487.2c2.955-4.106,4.146-8.575,3.519-9.224-.462-.471-.709-.339-1.05-.474s-.49-.528-.851-.437c-.612.153-1.437,1.551-2.225,4.168-.986,3.3-.827,8.075.607,5.967Z" fill="#cfcdcc" fill-rule="evenodd"/>
        <path id="Caminho_14396" data-name="Caminho 14396" d="M4612.909,495.016c-3.7,1.947-6.117,5.22-5.919,6.485s3.391-3.686,3.864-4.08-2.1,3.241-2.735,4.34c-.363.636.127.8.883.5a46.744,46.744,0,0,0,4.081-7.005c.014-.042.027-.078.04-.114a.534.534,0,0,0-.214-.123Z" fill="#fff" fill-rule="evenodd"/>
        <path id="Caminho_14397" data-name="Caminho 14397" d="M4611.12,488.747c-1.647-3.311-3.969-5.547-4.717-5.225s-1.06,1.766,1.114,4.15a4.386,4.386,0,0,0,3.582,1.228c.008-.05.016-.1.021-.153Zm-6.18,5.31a7.824,7.824,0,0,1,4.066-.661c.957.311-3.953,1.091-3.938,1.775s3.473-.869,5.022-1.533-1.84,1.239-3.279,2.033-1.072,1.671,1.841.086a13.734,13.734,0,0,0,3.549-3.017c-2.051-.767-5.705.315-7.261,1.317Z" fill="#fff" fill-rule="evenodd"/>
        <path id="Caminho_14398" data-name="Caminho 14398" d="M4619.588,488.494c2.249-1.715,5.055-5.128,4.592-5.883s-1.718,1.458-2.18,1.961.463-1.225.732-1.826-.8.271-2.246,2.694-1.938,2.893-1.085,2.3a26.718,26.718,0,0,0,2.544-2.307c.669-.626-1.813,2.628-2.357,3.063Zm-2.339-7.695c-.046.137-.09.284-.137.434-.684,2.291-.817,5.293-.353,6.213.2.008.437-.186.678-.658,2.24-3.706,4.081-7.671,3.379-8.416s-2.139,4.663-2.8,6.015,1.356-4.257,1.681-5.4c.313-1.117-.6-.887-2.449,1.816Zm-1.962-2.056a11.716,11.716,0,0,0-.828,4.26c0,2.1-.466,2.028-.435-.617s1.884-5.862,1.561-6.413-1.34-.164-1.787,1.657-.377.561-.956.687c-.415.093-.934,1.525-.878,3.469a12.661,12.661,0,0,0,.364,1.25c1.3,3.747,3.107,6.347,3.249,4.219a17.211,17.211,0,0,1-.29-8.512Z" fill="#fff" fill-rule="evenodd"/>
        <path id="Caminho_14399" data-name="Caminho 14399" d="M4614.726,485.881c-8.46,1.016-2.668,13.642,2.281,11.837,7.976-2.912,4.056-12.6-2.281-11.837Z" fill="#ddb30b" fill-rule="evenodd"/>
        <path id="Caminho_14400" data-name="Caminho 14400" d="M4610.423,490.476c.026,3.763,3.4,8.282,6.487,7.274,1.562-1.18,1.706-1.54,1.885-2.078.24-.718-2.311,1.928-3.363,1.517s1.148-1.475.769-1.93-1.853,1.1-2.181.858,1.069-1.341.587-1.845-1.635,1.431-2.208.361,1.226-1.922.977-2.294-1.694-.257-1.89-.8.8-1.12-.666-1.182a.725.725,0,0,0-.4.122Z" fill="#cd9d0b" fill-rule="evenodd"/>
        <path id="Caminho_14401" data-name="Caminho 14401" d="M4614.726,485.881c-2.837.338-4.071,1.984-4.272,3.952a2.734,2.734,0,0,1,1.585-1.107c1.32-.028.389,1.649,2.748,4.7s5.52,1.134,4.8-1.67-2.459-1.98-1.951-.617-2.335.962-2.545-1.551c-.162-1.893,1.889-2.975,4.632-1.829a5.82,5.82,0,0,0-4.993-1.876Zm4.811,10.392a5.811,5.811,0,0,0,.368-8.308c-1.593-.749-3.014-.155-2.972.649.065,1.246.735-.287,2.437.882,1.513,1.038,1.627,3.3.167,6.777Z" fill="#dbc10f" fill-rule="evenodd"/>
        <path id="Caminho_14402" data-name="Caminho 14402" d="M4616.675,486.591c-2.053,1.182-2.2,2.829-1.771,4.054s1.649,2.058,2.365,1.726c.347-.16.67.619.33,1.062a1.5,1.5,0,0,1-2.181-.11c-1.389-1.214-3.516-5.721,1.257-6.732Z" fill="#ffdc80" fill-rule="evenodd"/>
        <path id="Caminho_14403" data-name="Caminho 14403" d="M4612.552,485.661c-1.939-2.125-3.37-6.559-2.328-7.342s.292,2.352,2.328,7.342Z" fill="#cfcdcc" fill-rule="evenodd"/>
        <path id="Caminho_14404" data-name="Caminho 14404" d="M4608.8,491.29c-2.386-.518-5.838.339-6.084,1.5s3.186-.777,6.084-1.5Z" fill="#cfcdcc" fill-rule="evenodd"/>
        <path id="Caminho_14405" data-name="Caminho 14405" d="M4611.277,499.872c-.948,1.6-2.534,3.354-2.041,3.657s.786-.655,1.148-.051.068-1.056.893-3.606Z" fill="#cfcdcc" fill-rule="evenodd"/>
      </g>
    </g>
  </g>
</svg>
