<svg xmlns="http://www.w3.org/2000/svg" width="30" height="30" viewBox="0 0 30 30">
  <g id="Grupo_986" data-name="Grupo 986" transform="translate(-10218 -2245)">
    <g id="Grupo_985" data-name="Grupo 985">
      <path id="Caminho_3669" data-name="Caminho 3669" d="M10225.065,2257.882a.937.937,0,0,1-.662,1.148,1.559,1.559,0,0,0-1.1,1.907.937.937,0,1,1-1.81.485,3.431,3.431,0,0,1,2.427-4.2.939.939,0,0,1,1.148.663Z" fill="#3c3c46" fill-rule="evenodd"/>
      <path id="Caminho_3670" data-name="Caminho 3670" d="M10243.774,2250.36a1.128,1.128,0,1,1-1.128-1.127A1.129,1.129,0,0,1,10243.774,2250.36Z" fill="#3c3c46"/>
      <path id="Caminho_3671" data-name="Caminho 3671" d="M10224,2271.44a1.127,1.127,0,1,1-1.128-1.127A1.128,1.128,0,0,1,10224,2271.44Z" fill="#3c3c46"/>
      <path id="Caminho_3672" data-name="Caminho 3672" d="M10239.36,2267.126a.937.937,0,0,1-.94-.933,3.261,3.261,0,0,0-3.275-3.247.938.938,0,0,1-.009-1.875,5.135,5.135,0,0,1,5.158,5.113.937.937,0,0,1-.933.942Z" fill="#3c3c46" fill-rule="evenodd"/>
      <path id="Caminho_3673" data-name="Caminho 3673" d="M10242.375,2256.25a2.813,2.813,0,1,1,2.813,2.813A2.813,2.813,0,0,1,10242.375,2256.25Zm2.813-.938a.938.938,0,1,0,.938.938A.938.938,0,0,0,10245.188,2255.312Z" fill="#3c3c46" fill-rule="evenodd"/>
      <path id="Caminho_3674" data-name="Caminho 3674" d="M10219.874,2248.28a3.282,3.282,0,1,1,3.282,3.282A3.281,3.281,0,0,1,10219.874,2248.28Zm3.282-1.406a1.406,1.406,0,1,0,1.407,1.406A1.407,1.407,0,0,0,10223.156,2246.874Z" fill="#3c3c46" fill-rule="evenodd"/>
      <path id="Caminho_3675" data-name="Caminho 3675" d="M10226.558,2253.118a6.564,6.564,0,1,1,11.983,4.776,8.913,8.913,0,0,1,5.71,8.2,9.15,9.15,0,0,1-9.375,8.905,9.28,9.28,0,0,1-9.169-7.037c-.081,0-.162,0-.242,0a7.464,7.464,0,1,1,1.093-14.849Zm6.442-3.431a4.687,4.687,0,0,0-4.686,4.593.938.938,0,0,1-1.212.877,5.591,5.591,0,1,0-1.639,10.936,5.711,5.711,0,0,0,.876-.069.937.937,0,0,1,1.077.821,7.541,7.541,0,0,0,14.958-.75,7.136,7.136,0,0,0-5.634-6.814.937.937,0,0,1-.441-1.577,4.688,4.688,0,0,0-3.3-8.018Z" fill="#3c3c46" fill-rule="evenodd"/>
      <path id="Caminho_3676" data-name="Caminho 3676" d="M10229.685,2251.06a4.691,4.691,0,0,0,0,6.63.937.937,0,1,1-1.324,1.325,6.562,6.562,0,1,1,10.181-1.119,8.9,8.9,0,0,1,5.71,8.2,9.15,9.15,0,0,1-9.375,8.905,9.278,9.278,0,0,1-9.169-7.037,7.463,7.463,0,0,1-5.521-12.737.938.938,0,0,1,1.327,1.325,5.588,5.588,0,0,0,7.9,7.9.938.938,0,0,1,1.325,1.327,7.438,7.438,0,0,1-3.178,1.887,7.417,7.417,0,0,0,7.313,5.458,7.046,7.046,0,1,0,0-14.063.938.938,0,1,1,0-1.876,9.939,9.939,0,0,1,1.753.157,4.689,4.689,0,0,0-6.944-6.285Z" fill="#3c3c46"/>
    </g>
  </g>
</svg>
