<svg xmlns="http://www.w3.org/2000/svg" width="26.187" height="26.186" viewBox="0 0 26.187 26.186">
  <g id="Grupo_453" data-name="Grupo 453" transform="translate(-780.865 -6326.907)">
    <path id="Caminho_1883" data-name="Caminho 1883" d="M807.052,6343.612v-7.224a3.161,3.161,0,0,0-3.161-3.16H792.6v2.709h11.287a.45.45,0,0,1,.452.451v7.224a.452.452,0,0,1-.452.452H792.6v2.708h11.287A3.16,3.16,0,0,0,807.052,6343.612Z" fill="#3c3c46"/>
    <path id="Caminho_1884" data-name="Caminho 1884" d="M788.089,6351.527a4.966,4.966,0,0,0,3.612,1.566h1.354v-2.709H791.7a2.256,2.256,0,0,1-2.257-2.257v-16.254a2.256,2.256,0,0,1,2.257-2.257h1.354v-2.709H791.7a4.949,4.949,0,0,1-7.224,0h-1.354v2.709h1.354a2.258,2.258,0,0,1,2.258,2.257v16.254a2.258,2.258,0,0,1-2.258,2.257h-1.354v2.709h1.354A4.964,4.964,0,0,0,788.089,6351.527Z" fill="#3c3c46"/>
    <rect id="Retângulo_188" data-name="Retângulo 188" width="2.709" height="14.448" transform="translate(780.865 6332.776)" fill="#3c3c46"/>
  </g>
</svg>
