<svg xmlns="http://www.w3.org/2000/svg" width="22.58" height="25" viewBox="0 0 22.58 25">
  <path id="Caminho_3667" data-name="Caminho 3667" d="M11035.419,2249.919h2.016a.405.405,0,0,1,.4.4v4.436h-4.033v-4.436a.405.405,0,0,1,.4-.4Zm6.452,9.274v4.436h-7.879a7.657,7.657,0,0,0-4.218-2.947v-1.489a2.016,2.016,0,0,1,2.016-2.016h8.065a2.018,2.018,0,0,1,2.016,2.016Zm-1.21,10.887h-5.242v-2.016a7.525,7.525,0,0,0-.279-2.016h6.731v2.823a1.209,1.209,0,0,1-1.21,1.209Zm-16.532-5.241v-2.017h3.629a5.242,5.242,0,0,1,5.242,5.242v2.016h-3.629A5.241,5.241,0,0,1,11024.129,2264.839Zm7.258-10.061a4.433,4.433,0,0,0-4.031,4.415v1.21h-5.646v4.436a7.664,7.664,0,0,0,7.661,7.661h11.29a3.629,3.629,0,0,0,3.629-3.629v-9.677a4.432,4.432,0,0,0-4.032-4.415v-4.456a2.824,2.824,0,0,0-2.822-2.823h-7.661a4.436,4.436,0,0,0-4.436,4.435h2.419a2.017,2.017,0,0,1,2.017-2.016h1.645a3.282,3.282,0,0,0-.032.4Z" transform="translate(-11021.71 -2247.5)" fill="#3c3c46"/>
</svg>
