<svg xmlns="http://www.w3.org/2000/svg" width="88.789" height="29.427" viewBox="0 0 88.789 29.427">
  <g id="Grupo_4632" data-name="Grupo 4632" transform="translate(-4437.971 -481.656)">
    <g id="Grupo_4594" data-name="Grupo 4594">
      <path id="Caminho_14406" data-name="Caminho 14406" d="M4519.8,495.793c1.383-2.948-3.749-5.908-5.654-7.157-5.064-3.319-11.315-4.522-17.305-4.3-2.084.079-7.081,1.068-3.449,3.462a70.433,70.433,0,0,0,14.987,7.484C4510.162,495.925,4518.576,498.4,4519.8,495.793Z" fill="#877b40"/>
      <g id="Grupo_4589" data-name="Grupo 4589" opacity="0.42">
        <path id="Caminho_14407" data-name="Caminho 14407" d="M4519.251,493.391a17.514,17.514,0,0,0-3.934-3.319,32.506,32.506,0,0,0-4.567-2.466,32.007,32.007,0,0,0-10.073-2.625,31.535,31.535,0,0,0-5.925.112c-.228.023-.177.366.048.35a33.406,33.406,0,0,1,10.123.994,32.1,32.1,0,0,1,9.393,3.975c.778.489,1.549,1,2.3,1.525.8.557,1.55,1.194,2.356,1.74C4519.158,493.8,4519.4,493.572,4519.251,493.391Z" fill="#612d0e"/>
      </g>
      <g id="Grupo_4590" data-name="Grupo 4590" opacity="0.42">
        <path id="Caminho_14408" data-name="Caminho 14408" d="M4518.195,494.538c-1.963-.593-3.93-1.141-5.878-1.79-1.964-.654-3.916-1.351-5.856-2.073-4.01-1.493-7.969-3.14-12.018-4.519-.154-.052-.3.171-.147.264a71.777,71.777,0,0,0,11.7,5.413c1.972.741,3.954,1.466,5.978,2.05a22.313,22.313,0,0,0,6.123,1.035C4518.3,494.918,4518.432,494.609,4518.195,494.538Z" fill="#612d0e"/>
      </g>
      <path id="Caminho_14409" data-name="Caminho 14409" d="M4517.761,493.952c.38.047.255-.313.119-.483a4.572,4.572,0,0,0-.823-.642q-.8-.6-1.635-1.135a26.479,26.479,0,0,0-3.458-1.859,47.815,47.815,0,0,0-4.6-1.8,49.969,49.969,0,0,0-10.111-1.977c-.14-.016-.336.017-.334.157,0,.083.079.14.149.184a12.637,12.637,0,0,0,1.464.772c.631.282,1.285.512,1.937.741,2.19.771,4.408,1.463,6.548,2.336,1.6.655,3.246,1.233,4.882,1.8,1.137.4,2.266.814,3.4,1.219A11.748,11.748,0,0,0,4517.761,493.952Z" fill="#ffdc80"/>
      <path id="Caminho_14410" data-name="Caminho 14410" d="M4517.477,495.328a11.433,11.433,0,0,0-2.254-.327c-.8-.091-1.594-.179-2.389-.3a34.6,34.6,0,0,1-4.752-1.12,55.949,55.949,0,0,1-8.857-3.765c-.871-.443-1.738-.891-2.617-1.318-.951-.462-1.841-1.033-2.8-1.488-.084-.04-.138.08-.075.134a27.222,27.222,0,0,0,2.315,1.7c.736.519,1.47,1.025,2.244,1.488a42.6,42.6,0,0,0,4.43,2.294,39.036,39.036,0,0,0,9.345,2.957,25.316,25.316,0,0,0,2.759.329,7.077,7.077,0,0,0,2.652-.174A.222.222,0,0,0,4517.477,495.328Z" fill="#ffdc80"/>
      <path id="Caminho_14411" data-name="Caminho 14411" d="M4515.214,492.312a12.9,12.9,0,0,0-2.79-1.581,23.95,23.95,0,0,0-2.914-1.431c-1.008-.391-2.037-.733-3.079-1.022-1.088-.3-2.208-.457-3.292-.752-.169-.046-.277.2-.1.259,1.046.331,2.064.86,3.077,1.287q1.493.629,2.986,1.254c1,.419,2.02.753,3.034,1.134a19.029,19.029,0,0,0,2.936,1.213C4515.29,492.714,4515.342,492.436,4515.214,492.312Z" fill="#ffdc80"/>
      <path id="Caminho_14412" data-name="Caminho 14412" d="M4504.788,492.884c-.875-.506-1.893-.8-2.811-1.232-1.028-.48-2.049-1.01-3.038-1.562-.1-.055-.208.078-.109.146a21.31,21.31,0,0,0,2.834,1.652,11.3,11.3,0,0,0,3.055,1.169C4504.809,493.07,4504.874,492.934,4504.788,492.884Z" fill="#ffdc80"/>
      <path id="Caminho_14413" data-name="Caminho 14413" d="M4513.606,495.375c-.992-.192-1.988-.449-2.972-.681-1.036-.244-2.1-.47-3.118-.769-.058-.017-.094.066-.035.089a21.481,21.481,0,0,0,2.911.987,20.743,20.743,0,0,0,3.2.464A.045.045,0,0,0,4513.606,495.375Z" fill="#ffdc80"/>
      <g id="Grupo_4591" data-name="Grupo 4591" opacity="0.42">
        <path id="Caminho_14414" data-name="Caminho 14414" d="M4512.044,493.239a16.249,16.249,0,0,1-2.433-.936c-.829-.368-1.684-.683-2.532-1.005s-1.7-.642-2.55-.952c-.925-.336-1.878-.6-2.8-.94a.07.07,0,0,0-.052.129c.909.374,1.783.832,2.689,1.215s1.816.752,2.727,1.122a16.813,16.813,0,0,0,4.942,1.431A.032.032,0,0,0,4512.044,493.239Z" fill="#612d0e"/>
      </g>
      <g id="Grupo_4592" data-name="Grupo 4592" opacity="0.42">
        <path id="Caminho_14415" data-name="Caminho 14415" d="M4516.5,491.373a35.347,35.347,0,0,0-6.3-3.794,25.007,25.007,0,0,0-7.042-1.9.024.024,0,0,0-.006.048,26.967,26.967,0,0,1,6.917,2.175,40.425,40.425,0,0,1,6.386,3.524C4516.5,491.457,4516.543,491.4,4516.5,491.373Z" fill="#612d0e"/>
      </g>
      <path id="Caminho_14416" data-name="Caminho 14416" d="M4492.984,487.375a3.634,3.634,0,0,1-.221-.726c-.016-.5.36-.615.622-.959a.53.53,0,0,0,.053-.649.454.454,0,0,0-.385-.129,1.18,1.18,0,0,0-.4.137,5.559,5.559,0,0,0-.718.432.884.884,0,0,0-.39.947,1.419,1.419,0,0,0,.632.737c.112.078.654.488.778.38A.169.169,0,0,0,4492.984,487.375Z" fill="#724918"/>
      <path id="Caminho_14417" data-name="Caminho 14417" d="M4502.473,487.369a1.96,1.96,0,0,0-.84-.237c-.323-.053-.652-.049-.978-.088-.124-.015-.18.175-.056.216.31.1.6.241.916.328a1.977,1.977,0,0,0,.865.146A.206.206,0,0,0,4502.473,487.369Z" fill="#ffdc80"/>
      <path id="Caminho_14418" data-name="Caminho 14418" d="M4518.834,494.34a.13.13,0,0,0-.239.1A.13.13,0,0,0,4518.834,494.34Z" fill="#ffdc80"/>
      <path id="Caminho_14419" data-name="Caminho 14419" d="M4519.3,494.708l-.039-.062a.107.107,0,0,0-.183.027c-.028.068.033.166.114.146l.071-.018A.058.058,0,0,0,4519.3,494.708Z" fill="#ffdc80"/>
      <path id="Caminho_14420" data-name="Caminho 14420" d="M4519.415,495.258a.125.125,0,0,0-.163-.065c-.064.036-.134.094-.1.177s.125.073.2.052A.126.126,0,0,0,4519.415,495.258Z" fill="#ffdc80"/>
      <path id="Caminho_14421" data-name="Caminho 14421" d="M4519.179,495.813a.106.106,0,0,0-.194.083A.106.106,0,0,0,4519.179,495.813Z" fill="#ffdc80"/>
      <path id="Caminho_14422" data-name="Caminho 14422" d="M4513.184,488.476a23.53,23.53,0,0,0-8.827-3.257c-.04-.007-.046.052-.008.061a29.539,29.539,0,0,1,4.585,1.389c1.424.572,2.8,1.266,4.188,1.919A.065.065,0,0,0,4513.184,488.476Z" fill="#ffdc80"/>
      <path id="Caminho_14423" data-name="Caminho 14423" d="M4495.843,485.931l.017-.021a.074.074,0,0,0-.05-.117l-.027,0a.088.088,0,1,0,.06.14Z" fill="#ffdc80"/>
      <path id="Caminho_14424" data-name="Caminho 14424" d="M4496.955,485.733v-.043a.089.089,0,0,0-.157-.063l-.029.032a.1.1,0,1,0,.185.074Z" fill="#ffdc80"/>
      <path id="Caminho_14425" data-name="Caminho 14425" d="M4496.358,486a.134.134,0,0,0-.084-.08l.015,0a.2.2,0,0,0,.152-.035.132.132,0,0,0,.02-.185.191.191,0,0,0-.137-.064.148.148,0,0,0-.16.124.145.145,0,0,0,.107.155.151.151,0,0,0-.188.2A.15.15,0,0,0,4496.358,486Z" fill="#ffdc80"/>
      <path id="Caminho_14426" data-name="Caminho 14426" d="M4494.266,485.712a.11.11,0,0,0-.2.087A.11.11,0,0,0,4494.266,485.712Z" fill="#ffdc80"/>
      <path id="Caminho_14427" data-name="Caminho 14427" d="M4495.03,485.825a.084.084,0,0,0-.155.066A.084.084,0,0,0,4495.03,485.825Z" fill="#ffdc80"/>
      <path id="Caminho_14428" data-name="Caminho 14428" d="M4493.39,486.324a.12.12,0,0,0-.221.1A.12.12,0,0,0,4493.39,486.324Z" fill="#ffdc80"/>
      <path id="Caminho_14429" data-name="Caminho 14429" d="M4493.637,486.624a.1.1,0,0,0-.192.082A.1.1,0,0,0,4493.637,486.624Z" fill="#ffdc80"/>
      <path id="Caminho_14430" data-name="Caminho 14430" d="M4494.167,486.735a.114.114,0,0,0-.209.089A.114.114,0,0,0,4494.167,486.735Z" fill="#ffdc80"/>
      <path id="Caminho_14431" data-name="Caminho 14431" d="M4494.489,487.273a.1.1,0,0,0-.192.082A.1.1,0,0,0,4494.489,487.273Z" fill="#ffdc80"/>
      <path id="Caminho_14432" data-name="Caminho 14432" d="M4518.552,495.5l-.017-.038a.164.164,0,0,0-.3.129l.015.038A.164.164,0,0,0,4518.552,495.5Z" fill="#ffdc80"/>
      <path id="Caminho_14433" data-name="Caminho 14433" d="M4517.8,496.288a9.353,9.353,0,0,0-1.389.046,14.083,14.083,0,0,1-1.523-.035,20.707,20.707,0,0,1-2.872-.5c-.08-.017-.109.108-.035.136a10.781,10.781,0,0,0,2.972.631,6.963,6.963,0,0,0,2.867-.128A.077.077,0,0,0,4517.8,496.288Z" fill="#ffdc80"/>
      <g id="Grupo_4593" data-name="Grupo 4593" opacity="0.62">
        <path id="Caminho_14434" data-name="Caminho 14434" d="M4518.44,493.711a15.93,15.93,0,0,1-3.112-.726,4.15,4.15,0,0,1-2.382-1.421c-.49-.852.082-2.024-.688-2.752a6.978,6.978,0,0,0-3.043-1.365c-1.12-.289-2.268-.492-3.409-.676-1.4-.226-2.8-.4-4.2-.543-1.346-.139-2.728-.338-4.082-.351-.688-.006-1.672.138-2.19-.44a1.892,1.892,0,0,1-.3-.885c-2.153.409-4.424,1.418-1.645,3.249a70.472,70.472,0,0,0,14.986,7.484c1.784.638,10.2,3.116,11.422.507a2.513,2.513,0,0,0-.007-2.126A4.229,4.229,0,0,1,4518.44,493.711Z" fill="#3b1f10"/>
      </g>
    </g>
    <g id="Grupo_4600" data-name="Grupo 4600">
      <path id="Caminho_14435" data-name="Caminho 14435" d="M4473.824,483.156c-1.428-2.927-6.953-.789-9.121-.089-5.761,1.861-10.62,5.973-14.2,10.779-1.246,1.672-3.612,6.184.531,4.858a70.432,70.432,0,0,0,15.231-6.974C4467.879,490.743,4475.087,485.746,4473.824,483.156Z" fill="#877b40"/>
      <g id="Grupo_4595" data-name="Grupo 4595" opacity="0.42">
        <path id="Caminho_14436" data-name="Caminho 14436" d="M4471.609,482.076a17.493,17.493,0,0,0-5.052.98,32.383,32.383,0,0,0-4.786,2.01,32,32,0,0,0-8.365,6.195,31.549,31.549,0,0,0-3.63,4.684c-.126.192.173.367.3.183a33.394,33.394,0,0,1,7.126-7.259,32.09,32.09,0,0,1,8.989-4.819c.869-.3,1.751-.579,2.632-.837.937-.274,1.9-.458,2.834-.742A.2.2,0,0,0,4471.609,482.076Z" fill="#612d0e"/>
      </g>
      <g id="Grupo_4596" data-name="Grupo 4596" opacity="0.42">
        <path id="Caminho_14437" data-name="Caminho 14437" d="M4471.84,483.618c-1.694,1.156-3.355,2.344-5.082,3.454s-3.51,2.2-5.29,3.259c-3.678,2.185-7.445,4.234-11.059,6.522-.137.087-.058.343.114.28a71.831,71.831,0,0,0,11.556-5.714c1.814-1.07,3.623-2.158,5.347-3.368a22.362,22.362,0,0,0,4.648-4.118C4472.2,483.775,4472.044,483.478,4471.84,483.618Z" fill="#612d0e"/>
      </g>
      <path id="Caminho_14438" data-name="Caminho 14438" d="M4471.111,483.588c.275-.267-.083-.394-.3-.4a4.557,4.557,0,0,0-1.016.237q-.965.246-1.909.561a26.528,26.528,0,0,0-3.618,1.526,48.006,48.006,0,0,0-4.287,2.454,49.921,49.921,0,0,0-7.885,6.632c-.1.1-.2.273-.086.359a.253.253,0,0,0,.236,0,12.679,12.679,0,0,0,1.519-.655c.617-.315,1.206-.679,1.794-1.044,1.974-1.221,3.9-2.513,5.927-3.632,1.517-.839,3-1.754,4.468-2.67,1.021-.636,2.055-1.254,3.082-1.882A11.741,11.741,0,0,0,4471.111,483.588Z" fill="#ffdc80"/>
      <path id="Caminho_14439" data-name="Caminho 14439" d="M4472,484.673a11.439,11.439,0,0,0-1.669,1.549c-.571.565-1.14,1.13-1.736,1.669a34.542,34.542,0,0,1-3.854,3,55.984,55.984,0,0,1-8.49,4.535c-.891.4-1.784.794-2.668,1.21-.957.45-1.959.785-2.913,1.244-.084.04-.024.157.058.142a27.172,27.172,0,0,0,2.776-.735c.867-.248,1.721-.5,2.568-.814a42.732,42.732,0,0,0,4.565-2.009,39.057,39.057,0,0,0,8.166-5.421,25.514,25.514,0,0,0,1.988-1.942,7.094,7.094,0,0,0,1.528-2.174A.222.222,0,0,0,4472,484.673Z" fill="#ffdc80"/>
      <path id="Caminho_14440" data-name="Caminho 14440" d="M4468.235,484.543a12.824,12.824,0,0,0-2.98,1.18,23.991,23.991,0,0,0-2.944,1.37c-.937.541-1.849,1.127-2.728,1.757-.917.657-1.74,1.432-2.65,2.091-.142.1-.015.343.136.243.914-.606,1.965-1.068,2.933-1.589q1.427-.766,2.85-1.538c.954-.515,1.854-1.1,2.787-1.65a19.035,19.035,0,0,0,2.787-1.526C4468.6,484.736,4468.412,484.52,4468.235,484.543Z" fill="#ffdc80"/>
      <path id="Caminho_14441" data-name="Caminho 14441" d="M4462.139,493.019c-.943.364-1.813.97-2.723,1.416-1.019.5-2.072.961-3.123,1.385-.1.043-.07.211.046.177a21.29,21.29,0,0,0,3.064-1.17,11.324,11.324,0,0,0,2.827-1.645C4462.3,493.12,4462.231,492.984,4462.139,493.019Z" fill="#ffdc80"/>
      <path id="Caminho_14442" data-name="Caminho 14442" d="M4469.611,487.716c-.771.652-1.6,1.266-2.4,1.887-.839.653-1.682,1.339-2.555,1.945-.049.035-.007.115.048.084a21.391,21.391,0,0,0,2.6-1.648,20.606,20.606,0,0,0,2.37-2.2A.046.046,0,0,0,4469.611,487.716Z" fill="#ffdc80"/>
      <g id="Grupo_4597" data-name="Grupo 4597" opacity="0.42">
        <path id="Caminho_14443" data-name="Caminho 14443" d="M4466.968,487.592a16.121,16.121,0,0,1-2.255,1.307c-.807.415-1.588.883-2.371,1.342s-1.565.918-2.342,1.388c-.842.509-1.642,1.088-2.488,1.589a.069.069,0,0,0,.068.121c.861-.473,1.766-.866,2.633-1.332s1.725-.942,2.585-1.418a16.815,16.815,0,0,0,4.215-2.951C4467.043,487.608,4467,487.568,4466.968,487.592Z" fill="#612d0e"/>
      </g>
      <g id="Grupo_4598" data-name="Grupo 4598" opacity="0.42">
        <path id="Caminho_14444" data-name="Caminho 14444" d="M4468.315,482.948a35.394,35.394,0,0,0-6.906,2.523,24.991,24.991,0,0,0-5.894,4.294.024.024,0,0,0,.033.035,26.963,26.963,0,0,1,6.034-4.021,40.375,40.375,0,0,1,6.751-2.761C4468.377,483.005,4468.36,482.935,4468.315,482.948Z" fill="#612d0e"/>
      </g>
      <path id="Caminho_14445" data-name="Caminho 14445" d="M4450.442,498.753a3.581,3.581,0,0,1-.7-.283c-.4-.3-.253-.666-.356-1.086-.057-.229-.237-.46-.473-.449a.455.455,0,0,0-.341.219,1.156,1.156,0,0,0-.142.394,5.62,5.62,0,0,0-.115.831.886.886,0,0,0,.493.9,1.429,1.429,0,0,0,.971-.03c.131-.039.79-.2.784-.368C4450.557,498.82,4450.5,498.779,4450.442,498.753Z" fill="#724918"/>
      <path id="Caminho_14446" data-name="Caminho 14446" d="M4456.393,491.361a1.963,1.963,0,0,0-.712.506c-.245.218-.448.477-.683.706-.089.087.024.25.133.179.273-.178.567-.319.831-.507a2,2,0,0,0,.656-.582A.206.206,0,0,0,4456.393,491.361Z" fill="#ffdc80"/>
      <path id="Caminho_14447" data-name="Caminho 14447" d="M4472.086,483a.13.13,0,0,0-.07.25A.13.13,0,0,0,4472.086,483Z" fill="#ffdc80"/>
      <path id="Caminho_14448" data-name="Caminho 14448" d="M4472.665,482.865l-.074-.008c-.082-.01-.129.1-.093.159a.108.108,0,0,0,.185,0l.031-.067A.058.058,0,0,0,4472.665,482.865Z" fill="#ffdc80"/>
      <path id="Caminho_14449" data-name="Caminho 14449" d="M4473.166,483.12a.124.124,0,0,0-.153.086c-.013.073-.011.163.076.188s.136-.052.163-.121A.124.124,0,0,0,4473.166,483.12Z" fill="#ffdc80"/>
      <path id="Caminho_14450" data-name="Caminho 14450" d="M4473.45,483.652a.106.106,0,0,0-.057.2A.106.106,0,0,0,4473.45,483.652Z" fill="#ffdc80"/>
      <path id="Caminho_14451" data-name="Caminho 14451" d="M4463.976,483.716a23.539,23.539,0,0,0-8.076,4.829c-.03.026.012.069.043.044a29.534,29.534,0,0,1,3.958-2.7c1.339-.751,2.744-1.388,4.122-2.058A.064.064,0,0,0,4463.976,483.716Z" fill="#ffdc80"/>
      <path id="Caminho_14452" data-name="Caminho 14452" d="M4451.113,495.621l-.006-.026a.075.075,0,0,0-.123-.034l-.018.019a.089.089,0,1,0,.147.041Z" fill="#ffdc80"/>
      <path id="Caminho_14453" data-name="Caminho 14453" d="M4451.656,494.631l-.033-.027a.088.088,0,0,0-.147.082l.006.042a.1.1,0,1,0,.174-.1Z" fill="#ffdc80"/>
      <path id="Caminho_14454" data-name="Caminho 14454" d="M4451.489,495.263a.137.137,0,0,0-.116.015l.013-.009a.193.193,0,0,0,.067-.14.133.133,0,0,0-.13-.133.2.2,0,0,0-.136.067.147.147,0,0,0,0,.2.144.144,0,0,0,.186.014.151.151,0,0,0,.038.271A.15.15,0,0,0,4451.489,495.263Z" fill="#ffdc80"/>
      <path id="Caminho_14455" data-name="Caminho 14455" d="M4449.953,496.712a.11.11,0,0,0-.06.211A.11.11,0,0,0,4449.953,496.712Z" fill="#ffdc80"/>
      <path id="Caminho_14456" data-name="Caminho 14456" d="M4450.519,496.188a.084.084,0,0,0-.045.162A.084.084,0,0,0,4450.519,496.188Z" fill="#ffdc80"/>
      <path id="Caminho_14457" data-name="Caminho 14457" d="M4449.879,497.777a.121.121,0,0,0-.065.232A.121.121,0,0,0,4449.879,497.777Z" fill="#ffdc80"/>
      <path id="Caminho_14458" data-name="Caminho 14458" d="M4450.267,497.774a.1.1,0,0,0-.056.2A.1.1,0,0,0,4450.267,497.774Z" fill="#ffdc80"/>
      <path id="Caminho_14459" data-name="Caminho 14459" d="M4450.687,497.43a.114.114,0,0,0-.062.219A.114.114,0,0,0,4450.687,497.43Z" fill="#ffdc80"/>
      <path id="Caminho_14460" data-name="Caminho 14460" d="M4451.307,497.518a.1.1,0,0,0-.056.2A.1.1,0,0,0,4451.307,497.518Z" fill="#ffdc80"/>
      <path id="Caminho_14461" data-name="Caminho 14461" d="M4472.812,483.942l-.04-.009a.163.163,0,0,0-.089.314l.04.012A.165.165,0,0,0,4472.812,483.942Z" fill="#ffdc80"/>
      <path id="Caminho_14462" data-name="Caminho 14462" d="M4472.952,485.027a9.264,9.264,0,0,0-.836,1.11,14,14,0,0,1-.983,1.164,20.72,20.72,0,0,1-2.194,1.92c-.064.051.015.152.084.113a10.854,10.854,0,0,0,2.356-1.918,6.979,6.979,0,0,0,1.7-2.313A.077.077,0,0,0,4472.952,485.027Z" fill="#ffdc80"/>
      <g id="Grupo_4599" data-name="Grupo 4599" opacity="0.62">
        <path id="Caminho_14463" data-name="Caminho 14463" d="M4466.6,485.3c-.973-.369-2.28-1.083-2.545-2.058a25.907,25.907,0,0,0-6.99,3.849,3.123,3.123,0,0,0,.344,1c.447.8,1.322,1.187,2.014,1.737.412.327.922.784.869,1.366a1.612,1.612,0,0,1-.793,1.052,13.371,13.371,0,0,1-3.665,1.52,17.766,17.766,0,0,0-7.132,4.305c.093.737.72,1.1,2.328.587a70.427,70.427,0,0,0,15.231-6.973,29.928,29.928,0,0,0,6.676-5.615A12.856,12.856,0,0,1,4466.6,485.3Z" fill="#3b1f10"/>
      </g>
    </g>
    <g id="Grupo_4603" data-name="Grupo 4603">
      <path id="Caminho_14464" data-name="Caminho 14464" d="M4458.8,487.322c-.017-.041-.034-.083-.05-.124-.415-1.068-.473-2.307-1.188-3.2-.741-.928-1.712-2.982.29-2.01,1.536.745,2.938,1.686,4.55,2.378a38.413,38.413,0,0,0,5.982,2.134,41.71,41.71,0,0,0,8.263,1.21,30.227,30.227,0,0,0,11.522-1.483c1.1-.428,5.146-3.557,5.691-1,.188.886-.592,2.036-1.061,2.686-2.932,4.056-6.7,6.006-11.464,7.082a24.46,24.46,0,0,1-20.043-4.643A8.242,8.242,0,0,1,4458.8,487.322Z" fill="#877b40"/>
      <path id="Caminho_14465" data-name="Caminho 14465" d="M4458.324,484.592c-.251-.394-.588-.723-.875-1.092a3.455,3.455,0,0,1-.434-.781.954.954,0,0,1-.11-.444c.018-.134.1-.389.289-.311a.351.351,0,0,1,.152.166,5.165,5.165,0,0,0,.8,1.076c.443.455.887.912,1.361,1.335a13.767,13.767,0,0,0,1.707,1.3c.6.388,1.181.817,1.778,1.22a31.418,31.418,0,0,0,4.852,2.77,25.6,25.6,0,0,0,6.1,1.821,23.25,23.25,0,0,0,7.946-.05,22.15,22.15,0,0,0,5.76-1.857,15.775,15.775,0,0,0,2.8-1.634,19.2,19.2,0,0,1,2.532-1.941.372.372,0,0,1,.225-.065c.448.068-1.926,3.229-2.141,3.458a17.441,17.441,0,0,1-9.22,4.869,24.169,24.169,0,0,1-11.922-.469,23.856,23.856,0,0,1-5.543-2.371,14.24,14.24,0,0,1-4.5-3.574,4.78,4.78,0,0,1-.878-1.619A6.568,6.568,0,0,0,4458.324,484.592Z" fill="#ffdc80"/>
      <path id="Caminho_14466" data-name="Caminho 14466" d="M4461.628,488.861c-.353-.276-.873-.7-.842-1.206.039-.656.643-.3,1-.136,1.095.5,2.119,1.24,3.158,1.847a23.354,23.354,0,0,0,6.71,2.936,28.52,28.52,0,0,0,5.641.716,26.865,26.865,0,0,0,5.308-.578,28.178,28.178,0,0,0,6.6-1.915c.141-.064.25.171.115.246a25.015,25.015,0,0,1-6.527,2.682,31.177,31.177,0,0,1-7.262.772,19.319,19.319,0,0,1-5.265-.8,21.123,21.123,0,0,1-4.471-1.764A34.042,34.042,0,0,1,4461.628,488.861Z" fill="#ffdc80"/>
      <path id="Caminho_14467" data-name="Caminho 14467" d="M4462.377,485.279a26.053,26.053,0,0,1,3.408,1.176,33.38,33.38,0,0,0,3.509.934,53.825,53.825,0,0,0,7.268,1.17,32.324,32.324,0,0,0,7.035-.177,20.066,20.066,0,0,0,6.97-2.174.308.308,0,0,1,.331.518,24.973,24.973,0,0,1-6.652,3.194,23.363,23.363,0,0,1-7.6.894A22.448,22.448,0,0,1,4469,489.24c-1.19-.5-2.371-.993-3.544-1.54a13.845,13.845,0,0,1-3.375-1.861A.331.331,0,0,1,4462.377,485.279Z" fill="#612d0e" opacity="0.42"/>
      <g id="Grupo_4601" data-name="Grupo 4601" opacity="0.62">
        <path id="Caminho_14468" data-name="Caminho 14468" d="M4467.543,487.674c1.22.2,2.4.586,3.628.765s2.457.349,3.686.5a36.063,36.063,0,0,0,7.543.288c.22-.019.22.3.013.334a30.837,30.837,0,0,1-7.731.442,18.991,18.991,0,0,1-3.71-.718,18.325,18.325,0,0,1-3.553-1.284A.178.178,0,0,1,4467.543,487.674Z" fill="#3b1f10"/>
      </g>
      <path id="Caminho_14469" data-name="Caminho 14469" d="M4456.934,482.228a.434.434,0,0,1,.4-.326.6.6,0,0,1,.528.318.359.359,0,0,1,.014.356.366.366,0,0,1-.3.186.607.607,0,0,1-.428-.063.482.482,0,0,1-.181-.2A.408.408,0,0,1,4456.934,482.228Z" fill="#3b1f10" opacity="0.62"/>
      <path id="Caminho_14470" data-name="Caminho 14470" d="M4492.644,485.075a.058.058,0,0,1,0,.116A.058.058,0,0,1,4492.644,485.075Z" fill="#ffdc80"/>
      <path id="Caminho_14471" data-name="Caminho 14471" d="M4492.233,485.414a.038.038,0,0,1,0,.075A.038.038,0,0,1,4492.233,485.414Z" fill="#ffdc80"/>
      <path id="Caminho_14472" data-name="Caminho 14472" d="M4491.731,485.3l.058-.012a.058.058,0,1,1,0,.113l-.058-.007A.049.049,0,0,1,4491.731,485.3Z" fill="#ffdc80"/>
      <path id="Caminho_14473" data-name="Caminho 14473" d="M4491.316,485.659l.055-.017c.1-.031.178.121.08.17l-.061.031a.154.154,0,0,1-.27.032.142.142,0,0,1-.023-.075A.152.152,0,0,1,4491.316,485.659Z" fill="#ffdc80"/>
      <path id="Caminho_14474" data-name="Caminho 14474" d="M4461.4,484.79l.041-.005a.161.161,0,0,1,.012.322l-.04,0A.157.157,0,0,1,4461.4,484.79Z" fill="#ffdc80"/>
      <path id="Caminho_14475" data-name="Caminho 14475" d="M4460.466,484.549l.015-.032a.124.124,0,0,1,.212-.008l.018.03a.142.142,0,1,1-.245.01Z" fill="#ffdc80"/>
      <path id="Caminho_14476" data-name="Caminho 14476" d="M4460.553,483.928l.072.041c.165.1-.045.323-.153.165l-.046-.069A.1.1,0,0,1,4460.553,483.928Z" fill="#ffdc80"/>
      <path id="Caminho_14477" data-name="Caminho 14477" d="M4459.307,483.485a.1.1,0,0,1,.119-.074c.079.021.109.083.151.146a.128.128,0,1,1-.229.108A.247.247,0,0,1,4459.307,483.485Z" fill="#ffdc80"/>
      <path id="Caminho_14478" data-name="Caminho 14478" d="M4474.946,492.52a.249.249,0,0,1,.119.038c.165.086-.049.319-.148.16a.261.261,0,0,1-.047-.116A.079.079,0,0,1,4474.946,492.52Z" fill="#ffdc80"/>
      <path id="Caminho_14479" data-name="Caminho 14479" d="M4473.865,492.743a.08.08,0,0,1,.006.16A.08.08,0,0,1,4473.865,492.743Z" fill="#ffdc80"/>
      <path id="Caminho_14480" data-name="Caminho 14480" d="M4473,492.4a.1.1,0,0,1,.007.193A.1.1,0,0,1,4473,492.4Z" fill="#ffdc80"/>
      <path id="Caminho_14481" data-name="Caminho 14481" d="M4472.132,493.337a.1.1,0,0,1,.007.2A.1.1,0,0,1,4472.132,493.337Z" fill="#ffdc80"/>
      <path id="Caminho_14482" data-name="Caminho 14482" d="M4464.955,490.155a.676.676,0,0,1,.149-.023.123.123,0,0,1,.01.245.692.692,0,0,1-.151-.011A.11.11,0,0,1,4464.955,490.155Z" fill="#ffdc80"/>
      <path id="Caminho_14483" data-name="Caminho 14483" d="M4462.913,489.186a.556.556,0,0,1,.406.1,1.059,1.059,0,0,1,.318.284c.107.136-.106.3-.228.19a1.635,1.635,0,0,0-.259-.2c-.09-.055-.216-.08-.286-.159A.132.132,0,0,1,4462.913,489.186Z" fill="#ffdc80"/>
      <path id="Caminho_14484" data-name="Caminho 14484" d="M4462.305,488.86c.042-.093.122-.1.17-.007a.1.1,0,1,1-.17.007Z" fill="#ffdc80"/>
      <path id="Caminho_14485" data-name="Caminho 14485" d="M4461.788,488.213a.718.718,0,0,1,.142.084.1.1,0,1,1-.129.14.671.671,0,0,1-.094-.136A.062.062,0,0,1,4461.788,488.213Z" fill="#ffdc80"/>
      <path id="Caminho_14486" data-name="Caminho 14486" d="M4476.985,493.534c1.149-.193,2.337-.251,3.5-.328.051,0,.053.073,0,.079a35.11,35.11,0,0,1-3.5.309A.03.03,0,0,1,4476.985,493.534Z" fill="#ffdc80"/>
      <path id="Caminho_14487" data-name="Caminho 14487" d="M4492.064,484.458a1.2,1.2,0,0,1,1.118.079.958.958,0,0,1,.258,1.025c-.016.072-.14.064-.133-.012a.867.867,0,0,0-.374-.85,2.563,2.563,0,0,0-.865-.157C4492.022,484.534,4492.028,484.474,4492.064,484.458Z" fill="#ffdc80"/>
      <path id="Caminho_14488" data-name="Caminho 14488" d="M4464.872,485.482a35.65,35.65,0,0,0,13.768,2.66.021.021,0,0,1,0,.042,28.7,28.7,0,0,1-13.782-2.68C4464.846,485.5,4464.858,485.476,4464.872,485.482Z" fill="#ffdc80"/>
      <g id="Grupo_4602" data-name="Grupo 4602" opacity="0.62">
        <path id="Caminho_14489" data-name="Caminho 14489" d="M4492.023,486.122a25.186,25.186,0,0,1-3.393-.156,4.334,4.334,0,0,1-.464.23,23.379,23.379,0,0,1-6.246,1.355c-.043.055-.084.111-.122.171a12.933,12.933,0,0,0-.6,1.347,3.381,3.381,0,0,1-3.551,1.706c-1.04-.081-2.037-.364-3.088-.38a22.173,22.173,0,0,0-3.626.333,53.256,53.256,0,0,1-7,.681c-.381.007-.775.011-1.174,0a24.7,24.7,0,0,0,18.579,3.55c4.764-1.076,8.532-3.026,11.464-7.083a5.981,5.981,0,0,0,1.043-2A8.928,8.928,0,0,1,4492.023,486.122Z" fill="#3b1f10"/>
      </g>
    </g>
    <g id="Grupo_4609" data-name="Grupo 4609">
      <path id="Caminho_14490" data-name="Caminho 14490" d="M4500.349,499.424c.745-3.171-4.886-5.009-7.008-5.838-5.639-2.2-12-2.092-17.819-.636-2.023.506-6.709,2.5-2.661,4.1a70.454,70.454,0,0,0,16.207,4.234C4490.945,501.539,4499.689,502.229,4500.349,499.424Z" fill="#877b40"/>
      <g id="Grupo_4604" data-name="Grupo 4604" opacity="0.42">
        <path id="Caminho_14491" data-name="Caminho 14491" d="M4499.317,497.186a17.563,17.563,0,0,0-4.534-2.437,32.543,32.543,0,0,0-4.978-1.471,32,32,0,0,0-10.4-.492,31.468,31.468,0,0,0-5.775,1.331c-.218.069-.1.394.119.333a33.369,33.369,0,0,1,10.111-1.114,32.065,32.065,0,0,1,10.01,1.953c.862.318,1.722.659,2.568,1.017.9.38,1.763.849,2.664,1.217A.2.2,0,0,0,4499.317,497.186Z" fill="#612d0e"/>
      </g>
      <g id="Grupo_4605" data-name="Grupo 4605" opacity="0.42">
        <path id="Caminho_14492" data-name="Caminho 14492" d="M4498.52,498.526c-2.044-.176-4.081-.306-6.121-.539-2.057-.235-4.11-.516-6.158-.822-4.231-.634-8.445-1.43-12.691-1.944-.162-.02-.262.229-.09.289a71.811,71.811,0,0,0,12.566,2.884c2.081.319,4.17.62,6.271.774a22.357,22.357,0,0,0,6.205-.249C4498.7,498.876,4498.767,498.547,4498.52,498.526Z" fill="#612d0e"/>
      </g>
      <path id="Caminho_14493" data-name="Caminho 14493" d="M4497.975,498.042c.381-.032.184-.358.016-.5a4.568,4.568,0,0,0-.938-.458q-.9-.422-1.833-.774a26.411,26.411,0,0,0-3.767-1.106,47.814,47.814,0,0,0-4.873-.812,49.978,49.978,0,0,0-10.3.149c-.14.014-.326.087-.294.224.018.08.106.12.184.148a12.52,12.52,0,0,0,1.591.454c.676.146,1.363.236,2.049.326,2.3.3,4.614.523,6.888.936,1.706.31,3.43.537,5.15.758,1.193.154,2.385.33,3.577.492A11.7,11.7,0,0,0,4497.975,498.042Z" fill="#ffdc80"/>
      <path id="Caminho_14494" data-name="Caminho 14494" d="M4497.98,499.448a11.342,11.342,0,0,0-2.273.144c-.8.076-1.6.154-2.4.194a34.742,34.742,0,0,1-4.881-.116,55.979,55.979,0,0,1-9.444-1.859c-.943-.254-1.884-.514-2.832-.75-1.026-.257-2.014-.632-3.042-.88-.091-.021-.119.107-.046.147a27.1,27.1,0,0,0,2.615,1.187c.828.356,1.651.7,2.5.994a42.693,42.693,0,0,0,4.807,1.332,39.073,39.073,0,0,0,9.753.967,25.631,25.631,0,0,0,2.768-.247,7.079,7.079,0,0,0,2.559-.718A.221.221,0,0,0,4497.98,499.448Z" fill="#ffdc80"/>
      <path id="Caminho_14495" data-name="Caminho 14495" d="M4495.143,496.963a12.8,12.8,0,0,0-3.055-.972,23.855,23.855,0,0,0-3.147-.8c-1.067-.174-2.144-.3-3.223-.366-1.127-.071-2.255.009-3.376-.056-.175-.01-.229.256-.048.274,1.092.109,2.2.416,3.276.625q1.59.307,3.181.612c1.065.2,2.131.321,3.2.484a18.89,18.89,0,0,0,3.123.581C4495.3,497.341,4495.295,497.057,4495.143,496.963Z" fill="#ffdc80"/>
      <path id="Caminho_14496" data-name="Caminho 14496" d="M4485.059,499.672c-.96-.316-2.017-.4-3-.627-1.1-.257-2.213-.566-3.3-.9-.108-.034-.188.119-.076.165a21.134,21.134,0,0,0,3.114,1.033,11.31,11.31,0,0,0,3.229.514C4485.118,499.85,4485.154,499.7,4485.059,499.672Z" fill="#ffdc80"/>
      <path id="Caminho_14497" data-name="Caminho 14497" d="M4494.2,500.291c-1.009.017-2.037-.029-3.048-.054-1.064-.025-2.15-.027-3.209-.109a.048.048,0,0,0-.017.1,21.573,21.573,0,0,0,3.053.365,20.631,20.631,0,0,0,3.229-.206A.046.046,0,0,0,4494.2,500.291Z" fill="#ffdc80"/>
      <g id="Grupo_4606" data-name="Grupo 4606" opacity="0.42">
        <path id="Caminho_14498" data-name="Caminho 14498" d="M4492.233,498.523a16.073,16.073,0,0,1-2.573-.415c-.888-.188-1.789-.321-2.686-.46s-1.792-.279-2.691-.407c-.975-.138-1.96-.2-2.933-.343a.07.07,0,0,0-.024.137c.967.179,1.916.447,2.882.635s1.932.361,2.9.536a16.836,16.836,0,0,0,5.131.381A.032.032,0,0,0,4492.233,498.523Z" fill="#612d0e"/>
      </g>
      <g id="Grupo_4607" data-name="Grupo 4607" opacity="0.42">
        <path id="Caminho_14499" data-name="Caminho 14499" d="M4496.214,495.778a35.447,35.447,0,0,0-6.945-2.415,25.027,25.027,0,0,0-7.281-.4.024.024,0,0,0,0,.048,26.934,26.934,0,0,1,7.217.7,40.39,40.39,0,0,1,6.975,2.131C4496.226,495.861,4496.256,495.8,4496.214,495.778Z" fill="#612d0e"/>
      </g>
      <path id="Caminho_14500" data-name="Caminho 14500" d="M4472.373,496.714a3.586,3.586,0,0,1-.365-.665c-.12-.49.226-.675.411-1.066a.531.531,0,0,0-.082-.646.454.454,0,0,0-.4-.047,1.174,1.174,0,0,0-.36.215,5.691,5.691,0,0,0-.614.571.886.886,0,0,0-.186,1.007,1.419,1.419,0,0,0,.771.591c.125.053.741.343.839.211A.168.168,0,0,0,4472.373,496.714Z" fill="#724918"/>
      <path id="Caminho_14501" data-name="Caminho 14501" d="M4481.658,494.752a1.968,1.968,0,0,0-.871-.059c-.328.015-.648.087-.976.116-.123.011-.14.209-.01.222.324.035.641.112.965.133a1.989,1.989,0,0,0,.876-.035A.206.206,0,0,0,4481.658,494.752Z" fill="#ffdc80"/>
      <path id="Caminho_14502" data-name="Caminho 14502" d="M4499.1,498.2a.13.13,0,0,0-.212.149A.13.13,0,0,0,4499.1,498.2Z" fill="#ffdc80"/>
      <path id="Caminho_14503" data-name="Caminho 14503" d="M4499.635,498.465l-.051-.053a.108.108,0,0,0-.174.064c-.012.073.067.156.142.12l.066-.032A.058.058,0,0,0,4499.635,498.465Z" fill="#ffdc80"/>
      <path id="Caminho_14504" data-name="Caminho 14504" d="M4499.862,498.98a.125.125,0,0,0-.173-.031c-.056.049-.111.12-.059.194s.138.046.2.01A.124.124,0,0,0,4499.862,498.98Z" fill="#ffdc80"/>
      <path id="Caminho_14505" data-name="Caminho 14505" d="M4499.745,499.571a.106.106,0,0,0-.173.122A.106.106,0,0,0,4499.745,499.571Z" fill="#ffdc80"/>
      <path id="Caminho_14506" data-name="Caminho 14506" d="M4492.367,493.628a23.537,23.537,0,0,0-9.309-1.368c-.04,0-.034.061,0,.061a29.457,29.457,0,0,1,4.772.415c1.512.265,3,.66,4.494,1.013A.064.064,0,0,0,4492.367,493.628Z" fill="#ffdc80"/>
      <path id="Caminho_14507" data-name="Caminho 14507" d="M4474.874,494.712l.012-.024a.074.074,0,0,0-.074-.1l-.026,0a.088.088,0,1,0,.088.125Z" fill="#ffdc80"/>
      <path id="Caminho_14508" data-name="Caminho 14508" d="M4475.921,494.288l-.008-.041a.088.088,0,0,0-.166-.029l-.022.036a.1.1,0,1,0,.2.034Z" fill="#ffdc80"/>
      <path id="Caminho_14509" data-name="Caminho 14509" d="M4475.392,494.672a.139.139,0,0,0-.1-.061.077.077,0,0,0,.015,0,.2.2,0,0,0,.141-.066.131.131,0,0,0-.018-.185.188.188,0,0,0-.147-.034.142.142,0,0,0,0,.284.15.15,0,1,0,.1.061Z" fill="#ffdc80"/>
      <path id="Caminho_14510" data-name="Caminho 14510" d="M4473.285,494.823a.11.11,0,0,0-.179.126A.11.11,0,0,0,4473.285,494.823Z" fill="#ffdc80"/>
      <path id="Caminho_14511" data-name="Caminho 14511" d="M4474.056,494.775a.084.084,0,0,0-.138.1A.084.084,0,0,0,4474.056,494.775Z" fill="#ffdc80"/>
      <path id="Caminho_14512" data-name="Caminho 14512" d="M4472.555,495.6a.121.121,0,0,0-.2.138A.121.121,0,0,0,4472.555,495.6Z" fill="#ffdc80"/>
      <path id="Caminho_14513" data-name="Caminho 14513" d="M4472.857,495.845a.1.1,0,0,0-.171.119A.1.1,0,0,0,4472.857,495.845Z" fill="#ffdc80"/>
      <path id="Caminho_14514" data-name="Caminho 14514" d="M4473.4,495.843a.114.114,0,0,0-.186.131A.114.114,0,0,0,4473.4,495.843Z" fill="#ffdc80"/>
      <path id="Caminho_14515" data-name="Caminho 14515" d="M4473.825,496.3a.1.1,0,0,0-.171.12A.1.1,0,0,0,4473.825,496.3Z" fill="#ffdc80"/>
      <path id="Caminho_14516" data-name="Caminho 14516" d="M4499.067,499.393l-.024-.033a.163.163,0,0,0-.267.187l.022.035C4498.915,499.759,4499.195,499.563,4499.067,499.393Z" fill="#ffdc80"/>
      <path id="Caminho_14517" data-name="Caminho 14517" d="M4498.49,500.321a9.292,9.292,0,0,0-1.349.331,13.89,13.89,0,0,1-1.5.28,20.685,20.685,0,0,1-2.913.1c-.082,0-.085.128-.007.141a10.818,10.818,0,0,0,3.039,0,6.973,6.973,0,0,0,2.779-.716A.077.077,0,0,0,4498.49,500.321Z" fill="#ffdc80"/>
      <g id="Grupo_4608" data-name="Grupo 4608" opacity="0.62">
        <path id="Caminho_14518" data-name="Caminho 14518" d="M4493.341,493.582a26.9,26.9,0,0,0-11.54-1.63,4.131,4.131,0,0,0,.752,1.083,6,6,0,0,0,2.146,1.331,3.31,3.31,0,0,1,1.367.766.6.6,0,0,1-.282.968,3.585,3.585,0,0,1-1.8.043,9.217,9.217,0,0,0-2.842.379c-.457.094-1.167.3-1.564-.051-.528-.465,0-1.376.254-1.836a2.291,2.291,0,0,0,.418-1.468,1.47,1.47,0,0,0-.728-.93l-.074-.05a36.275,36.275,0,0,0-3.926.758c-2.023.507-6.709,2.505-2.661,4.1a70.4,70.4,0,0,0,16.207,4.233c1.877.258,10.621.948,11.281-1.857C4501.094,496.249,4495.463,494.411,4493.341,493.582Zm-.748,4.118q-.346.311-.683.634c-.15.144-.271.338-.5.23a1.279,1.279,0,0,1-.437-.521,9.06,9.06,0,0,0-1.616-1.515c-.208-.193-.42-.538-.027-.668a2.139,2.139,0,0,1,.79-.063c.8.04,1.588.132,2.38.224a6.572,6.572,0,0,1,.682.1.854.854,0,0,1,.279.1c.444.28-.118.822-.359,1.027Q4492.847,497.472,4492.593,497.7Z" fill="#3b1f10"/>
      </g>
    </g>
    <g id="Grupo_4611" data-name="Grupo 4611">
      <path id="Caminho_14519" data-name="Caminho 14519" d="M4452.205,495.877a18.211,18.211,0,0,0-4.5,3.63c-1.009,1.212-2.187,2.782-.414,3.844a4.186,4.186,0,0,0,1.347.42,12.417,12.417,0,0,0,2.87.138,29.672,29.672,0,0,0,11.335-2.709c2.22-1.035,4.359-2.234,6.471-3.475a42.08,42.08,0,0,0,3.608-2.308,19.435,19.435,0,0,0,1.732-1.419c.421-.39,1.071-.764,1.225-1.346a.734.734,0,0,0-.184-.744.879.879,0,0,0-.4-.167,6.47,6.47,0,0,0-2.594.27c-2.906.6-5.922.111-8.881.338A26.247,26.247,0,0,0,4452.205,495.877Z" fill="#877b40"/>
      <path id="Caminho_14520" data-name="Caminho 14520" d="M4445.544,503.275c.6.976,2.461.626,3.377.561l.011-.005.038.008c.038.006.071-.046.03-.068a3.582,3.582,0,0,1-2.027-2.736c-.015-.132-.068-.308-.2-.3a.191.191,0,0,0-.091.038c-.222.155-.226.478-.356.715C4446,502.089,4445.035,502.447,4445.544,503.275Z" fill="#724918"/>
      <path id="Caminho_14521" data-name="Caminho 14521" d="M4450.564,503.609a23.593,23.593,0,0,0,6.414-.827,35.955,35.955,0,0,0,6.136-2.1c1.03-.456,2.032-.968,3.056-1.436a20.883,20.883,0,0,0,2.989-1.569,42.449,42.449,0,0,0,5.121-4.213c.164-.15-.063-.373-.232-.245-1.763,1.339-3.686,2.521-5.563,3.694-.9.561-1.735,1.2-2.622,1.772a20.874,20.874,0,0,1-2.79,1.463,35.607,35.607,0,0,1-6,2.085,47.012,47.012,0,0,1-6.5.943A.214.214,0,0,0,4450.564,503.609Z" fill="#612d0e" opacity="0.42"/>
      <path id="Caminho_14522" data-name="Caminho 14522" d="M4449.394,502.028a43.673,43.673,0,0,0,5.35-2.354,54.879,54.879,0,0,1,5.633-2.282c1.826-.6,3.682-1.105,5.513-1.685,1.867-.591,3.712-1.319,5.6-1.841a.269.269,0,0,0-.13-.521c-1.929.395-3.842.722-5.742,1.259a51.4,51.4,0,0,0-5.5,1.793c-1.824.744-3.532,1.756-5.31,2.6-.909.432-1.825.848-2.737,1.272a22.933,22.933,0,0,0-2.815,1.391C4449.071,501.776,4449.165,502.1,4449.394,502.028Z" fill="#612d0e" opacity="0.42"/>
      <path id="Caminho_14523" data-name="Caminho 14523" d="M4448.205,501.043a48.709,48.709,0,0,1,3.988-3.321,21.378,21.378,0,0,1,4.777-2.427,33.781,33.781,0,0,1,5.158-1.315c1.773-.323,3.584-.616,5.374-.824.126-.014.1-.222-.025-.22a56.293,56.293,0,0,0-5.658.266,24.914,24.914,0,0,0-5.513,1.252,18.564,18.564,0,0,0-4.7,2.458,13,13,0,0,0-3.745,3.848A.227.227,0,0,0,4448.205,501.043Z" fill="#612d0e" opacity="0.42"/>
      <path id="Caminho_14524" data-name="Caminho 14524" d="M4450.079,502.643c1.462.312,3.194-.371,4.615-.683a18.229,18.229,0,0,1,2.358-.23,9.754,9.754,0,0,0,2.478-.552,23.716,23.716,0,0,0,4.437-2.043c1.428-.867,2.675-1.985,4.076-2.888a.236.236,0,0,0-.226-.413c-2.865,1.37-6.009,1.953-9.014,2.921a11.184,11.184,0,0,0-2.251.953,13.066,13.066,0,0,1-2.024,1.093,22.16,22.16,0,0,1-2.292.656,7.325,7.325,0,0,0-2.2.754C4449.875,502.311,4449.865,502.6,4450.079,502.643Z" fill="#ffdc80"/>
      <path id="Caminho_14525" data-name="Caminho 14525" d="M4452.094,499.743a15.744,15.744,0,0,0,2.949-1.225c.932-.421,1.823-.931,2.726-1.411a11.9,11.9,0,0,0,1.321-.751,7.444,7.444,0,0,1,1.3-.753,16.925,16.925,0,0,1,3.255-.921c.183-.039.155-.346-.038-.333a17.343,17.343,0,0,0-3.043.523,26.713,26.713,0,0,0-3.261.752,15.655,15.655,0,0,0-2.945,1.417,12.529,12.529,0,0,0-2.653,2A.42.42,0,0,0,4452.094,499.743Z" fill="#ffdc80"/>
      <path id="Caminho_14526" data-name="Caminho 14526" d="M4474.225,492.3a.334.334,0,0,0,0,.178.446.446,0,0,0,.111.2.513.513,0,0,0,.271.159.665.665,0,0,1,.082.051.47.47,0,0,0,.647-.153.482.482,0,0,0-.152-.648,1.267,1.267,0,0,0-.265-.135.551.551,0,0,0-.471.014A.441.441,0,0,0,4474.225,492.3Z" fill="#ffdc80"/>
      <path id="Caminho_14527" data-name="Caminho 14527" d="M4453.679,501.64a8.576,8.576,0,0,0,2.394-.253,21.083,21.083,0,0,0,2.435-.449,36.841,36.841,0,0,0,4.427-2.224c.13-.062.046-.289-.094-.239-1.55.55-3.219.636-4.782,1.149-.754.248-1.446.649-2.2.913a12.189,12.189,0,0,0-2.234.894A.112.112,0,0,0,4453.679,501.64Z" fill="#ffdc80"/>
      <path id="Caminho_14528" data-name="Caminho 14528" d="M4450.568,502.34a.372.372,0,0,0,.442.266l.731-.137a.36.36,0,0,0,.259-.432.364.364,0,0,0-.431-.259l-.735.121A.367.367,0,0,0,4450.568,502.34Z" fill="#ffdc80"/>
      <path id="Caminho_14529" data-name="Caminho 14529" d="M4453.394,498.459c.357-.147.72-.211,1.074-.375s.668-.345,1.006-.511c.675-.332,1.34-.683,2.023-1,.257-.119.09-.564-.183-.468a20.461,20.461,0,0,0-2.292.879,5.646,5.646,0,0,0-.951.555,4.525,4.525,0,0,0-.745.848C4453.289,498.431,4453.354,498.475,4453.394,498.459Z" fill="#ffdc80"/>
      <path id="Caminho_14530" data-name="Caminho 14530" d="M4468.952,495.962a3.992,3.992,0,0,0,1.022-.559c.347-.214.695-.467,1.06-.648.15-.075.026-.288-.123-.225-.407.171-.819.293-1.214.5a2.778,2.778,0,0,0-.949.656C4468.644,495.816,4468.806,496,4468.952,495.962Z" fill="#ffdc80"/>
      <path id="Caminho_14531" data-name="Caminho 14531" d="M4468.562,493.143c.871.013,1.74-.17,2.611-.138a4.019,4.019,0,0,0,2.174-.469c.145-.078.048-.273-.1-.253-.818.113-1.618.323-2.43.442-.755.11-1.528.071-2.282.189C4468.4,492.935,4468.433,493.141,4468.562,493.143Z" fill="#ffdc80"/>
      <path id="Caminho_14532" data-name="Caminho 14532" d="M4448.864,503.112c-.062-.006.08.012.075.012a.627.627,0,0,0,.13-.01c.059-.011.118-.027.177-.038a1.474,1.474,0,0,0,.347-.126.282.282,0,0,0,.013-.484.8.8,0,0,0-.948.116A.311.311,0,0,0,4448.864,503.112Z" fill="#ffdc80"/>
      <path id="Caminho_14533" data-name="Caminho 14533" d="M4450.313,500.433c.107.148.318.039.428-.047.135-.1.264-.217.391-.333.163-.148-.04-.445-.232-.319-.141.092-.276.188-.411.289C4450.374,500.109,4450.2,500.28,4450.313,500.433Z" fill="#ffdc80"/>
      <path id="Caminho_14534" data-name="Caminho 14534" d="M4448.283,501.735a1.54,1.54,0,0,0,.555-.363c.2-.152.386-.309.581-.46.131-.1-.029-.315-.169-.232-.208.123-.415.249-.612.389a1.4,1.4,0,0,0-.505.461A.139.139,0,0,0,4448.283,501.735Z" fill="#ffdc80"/>
      <path id="Caminho_14535" data-name="Caminho 14535" d="M4474.1,492.817a.116.116,0,0,0,.065-.223A.116.116,0,0,0,4474.1,492.817Z" fill="#ffdc80"/>
      <path id="Caminho_14536" data-name="Caminho 14536" d="M4473.718,492.838a.1.1,0,0,0,.055-.191A.1.1,0,0,0,4473.718,492.838Z" fill="#ffdc80"/>
      <path id="Caminho_14537" data-name="Caminho 14537" d="M4473.509,493.074l.014.022a.111.111,0,1,0,.044-.152l-.023.012A.088.088,0,0,0,4473.509,493.074Z" fill="#ffdc80"/>
      <path id="Caminho_14538" data-name="Caminho 14538" d="M4473.318,493.053a.1.1,0,0,0,.054-.182A.1.1,0,0,0,4473.318,493.053Z" fill="#ffdc80"/>
      <path id="Caminho_14539" data-name="Caminho 14539" d="M4473.09,493.324a.1.1,0,0,0,.054-.185A.1.1,0,0,0,4473.09,493.324Z" fill="#ffdc80"/>
      <path id="Caminho_14540" data-name="Caminho 14540" d="M4473.025,493.544a.075.075,0,0,0,.043-.144A.075.075,0,0,0,4473.025,493.544Z" fill="#ffdc80"/>
      <path id="Caminho_14541" data-name="Caminho 14541" d="M4472.6,493.454a.071.071,0,0,0,.039-.136A.071.071,0,0,0,4472.6,493.454Z" fill="#ffdc80"/>
      <path id="Caminho_14542" data-name="Caminho 14542" d="M4472.16,494.074a.11.11,0,0,0,.062-.211A.11.11,0,0,0,4472.16,494.074Z" fill="#ffdc80"/>
      <path id="Caminho_14543" data-name="Caminho 14543" d="M4453.69,500.648a.134.134,0,0,0,.075-.258A.134.134,0,0,0,4453.69,500.648Z" fill="#ffdc80"/>
      <path id="Caminho_14544" data-name="Caminho 14544" d="M4453.247,500.755a.074.074,0,0,0,.042-.142A.074.074,0,0,0,4453.247,500.755Z" fill="#ffdc80"/>
      <path id="Caminho_14545" data-name="Caminho 14545" d="M4452.753,500.879a.115.115,0,0,0,.179.028.109.109,0,0,0,.034-.1.114.114,0,0,0-.14-.092A.116.116,0,0,0,4452.753,500.879Z" fill="#ffdc80"/>
      <path id="Caminho_14546" data-name="Caminho 14546" d="M4455.042,500.179v-.035a.048.048,0,0,0-.089-.026l-.018.029C4454.887,500.229,4455.04,500.274,4455.042,500.179Z" fill="#ffdc80"/>
      <path id="Caminho_14547" data-name="Caminho 14547" d="M4455.121,499.84a.1.1,0,0,0,.059-.2A.1.1,0,0,0,4455.121,499.84Z" fill="#ffdc80"/>
      <path id="Caminho_14548" data-name="Caminho 14548" d="M4451.589,500.04a.14.14,0,0,0,.079-.269A.14.14,0,0,0,4451.589,500.04Z" fill="#ffdc80"/>
      <path id="Caminho_14549" data-name="Caminho 14549" d="M4451.175,499.412a.12.12,0,0,0,.067-.231A.12.12,0,0,0,4451.175,499.412Z" fill="#ffdc80"/>
      <path id="Caminho_14550" data-name="Caminho 14550" d="M4450.562,499.721a.015.015,0,0,0,.008-.029C4450.552,499.686,4450.543,499.715,4450.562,499.721Z" fill="#ffdc80"/>
      <path id="Caminho_14551" data-name="Caminho 14551" d="M4449.878,500.142a.073.073,0,0,0,.041-.141A.073.073,0,0,0,4449.878,500.142Z" fill="#ffdc80"/>
      <path id="Caminho_14552" data-name="Caminho 14552" d="M4450.011,500.583a.065.065,0,0,0,.036-.125A.065.065,0,0,0,4450.011,500.583Z" fill="#ffdc80"/>
      <path id="Caminho_14553" data-name="Caminho 14553" d="M4449.377,501.074l.023.02a.095.095,0,1,0,.046-.157l-.031,0A.08.08,0,0,0,4449.377,501.074Z" fill="#ffdc80"/>
      <path id="Caminho_14554" data-name="Caminho 14554" d="M4447.87,502.281a.145.145,0,0,0,.082-.278A.145.145,0,0,0,4447.87,502.281Z" fill="#ffdc80"/>
      <path id="Caminho_14555" data-name="Caminho 14555" d="M4447.837,501.63c.106.03.233-.1.16-.2l-.007-.01a.131.131,0,0,0-.169-.05l-.012.005C4447.692,501.422,4447.731,501.6,4447.837,501.63Z" fill="#ffdc80"/>
      <path id="Caminho_14556" data-name="Caminho 14556" d="M4447.558,501.051a.075.075,0,0,0,.137.04l.032-.062a.087.087,0,1,0-.162-.047Z" fill="#ffdc80"/>
      <path id="Caminho_14557" data-name="Caminho 14557" d="M4447.611,501.889a.092.092,0,0,0,.052-.177A.092.092,0,0,0,4447.611,501.889Z" fill="#ffdc80"/>
      <path id="Caminho_14558" data-name="Caminho 14558" d="M4447.382,501.012a.1.1,0,0,0,.059-.2A.1.1,0,0,0,4447.382,501.012Z" fill="#ffdc80"/>
      <path id="Caminho_14559" data-name="Caminho 14559" d="M4465.336,494.165a.142.142,0,0,0,.079-.272A.142.142,0,0,0,4465.336,494.165Z" fill="#ffdc80"/>
      <path id="Caminho_14560" data-name="Caminho 14560" d="M4464.777,494.286a.128.128,0,0,0,.072-.246A.128.128,0,0,0,4464.777,494.286Z" fill="#ffdc80"/>
      <path id="Caminho_14561" data-name="Caminho 14561" d="M4464.412,494.232a.452.452,0,0,0,.1.093c.112.077.222-.1.11-.18a.46.46,0,0,0-.124-.059A.089.089,0,0,0,4464.412,494.232Z" fill="#ffdc80"/>
      <path id="Caminho_14562" data-name="Caminho 14562" d="M4464.49,494.63a.108.108,0,0,0,.061-.208A.108.108,0,0,0,4464.49,494.63Z" fill="#ffdc80"/>
      <path id="Caminho_14563" data-name="Caminho 14563" d="M4466.461,493.847l.042-.029a.027.027,0,0,0-.026-.047l-.047.02C4466.393,493.808,4466.427,493.87,4466.461,493.847Z" fill="#ffdc80"/>
      <path id="Caminho_14564" data-name="Caminho 14564" d="M4466.741,493.957a.157.157,0,0,0,.088-.3A.157.157,0,0,0,4466.741,493.957Z" fill="#ffdc80"/>
      <path id="Caminho_14565" data-name="Caminho 14565" d="M4468.108,493.626a.1.1,0,0,0,.057-.193A.1.1,0,0,0,4468.108,493.626Z" fill="#ffdc80"/>
      <path id="Caminho_14566" data-name="Caminho 14566" d="M4466.157,494.165a.09.09,0,0,0,.051-.173A.09.09,0,0,0,4466.157,494.165Z" fill="#ffdc80"/>
      <path id="Caminho_14567" data-name="Caminho 14567" d="M4462.482,492.976c1.268-.1,2.534-.214,3.807-.253.044,0,.045-.07,0-.069a26.139,26.139,0,0,0-3.813.274C4462.45,492.932,4462.455,492.978,4462.482,492.976Z" fill="#ffdc80"/>
      <path id="Caminho_14568" data-name="Caminho 14568" d="M4463.741,498.433a2.375,2.375,0,0,0,1-.384,8.773,8.773,0,0,0,1.049-.7c.078-.056.015-.185-.073-.134-.345.2-.713.364-1.067.546a3.638,3.638,0,0,0-.964.534A.079.079,0,0,0,4463.741,498.433Z" fill="#ffdc80"/>
      <path id="Caminho_14569" data-name="Caminho 14569" d="M4447.757,499.988a10.359,10.359,0,0,1,1.748-1.76,10.97,10.97,0,0,1,1.821-1.393.039.039,0,0,0-.037-.068,7.21,7.21,0,0,0-1.849,1.393,6.576,6.576,0,0,0-1.714,1.809C4447.717,499.99,4447.744,500.008,4447.757,499.988Z" fill="#ffdc80"/>
      <path id="Caminho_14570" data-name="Caminho 14570" d="M4474.645,492.325a.615.615,0,0,0,.432.146.093.093,0,0,0,.059-.134.619.619,0,0,0-.391-.236A.124.124,0,0,0,4474.645,492.325Z" fill="#ffdc80"/>
      <path id="Caminho_14571" data-name="Caminho 14571" d="M4473.451,494.6a5.078,5.078,0,0,0,1.49-1.264c.036-.04-.02-.1-.058-.061-.45.48-.982.839-1.471,1.271C4473.383,494.575,4473.418,494.618,4473.451,494.6Z" fill="#ffdc80"/>
      <g id="Grupo_4610" data-name="Grupo 4610" opacity="0.62">
        <path id="Caminho_14572" data-name="Caminho 14572" d="M4475.636,491.869c-.812,1.909-2.921,3.187-4.8,4.007a36.647,36.647,0,0,1-6.371,1.964,46.543,46.543,0,0,1-5.624.945c-1.957.208-7.589.729-8.36-1.773a14.94,14.94,0,0,0-2.777,2.495c-1.009,1.212-2.187,2.782-.414,3.844a4.186,4.186,0,0,0,1.347.42,12.417,12.417,0,0,0,2.87.138,29.672,29.672,0,0,0,11.335-2.709c2.22-1.035,4.359-2.234,6.471-3.475a42.08,42.08,0,0,0,3.608-2.308,19.435,19.435,0,0,0,1.732-1.419c.421-.39,1.071-.764,1.225-1.346a.732.732,0,0,0-.184-.744A.581.581,0,0,0,4475.636,491.869Z" fill="#3b1f10"/>
      </g>
    </g>
    <g id="Grupo_4615" data-name="Grupo 4615">
      <path id="Caminho_14573" data-name="Caminho 14573" d="M4492.077,499.162c-.022.039-.043.078-.064.118-.53,1.016-.724,2.24-1.534,3.051-.839.84-2.031,2.774.066,2.03,1.609-.571,3.106-1.352,4.785-1.86a38.358,38.358,0,0,1,6.181-1.46,41.592,41.592,0,0,1,8.346-.289,30.208,30.208,0,0,1,11.288,2.747c1.042.546,4.721,4.1,5.545,1.625.285-.86-.363-2.089-.758-2.787-2.465-4.355-6-6.71-10.611-8.306a24.453,24.453,0,0,0-20.433,2.4A8.22,8.22,0,0,0,4492.077,499.162Z" fill="#877b40"/>
      <path id="Caminho_14574" data-name="Caminho 14574" d="M4491.305,501.823c-.293.364-.665.654-.99.989a3.388,3.388,0,0,0-.517.728.94.94,0,0,0-.159.43c0,.135.06.4.253.341a.358.358,0,0,0,.169-.149,5.2,5.2,0,0,1,.917-.981c.491-.4.982-.807,1.5-1.176a13.689,13.689,0,0,1,1.84-1.1c.643-.319,1.265-.682,1.9-1.016a31.4,31.4,0,0,1,5.129-2.217,25.621,25.621,0,0,1,6.26-1.136,23.251,23.251,0,0,1,7.893.929,22.124,22.124,0,0,1,5.518,2.481,15.759,15.759,0,0,1,2.606,1.934,19.14,19.14,0,0,0,2.3,2.209.369.369,0,0,0,.216.09c.453-.018-1.557-3.422-1.745-3.674a17.453,17.453,0,0,0-8.626-5.859,24.172,24.172,0,0,0-11.9-.851,23.841,23.841,0,0,0-5.771,1.744,14.232,14.232,0,0,0-4.866,3.055,4.794,4.794,0,0,0-1.052,1.512A6.578,6.578,0,0,1,4491.305,501.823Z" fill="#ffdc80"/>
      <path id="Caminho_14575" data-name="Caminho 14575" d="M4495.061,497.946c-.382.235-.945.6-.971,1.1-.033.656.606.371.984.246,1.143-.377,2.242-1,3.342-1.486a23.321,23.321,0,0,1,6.993-2.176,28.512,28.512,0,0,1,5.686-.089,26.826,26.826,0,0,1,5.212,1.161,28.225,28.225,0,0,1,6.346,2.633c.132.08.267-.142.141-.231a24.98,24.98,0,0,0-6.191-3.388,31.1,31.1,0,0,0-7.132-1.569,19.283,19.283,0,0,0-5.32.21,21.132,21.132,0,0,0-4.64,1.26A34.057,34.057,0,0,0,4495.061,497.946Z" fill="#ffdc80"/>
      <path id="Caminho_14576" data-name="Caminho 14576" d="M4495.409,501.589a26.018,26.018,0,0,0,3.517-.793,33.725,33.725,0,0,1,3.59-.541,53.95,53.95,0,0,1,7.354-.359,32.4,32.4,0,0,1,6.972.954,20.074,20.074,0,0,1,6.687,2.931c.319.233.7-.229.386-.478a24.929,24.929,0,0,0-6.258-3.91,23.369,23.369,0,0,0-7.452-1.728,22.419,22.419,0,0,0-7.777.719c-1.239.368-2.467.724-3.693,1.138a13.869,13.869,0,0,0-3.56,1.477A.331.331,0,0,0,4495.409,501.589Z" fill="#612d0e" opacity="0.42"/>
      <g id="Grupo_4612" data-name="Grupo 4612" opacity="0.62">
        <path id="Caminho_14577" data-name="Caminho 14577" d="M4500.808,499.78c1.234-.065,2.448-.318,3.691-.36s2.48-.075,3.718-.091a35.95,35.95,0,0,1,7.529.547c.216.043.252-.275.05-.331a30.814,30.814,0,0,0-7.635-1.293,19,19,0,0,0-3.766.3,18.373,18.373,0,0,0-3.674.883A.179.179,0,0,0,4500.808,499.78Z" fill="#3b1f10"/>
      </g>
      <path id="Caminho_14578" data-name="Caminho 14578" d="M4489.663,504.019a.432.432,0,0,0,.357.368.6.6,0,0,0,.561-.258.357.357,0,0,0,.053-.352.367.367,0,0,0-.275-.218.61.61,0,0,0-.433.016.481.481,0,0,0-.2.174A.4.4,0,0,0,4489.663,504.019Z" fill="#3b1f10" opacity="0.62"/>
      <path id="Caminho_14579" data-name="Caminho 14579" d="M4525.468,505.137a.058.058,0,0,0,.017-.115A.058.058,0,0,0,4525.468,505.137Z" fill="#ffdc80"/>
      <path id="Caminho_14580" data-name="Caminho 14580" d="M4525.1,504.754a.037.037,0,0,0,.011-.074A.037.037,0,0,0,4525.1,504.754Z" fill="#ffdc80"/>
      <path id="Caminho_14581" data-name="Caminho 14581" d="M4524.586,504.81l.056.017a.058.058,0,1,0,.017-.112h-.059A.05.05,0,0,0,4524.586,504.81Z" fill="#ffdc80"/>
      <path id="Caminho_14582" data-name="Caminho 14582" d="M4524.213,504.41l.053.022c.094.043.189-.1.1-.159l-.056-.038a.154.154,0,0,0-.265-.062.15.15,0,0,0-.032.072A.153.153,0,0,0,4524.213,504.41Z" fill="#ffdc80"/>
      <path id="Caminho_14583" data-name="Caminho 14583" d="M4494.389,501.967l.04.01a.161.161,0,0,0,.048-.319l-.041,0A.157.157,0,0,0,4494.389,501.967Z" fill="#ffdc80"/>
      <path id="Caminho_14584" data-name="Caminho 14584" d="M4493.429,502.1l.012.033a.124.124,0,0,0,.21.032l.021-.028a.142.142,0,1,0-.243-.037Z" fill="#ffdc80"/>
      <path id="Caminho_14585" data-name="Caminho 14585" d="M4493.447,502.73l.076-.033c.174-.076-.009-.326-.133-.181l-.055.063A.1.1,0,0,0,4493.447,502.73Z" fill="#ffdc80"/>
      <path id="Caminho_14586" data-name="Caminho 14586" d="M4492.16,503.032a.1.1,0,0,0,.11.086c.08-.011.117-.07.166-.128a.127.127,0,1,0-.216-.132C4492.186,502.915,4492.147,502.962,4492.16,503.032Z" fill="#ffdc80"/>
      <path id="Caminho_14587" data-name="Caminho 14587" d="M4508.7,495.781a.273.273,0,0,0,.122-.024c.174-.068-.013-.323-.13-.176a.267.267,0,0,0-.059.11A.08.08,0,0,0,4508.7,495.781Z" fill="#ffdc80"/>
      <path id="Caminho_14588" data-name="Caminho 14588" d="M4507.651,495.44a.08.08,0,0,0,.024-.158A.08.08,0,0,0,4507.651,495.44Z" fill="#ffdc80"/>
      <path id="Caminho_14589" data-name="Caminho 14589" d="M4506.757,495.689a.1.1,0,0,0,.029-.19A.1.1,0,0,0,4506.757,495.689Z" fill="#ffdc80"/>
      <path id="Caminho_14590" data-name="Caminho 14590" d="M4505.994,494.658a.1.1,0,0,0,.03-.193A.1.1,0,0,0,4505.994,494.658Z" fill="#ffdc80"/>
      <path id="Caminho_14591" data-name="Caminho 14591" d="M4498.51,497.027a.625.625,0,0,0,.146.039.122.122,0,0,0,.036-.242.632.632,0,0,0-.151-.005A.11.11,0,0,0,4498.51,497.027Z" fill="#ffdc80"/>
      <path id="Caminho_14592" data-name="Caminho 14592" d="M4496.373,497.765a.558.558,0,0,0,.415-.055,1.057,1.057,0,0,0,.348-.247c.121-.123-.072-.311-.206-.214a1.718,1.718,0,0,1-.279.165,1.182,1.182,0,0,0-.3.127A.132.132,0,0,0,4496.373,497.765Z" fill="#ffdc80"/>
      <path id="Caminho_14593" data-name="Caminho 14593" d="M4495.734,498.022c.03.1.109.109.168.025a.1.1,0,1,0-.168-.025Z" fill="#ffdc80"/>
      <path id="Caminho_14594" data-name="Caminho 14594" d="M4495.148,498.607a.613.613,0,0,0,.151-.068.1.1,0,1,0-.113-.153.671.671,0,0,0-.109.125A.062.062,0,0,0,4495.148,498.607Z" fill="#ffdc80"/>
      <path id="Caminho_14595" data-name="Caminho 14595" d="M4510.839,495c1.121.319,2.3.508,3.442.714.051.009.061-.067.012-.079-1.134-.26-2.289-.548-3.445-.694A.03.03,0,0,0,4510.839,495Z" fill="#ffdc80"/>
      <path id="Caminho_14596" data-name="Caminho 14596" d="M4524.824,505.686a1.2,1.2,0,0,0,1.12.045.96.96,0,0,0,.369-.991c-.008-.073-.131-.079-.133,0a.869.869,0,0,1-.466.8,2.56,2.56,0,0,1-.878.061C4524.79,505.605,4524.789,505.666,4524.824,505.686Z" fill="#ffdc80"/>
      <path id="Caminho_14597" data-name="Caminho 14597" d="M4497.911,501.662a35.661,35.661,0,0,1,13.978-1.121.021.021,0,0,0,.006-.042,28.693,28.693,0,0,0-13.993,1.14C4497.887,501.644,4497.9,501.666,4497.911,501.662Z" fill="#ffdc80"/>
      <g id="Grupo_4613" data-name="Grupo 4613" opacity="0.62">
        <path id="Caminho_14598" data-name="Caminho 14598" d="M4497.144,496.1a83.593,83.593,0,0,0,9.254-1.423,20.24,20.24,0,0,0,3.949-1.526c.119-.06.243-.123.37-.189a24.347,24.347,0,0,0-15.829,3.442l-.235.157C4495.475,496.374,4496.308,496.227,4497.144,496.1Z" fill="#3b1f10"/>
      </g>
      <g id="Grupo_4614" data-name="Grupo 4614" opacity="0.62">
        <path id="Caminho_14599" data-name="Caminho 14599" d="M4510.771,500.488a51.633,51.633,0,0,0-5.62-1.69,29.121,29.121,0,0,0-5.959-.523c-1.718,0-3.463.157-5.176,0a4.906,4.906,0,0,1-1.137-.226,5.716,5.716,0,0,0-.8,1.093c-.022.039-.043.078-.064.118-.53,1.016-.724,2.24-1.534,3.051-.839.84-2.031,2.774.066,2.03,1.609-.571,3.106-1.352,4.785-1.861a38.252,38.252,0,0,1,6.181-1.459,41.667,41.667,0,0,1,8.346-.29c.8.058,1.626.141,2.47.251C4511.805,500.823,4511.287,500.657,4510.771,500.488Z" fill="#3b1f10"/>
      </g>
    </g>
    <g id="Grupo_4619" data-name="Grupo 4619">
      <path id="Caminho_14600" data-name="Caminho 14600" d="M4476.867,499.229c.017-.046.034-.093.05-.139.413-1.2.424-2.572,1.177-3.593.78-1.059,1.766-3.372-.407-2.212-1.668.891-3.178,1.992-4.932,2.825a42.445,42.445,0,0,1-6.526,2.617,46.2,46.2,0,0,1-9.089,1.692c-4.052.311-8.933.2-12.81-1.148-1.231-.426-5.845-3.714-6.338-.866-.171.989.741,2.227,1.288,2.926,3.417,4.362,7.669,6.358,12.985,7.345a27.078,27.078,0,0,0,21.974-5.993A9.107,9.107,0,0,0,4476.867,499.229Z" fill="#877b40"/>
      <g id="Grupo_4616" data-name="Grupo 4616" opacity="0.42">
        <path id="Caminho_14601" data-name="Caminho 14601" d="M4477.273,496.189c.261-.446.62-.826.922-1.245a3.869,3.869,0,0,0,.446-.883,1.049,1.049,0,0,0,.1-.5c-.025-.148-.131-.425-.332-.332a.385.385,0,0,0-.161.191,5.736,5.736,0,0,1-.843,1.224c-.471.523-.942,1.046-1.448,1.535a15.144,15.144,0,0,1-1.833,1.511c-.651.455-1.272.954-1.914,1.425a34.851,34.851,0,0,1-5.25,3.273,28.4,28.4,0,0,1-6.666,2.275,25.775,25.775,0,0,1-8.794.284,24.525,24.525,0,0,1-6.45-1.808,17.527,17.527,0,0,1-3.171-1.687,21.209,21.209,0,0,0-2.884-2.04.411.411,0,0,0-.252-.062c-.493.094,2.268,3.489,2.516,3.734a19.309,19.309,0,0,0,10.408,4.992,26.753,26.753,0,0,0,13.169-1.029,26.34,26.34,0,0,0,6.03-2.859,15.765,15.765,0,0,0,4.823-4.146,5.285,5.285,0,0,0,.9-1.829A7.239,7.239,0,0,1,4477.273,496.189Z" fill="#612d0e"/>
      </g>
      <g id="Grupo_4617" data-name="Grupo 4617" opacity="0.62">
        <path id="Caminho_14602" data-name="Caminho 14602" d="M4473.8,501.053c.38-.321.936-.812.88-1.371-.071-.723-.724-.3-1.117-.107-1.189.6-2.29,1.462-3.413,2.178a25.862,25.862,0,0,1-7.3,3.535,31.653,31.653,0,0,1-6.21,1.034,29.745,29.745,0,0,1-5.9-.413,31.217,31.217,0,0,1-7.381-1.837c-.158-.065-.269.2-.117.277a27.664,27.664,0,0,0,7.336,2.688,34.408,34.408,0,0,0,8.067.543,21.362,21.362,0,0,0,5.789-1.107,23.381,23.381,0,0,0,4.872-2.143A37.807,37.807,0,0,0,4473.8,501.053Z" fill="#3b1f10"/>
      </g>
      <path id="Caminho_14603" data-name="Caminho 14603" d="M4472.819,497.122a28.688,28.688,0,0,0-3.72,1.447,37.046,37.046,0,0,1-3.841,1.183,59.627,59.627,0,0,1-7.991,1.6,35.789,35.789,0,0,1-7.79.1,22.207,22.207,0,0,1-7.8-2.106.34.34,0,0,0-.344.587,27.631,27.631,0,0,0,7.5,3.249,25.864,25.864,0,0,0,8.443.664,24.839,24.839,0,0,0,8.4-2.068c1.3-.608,2.581-1.2,3.855-1.855a15.333,15.333,0,0,0,3.654-2.2A.366.366,0,0,0,4472.819,497.122Z" fill="#ffdc80"/>
      <path id="Caminho_14604" data-name="Caminho 14604" d="M4467.206,499.992c-1.341.273-2.627.751-3.981,1s-2.7.491-4.056.712a39.882,39.882,0,0,1-8.332.642c-.244-.012-.231.342,0,.37a34.118,34.118,0,0,0,8.572.158,21.117,21.117,0,0,0,4.073-.952,20.336,20.336,0,0,0,3.876-1.573A.2.2,0,0,0,4467.206,499.992Z" fill="#ffdc80"/>
      <path id="Caminho_14605" data-name="Caminho 14605" d="M4478.709,493.514a.479.479,0,0,0-.452-.344.669.669,0,0,0-.571.375.39.39,0,0,0,.337.587.668.668,0,0,0,.471-.088.536.536,0,0,0,.192-.224A.452.452,0,0,0,4478.709,493.514Z" fill="#3b1f10" opacity="0.62"/>
      <path id="Caminho_14606" data-name="Caminho 14606" d="M4439.327,498.19a.065.065,0,0,0,0,.129A.065.065,0,0,0,4439.327,498.19Z" fill="#ffdc80"/>
      <path id="Caminho_14607" data-name="Caminho 14607" d="M4439.8,498.548a.042.042,0,0,0,0,.083A.042.042,0,0,0,4439.8,498.548Z" fill="#ffdc80"/>
      <path id="Caminho_14608" data-name="Caminho 14608" d="M4440.346,498.4l-.064-.01a.064.064,0,1,0,0,.125l.064-.01A.055.055,0,0,0,4440.346,498.4Z" fill="#ffdc80"/>
      <path id="Caminho_14609" data-name="Caminho 14609" d="M4440.821,498.779l-.062-.016c-.11-.031-.191.141-.08.191.023.01.045.022.068.033a.17.17,0,0,0,.3.023.164.164,0,0,0,.023-.084A.169.169,0,0,0,4440.821,498.779Z" fill="#ffdc80"/>
      <path id="Caminho_14610" data-name="Caminho 14610" d="M4473.873,496.54l-.045-.005a.178.178,0,0,0,0,.357l.045-.005A.174.174,0,0,0,4473.873,496.54Z" fill="#ffdc80"/>
      <path id="Caminho_14611" data-name="Caminho 14611" d="M4474.9,496.232l-.019-.034a.137.137,0,0,0-.235,0l-.018.034a.158.158,0,1,0,.272,0Z" fill="#ffdc80"/>
      <path id="Caminho_14612" data-name="Caminho 14612" d="M4474.779,495.549l-.078.049c-.178.112.063.355.176.176l.049-.078A.108.108,0,0,0,4474.779,495.549Z" fill="#ffdc80"/>
      <path id="Caminho_14613" data-name="Caminho 14613" d="M4476.138,495.006a.112.112,0,0,0-.135-.076c-.086.026-.116.1-.161.168a.141.141,0,0,0,.068.2.143.143,0,0,0,.191-.091A.272.272,0,0,0,4476.138,495.006Z" fill="#ffdc80"/>
      <path id="Caminho_14614" data-name="Caminho 14614" d="M4459.224,505.67a.275.275,0,0,0-.13.047c-.179.1.067.351.17.171a.288.288,0,0,0,.047-.131A.087.087,0,0,0,4459.224,505.67Z" fill="#ffdc80"/>
      <path id="Caminho_14615" data-name="Caminho 14615" d="M4460.43,505.87a.089.089,0,0,0,0,.177A.089.089,0,0,0,4460.43,505.87Z" fill="#ffdc80"/>
      <path id="Caminho_14616" data-name="Caminho 14616" d="M4461.367,505.45a.107.107,0,0,0,0,.213A.107.107,0,0,0,4461.367,505.45Z" fill="#ffdc80"/>
      <path id="Caminho_14617" data-name="Caminho 14617" d="M4462.372,506.453a.109.109,0,0,0,0,.217A.109.109,0,0,0,4462.372,506.453Z" fill="#ffdc80"/>
      <path id="Caminho_14618" data-name="Caminho 14618" d="M4470.175,502.626a.7.7,0,0,0-.166-.018.135.135,0,0,0,0,.27.706.706,0,0,0,.166-.018A.122.122,0,0,0,4470.175,502.626Z" fill="#ffdc80"/>
      <path id="Caminho_14619" data-name="Caminho 14619" d="M4472.393,501.467a.617.617,0,0,0-.445.128,1.179,1.179,0,0,0-.34.327c-.112.156.13.33.26.2a1.881,1.881,0,0,1,.279-.226c.1-.065.235-.1.31-.189A.146.146,0,0,0,4472.393,501.467Z" fill="#ffdc80"/>
      <path id="Caminho_14620" data-name="Caminho 14620" d="M4473.051,501.08c-.05-.1-.138-.1-.188,0a.109.109,0,1,0,.188,0Z" fill="#ffdc80"/>
      <path id="Caminho_14621" data-name="Caminho 14621" d="M4473.6,500.343a.718.718,0,0,0-.154.1.108.108,0,1,0,.149.149.7.7,0,0,0,.1-.155A.069.069,0,0,0,4473.6,500.343Z" fill="#ffdc80"/>
      <path id="Caminho_14622" data-name="Caminho 14622" d="M4457.012,506.879c-1.28-.165-2.6-.178-3.885-.214-.057,0-.056.084,0,.088,1.284.1,2.6.223,3.885.192A.033.033,0,0,0,4457.012,506.879Z" fill="#ffdc80"/>
      <path id="Caminho_14623" data-name="Caminho 14623" d="M4439.942,497.483a1.328,1.328,0,0,0-1.233.135,1.059,1.059,0,0,0-.241,1.145c.02.079.156.065.145-.019a.961.961,0,0,1,.378-.956,2.822,2.822,0,0,1,.951-.211C4439.992,497.565,4439.983,497.5,4439.942,497.483Z" fill="#ffdc80"/>
      <path id="Caminho_14624" data-name="Caminho 14624" d="M4470.067,497.454a39.471,39.471,0,0,1-15.117,3.53.024.024,0,0,0,0,.047,31.758,31.758,0,0,0,15.131-3.554C4470.1,497.469,4470.083,497.446,4470.067,497.454Z" fill="#ffdc80"/>
      <g id="Grupo_4618" data-name="Grupo 4618" opacity="0.62">
        <path id="Caminho_14625" data-name="Caminho 14625" d="M4475.229,498.078c-1.847,1.006-3.83,1.75-5.613,2.876a40.65,40.65,0,0,0-4.949,3.9,22.325,22.325,0,0,1-4.847,3.592,8.312,8.312,0,0,1-1.814.616,26.892,26.892,0,0,0,16.233-6.356,9.122,9.122,0,0,0,2.628-3.454c.017-.046.034-.093.05-.14.286-.832.38-1.748.662-2.571A18.154,18.154,0,0,1,4475.229,498.078Z" fill="#3b1f10"/>
      </g>
    </g>
    <g id="Grupo_4625" data-name="Grupo 4625">
      <path id="Caminho_14626" data-name="Caminho 14626" d="M4490.423,498.874c-.959-3.113-6.747-1.854-9-1.5-5.98.948-11.416,4.26-15.7,8.455-1.49,1.459-4.524,5.551-.226,4.881a70.449,70.449,0,0,0,16.126-4.536C4483.376,505.45,4491.271,501.628,4490.423,498.874Z" fill="#877b40"/>
      <g id="Grupo_4620" data-name="Grupo 4620" opacity="0.42">
        <path id="Caminho_14627" data-name="Caminho 14627" d="M4488.4,497.464a17.5,17.5,0,0,0-5.143.188,32.319,32.319,0,0,0-5.039,1.246,31.956,31.956,0,0,0-9.221,4.828,31.419,31.419,0,0,0-4.311,4.067c-.154.17.115.389.271.227a33.351,33.351,0,0,1,8.161-6.07,32.081,32.081,0,0,1,9.626-3.373c.9-.161,1.819-.3,2.73-.42.968-.126,1.951-.158,2.914-.3A.2.2,0,0,0,4488.4,497.464Z" fill="#612d0e"/>
      </g>
      <g id="Grupo_4621" data-name="Grupo 4621" opacity="0.42">
        <path id="Caminho_14628" data-name="Caminho 14628" d="M4488.391,499.023c-1.852.881-3.676,1.8-5.555,2.627-1.894.837-3.807,1.632-5.729,2.4-3.972,1.59-8.011,3.033-11.934,4.734-.15.065-.111.331.068.3a71.8,71.8,0,0,0,12.3-3.86c1.957-.776,3.912-1.572,5.8-2.5a22.385,22.385,0,0,0,5.229-3.35C4488.723,499.234,4488.614,498.917,4488.391,499.023Z" fill="#612d0e"/>
      </g>
      <path id="Caminho_14629" data-name="Caminho 14629" d="M4487.676,498.881c.313-.221-.022-.4-.238-.437a4.573,4.573,0,0,0-1.04.078q-.992.093-1.973.259a26.4,26.4,0,0,0-3.81.948,47.749,47.749,0,0,0-4.615,1.762,49.882,49.882,0,0,0-8.815,5.334c-.114.082-.237.239-.141.341a.248.248,0,0,0,.234.035,12.629,12.629,0,0,0,1.6-.412c.657-.215,1.3-.485,1.933-.753,2.139-.9,4.246-1.881,6.417-2.673,1.629-.6,3.232-1.27,4.827-1.948,1.108-.47,2.225-.921,3.336-1.383A11.734,11.734,0,0,0,4487.676,498.881Z" fill="#ffdc80"/>
      <path id="Caminho_14630" data-name="Caminho 14630" d="M4488.39,500.091a11.338,11.338,0,0,0-1.888,1.273c-.652.469-1.3.94-1.974,1.38a34.481,34.481,0,0,1-4.27,2.366,56.077,56.077,0,0,1-9.088,3.168c-.943.257-1.886.509-2.824.783-1.015.3-2.057.473-3.07.779-.089.027-.048.151.035.15a27.683,27.683,0,0,0,2.857-.3c.894-.111,1.778-.23,2.662-.408a42.734,42.734,0,0,0,4.821-1.28,39.032,39.032,0,0,0,8.906-4.093,25.627,25.627,0,0,0,2.264-1.612,7.071,7.071,0,0,0,1.845-1.912A.221.221,0,0,0,4488.39,500.091Z" fill="#ffdc80"/>
      <path id="Caminho_14631" data-name="Caminho 14631" d="M4484.687,499.38a12.847,12.847,0,0,0-3.127.7,23.878,23.878,0,0,0-3.12.9c-1.009.388-2,.827-2.967,1.313-1.008.508-1.941,1.147-2.942,1.657-.156.08-.068.337.1.261,1-.458,2.107-.752,3.144-1.116q1.527-.539,3.053-1.08c1.022-.362,2-.8,3.009-1.2a19.1,19.1,0,0,0,2.989-1.077C4485.014,499.627,4484.865,499.385,4484.687,499.38Z" fill="#ffdc80"/>
      <path id="Caminho_14632" data-name="Caminho 14632" d="M4477.354,506.813c-.988.213-1.941.677-2.91.977-1.083.336-2.195.63-3.3.887-.11.025-.1.2.018.181a21.36,21.36,0,0,0,3.209-.682,11.332,11.332,0,0,0,3.047-1.189C4477.5,506.937,4477.451,506.792,4477.354,506.813Z" fill="#ffdc80"/>
      <path id="Caminho_14633" data-name="Caminho 14633" d="M4485.556,502.728c-.863.525-1.773,1-2.658,1.494-.93.516-1.869,1.063-2.825,1.527-.054.027-.025.112.034.09a21.548,21.548,0,0,0,2.819-1.227,20.58,20.58,0,0,0,2.682-1.81A.045.045,0,0,0,4485.556,502.728Z" fill="#ffdc80"/>
      <g id="Grupo_4622" data-name="Grupo 4622" opacity="0.42">
        <path id="Caminho_14634" data-name="Caminho 14634" d="M4482.964,502.2a16.1,16.1,0,0,1-2.43.942c-.862.286-1.706.627-2.55.96s-1.689.665-2.528,1.009c-.911.373-1.791.822-2.7,1.186a.069.069,0,0,0,.048.13c.924-.334,1.879-.583,2.807-.909s1.85-.664,2.773-1A16.825,16.825,0,0,0,4483,502.25.032.032,0,0,0,4482.964,502.2Z" fill="#612d0e"/>
      </g>
      <g id="Grupo_4623" data-name="Grupo 4623" opacity="0.42">
        <path id="Caminho_14635" data-name="Caminho 14635" d="M4485.012,497.816a35.386,35.386,0,0,0-7.213,1.426,24.981,24.981,0,0,0-6.487,3.332.024.024,0,0,0,.028.039,26.99,26.99,0,0,1,6.582-3.04,40.456,40.456,0,0,1,7.1-1.685A.036.036,0,0,0,4485.012,497.816Z" fill="#612d0e"/>
      </g>
      <path id="Caminho_14636" data-name="Caminho 14636" d="M4464.912,510.67a3.583,3.583,0,0,1-.652-.389c-.35-.362-.146-.7-.184-1.127a.531.531,0,0,0-.4-.517.453.453,0,0,0-.372.164,1.182,1.182,0,0,0-.2.367,5.549,5.549,0,0,0-.241.8.884.884,0,0,0,.348.963,1.423,1.423,0,0,0,.964.121c.135-.018.812-.079.831-.242C4465.015,510.753,4464.963,510.7,4464.912,510.67Z" fill="#724918"/>
      <path id="Caminho_14637" data-name="Caminho 14637" d="M4471.933,504.286a1.969,1.969,0,0,0-.782.39c-.275.178-.515.4-.783.592-.1.072-.016.251.1.2.3-.133.609-.227.9-.373a1.981,1.981,0,0,0,.738-.473A.206.206,0,0,0,4471.933,504.286Z" fill="#ffdc80"/>
      <path id="Caminho_14638" data-name="Caminho 14638" d="M4488.731,498.448a.13.13,0,0,0-.108.236A.13.13,0,0,0,4488.731,498.448Z" fill="#ffdc80"/>
      <path id="Caminho_14639" data-name="Caminho 14639" d="M4489.322,498.407l-.071-.02c-.08-.022-.143.074-.117.143a.108.108,0,0,0,.182.032l.041-.062A.058.058,0,0,0,4489.322,498.407Z" fill="#ffdc80"/>
      <path id="Caminho_14640" data-name="Caminho 14640" d="M4489.778,498.736a.125.125,0,0,0-.165.061c-.023.07-.035.16.047.2s.142-.031.18-.094A.125.125,0,0,0,4489.778,498.736Z" fill="#ffdc80"/>
      <path id="Caminho_14641" data-name="Caminho 14641" d="M4489.976,499.306a.105.105,0,0,0-.087.192A.105.105,0,0,0,4489.976,499.306Z" fill="#ffdc80"/>
      <path id="Caminho_14642" data-name="Caminho 14642" d="M4480.606,497.9a23.552,23.552,0,0,0-8.725,3.523c-.034.021,0,.07.036.05a29.526,29.526,0,0,1,4.327-2.053c1.439-.535,2.926-.947,4.391-1.4A.064.064,0,0,0,4480.606,497.9Z" fill="#ffdc80"/>
      <path id="Caminho_14643" data-name="Caminho 14643" d="M4466.058,507.679l0-.026a.074.074,0,0,0-.116-.053l-.021.016a.088.088,0,1,0,.139.063Z" fill="#ffdc80"/>
      <path id="Caminho_14644" data-name="Caminho 14644" d="M4466.747,506.785l-.028-.032a.088.088,0,0,0-.158.058v.043a.1.1,0,1,0,.186-.069Z" fill="#ffdc80"/>
      <path id="Caminho_14645" data-name="Caminho 14645" d="M4466.485,507.383a.135.135,0,0,0-.116,0l.013-.006a.2.2,0,0,0,.089-.129.134.134,0,0,0-.109-.151.189.189,0,0,0-.144.046.142.142,0,0,0,.147.242.152.152,0,0,0-.005.274A.15.15,0,0,0,4466.485,507.383Z" fill="#ffdc80"/>
      <path id="Caminho_14646" data-name="Caminho 14646" d="M4464.743,508.578a.11.11,0,0,0-.091.2A.11.11,0,0,0,4464.743,508.578Z" fill="#ffdc80"/>
      <path id="Caminho_14647" data-name="Caminho 14647" d="M4465.384,508.147a.085.085,0,0,0-.07.154A.085.085,0,0,0,4465.384,508.147Z" fill="#ffdc80"/>
      <path id="Caminho_14648" data-name="Caminho 14648" d="M4464.506,509.619a.12.12,0,0,0-.1.219A.12.12,0,0,0,4464.506,509.619Z" fill="#ffdc80"/>
      <path id="Caminho_14649" data-name="Caminho 14649" d="M4464.89,509.676a.1.1,0,0,0-.087.189A.1.1,0,0,0,4464.89,509.676Z" fill="#ffdc80"/>
      <path id="Caminho_14650" data-name="Caminho 14650" d="M4465.357,509.4a.114.114,0,0,0-.094.207A.114.114,0,0,0,4465.357,509.4Z" fill="#ffdc80"/>
      <path id="Caminho_14651" data-name="Caminho 14651" d="M4465.957,509.583a.1.1,0,0,0-.087.19A.1.1,0,0,0,4465.957,509.583Z" fill="#ffdc80"/>
      <path id="Caminho_14652" data-name="Caminho 14652" d="M4489.3,499.494l-.038-.016a.163.163,0,0,0-.136.3l.037.018A.164.164,0,0,0,4489.3,499.494Z" fill="#ffdc80"/>
      <path id="Caminho_14653" data-name="Caminho 14653" d="M4489.271,500.587a9.292,9.292,0,0,0-1,.968,14.018,14.018,0,0,1-1.152,1,20.763,20.763,0,0,1-2.464,1.558c-.071.041-.009.153.065.125a10.864,10.864,0,0,0,2.624-1.532,6.959,6.959,0,0,0,2.037-2.023A.077.077,0,0,0,4489.271,500.587Z" fill="#ffdc80"/>
      <g id="Grupo_4624" data-name="Grupo 4624" opacity="0.62">
        <path id="Caminho_14654" data-name="Caminho 14654" d="M4490.322,498.6q-.258.248-.538.476a22.811,22.811,0,0,1-2.556,1.635,6.155,6.155,0,0,0-1.295,1.008,5.494,5.494,0,0,0-.918,1.443c-.3.627-.6,1.252-.95,1.843,2.91-1.528,6.979-4.118,6.358-6.135A2.413,2.413,0,0,0,4490.322,498.6Z" fill="#3b1f10"/>
      </g>
    </g>
    <g id="Grupo_4626" data-name="Grupo 4626">
      <path id="Caminho_14655" data-name="Caminho 14655" d="M4494.57,499.034a18.25,18.25,0,0,0-5.555,1.608c-1.4.728-3.093,1.721-1.868,3.385a4.2,4.2,0,0,0,1.081.908,12.429,12.429,0,0,0,2.592,1.237,29.674,29.674,0,0,0,11.5,1.883c2.447-.1,4.884-.376,7.311-.7a42.172,42.172,0,0,0,4.22-.734,19.524,19.524,0,0,0,2.146-.639c.538-.2,1.283-.291,1.65-.768a.736.736,0,0,0,.118-.758.891.891,0,0,0-.3-.308,6.475,6.475,0,0,0-2.5-.753c-2.912-.571-5.5-2.187-8.321-3.121A26.256,26.256,0,0,0,4494.57,499.034Z" fill="#877b40"/>
      <path id="Caminho_14656" data-name="Caminho 14656" d="M4485.567,503.283c.176,1.131,2.028,1.528,2.9,1.823a.048.048,0,0,0,.012,0l.032.022c.032.02.083-.015.054-.051a3.58,3.58,0,0,1-.812-3.307c.037-.127.056-.31-.07-.352a.2.2,0,0,0-.1,0c-.265.057-.393.354-.6.523C4486.443,502.364,4485.418,502.322,4485.567,503.283Z" fill="#724918"/>
      <path id="Caminho_14657" data-name="Caminho 14657" d="M4490.068,505.531a23.626,23.626,0,0,0,6.235,1.717,36.006,36.006,0,0,0,6.469.439c1.126-.022,2.249-.107,3.374-.143a20.862,20.862,0,0,0,3.363-.292,42.367,42.367,0,0,0,6.351-1.906c.21-.075.087-.369-.119-.316-2.144.554-4.374.9-6.559,1.257-1.045.17-2.063.436-3.1.621a20.742,20.742,0,0,1-3.138.27,35.522,35.522,0,0,1-6.343-.4,47.225,47.225,0,0,1-6.359-1.643A.214.214,0,0,0,4490.068,505.531Z" fill="#612d0e" opacity="0.42"/>
      <path id="Caminho_14658" data-name="Caminho 14658" d="M4489.6,503.621a43.862,43.862,0,0,0,5.843-.1,55.018,55.018,0,0,1,6.078.073c1.913.156,3.822.4,5.735.577,1.951.176,3.933.218,5.874.466a.269.269,0,0,0,.081-.531c-1.931-.381-3.822-.82-5.782-1.059a51.817,51.817,0,0,0-5.768-.473c-1.969-.018-3.935.255-5.9.346-1,.047-2.011.077-3.016.115a23.093,23.093,0,0,0-3.134.2C4489.4,503.263,4489.363,503.6,4489.6,503.621Z" fill="#612d0e" opacity="0.42"/>
      <path id="Caminho_14659" data-name="Caminho 14659" d="M4488.885,502.252a48.782,48.782,0,0,1,4.96-1.521,21.352,21.352,0,0,1,5.345-.392,33.8,33.8,0,0,1,5.265.781c1.76.387,3.544.817,5.275,1.318.122.035.178-.167.062-.213a56.564,56.564,0,0,0-5.321-1.942,24.912,24.912,0,0,0-5.568-.976,18.609,18.609,0,0,0-5.288.448,13.016,13.016,0,0,0-4.941,2.1A.227.227,0,0,0,4488.885,502.252Z" fill="#612d0e" opacity="0.42"/>
      <path id="Caminho_14660" data-name="Caminho 14660" d="M4489.994,504.452c1.228.853,3.089.893,4.521,1.154a18.433,18.433,0,0,1,2.263.7,9.74,9.74,0,0,0,2.5.448,23.657,23.657,0,0,0,4.882-.169c1.651-.247,3.233-.8,4.875-1.088a.235.235,0,0,0-.048-.468c-3.173.156-6.3-.522-9.443-.79a11.165,11.165,0,0,0-2.445.009,13.064,13.064,0,0,1-2.289.225,21.931,21.931,0,0,1-2.367-.281,7.316,7.316,0,0,0-2.324-.156C4489.935,504.068,4489.814,504.327,4489.994,504.452Z" fill="#ffdc80"/>
      <path id="Caminho_14661" data-name="Caminho 14661" d="M4492.973,502.557a15.778,15.778,0,0,0,3.194.01c1.022-.029,2.041-.154,3.059-.248a11.729,11.729,0,0,0,1.509-.182,7.492,7.492,0,0,1,1.491-.191,16.917,16.917,0,0,1,3.359.409c.184.035.277-.259.093-.322a17.409,17.409,0,0,0-3.008-.694,26.54,26.54,0,0,0-3.3-.567,15.632,15.632,0,0,0-3.264.169,12.482,12.482,0,0,0-3.218.815A.42.42,0,0,0,4492.973,502.557Z" fill="#ffdc80"/>
      <path id="Caminho_14662" data-name="Caminho 14662" d="M4516.259,504.25a.345.345,0,0,0-.064.165.449.449,0,0,0,.024.23.516.516,0,0,0,.188.251c.02.025.039.051.057.079a.471.471,0,0,0,.656.109.482.482,0,0,0,.109-.656,1.278,1.278,0,0,0-.192-.227.549.549,0,0,0-.44-.169A.44.44,0,0,0,4516.259,504.25Z" fill="#ffdc80"/>
      <path id="Caminho_14663" data-name="Caminho 14663" d="M4493.7,504.919a8.553,8.553,0,0,0,2.306.692,21.187,21.187,0,0,0,2.419.527,36.832,36.832,0,0,0,4.942-.34c.145-.007.155-.248.006-.257-1.642-.092-3.214-.657-4.854-.788-.791-.063-1.585.04-2.38-.008a12.177,12.177,0,0,0-2.406-.039A.112.112,0,0,0,4493.7,504.919Z" fill="#ffdc80"/>
      <path id="Caminho_14664" data-name="Caminho 14664" d="M4490.562,504.363a.371.371,0,0,0,.305.415l.727.156a.356.356,0,1,0,.108-.7l-.724-.173A.367.367,0,0,0,4490.562,504.363Z" fill="#ffdc80"/>
      <path id="Caminho_14665" data-name="Caminho 14665" d="M4494.669,501.875c.386,0,.745.083,1.135.069s.75-.059,1.125-.082c.751-.046,1.5-.112,2.252-.14.284-.011.3-.486.013-.5a20.3,20.3,0,0,0-2.453-.076,5.566,5.566,0,0,0-1.092.144,4.564,4.564,0,0,0-1.015.494C4494.583,501.809,4494.625,501.874,4494.669,501.875Z" fill="#ffdc80"/>
      <path id="Caminho_14666" data-name="Caminho 14666" d="M4509.983,505.586a4,4,0,0,0,1.158-.12c.4-.064.822-.163,1.228-.189.168-.011.135-.255-.026-.255-.441,0-.868-.046-1.312-.011a2.775,2.775,0,0,0-1.128.238C4509.755,505.332,4509.834,505.564,4509.983,505.586Z" fill="#ffdc80"/>
      <path id="Caminho_14667" data-name="Caminho 14667" d="M4510.713,502.835c.8.349,1.67.516,2.461.882a4.015,4.015,0,0,0,2.186.408.138.138,0,0,0,.007-.272c-.8-.212-1.618-.328-2.412-.531-.739-.19-1.437-.525-2.178-.708C4510.647,502.582,4510.6,502.783,4510.713,502.835Z" fill="#ffdc80"/>
      <path id="Caminho_14668" data-name="Caminho 14668" d="M4488.692,504.415c-.054-.029.069.042.065.04a.548.548,0,0,0,.124.041c.059.013.119.021.178.033a1.385,1.385,0,0,0,.368.019.282.282,0,0,0,.2-.442.8.8,0,0,0-.919-.259A.311.311,0,0,0,4488.692,504.415Z" fill="#ffdc80"/>
      <path id="Caminho_14669" data-name="Caminho 14669" d="M4491.064,502.5c.042.178.278.16.413.123.165-.045.327-.1.489-.156.208-.074.135-.426-.091-.384-.165.031-.327.067-.49.108C4491.246,502.229,4491.021,502.321,4491.064,502.5Z" fill="#ffdc80"/>
      <path id="Caminho_14670" data-name="Caminho 14670" d="M4488.689,502.921a1.529,1.529,0,0,0,.652-.121c.238-.064.475-.135.714-.2.159-.043.095-.3-.066-.28-.24.033-.48.069-.716.123a1.391,1.391,0,0,0-.643.23A.139.139,0,0,0,4488.689,502.921Z" fill="#ffdc80"/>
      <path id="Caminho_14671" data-name="Caminho 14671" d="M4515.943,504.674a.116.116,0,0,0,.147-.18A.116.116,0,0,0,4515.943,504.674Z" fill="#ffdc80"/>
      <path id="Caminho_14672" data-name="Caminho 14672" d="M4515.585,504.547a.1.1,0,0,0,.125-.155A.1.1,0,0,0,4515.585,504.547Z" fill="#ffdc80"/>
      <path id="Caminho_14673" data-name="Caminho 14673" d="M4515.3,504.684l0,.025a.111.111,0,1,0,.1-.122h-.025A.088.088,0,0,0,4515.3,504.684Z" fill="#ffdc80"/>
      <path id="Caminho_14674" data-name="Caminho 14674" d="M4515.134,504.591a.1.1,0,0,0,.12-.148A.1.1,0,0,0,4515.134,504.591Z" fill="#ffdc80"/>
      <path id="Caminho_14675" data-name="Caminho 14675" d="M4514.818,504.752a.1.1,0,0,0,.122-.15A.1.1,0,0,0,4514.818,504.752Z" fill="#ffdc80"/>
      <path id="Caminho_14676" data-name="Caminho 14676" d="M4514.674,504.93a.075.075,0,0,0,.1-.117A.075.075,0,0,0,4514.674,504.93Z" fill="#ffdc80"/>
      <path id="Caminho_14677" data-name="Caminho 14677" d="M4514.32,504.684a.071.071,0,0,0,.089-.11A.071.071,0,0,0,4514.32,504.684Z" fill="#ffdc80"/>
      <path id="Caminho_14678" data-name="Caminho 14678" d="M4513.671,505.085a.11.11,0,0,0,.139-.171A.11.11,0,0,0,4513.671,505.085Z" fill="#ffdc80"/>
      <path id="Caminho_14679" data-name="Caminho 14679" d="M4494.1,504.008a.134.134,0,0,0,.169-.208A.134.134,0,0,0,4494.1,504.008Z" fill="#ffdc80"/>
      <path id="Caminho_14680" data-name="Caminho 14680" d="M4493.646,503.936a.074.074,0,0,0,.093-.115A.074.074,0,0,0,4493.646,503.936Z" fill="#ffdc80"/>
      <path id="Caminho_14681" data-name="Caminho 14681" d="M4493.142,503.859a.114.114,0,1,0,.131-.125A.116.116,0,0,0,4493.142,503.859Z" fill="#ffdc80"/>
      <path id="Caminho_14682" data-name="Caminho 14682" d="M4495.524,504.1l.015-.031a.049.049,0,0,0-.073-.059l-.027.021C4495.362,504.085,4495.485,504.185,4495.524,504.1Z" fill="#ffdc80"/>
      <path id="Caminho_14683" data-name="Caminho 14683" d="M4495.728,503.817a.1.1,0,0,0,.131-.162A.1.1,0,0,0,4495.728,503.817Z" fill="#ffdc80"/>
      <path id="Caminho_14684" data-name="Caminho 14684" d="M4492.393,502.635a.14.14,0,0,0,.176-.217A.14.14,0,0,0,4492.393,502.635Z" fill="#ffdc80"/>
      <path id="Caminho_14685" data-name="Caminho 14685" d="M4492.253,501.9a.121.121,0,0,0,.152-.188A.121.121,0,0,0,4492.253,501.9Z" fill="#ffdc80"/>
      <path id="Caminho_14686" data-name="Caminho 14686" d="M4491.569,501.944c.015.012.034-.011.019-.023S4491.554,501.932,4491.569,501.944Z" fill="#ffdc80"/>
      <path id="Caminho_14687" data-name="Caminho 14687" d="M4490.775,502.069a.074.074,0,0,0,.093-.115A.074.074,0,0,0,4490.775,502.069Z" fill="#ffdc80"/>
      <path id="Caminho_14688" data-name="Caminho 14688" d="M4490.728,502.526a.065.065,0,0,0,.081-.1A.065.065,0,0,0,4490.728,502.526Z" fill="#ffdc80"/>
      <path id="Caminho_14689" data-name="Caminho 14689" d="M4489.953,502.734l.014.028a.095.095,0,1,0,.1-.128l-.03-.007A.08.08,0,0,0,4489.953,502.734Z" fill="#ffdc80"/>
      <path id="Caminho_14690" data-name="Caminho 14690" d="M4488.1,503.265a.145.145,0,0,0,.182-.225A.145.145,0,0,0,4488.1,503.265Z" fill="#ffdc80"/>
      <path id="Caminho_14691" data-name="Caminho 14691" d="M4488.318,502.651c.085.07.253,0,.225-.122l0-.012a.129.129,0,0,0-.136-.111h-.013C4488.264,502.4,4488.232,502.582,4488.318,502.651Z" fill="#ffdc80"/>
      <path id="Caminho_14692" data-name="Caminho 14692" d="M4488.285,502.01a.074.074,0,0,0,.11.089l.053-.044c.11-.093-.062-.234-.13-.107Z" fill="#ffdc80"/>
      <path id="Caminho_14693" data-name="Caminho 14693" d="M4488.01,502.8a.092.092,0,0,0,.116-.143A.092.092,0,0,0,4488.01,502.8Z" fill="#ffdc80"/>
      <path id="Caminho_14694" data-name="Caminho 14694" d="M4488.137,501.906a.1.1,0,0,0,.131-.161A.1.1,0,0,0,4488.137,501.906Z" fill="#ffdc80"/>
      <path id="Caminho_14695" data-name="Caminho 14695" d="M4507.342,502.531a.142.142,0,0,0,.178-.22A.142.142,0,0,0,4507.342,502.531Z" fill="#ffdc80"/>
      <path id="Caminho_14696" data-name="Caminho 14696" d="M4506.78,502.427a.128.128,0,0,0,.161-.2A.128.128,0,0,0,4506.78,502.427Z" fill="#ffdc80"/>
      <path id="Caminho_14697" data-name="Caminho 14697" d="M4506.464,502.236a.47.47,0,0,0,.059.125c.074.114.245-.009.172-.123a.52.52,0,0,0-.092-.1C4506.532,502.074,4506.44,502.156,4506.464,502.236Z" fill="#ffdc80"/>
      <path id="Caminho_14698" data-name="Caminho 14698" d="M4506.382,502.632a.109.109,0,0,0,.137-.168A.109.109,0,0,0,4506.382,502.632Z" fill="#ffdc80"/>
      <path id="Caminho_14699" data-name="Caminho 14699" d="M4508.5,502.672l.05-.01a.027.027,0,0,0,0-.054h-.051C4508.455,502.61,4508.462,502.68,4508.5,502.672Z" fill="#ffdc80"/>
      <path id="Caminho_14700" data-name="Caminho 14700" d="M4508.719,502.882a.156.156,0,0,0,.2-.243A.156.156,0,0,0,4508.719,502.882Z" fill="#ffdc80"/>
      <path id="Caminho_14701" data-name="Caminho 14701" d="M4510.107,503.105a.1.1,0,0,0,.127-.156A.1.1,0,0,0,4510.107,503.105Z" fill="#ffdc80"/>
      <path id="Caminho_14702" data-name="Caminho 14702" d="M4508.1,502.848a.09.09,0,0,0,.114-.14A.09.09,0,0,0,4508.1,502.848Z" fill="#ffdc80"/>
      <path id="Caminho_14703" data-name="Caminho 14703" d="M4505.17,500.331c1.209.4,2.419.783,3.608,1.238.042.015.069-.046.028-.063a25.988,25.988,0,0,0-3.623-1.221C4505.157,500.278,4505.144,500.322,4505.17,500.331Z" fill="#ffdc80"/>
      <path id="Caminho_14704" data-name="Caminho 14704" d="M4504.221,505.851a2.38,2.38,0,0,0,1.073.033,8.633,8.633,0,0,0,1.237-.237c.093-.022.085-.165-.016-.152-.4.05-.8.061-1.2.091a3.64,3.64,0,0,0-1.095.121A.079.079,0,0,0,4504.221,505.851Z" fill="#ffdc80"/>
      <path id="Caminho_14705" data-name="Caminho 14705" d="M4488.879,501.107a10.372,10.372,0,0,1,2.292-.948,10.913,10.913,0,0,1,2.218-.581.039.039,0,0,0-.008-.077,7.176,7.176,0,0,0-2.243.57,6.581,6.581,0,0,0-2.28,1.006A.018.018,0,0,0,4488.879,501.107Z" fill="#ffdc80"/>
      <path id="Caminho_14706" data-name="Caminho 14706" d="M4516.639,504.432a.617.617,0,0,0,.342.3.093.093,0,0,0,.106-.1.619.619,0,0,0-.269-.369A.124.124,0,0,0,4516.639,504.432Z" fill="#ffdc80"/>
      <path id="Caminho_14707" data-name="Caminho 14707" d="M4514.657,506.071a5.081,5.081,0,0,0,1.864-.589c.048-.023.02-.1-.03-.079-.6.268-1.23.394-1.849.6A.033.033,0,0,0,4514.657,506.071Z" fill="#ffdc80"/>
    </g>
    <g id="Grupo_4631" data-name="Grupo 4631">
      <path id="Caminho_14708" data-name="Caminho 14708" d="M4481.877,490.231c-.276,3.245,5.562,4.246,7.782,4.758,5.9,1.36,12.18.325,17.722-1.961,1.928-.8,6.274-3.453,2.037-4.441a70.407,70.407,0,0,0-16.65-1.833C4490.873,486.772,4482.122,487.36,4481.877,490.231Z" fill="#877b40"/>
      <g id="Grupo_4627" data-name="Grupo 4627" opacity="0.42">
        <path id="Caminho_14709" data-name="Caminho 14709" d="M4483.224,492.3a17.5,17.5,0,0,0,4.839,1.752,32.6,32.6,0,0,0,5.139.732,31.981,31.981,0,0,0,10.358-1.024,31.546,31.546,0,0,0,5.52-2.156c.206-.1.04-.4-.166-.312a33.391,33.391,0,0,1-9.841,2.571,32.071,32.071,0,0,1-10.188-.477c-.9-.189-1.8-.4-2.689-.633-.944-.245-1.868-.584-2.812-.818A.2.2,0,0,0,4483.224,492.3Z" fill="#612d0e"/>
      </g>
      <g id="Grupo_4628" data-name="Grupo 4628" opacity="0.42">
        <path id="Caminho_14710" data-name="Caminho 14710" d="M4483.817,490.853c2.047-.123,4.082-.29,6.134-.356,2.069-.066,4.142-.087,6.213-.081,4.278.012,8.563.187,12.838.079.163-.005.226-.266.047-.3a71.806,71.806,0,0,0-12.851-1.028c-2.106-.013-4.217-.007-6.318.146a22.338,22.338,0,0,0-6.1,1.148C4483.588,490.533,4483.57,490.868,4483.817,490.853Z" fill="#612d0e"/>
      </g>
      <path id="Caminho_14711" data-name="Caminho 14711" d="M4484.427,491.253c-.373.087-.131.381.056.494a4.589,4.589,0,0,0,.994.317q.954.285,1.926.5a26.544,26.544,0,0,0,3.888.548,47.874,47.874,0,0,0,4.939.094,49.916,49.916,0,0,0,10.171-1.645c.137-.033.31-.133.259-.263-.03-.077-.123-.1-.2-.12a12.424,12.424,0,0,0-1.641-.218c-.69-.046-1.383-.036-2.074-.025-2.321.035-4.641.153-6.951.075-1.733-.059-3.472-.033-5.206,0-1.2.021-2.407.021-3.611.033A11.729,11.729,0,0,0,4484.427,491.253Z" fill="#ffdc80"/>
      <path id="Caminho_14712" data-name="Caminho 14712" d="M4484.218,489.863a11.338,11.338,0,0,0,2.227-.473c.78-.191,1.558-.384,2.347-.541a34.638,34.638,0,0,1,4.846-.594,55.887,55.887,0,0,1,9.613.466c.97.114,1.939.234,2.911.331,1.052.1,2.085.332,3.138.428.093.008.1-.123.024-.152a27.467,27.467,0,0,0-2.76-.8c-.871-.232-1.735-.452-2.621-.619a42.9,42.9,0,0,0-4.95-.619,39.055,39.055,0,0,0-9.79.461,25.534,25.534,0,0,0-2.7.647,7.072,7.072,0,0,0-2.427,1.081A.221.221,0,0,0,4484.218,489.863Z" fill="#ffdc80"/>
      <path id="Caminho_14713" data-name="Caminho 14713" d="M4487.385,491.909a12.884,12.884,0,0,0,3.164.518,24,24,0,0,0,3.23.334c1.081.017,2.165-.018,3.242-.107,1.125-.093,2.229-.336,3.348-.435.175-.015.19-.286.008-.278-1.1.051-2.235-.092-3.332-.142q-1.619-.074-3.236-.143c-1.083-.047-2.156-.008-3.239-.014a19.108,19.108,0,0,0-3.175-.121C4487.174,491.558,4487.221,491.838,4487.385,491.909Z" fill="#ffdc80"/>
      <path id="Caminho_14714" data-name="Caminho 14714" d="M4496.968,487.764c1,.172,2.054.1,3.064.183,1.13.094,2.271.238,3.391.414.112.017.168-.145.051-.175a21.157,21.157,0,0,0-3.231-.569,11.345,11.345,0,0,0-3.27-.04C4496.884,487.6,4496.87,487.747,4496.968,487.764Z" fill="#ffdc80"/>
      <path id="Caminho_14715" data-name="Caminho 14715" d="M4487.833,488.48c1-.164,2.02-.268,3.024-.391,1.056-.129,2.131-.285,3.191-.357.061-.005.066-.1,0-.1a21.611,21.611,0,0,0-3.074.082,20.659,20.659,0,0,0-3.164.674A.046.046,0,0,0,4487.833,488.48Z" fill="#ffdc80"/>
      <g id="Grupo_4629" data-name="Grupo 4629" opacity="0.42">
        <path id="Caminho_14716" data-name="Caminho 14716" d="M4490.037,489.942a16.1,16.1,0,0,1,2.607.037c.906.057,1.816.058,2.724.065s1.814.016,2.721.011c.985-.005,1.969-.091,2.952-.087a.07.07,0,0,0,0-.139c-.982-.036-1.961-.163-2.944-.208s-1.964-.077-2.946-.11a16.829,16.829,0,0,0-5.132.369A.032.032,0,0,0,4490.037,489.942Z" fill="#612d0e"/>
      </g>
      <g id="Grupo_4630" data-name="Grupo 4630" opacity="0.42">
        <path id="Caminho_14717" data-name="Caminho 14717" d="M4486.5,493.237a35.418,35.418,0,0,0,7.222,1.38,25.038,25.038,0,0,0,7.263-.66.024.024,0,0,0-.011-.047,26.92,26.92,0,0,1-7.242.353,40.346,40.346,0,0,1-7.211-1.1C4486.474,493.157,4486.453,493.225,4486.5,493.237Z" fill="#612d0e"/>
      </g>
      <path id="Caminho_14718" data-name="Caminho 14718" d="M4509.949,488.847a3.543,3.543,0,0,1,.458.6c.19.467-.125.7-.251,1.114a.531.531,0,0,0,.175.628.454.454,0,0,0,.406-.013,1.147,1.147,0,0,0,.324-.265,5.526,5.526,0,0,0,.524-.654.886.886,0,0,0,.039-1.023,1.427,1.427,0,0,0-.849-.473c-.132-.034-.783-.232-.861-.087A.168.168,0,0,0,4509.949,488.847Z" fill="#724918"/>
      <path id="Caminho_14719" data-name="Caminho 14719" d="M4501.048,492.136a1.969,1.969,0,0,0,.871-.068c.322-.062.629-.18.948-.256.121-.029.108-.227-.022-.222-.326.013-.65-.017-.973.009a2,2,0,0,0-.862.162A.206.206,0,0,0,4501.048,492.136Z" fill="#ffdc80"/>
      <path id="Caminho_14720" data-name="Caminho 14720" d="M4483.286,491.259a.13.13,0,0,0,.189-.178A.13.13,0,0,0,4483.286,491.259Z" fill="#ffdc80"/>
      <path id="Caminho_14721" data-name="Caminho 14721" d="M4482.722,491.076l.059.045a.108.108,0,0,0,.162-.089c0-.074-.088-.145-.157-.1l-.061.042A.059.059,0,0,0,4482.722,491.076Z" fill="#ffdc80"/>
      <path id="Caminho_14722" data-name="Caminho 14722" d="M4482.423,490.6a.126.126,0,0,0,.176.005c.048-.057.092-.135.03-.2s-.143-.025-.2.02A.124.124,0,0,0,4482.423,490.6Z" fill="#ffdc80"/>
      <path id="Caminho_14723" data-name="Caminho 14723" d="M4482.453,490a.105.105,0,0,0,.153-.145A.105.105,0,0,0,4482.453,490Z" fill="#ffdc80"/>
      <path id="Caminho_14724" data-name="Caminho 14724" d="M4490.616,494.8a23.532,23.532,0,0,0,9.41,0c.039-.007.024-.065-.014-.06a29.541,29.541,0,0,1-4.782.283c-1.534-.043-3.067-.217-4.594-.349A.064.064,0,0,0,4490.616,494.8Z" fill="#ffdc80"/>
      <path id="Caminho_14725" data-name="Caminho 14725" d="M4507.767,491.19l-.009.026a.074.074,0,0,0,.088.092l.025-.007a.088.088,0,1,0-.1-.111Z" fill="#ffdc80"/>
      <path id="Caminho_14726" data-name="Caminho 14726" d="M4506.792,491.761l.014.041a.088.088,0,0,0,.169,0l.016-.039a.1.1,0,1,0-.2-.006Z" fill="#ffdc80"/>
      <path id="Caminho_14727" data-name="Caminho 14727" d="M4507.26,491.3a.136.136,0,0,0,.106.046h-.015a.2.2,0,0,0-.13.086.133.133,0,0,0,.045.181.191.191,0,0,0,.15.012.147.147,0,0,0,.107-.172.145.145,0,0,0-.153-.108.152.152,0,0,0,.107-.252A.15.15,0,0,0,4507.26,491.3Z" fill="#ffdc80"/>
      <path id="Caminho_14728" data-name="Caminho 14728" d="M4509.322,490.85a.11.11,0,0,0,.159-.151A.11.11,0,0,0,4509.322,490.85Z" fill="#ffdc80"/>
      <path id="Caminho_14729" data-name="Caminho 14729" d="M4508.567,491.009a.084.084,0,0,0,.122-.116A.084.084,0,0,0,4508.567,491.009Z" fill="#ffdc80"/>
      <path id="Caminho_14730" data-name="Caminho 14730" d="M4509.932,489.973c.106.113.281-.053.175-.166A.121.121,0,0,0,4509.932,489.973Z" fill="#ffdc80"/>
      <path id="Caminho_14731" data-name="Caminho 14731" d="M4509.6,489.777a.1.1,0,0,0,.151-.144A.1.1,0,0,0,4509.6,489.777Z" fill="#ffdc80"/>
      <path id="Caminho_14732" data-name="Caminho 14732" d="M4509.061,489.856a.114.114,0,0,0,.165-.156A.114.114,0,0,0,4509.061,489.856Z" fill="#ffdc80"/>
      <path id="Caminho_14733" data-name="Caminho 14733" d="M4508.573,489.463a.1.1,0,0,0,.151-.144A.1.1,0,0,0,4508.573,489.463Z" fill="#ffdc80"/>
      <path id="Caminho_14734" data-name="Caminho 14734" d="M4483.149,490.075l.03.03a.163.163,0,0,0,.237-.225l-.028-.031C4483.247,489.691,4483,489.926,4483.149,490.075Z" fill="#ffdc80"/>
      <path id="Caminho_14735" data-name="Caminho 14735" d="M4483.586,489.073a9.416,9.416,0,0,0,1.287-.524,14.1,14.1,0,0,1,1.441-.494,20.811,20.811,0,0,1,2.869-.522c.081-.011.065-.139-.014-.14a10.826,10.826,0,0,0-3.007.437,6.961,6.961,0,0,0-2.646,1.113A.077.077,0,0,0,4483.586,489.073Z" fill="#ffdc80"/>
    </g>
  </g>
</svg>
