<svg xmlns="http://www.w3.org/2000/svg" width="29.118" height="30" viewBox="0 0 29.118 30">
  <path id="Caminho_3664" data-name="Caminho 3664" d="M10544.518,1319.7a3.075,3.075,0,0,0-3.146-.377c-2,1-3.735.244-5.047-1.972-1.517,1.631-1.949,3.172-1.386,4.713h10.317a2,2,0,0,0-.739-2.364Zm.432,5.892v-1.764h-9.707v1.764Zm13.234,17.647v-3.088a1.764,1.764,0,0,0-1.765-1.764h-8.824a1.764,1.764,0,0,0-1.765,1.764v3.088Zm-10.589-6.617v-7.5a1.765,1.765,0,0,0-1.765-1.765h-11.47a1.765,1.765,0,0,0-1.766,1.765v7.942a1.765,1.765,0,0,0,1.766,1.763h9.962a3.531,3.531,0,0,1,3.272-2.2Zm-.883-13.467v2.548a3.533,3.533,0,0,1,2.648,3.419v7.5h7.059a3.528,3.528,0,0,1,3.529,3.529v3.971a.883.883,0,0,1-.882.882h-14.117a.882.882,0,0,1-.883-.882v-3.53h-9.706a3.53,3.53,0,0,1-3.53-3.529v-7.941a3.533,3.533,0,0,1,2.646-3.419v-2.557c-1.24-2.687-.349-5.385,2.5-7.919a.885.885,0,0,1,1.395.3c1,2.242,1.979,2.832,3.21,2.216,3.539-1.77,7.958,1.576,6.129,5.41Z" transform="translate(-10530.83 -1315)" fill="#3c3c46"/>
</svg>
