<svg xmlns="http://www.w3.org/2000/svg" width="13.808" height="9.5" viewBox="0 0 13.808 9.5">
  <g id="Caminho_16592" data-name="Caminho 16592" transform="translate(-706.096 -4430.5)" fill="none" stroke-linecap="round" stroke-linejoin="round">
    <path d="M710.038,4433.365a2.677,2.677,0,0,1,1.828.726,3.491,3.491,0,1,1,3.557,4.632v.027h-5.385a2.692,2.692,0,0,1,0-5.385Z" stroke="none"/>
    <path d="M 715.1539916992188 4431.75 C 713.6290283203125 4431.75 712.344970703125 4432.73095703125 711.8660278320312 4434.0908203125 C 711.385009765625 4433.64404296875 710.7459716796875 4433.365234375 710.0380249023438 4433.365234375 C 708.552001953125 4433.365234375 707.3460083007812 4434.57080078125 707.3460083007812 4436.05810546875 C 707.3460083007812 4437.544921875 708.552001953125 4438.75 710.0380249023438 4438.75 L 715.4229736328125 4438.75 L 715.4229736328125 4438.72314453125 C 717.22802734375 4438.5830078125 718.6539916992188 4437.0908203125 718.6539916992188 4435.25 C 718.6539916992188 4433.31689453125 717.0869750976562 4431.75 715.1539916992188 4431.75 M 715.1539916992188 4430.5 C 717.7731323242188 4430.5 719.9039916992188 4432.630859375 719.9039916992188 4435.25 C 719.9039916992188 4436.45458984375 719.4505004882812 4437.6015625 718.6271362304688 4438.4794921875 C 717.8804321289062 4439.275390625 716.890869140625 4439.78662109375 715.8150634765625 4439.9375 C 715.6917114257812 4439.97802734375 715.5599365234375 4440 715.4229736328125 4440 L 710.0380249023438 4440 C 707.8643798828125 4440 706.0960083007812 4438.2314453125 706.0960083007812 4436.05810546875 C 706.0960083007812 4433.8837890625 707.8643798828125 4432.115234375 710.0380249023438 4432.115234375 C 710.5068969726562 4432.115234375 710.966796875 4432.19921875 711.3991088867188 4432.3603515625 C 712.2807006835938 4431.21044921875 713.6595458984375 4430.5 715.1539916992188 4430.5 Z" stroke="none" fill="#FFDC80"/>
  </g>
</svg>
