<svg xmlns="http://www.w3.org/2000/svg" width="18.75" height="20" viewBox="0 0 18.75 20">
  <g id="Grupo_5146" data-name="Grupo 5146" transform="translate(-1073.625 -830)">
    <path id="Caminho_16615" data-name="Caminho 16615" d="M1080.187,831.563a1.562,1.562,0,1,1-3.124,0,1.562,1.562,0,1,1,3.124,0" fill="#3c3c46"/>
    <path id="Caminho_16616" data-name="Caminho 16616" d="M1089.562,847.813a1.563,1.563,0,0,1-3.125,0,1.563,1.563,0,1,1,3.125,0" fill="#3c3c46"/>
    <path id="Caminho_16617" data-name="Caminho 16617" d="M1073.625,841.25h5.072l-4.838,6.773a1.249,1.249,0,0,0,1.016,1.977h7.5v-2.5H1077.3l4.838-6.772a1.25,1.25,0,0,0-1.016-1.978h-7.5Z" fill="#3c3c46"/>
    <path id="Caminho_16618" data-name="Caminho 16618" d="M1091.125,832.5h-6.25V835h3.65l-3.375,4.219a1.249,1.249,0,0,0,.975,2.031h6.25v-2.5h-3.65l3.375-4.219a1.25,1.25,0,0,0-.975-2.031Z" fill="#3c3c46"/>
  </g>
</svg>
