<svg xmlns="http://www.w3.org/2000/svg" width="20" height="20" viewBox="0 0 20 20">
  <g id="Grupo_5097" data-name="Grupo 5097" transform="translate(-93 -3920.21)">
    <g id="Grupo_5096" data-name="Grupo 5096">
      <path id="Caminho_16589" data-name="Caminho 16589" d="M103,3922.012c2.67,0,2.986.01,4.041.058a5.544,5.544,0,0,1,1.857.345,3.318,3.318,0,0,1,1.9,1.9,5.566,5.566,0,0,1,.344,1.856c.048,1.055.058,1.371.058,4.041s-.01,2.987-.058,4.041a5.57,5.57,0,0,1-.344,1.857,3.318,3.318,0,0,1-1.9,1.9,5.532,5.532,0,0,1-1.857.344c-1.055.048-1.371.058-4.041.058s-2.987-.01-4.041-.058a5.532,5.532,0,0,1-1.857-.344,3.31,3.31,0,0,1-1.9-1.9,5.544,5.544,0,0,1-.344-1.857c-.048-1.054-.058-1.371-.058-4.041s.01-2.986.058-4.041a5.539,5.539,0,0,1,.344-1.856,3.311,3.311,0,0,1,1.9-1.9,5.544,5.544,0,0,1,1.857-.345c1.055-.048,1.371-.058,4.041-.058m0-1.8c-2.716,0-3.056.012-4.123.06a7.355,7.355,0,0,0-2.427.465,5.112,5.112,0,0,0-2.925,2.925,7.355,7.355,0,0,0-.465,2.427c-.049,1.067-.06,1.407-.06,4.123s.011,3.057.06,4.123a7.356,7.356,0,0,0,.465,2.428,5.108,5.108,0,0,0,2.925,2.924,7.3,7.3,0,0,0,2.427.465c1.067.049,1.407.06,4.123.06s3.056-.011,4.123-.06a7.3,7.3,0,0,0,2.427-.465,5.108,5.108,0,0,0,2.925-2.924,7.356,7.356,0,0,0,.465-2.428c.048-1.066.06-1.407.06-4.123s-.012-3.056-.06-4.123a7.355,7.355,0,0,0-.465-2.427,5.112,5.112,0,0,0-2.925-2.925,7.355,7.355,0,0,0-2.427-.465c-1.067-.048-1.407-.06-4.123-.06Z" fill="#dcdcff"/>
      <path id="Caminho_16590" data-name="Caminho 16590" d="M103,3925.075a5.135,5.135,0,1,0,5.135,5.135A5.135,5.135,0,0,0,103,3925.075Zm0,8.469a3.333,3.333,0,1,1,3.333-3.334A3.333,3.333,0,0,1,103,3933.544Z" fill="#dcdcff"/>
      <circle id="Elipse_722" data-name="Elipse 722" cx="1.2" cy="1.2" r="1.2" transform="translate(107.138 3923.672)" fill="#dcdcff"/>
    </g>
  </g>
</svg>
