<svg xmlns="http://www.w3.org/2000/svg" width="71.765" height="71.773" viewBox="0 0 71.765 71.773">
  <g id="Grupo_1648" data-name="Grupo 1648" transform="translate(-4800.234 -449.475)">
    <g id="Grupo_1640" data-name="Grupo 1640">
      <path id="Caminho_6383" data-name="Caminho 6383" d="M4813.269,461.9c.04-.937-.969-.765-1.3-.619s.2.991.67,1.021a.661.661,0,0,0,.631-.4Z" fill="#b398ba" fill-rule="evenodd"/>
      <path id="Caminho_6384" data-name="Caminho 6384" d="M4814.15,461.483c-.645.511-.859-.23-.922-.57s.347-.455.7-.334a.555.555,0,0,1,.224.9Z" fill="#b398ba" fill-rule="evenodd"/>
      <path id="Caminho_6385" data-name="Caminho 6385" d="M4812.894,460.861c-.48.214-.884.137-1.076-.283s.332-.494.734-.323.712.425.342.606Z" fill="#b398ba" fill-rule="evenodd"/>
      <path id="Caminho_6386" data-name="Caminho 6386" d="M4815.87,462.893c-1.024.288-1.533-.537-1.21-1.22s.684-.573,1.132.013.318,1.013.078,1.207Z" fill="#b398ba" fill-rule="evenodd"/>
      <g id="Grupo_1624" data-name="Grupo 1624">
        <path id="Caminho_6387" data-name="Caminho 6387" d="M4812.956,463.809c.418.4.833-.166.833-.166s.621.044.823-.376-.158-.53-.158-.53a.478.478,0,0,0-.314-.544c-.4-.148-.469.331-.469.331s-.3-.252-.771.245a.758.758,0,0,0,.056,1.04Z" fill="#b398ba" fill-rule="evenodd"/>
        <path id="Caminho_6388" data-name="Caminho 6388" d="M4813.914,462.819c.374.222.314.35-.21.424s-.078-.573.21-.424Z" fill="#a483ae" fill-rule="evenodd"/>
      </g>
      <g id="Grupo_1625" data-name="Grupo 1625">
        <path id="Caminho_6389" data-name="Caminho 6389" d="M4815.346,465.146c.886.252.635,1.572.127,1.57a.805.805,0,0,1-.707-.464s-.649,1.178-1.28.8.041-1.137.041-1.137-1.176.02-1.149-.68,1.563-.343,1.563-.343a.588.588,0,0,1,.011-.973c.614-.5,1.877.309,1.394,1.23Z" fill="#b398ba" fill-rule="evenodd"/>
        <path id="Caminho_6390" data-name="Caminho 6390" d="M4814.977,465.26c.155-.768-.259-.922-.655-.849s-.019.736-.019.736-.813-.356-1.062.082.64.531.64.531-.412.843-.007.894.794-.8.794-.8.35.756.68.289-.371-.883-.371-.883Z" fill="#a483ae" fill-rule="evenodd"/>
        <path id="Caminho_6391" data-name="Caminho 6391" d="M4814.507,465.832c-.267.131-.483-.169-.478-.381s.343-.289.536-.264.272.378-.058.645Z" fill="#ffdc80" fill-rule="evenodd"/>
        <path id="Caminho_6392" data-name="Caminho 6392" d="M4813.065,464.453c.408.48,1.265.736,1.35.983s-1.249,1.128-1.437,1.177.347-.282.737-.6a4.293,4.293,0,0,0,.525-.468,10.449,10.449,0,0,1-1.655.555,9.031,9.031,0,0,1,1.536-.692s-1.3-.848-1.056-.959Z" fill="#baafbd" fill-rule="evenodd"/>
        <path id="Caminho_6393" data-name="Caminho 6393" d="M4812.832,466.762a.214.214,0,1,1,.269-.138.214.214,0,0,1-.269.138Z" fill="#bb6983" fill-rule="evenodd"/>
        <path id="Caminho_6394" data-name="Caminho 6394" d="M4812.439,466.32a.214.214,0,1,1,.271-.144.214.214,0,0,1-.271.144Z" fill="#bb6983" fill-rule="evenodd"/>
        <path id="Caminho_6395" data-name="Caminho 6395" d="M4812.9,464.657a.214.214,0,0,1-.146-.265.216.216,0,0,1,.272-.144.214.214,0,0,1-.126.409Z" fill="#bb6983" fill-rule="evenodd"/>
      </g>
      <g id="Grupo_1627" data-name="Grupo 1627">
        <g id="Grupo_1626" data-name="Grupo 1626">
          <path id="Caminho_6396" data-name="Caminho 6396" d="M4816.06,463.216c-.926-.034-1.1,1.3-.606,1.454a.8.8,0,0,0,.816-.229s.252,1.327.971,1.154.306-1.094.306-1.094,1.119.383,1.309-.292-1.386-.809-1.386-.809a.585.585,0,0,0,.29-.929.976.976,0,0,0-1.7.745Z" fill="#b398ba" fill-rule="evenodd"/>
          <path id="Caminho_6397" data-name="Caminho 6397" d="M4816.37,463.432c.09-.778.537-.8.892-.605s-.216.706-.216.706.89-.087.984.413-.773.3-.773.3.138.935-.263.852-.514-1-.514-1-.566.6-.736.065.626-.732.626-.732Z" fill="#a483ae" fill-rule="evenodd"/>
          <path id="Caminho_6398" data-name="Caminho 6398" d="M4816.646,464.121c.214.215.5,0,.572-.214s-.243-.381-.434-.41-.369.269-.138.624Z" fill="#ffdc80" fill-rule="evenodd"/>
          <path id="Caminho_6399" data-name="Caminho 6399" d="M4818.437,463.256c-.536.336-1.424.309-1.587.523s.845,1.453,1.009,1.558-.243-.368-.524-.8a4.463,4.463,0,0,1-.347-.607,10.743,10.743,0,0,0,1.4,1.046c.166,0-1.24-1.139-1.24-1.139s1.5-.4,1.294-.586Z" fill="#baafbd" fill-rule="evenodd"/>
          <path id="Caminho_6400" data-name="Caminho 6400" d="M4817.945,465.53a.217.217,0,1,1,.221-.213.219.219,0,0,1-.221.213Z" fill="#bb6983" fill-rule="evenodd"/>
          <path id="Caminho_6401" data-name="Caminho 6401" d="M4818.536,463.5a.214.214,0,1,1,.214-.207.212.212,0,0,1-.214.207Z" fill="#bb6983" fill-rule="evenodd"/>
        </g>
        <path id="Caminho_6402" data-name="Caminho 6402" d="M4818.272,465.1a.214.214,0,1,1,.27-.138.215.215,0,0,1-.27.138Z" fill="#bb6983" fill-rule="evenodd"/>
      </g>
      <path id="Caminho_6403" data-name="Caminho 6403" d="M4820.767,465.325a.211.211,0,0,0-.106.281.207.207,0,0,0,.281.107.213.213,0,1,0-.175-.388Z" fill="#bb6983" fill-rule="evenodd"/>
      <g id="Grupo_1628" data-name="Grupo 1628">
        <path id="Caminho_6404" data-name="Caminho 6404" d="M4819.031,464.864c-.084-.279.334-.542.427-.855s.4.011.4.011.33-.381.582-.217-.131.773-.131.773.141.1-.033.486-.977.206-1.3.39-.295-.395.056-.588Z" fill="#a483ae" fill-rule="evenodd"/>
        <path id="Caminho_6405" data-name="Caminho 6405" d="M4819.175,465.049c-.041-.153.469-.659.651-.959a5.8,5.8,0,0,0,.323-.762c.04-.1.107-.274.078-.049a3.069,3.069,0,0,1-.411.963,8.038,8.038,0,0,0-.488.767,18.414,18.414,0,0,0,1.288-1.4c.246-.368-.1.332-.556.748a2.067,2.067,0,0,0-.527.608,8.771,8.771,0,0,0,1.323-.811c.128-.14.113-.035-.157.2a5.165,5.165,0,0,1-.855.561c-.665.324-.669.133-.669.133Z" fill="#baafbd" fill-rule="evenodd"/>
        <path id="Caminho_6406" data-name="Caminho 6406" d="M4818.68,465.455c-.087-.506.522-.813.857-.811a.466.466,0,0,1,.314.718c-.2.221-.518.084-.8.169s-.375.082-.374-.076Z" fill="#b398ba" fill-rule="evenodd"/>
        <path id="Caminho_6407" data-name="Caminho 6407" d="M4820.99,464.266a.133.133,0,1,0-.184-.026.133.133,0,0,0,.184.026Z" fill="#bb6983" fill-rule="evenodd"/>
        <path id="Caminho_6408" data-name="Caminho 6408" d="M4820.711,463.661a.133.133,0,1,0-.16-.213.133.133,0,1,0,.16.213Z" fill="#bb6983" fill-rule="evenodd"/>
        <path id="Caminho_6409" data-name="Caminho 6409" d="M4820.262,463.268a.133.133,0,0,0,.027-.184.133.133,0,1,0-.213.16.133.133,0,0,0,.186.024Z" fill="#bb6983" fill-rule="evenodd"/>
      </g>
      <g id="Grupo_1639" data-name="Grupo 1639">
        <g id="Grupo_1629" data-name="Grupo 1629">
          <path id="Caminho_6410" data-name="Caminho 6410" d="M4823.608,470.863c.18-.5.918-.508,1.376-.367s-.328.895-.328.895,1.4.67,1.135,1.271-1.619-.369-1.619-.369.2,1.218-.433,1.5-.543-1.584-.543-1.584a.665.665,0,0,1-.819.01c-.426-.311.114-1.222,1.231-1.354Z" fill="#b398ba" fill-rule="evenodd"/>
          <path id="Caminho_6411" data-name="Caminho 6411" d="M4824.408,471.5c.739.226.811.516.66.724s-.848-.307-.98-.227-.026,1.021-.365.951-.233-.941-.233-.941-.5.255-.6-.244.651-.663.651-.663.4-.491.858-.4.009.8.009.8Z" fill="#a483ae" fill-rule="evenodd"/>
          <path id="Caminho_6412" data-name="Caminho 6412" d="M4823.8,471.149c.7,0,.543.628.112.77s-.83-.589-.112-.77Z" fill="#ffdc80" fill-rule="evenodd"/>
          <path id="Caminho_6413" data-name="Caminho 6413" d="M4823.9,471.507a3.668,3.668,0,0,1,1.211,2.631c-.07.079-.275-1.194-.64-1.66s-.743-.89-.743-.89-.847,1.432-1.043,1.94.077-.558.51-1.294.509-.874.509-.874a6,6,0,0,1,1.821-.1c.757.126.516.172-.141.091a4.436,4.436,0,0,0-1.484.153Z" fill="#baafbd" fill-rule="evenodd"/>
          <path id="Caminho_6414" data-name="Caminho 6414" d="M4825.893,471.631a.214.214,0,1,1,.126-.41.214.214,0,0,1-.126.41Z" fill="#bb6983" fill-rule="evenodd"/>
          <path id="Caminho_6415" data-name="Caminho 6415" d="M4822.557,473.877a.215.215,0,0,1-.144-.272.214.214,0,1,1,.144.272Z" fill="#bb6983" fill-rule="evenodd"/>
        </g>
        <g id="Grupo_1630" data-name="Grupo 1630">
          <path id="Caminho_6416" data-name="Caminho 6416" d="M4817.245,467.434c-1.171.744-1.134,1.517-.455,1.638s1.27-.807,1.27-.807.143.907.913.554-.052-1.573-.052-1.573a.819.819,0,0,0,.377-.968.668.668,0,0,0-.4-.544c-.686-.271-.847.342-.856.74a2.968,2.968,0,0,0-1.16-.489.688.688,0,0,0-.734.43c-.127.676,1.1,1.019,1.1,1.019Z" fill="#b398ba" fill-rule="evenodd"/>
          <path id="Caminho_6417" data-name="Caminho 6417" d="M4818.121,466.759c-.754-.485-1.025-.408-1.2-.046s.75.672.75.672-1,.55-.633,1.016.968-.606.968-.606.167.787.723.61-.156-1.018-.156-1.018.5-.715.147-1.091-.6.463-.6.463Z" fill="#a483ae" fill-rule="evenodd"/>
          <path id="Caminho_6418" data-name="Caminho 6418" d="M4818.032,467.682a.362.362,0,0,0,.417-.381.356.356,0,0,0-.488-.283.368.368,0,0,0,.071.664Z" fill="#ffdc80" fill-rule="evenodd"/>
          <path id="Caminho_6419" data-name="Caminho 6419" d="M4818.228,467.367a3.963,3.963,0,0,0-.609-1.958c-.2-.228-.046.26.179.7a3.3,3.3,0,0,1,.28,1.069,7.71,7.71,0,0,0-.922-.5c-.658-.3-1.422-.55-1.289-.4.233.265.792.317,1.347.6a2.34,2.34,0,0,1,.757.54,8.658,8.658,0,0,1-2,.53c-.468-.044.208.257.928-.017s1.253-.357,1.33-.568Z" fill="#baafbd" fill-rule="evenodd"/>
          <path id="Caminho_6420" data-name="Caminho 6420" d="M4817.4,465.556a.215.215,0,0,1-.138-.27.213.213,0,0,1,.264-.14.214.214,0,1,1-.126.41Z" fill="#bb6983" fill-rule="evenodd"/>
          <path id="Caminho_6421" data-name="Caminho 6421" d="M4815.728,466.407a.215.215,0,0,1-.137-.27.212.212,0,0,1,.263-.14.214.214,0,1,1-.126.41Z" fill="#bb6983" fill-rule="evenodd"/>
          <path id="Caminho_6422" data-name="Caminho 6422" d="M4815.817,468.166a.215.215,0,0,1-.138-.27.214.214,0,0,1,.41.126.217.217,0,0,1-.272.144Z" fill="#bb6983" fill-rule="evenodd"/>
        </g>
        <g id="Grupo_1631" data-name="Grupo 1631">
          <path id="Caminho_6423" data-name="Caminho 6423" d="M4821.333,467.557c1.249.591,1.312,1.366.654,1.572s-1.36-.645-1.36-.645-.026.915-.839.665-.143-1.561-.143-1.561a.832.832,0,0,1-.493-.92.664.664,0,0,1,.327-.588c.651-.356.885.231.943.63a2.931,2.931,0,0,1,1.091-.635.7.7,0,0,1,.787.335c.205.658-.967,1.147-.967,1.147Z" fill="#b398ba" fill-rule="evenodd"/>
          <path id="Caminho_6424" data-name="Caminho 6424" d="M4820.381,467c.69-.571.959-.535,1.182-.192s-.661.76-.661.76,1.054.423.752.926-1.036-.479-1.036-.479-.066.8-.647.691.034-1.026.034-1.026-.59-.649-.282-1.062.658.382.658.382Z" fill="#a483ae" fill-rule="evenodd"/>
          <path id="Caminho_6425" data-name="Caminho 6425" d="M4820.579,467.9a.348.348,0,1,1-.01-.665.364.364,0,0,1,.01.665Z" fill="#ffdc80" fill-rule="evenodd"/>
          <path id="Caminho_6426" data-name="Caminho 6426" d="M4820.345,467.616a3.9,3.9,0,0,1,.366-2.021c.162-.245.075.257-.1.726a3.292,3.292,0,0,0-.139,1.087,8.434,8.434,0,0,1,.848-.609c.618-.378,1.346-.724,1.234-.557-.205.3-.75.418-1.263.762a2.348,2.348,0,0,0-.682.633,8.619,8.619,0,0,0,2.046.281c.461-.107-.173.281-.919.1s-1.3-.2-1.4-.4Z" fill="#baafbd" fill-rule="evenodd"/>
          <path id="Caminho_6427" data-name="Caminho 6427" d="M4822.531,465.959a.221.221,0,0,0-.108.288.214.214,0,0,0,.282.107.216.216,0,0,0-.174-.395Z" fill="#bb6983" fill-rule="evenodd"/>
        </g>
        <g id="Grupo_1632" data-name="Grupo 1632">
          <path id="Caminho_6428" data-name="Caminho 6428" d="M4819.749,469.973c-.286-.529.34-1.086.588-1a2.815,2.815,0,0,1,.649.393s1.408-.276,1.65.092-.072.693-.444.967a1,1,0,0,1-.686.231,1.5,1.5,0,0,1,.219,1.009c-.072.627-.337.532-.78.209a4.311,4.311,0,0,1-.608-.5,2.245,2.245,0,0,1-.338.906c-.3.491-1.469-1.119-.25-2.3Z" fill="#b398ba" fill-rule="evenodd"/>
          <path id="Caminho_6429" data-name="Caminho 6429" d="M4821.037,469.807c.578-.251.918-.006.912.253s-.644.464-.644.464.334.851.078,1.033-1.04-.532-1.04-.532-.192.6-.487.432.281-1.244.281-1.244-.264-.469.02-.743.88.337.88.337Z" fill="#a483ae" fill-rule="evenodd"/>
          <path id="Caminho_6430" data-name="Caminho 6430" d="M4820.815,470.922c-.529.179-.657-.255-.554-.591.271-.927,1.436.287.554.591Z" fill="#ffdc80" fill-rule="evenodd"/>
          <path id="Caminho_6431" data-name="Caminho 6431" d="M4820.728,470.421a4.646,4.646,0,0,1,2.078.617c.114.149-.944-.3-1.259-.366s-.762-.067-.752-.077,1.112,1.344,1.319,1.608c.115.149-.29-.189-.667-.593a10.248,10.248,0,0,1-.694-.834c-.236-.32,0,1.157.028,1.653s-.082-.018-.24-.876.025-1.082.187-1.132Z" fill="#baafbd" fill-rule="evenodd"/>
          <path id="Caminho_6432" data-name="Caminho 6432" d="M4822.612,470.9a.216.216,0,0,0,.3.312.211.211,0,0,0,0-.3.213.213,0,0,0-.3-.013Z" fill="#bb6983" fill-rule="evenodd"/>
          <path id="Caminho_6433" data-name="Caminho 6433" d="M4821.921,471.983a.221.221,0,0,0-.007.306.216.216,0,0,0,.312-.3.218.218,0,0,0-.305-.007Z" fill="#bb6983" fill-rule="evenodd"/>
          <path id="Caminho_6434" data-name="Caminho 6434" d="M4820.633,472.411a.218.218,0,0,0-.007.3.21.21,0,0,0,.3.005.213.213,0,0,0,.013-.3.218.218,0,0,0-.305-.006Z" fill="#bb6983" fill-rule="evenodd"/>
        </g>
        <g id="Grupo_1633" data-name="Grupo 1633">
          <path id="Caminho_6435" data-name="Caminho 6435" d="M4816.837,469.47a.675.675,0,0,0-.127,1.165.886.886,0,0,0,.692.079s.971.751,1.458.464-.2-.959-.2-.959.943-.375.694-.962-1.278-.12-1.278-.12a.405.405,0,0,0-.2-.588c-.421-.234-1.034.921-1.034.921Z" fill="#b398ba" fill-rule="evenodd"/>
          <path id="Caminho_6436" data-name="Caminho 6436" d="M4817.6,470.436c.359.527.844.508.969.373s-.292-.746-.292-.746.754-.262.588-.587-.924.072-.924.072.117-.446-.24-.481-.254.563-.254.563a.439.439,0,0,0-.546.155c-.217.31.7.651.7.651Z" fill="#a483ae" fill-rule="evenodd"/>
          <path id="Caminho_6437" data-name="Caminho 6437" d="M4817.534,469.716a.3.3,0,0,0,.461.372.3.3,0,1,0-.461-.372Z" fill="#ffdc80" fill-rule="evenodd"/>
          <path id="Caminho_6438" data-name="Caminho 6438" d="M4819.6,470.468a11.887,11.887,0,0,0-1.854-.561c-.263-.021.718-1.248.907-1.466s-.042.207-.26.489-.549.826-.549.826a14.324,14.324,0,0,1,1.639-.826,10.57,10.57,0,0,1-1.523.859s1.71.528,1.64.679Z" fill="#baafbd" fill-rule="evenodd"/>
          <path id="Caminho_6439" data-name="Caminho 6439" d="M4819.729,470.647a.189.189,0,1,1,.042-.264.193.193,0,0,1-.042.264Z" fill="#bb6983" fill-rule="evenodd"/>
          <path id="Caminho_6440" data-name="Caminho 6440" d="M4819.635,469.121a.189.189,0,0,1-.265-.034.191.191,0,0,1,.039-.269.189.189,0,0,1,.226.3Z" fill="#bb6983" fill-rule="evenodd"/>
          <path id="Caminho_6441" data-name="Caminho 6441" d="M4818.875,468.529a.189.189,0,1,1,.034-.265.19.19,0,0,1-.034.265Z" fill="#bb6983" fill-rule="evenodd"/>
        </g>
        <g id="Grupo_1634" data-name="Grupo 1634">
          <path id="Caminho_6442" data-name="Caminho 6442" d="M4825.677,484.272c-.067-4.1,3.52-8.363,5.6-8.484a19.969,19.969,0,0,1,5.1.708,5.4,5.4,0,0,0-1.425.468c-.469.281.081.5.081.5a5.438,5.438,0,0,1-1.323,1.541,6.637,6.637,0,0,0-1.044.912l.532-.028a7.5,7.5,0,0,1-1.654,1.68c-.821.506-1.185.77-1.185.77l.49.107s-3.33.636-3.734,2.415-1.147,1.589-1.434-.588Z" fill="#809c26" fill-rule="evenodd"/>
          <path id="Caminho_6443" data-name="Caminho 6443" d="M4834.621,476.1c1.007.192,1.752.4,1.752.4a5.4,5.4,0,0,0-1.425.468c-.469.281.081.5.081.5a5.438,5.438,0,0,1-1.323,1.541,6.637,6.637,0,0,0-1.044.912l.532-.028a7.5,7.5,0,0,1-1.654,1.68c-.821.506-1.185.77-1.185.77l.49.107a9.287,9.287,0,0,0-1.782.568,5.168,5.168,0,0,1,2.247-2.144c1.066-.462-.058-.874,1.225-2.064,1.142-1.054.959-1.843,2.086-2.7Z" fill="#86a945" fill-rule="evenodd"/>
          <path id="Caminho_6444" data-name="Caminho 6444" d="M4829.377,478.416l-.253.322a5.308,5.308,0,0,0,3-.484c-2.494.338-2.748.162-2.748.162Z" fill="#95b05c" fill-rule="evenodd"/>
          <path id="Caminho_6445" data-name="Caminho 6445" d="M4826.075,485.1l-.121-.61c1.3-4.443,2.8-6.662,6.824-7.868a9.029,9.029,0,0,0-5.3,4.78,36.144,36.144,0,0,0-1.4,3.7Z" fill="#95b05c" fill-rule="evenodd"/>
        </g>
        <path id="Caminho_6446" data-name="Caminho 6446" d="M4825.054,474.322a.214.214,0,1,1,.272-.144.215.215,0,0,1-.272.144Z" fill="#bb6983" fill-rule="evenodd"/>
        <g id="Grupo_1635" data-name="Grupo 1635">
          <path id="Caminho_6447" data-name="Caminho 6447" d="M4815.47,471.522c.589-.067.94.837.589,1.2a1.03,1.03,0,0,1-.71.351s-.748,1.174-1.379,1.054-.156-1.1-.156-1.1-1.146-.037-1.1-.76,1.32-.618,1.32-.618a.459.459,0,0,1-.011-.7c.36-.412,1.452.585,1.452.585Z" fill="#b398ba" fill-rule="evenodd"/>
          <path id="Caminho_6448" data-name="Caminho 6448" d="M4815.037,472.847c-.188.7-.707.866-.892.769s.019-.91.019-.91-.9.012-.847-.4,1.014-.277,1.014-.277-.295-.432.073-.606.487.5.487.5a.5.5,0,0,1,.642-.043c.352.248-.5.964-.5.964Z" fill="#a483ae" fill-rule="evenodd"/>
          <path id="Caminho_6449" data-name="Caminho 6449" d="M4814.825,472.053a.337.337,0,0,1-.35.575.337.337,0,1,1,.35-.575Z" fill="#ffdc80" fill-rule="evenodd"/>
          <path id="Caminho_6450" data-name="Caminho 6450" d="M4812.9,473.65a12.361,12.361,0,0,1,1.766-1.31c.272-.124-1.247-1.058-1.532-1.219s.124.206.465.424.9.672.9.672a16.013,16.013,0,0,0-2.069-.254,12.838,12.838,0,0,0,1.958.333s-1.625,1.22-1.492,1.354Z" fill="#baafbd" fill-rule="evenodd"/>
          <path id="Caminho_6451" data-name="Caminho 6451" d="M4812.838,473.891a.214.214,0,1,1,.263-.14.213.213,0,0,1-.263.14Z" fill="#bb6983" fill-rule="evenodd"/>
          <path id="Caminho_6452" data-name="Caminho 6452" d="M4812.353,472.224a.214.214,0,1,1,.269-.138.213.213,0,0,1-.269.138Z" fill="#bb6983" fill-rule="evenodd"/>
          <path id="Caminho_6453" data-name="Caminho 6453" d="M4812.937,471.3a.214.214,0,1,1,.126-.409.214.214,0,0,1-.126.409Z" fill="#bb6983" fill-rule="evenodd"/>
        </g>
        <g id="Grupo_1636" data-name="Grupo 1636">
          <path id="Caminho_6454" data-name="Caminho 6454" d="M4815.31,469.775c-.416,1.357-1.387.664-1.616.233s-.007-.63-.007-.63-1.084-.106-.928-.94a.964.964,0,0,1,1.026-.775s.164-.839,1.484-.762.735,1.375.735,1.375a1.092,1.092,0,0,1,.4,1.147c-.17.77-1.1.352-1.1.352Z" fill="#b398ba" fill-rule="evenodd"/>
          <path id="Caminho_6455" data-name="Caminho 6455" d="M4814.99,469.229c.025.723-.494,1-.779.817s-.042-.975-.042-.975-.837.157-.8-.586.84-.343.84-.343a.66.66,0,0,1,.681-.694c.69.018.419,1.031.419,1.031s.815-.018.684.6-1.007.146-1.007.146Z" fill="#a483ae" fill-rule="evenodd"/>
          <path id="Caminho_6456" data-name="Caminho 6456" d="M4814.559,468.3c.4-.005.536.278.485.51s-.44.259-.756.069-.149-.627.271-.579Z" fill="#ffdc80" fill-rule="evenodd"/>
          <path id="Caminho_6457" data-name="Caminho 6457" d="M4814.774,468.822a5.52,5.52,0,0,1,1.333,1.692c.185.378-.554-.658-.852-1.037a3.181,3.181,0,0,0-.6-.578,10.638,10.638,0,0,1-.825,1.579c-.207.2.647-1.674.647-1.674s-1.257.785-1.47.913a9.22,9.22,0,0,1,1.283-1.043.294.294,0,0,1,.483.148Z" fill="#baafbd" fill-rule="evenodd"/>
          <path id="Caminho_6458" data-name="Caminho 6458" d="M4816.135,470.837a.214.214,0,0,1,.125-.41.216.216,0,0,1,.144.272.213.213,0,0,1-.269.138Z" fill="#bb6983" fill-rule="evenodd"/>
          <path id="Caminho_6459" data-name="Caminho 6459" d="M4813.743,470.7a.214.214,0,0,1,.126-.41.218.218,0,0,1,.146.265.221.221,0,0,1-.272.145Z" fill="#bb6983" fill-rule="evenodd"/>
          <path id="Caminho_6460" data-name="Caminho 6460" d="M4812.96,469.83a.214.214,0,1,1,.264-.14.214.214,0,0,1-.264.14Z" fill="#bb6983" fill-rule="evenodd"/>
        </g>
        <path id="Caminho_6461" data-name="Caminho 6461" d="M4822.661,467.717a.213.213,0,0,0-.107.282.206.206,0,0,0,.282.106.213.213,0,0,0-.175-.388Z" fill="#bb6983" fill-rule="evenodd"/>
        <path id="Caminho_6462" data-name="Caminho 6462" d="M4827.493,480.622l-.233.378a4.3,4.3,0,0,0,3.625-1.075,6.232,6.232,0,0,1-3.392.7Z" fill="#95b05c" fill-rule="evenodd"/>
        <g id="Grupo_1637" data-name="Grupo 1637">
          <path id="Caminho_6463" data-name="Caminho 6463" d="M4827.1,496.74c-1.387-3.53-5.933-5.319-10.345-5.717s-10.9,2.064-10.9,2.064,7.084-1.806,10.336-1.523,7.936,1.64,9.338,3.819a7.539,7.539,0,0,1,1.367,3.838Z" fill="#ffdc80" fill-rule="evenodd"/>
          <path id="Caminho_6464" data-name="Caminho 6464" d="M4822.336,492.815a7.573,7.573,0,0,0-4.5-6.082c-1.335-.57-1.92-.749-1.92-.749l.377.6a33.724,33.724,0,0,0-4.918-.314,24.429,24.429,0,0,0-3.272,1.067l.515.391s-4.553,1.869-5.333,2.344a6.159,6.159,0,0,0-1.481,1.456l.917.1a10.907,10.907,0,0,0-2.483,3.957,7.027,7.027,0,0,1,3.122-.317,3.753,3.753,0,0,1,.816.392l-.32.321s4.434,2.154,5.16,2.137-.443.659-.443.659a35.205,35.205,0,0,0,6,.17c1.676-.281,1,.386,1,.386a45.518,45.518,0,0,0,6.176-.9c4.748-1.217,6.168-6.892.6-5.619Z" fill="#809c26" fill-rule="evenodd"/>
          <path id="Caminho_6465" data-name="Caminho 6465" d="M4822.336,492.815a7.573,7.573,0,0,0-4.5-6.082c-1.335-.57-1.92-.749-1.92-.749l.377.6a33.724,33.724,0,0,0-4.918-.314,24.429,24.429,0,0,0-3.272,1.067l.515.391s-4.553,1.869-5.333,2.344a6.159,6.159,0,0,0-1.481,1.456l.917.1a11.082,11.082,0,0,0-2.436,3.824c4.279-2.482,13.606-4.654,16.494-4.267a22.816,22.816,0,0,1,5.514,1.623Z" fill="#688a2f" fill-rule="evenodd"/>
          <path id="Caminho_6466" data-name="Caminho 6466" d="M4821.637,492.163l-.692-.077a6.622,6.622,0,0,0-4.9-3.969c2.516-.01,5.333,2.135,5.6,4.046Z" fill="#809c26" fill-rule="evenodd"/>
          <path id="Caminho_6467" data-name="Caminho 6467" d="M4815.891,491.232h.986c-1.81-1.048-7.665-3.429-11.885-.8,5.474-2.442,10.9.8,10.9.8Z" fill="#809c26" fill-rule="evenodd"/>
          <path id="Caminho_6468" data-name="Caminho 6468" d="M4822.964,492.675l-.816.211c-3.014,2.5-7.737,4.237-7.777,4.348s3.932-.87,8.593-4.559Z" fill="#95b05c" fill-rule="evenodd"/>
          <path id="Caminho_6469" data-name="Caminho 6469" d="M4819.915,492.01l-.715-.238a21.673,21.673,0,0,1-11.451,4.256c1.4.449,8.189-.79,12.166-4.018Z" fill="#95b05c" fill-rule="evenodd"/>
          <path id="Caminho_6470" data-name="Caminho 6470" d="M4812.617,491.583l-.876.224a19.4,19.4,0,0,1-5.414,2.651,12.8,12.8,0,0,0,6.29-2.875Z" fill="#95b05c" fill-rule="evenodd"/>
          <path id="Caminho_6471" data-name="Caminho 6471" d="M4823.1,492.679a14.187,14.187,0,0,0-6.342-1.656c-3.32-.3-10.9,2.064-10.9,2.064s7.774-1.748,10.336-1.523a16.635,16.635,0,0,1,5.874,1.333c.257-.093.633-.114,1.034-.218Z" fill="#95b05c" fill-rule="evenodd"/>
          <path id="Caminho_6472" data-name="Caminho 6472" d="M4809.9,494.484c1.965-1.387,3.091-2.286,4.873-2.091s-1.861,2.171-3.32,2.37-2.627.291-1.553-.279Z" fill="#6b952d" fill-rule="evenodd"/>
          <path id="Caminho_6473" data-name="Caminho 6473" d="M4817.079,489.268c.53,1.043-4.2-.592-5.889-.765s.791-1.452,2.795-.837,2.792,1,3.094,1.6Zm-5.9,1.226c.254.818-4.881,1.294-6,1.7s1.057-2.078,2.927-2.17c.908-.048,2.81-.364,3.076.475Z" fill="#5e8031" fill-rule="evenodd"/>
        </g>
        <path id="Caminho_6474" data-name="Caminho 6474" d="M4825.7,483.927c-1.447-1.287-4.743-.3-5.956-.366a2.728,2.728,0,0,1-1.683-.517l.713-.317s-1.509-.845-2.335-1.406a4.707,4.707,0,0,1-1.338-1.642l.8-.37a25.007,25.007,0,0,1-1.9-3.576,5.74,5.74,0,0,1-.347-1.64l1.118.109a7.406,7.406,0,0,1,.241-3.536c.623-1.269,1.032-1.6.9-2.181s.948.907,1.685,1.515,1.175.668,1.978,1.3,1,.762,1,.762l.508-.916s1.977,1.068,2.215,2.059a3.736,3.736,0,0,0,.687,1.517l.478-.316s1.74,1.84,1.755,3.539,0,2,0,2l.411-.336s.461,1.49-.057,2.175a7.7,7.7,0,0,0-.885,2.143Z" fill="#86a945" fill-rule="evenodd"/>
        <path id="Caminho_6475" data-name="Caminho 6475" d="M4816.336,481.247a4.8,4.8,0,0,1-1.238-1.568l.8-.37a25.007,25.007,0,0,1-1.9-3.576,5.74,5.74,0,0,1-.347-1.64l1.118.109a7.406,7.406,0,0,1,.241-3.536c.623-1.269,1.032-1.6.9-2.181-.058-.234.094-.125.338.122a13.336,13.336,0,0,0-1,5.121c.3,2.266-.736.895-.784,1.472s2.609,3.967,2.057,4.259c-.436.236-.728.806-.2,1.788Z" fill="#ffdc80" fill-rule="evenodd"/>
        <path id="Caminho_6476" data-name="Caminho 6476" d="M4824.789,506.707c1.526-7.565,2.366-16.129,1.278-20.331s-5.079-9.289-8.993-13.662a36.558,36.558,0,0,1,8.525,10.346c2.474,4.528,2.508,10.884,1.8,16.117-.361,2.662-1.063,6.679-1.814,10.169-.045.212-.118.522-.213.915-.323-.546-.662-1.083-1.023-1.608C4824.53,507.9,4824.681,507.242,4824.789,506.707Z" fill="#ffdc80" fill-rule="evenodd"/>
        <path id="Caminho_6477" data-name="Caminho 6477" d="M4823.954,481.354l.322.437a11.706,11.706,0,0,1-7.135-1.461c4.341,1.732,6.813,1.024,6.813,1.024Z" fill="#ffdc80" fill-rule="evenodd"/>
        <path id="Caminho_6478" data-name="Caminho 6478" d="M4823.043,479.966l-.283-.525c-3.65-.509-5.341-1.884-7.676-3.753,2.461,3.386,7.959,4.278,7.959,4.278Z" fill="#ffdc80" fill-rule="evenodd"/>
        <path id="Caminho_6479" data-name="Caminho 6479" d="M4825.4,483.083l-.536-.842a14.418,14.418,0,0,0-.021-6.019c1.159,1.323.557,6.861.557,6.861Z" fill="#ffdc80" fill-rule="evenodd"/>
        <path id="Caminho_6480" data-name="Caminho 6480" d="M4822.148,478.243l.279.437a7.5,7.5,0,0,0-.4-5.847,9.252,9.252,0,0,1,.126,5.41Z" fill="#ffdc80" fill-rule="evenodd"/>
        <path id="Caminho_6481" data-name="Caminho 6481" d="M4820.418,476.154l.4.229a10.8,10.8,0,0,0-2.328-4.823,12.152,12.152,0,0,1,1.924,4.594Z" fill="#ffdc80" fill-rule="evenodd"/>
        <path id="Caminho_6482" data-name="Caminho 6482" d="M4820.13,477.914c-1.747-.308-3.735-2.181-3.359-2.965s1.9,1.126,2.749,1.743,1.606,1.349.61,1.222Zm3.8.944c-.593-1.58-.429-3.28.111-3.293s.725,3.5-.111,3.293Z" fill="#95b05c" fill-rule="evenodd"/>
        <path id="Caminho_6483" data-name="Caminho 6483" d="M4817.13,469.549a6.034,6.034,0,0,0,.475.451c.73.612,1.175.668,1.978,1.3s1,.762,1,.762l.508-.916s1.977,1.068,2.215,2.059a3.736,3.736,0,0,0,.687,1.517l.478-.316a8.808,8.808,0,0,1,.869,1.128,1.391,1.391,0,0,0-.99-.26c-.424.152-1.045-1.783-1.64-2.579s-1.49-.5-1.53-.054-1.48-.947-2.52-1.451A4.845,4.845,0,0,1,4817.13,469.549Z" fill="#ffdc80" fill-rule="evenodd"/>
        <g id="Grupo_1638" data-name="Grupo 1638">
          <path id="Caminho_6484" data-name="Caminho 6484" d="M4822.911,469.691c-.12-.4.473-.769.6-1.212s.561.016.561.016.467-.54.824-.308-.185,1.1-.185,1.1.2.145-.047.689-1.386.292-1.838.553-.418-.559.08-.834Z" fill="#a483ae" fill-rule="evenodd"/>
          <path id="Caminho_6485" data-name="Caminho 6485" d="M4823.114,469.954c-.057-.218.666-.934.924-1.36a8.027,8.027,0,0,0,.457-1.081c.057-.14.153-.388.111-.068a4.352,4.352,0,0,1-.583,1.364,11.358,11.358,0,0,0-.691,1.088,26.349,26.349,0,0,0,1.826-1.987c.349-.521-.14.471-.788,1.062a2.906,2.906,0,0,0-.747.862,12.407,12.407,0,0,0,1.875-1.151c.181-.2.16-.049-.222.286a7.227,7.227,0,0,1-1.213.8c-.943.46-.949.19-.949.19Z" fill="#baafbd" fill-rule="evenodd"/>
          <path id="Caminho_6486" data-name="Caminho 6486" d="M4822.412,470.529c-.122-.718.741-1.153,1.215-1.149a.66.66,0,0,1,.446,1.017c-.279.314-.734.12-1.129.24s-.532.117-.532-.108Z" fill="#b398ba" fill-rule="evenodd"/>
          <path id="Caminho_6487" data-name="Caminho 6487" d="M4825.688,468.843a.188.188,0,0,0,.042-.263.189.189,0,1,0-.3.226.187.187,0,0,0,.26.037Z" fill="#bb6983" fill-rule="evenodd"/>
          <path id="Caminho_6488" data-name="Caminho 6488" d="M4825.292,467.986a.189.189,0,1,0-.264-.034.193.193,0,0,0,.264.034Z" fill="#bb6983" fill-rule="evenodd"/>
          <path id="Caminho_6489" data-name="Caminho 6489" d="M4824.656,467.428a.186.186,0,0,0,.038-.26.188.188,0,0,0-.264-.042.19.19,0,0,0-.038.268.188.188,0,0,0,.264.034Z" fill="#bb6983" fill-rule="evenodd"/>
        </g>
        <path id="Caminho_6490" data-name="Caminho 6490" d="M4826.325,502.182c.389-3.016,1.107-8.088,1.347-11.581a38.62,38.62,0,0,1-.277,8.576c-.361,2.662-1.063,6.679-1.814,10.169-.045.212-.118.522-.213.916q-.243-.412-.5-.817C4825.551,506.525,4826.116,503.831,4826.325,502.182Z" fill="#95b05c" fill-rule="evenodd"/>
      </g>
    </g>
    <g id="Grupo_1647" data-name="Grupo 1647">
      <g id="Grupo_1641" data-name="Grupo 1641">
        <path id="Caminho_6491" data-name="Caminho 6491" d="M4851.8,460.035l.049,0A.118.118,0,0,0,4851.8,460.035Z" fill="#5e8031" fill-rule="evenodd"/>
        <path id="Caminho_6492" data-name="Caminho 6492" d="M4863.79,468.092l-.184-.3a9.107,9.107,0,0,0,1.3-1.127,7.353,7.353,0,0,1,1.341-1.1l-.43-.2c.859-.881,1.631-1.715,2.288-2.385l-.5-.228a6.758,6.758,0,0,0,.785-1.961,5.349,5.349,0,0,1,.834-1.844l-1.014.327s.106-1.481.071-2.466a4.335,4.335,0,0,1,.106-1.4l-.7.067a4.5,4.5,0,0,1-.557-1.7c-.213-1.228.07-1.442.07-1.442l-.786-.03a6.716,6.716,0,0,1,.264-2.83,14.732,14.732,0,0,1-2.327,1.686l-.393-.8a1.77,1.77,0,0,1-1.3,1.324,14.944,14.944,0,0,0-2.795,1.136l-.233-.692s-1.08.743-2.355,1.774a24.95,24.95,0,0,0-3.074,3.489l-.356-.71a10.72,10.72,0,0,0-.848,3.435l-1.153-.079c.074.02.2.133.147.7a14.433,14.433,0,0,0,.409,2.845l-.486-.451c.038.343.064,4.871,2.16,7.053C4856.415,471.908,4861.788,470.253,4863.79,468.092Z" fill="#5e8031" fill-rule="evenodd"/>
        <path id="Caminho_6493" data-name="Caminho 6493" d="M4867.608,462.76l.5.228c-.657.67-1.429,1.5-2.288,2.385l.43.2a7.353,7.353,0,0,0-1.341,1.1,9.107,9.107,0,0,1-1.3,1.127l.184.3a10.8,10.8,0,0,1-7.257,2.8l3.646-6.709c2.023.861,5.485-.514,7.429-1.427Z" fill="#568031" fill-rule="evenodd"/>
        <path id="Caminho_6494" data-name="Caminho 6494" d="M4862.339,458.562s3.529-2.561,3.833-4.77a7.011,7.011,0,0,1-3.511,3.85l-.322.92Zm-1.778,3.495c2.2-.495,5.53-1.968,6.324-4.674-2.116,3.423-4.434,3.525-6.056,4.163l-.268.511Zm-.524.865c-.818-4.1-.645-6.445,1.813-9.847-2.222,3.741-2.011,7.782-1.4,8.748l-.414,1.1Zm-2.349,3.8c-1.412-3.689-2.438-8.4.089-11.48-2.634,4.946-.165,10.084.192,10.812l-.281.668Z" fill="#6b952d" fill-rule="evenodd"/>
        <path id="Caminho_6495" data-name="Caminho 6495" d="M4854.077,470.182c-2.1-2.182-2.122-6.71-2.16-7.053l.486.451a14.433,14.433,0,0,1-.409-2.845c.07-.779-.2-.7-.2-.7l1.2.083a10.72,10.72,0,0,1,.848-3.435l.356.71s.187-.255.486-.636a18.642,18.642,0,0,0,2.056,10.147c.272.553-.064,2.237-.658,3.965a4,4,0,0,1-2.011-.687Z" fill="#568031" fill-rule="evenodd"/>
        <path id="Caminho_6496" data-name="Caminho 6496" d="M4866.383,460.45a2.365,2.365,0,0,1-1.392,2.479c-1.671.75-2.356-.163-1.2-.968s2.125-2.144,2.587-1.511Zm-2.65-1.2s-.116.8,1.142-.335,1.812-3.687,1.126-2.719-2.791,1.738-2.268,3.054Zm.841-4.448c-.017.636,1.894-1.766,1.372-1.931-.555-.176-1.344.631-1.372,1.931Z" fill="#578032" fill-rule="evenodd"/>
      </g>
      <g id="Grupo_1642" data-name="Grupo 1642">
        <path id="Caminho_6497" data-name="Caminho 6497" d="M4851.63,470.937c-2.416-1.069-3.619-4.607-4.8-6.33s-2.339-3.957-3.87-5.019-3.295-4.571-3.295-4.571a16.184,16.184,0,0,1,4.089.285l.251-.871a3.183,3.183,0,0,0,1.41,1.173,6.653,6.653,0,0,1,1.678,1.163l.513-.906a2,2,0,0,0,.482.971,18.955,18.955,0,0,0,1.877,1.872l.142-.719s-.061.2.618,1.031,1.88,1.94,2.209,2.438a3.66,3.66,0,0,1,.448,1.072l.808-.235a2.428,2.428,0,0,0,.117,2.074,3.1,3.1,0,0,1,.094,2.053,9.137,9.137,0,0,1,.206,3.24,2.143,2.143,0,0,1-2.975,1.279Z" fill="#5e8031" fill-rule="evenodd"/>
        <path id="Caminho_6498" data-name="Caminho 6498" d="M4850.769,469.035s2.022-3.257,1.276-6.233c1.357,2.173-.877,6.935-.877,6.935l-.4-.7Zm-2.255-2.746s.991-5.158-.879-8.229c2.317,2.243,1.281,8.934,1.281,8.934l-.4-.7Zm-2.686-4.26a7.666,7.666,0,0,0-1.846-5.14c2.408,2.074,2.345,5.669,2.345,5.669l-.5-.529Z" fill="#6b952d" fill-rule="evenodd"/>
        <path id="Caminho_6499" data-name="Caminho 6499" d="M4849.435,469.024c-1.083-1.467-1.851-3.313-2.607-4.417-1.183-1.723-2.339-3.957-3.87-5.019s-3.295-4.571-3.295-4.571l.2-.014c.039.055.076.107.112.165a10.9,10.9,0,0,0,3.756,3.671,6.166,6.166,0,0,1,1.218,1.659,5.3,5.3,0,0,0,1.36,1.585l.584.215a5.613,5.613,0,0,0,.826,1.947c.537.624.7.517.7.517a11.346,11.346,0,0,0,1.688,3.137,5.163,5.163,0,0,0,2.212,1.79c.392,1.081,1.158,1.133-.743,2.592-.8.61-1.171,3.093-1.171,3.093l-1.144,1.093c1.432-2.165.578-5.988.172-7.443Z" fill="#95b05c" fill-rule="evenodd"/>
        <path id="Caminho_6500" data-name="Caminho 6500" d="M4847.567,461.1c-.567-.013-.476-1.393-1.424-2.609s.838-.279,1.442.793.574,1.834-.018,1.816Z" fill="#578032" fill-rule="evenodd"/>
        <path id="Caminho_6501" data-name="Caminho 6501" d="M4850.332,460.98c1.166,1.749,1.363,4.693.571,5.183s-.975-2.325-.932-3.582-.184-2.418.361-1.6Z" fill="#578032" fill-rule="evenodd"/>
      </g>
      <g id="Grupo_1643" data-name="Grupo 1643">
        <path id="Caminho_6502" data-name="Caminho 6502" d="M4841.358,485.072c1.753-1.891,1.246-5.321-.11-7.469a26.2,26.2,0,0,1-2.9-4.994l.67.169a28.305,28.305,0,0,1-.587-4.144,7.539,7.539,0,0,1,.541-2.12,8.573,8.573,0,0,1,.232-1.058l.581.792c.908-2.7,2.629-4.432,2.527-5.129a17.41,17.41,0,0,0,1.73,2.941l-.018-.657s.5.839,1.159,1.743,1.357,1.932,1.357,1.932l.543-.02s.772,1.842,1.165,3.031a12.023,12.023,0,0,1,.513,2.122l.733-.069s-.248.476-.6,1.137a6.138,6.138,0,0,1-.468,3.877c-1.553,2.679-7.068,7.916-7.068,7.916Z" fill="#809c26" fill-rule="evenodd"/>
        <path id="Caminho_6503" data-name="Caminho 6503" d="M4842.232,461.532a.861.861,0,0,0,.081-.413,17.41,17.41,0,0,0,1.73,2.941l-.018-.657s.5.839,1.159,1.743,1.357,1.932,1.357,1.932l.543-.02s.772,1.842,1.165,3.031a12.023,12.023,0,0,1,.513,2.122l.733-.069s-.248.476-.6,1.137a6.138,6.138,0,0,1-.468,3.877,26.39,26.39,0,0,1-3.052,3.822,61.479,61.479,0,0,0,.207-6.686c.03-2.239-1.573-6.744-2.6-8.8-.9-1.8-.472-2.348-.752-3.958Z" fill="#688a2f" fill-rule="evenodd"/>
        <path id="Caminho_6504" data-name="Caminho 6504" d="M4845.877,477.207l-.008-.532c.73-.463,2.142-2.164,1.513-6.008.985,3.4.123,5.172-1.5,6.54Z" fill="#809c26" fill-rule="evenodd"/>
        <path id="Caminho_6505" data-name="Caminho 6505" d="M4845.154,471.328l-.134-.3c.857-1.185.738-3.387-.386-5.6,1.75,3.025,1.256,4.847.52,5.9Z" fill="#809c26" fill-rule="evenodd"/>
        <path id="Caminho_6506" data-name="Caminho 6506" d="M4842,479.155a15.433,15.433,0,0,0-2.238-4.575c-.656-.939-.71-1.453-.333-1.5s-.925-2.906-.841-5.457a3.818,3.818,0,0,0-.155,1.013,28.305,28.305,0,0,0,.587,4.144l-.67-.169a26.2,26.2,0,0,0,2.9,4.994,7.955,7.955,0,0,1,.751,1.552Zm-2.01-12.117a58.443,58.443,0,0,1,2.47-5.6l0,0c-.1-.193-.149-.313-.149-.313.1.693-1.61,2.415-2.518,5.107Z" fill="#95b05c" fill-rule="evenodd"/>
        <path id="Caminho_6507" data-name="Caminho 6507" d="M4845.836,480.472c-.33.37-.67.737-1,1.09,1.828-6.354,0-11.467-2.383-17.35,2.5,4.683,4.407,10.4,3.386,16.26Z" fill="#86a945" fill-rule="evenodd"/>
        <path id="Caminho_6508" data-name="Caminho 6508" d="M4845.739,477.941l-.077.344s-4.054-2.223-5.02-4.311a14.909,14.909,0,0,0,5.1,3.967Z" fill="#86a945" fill-rule="evenodd"/>
        <path id="Caminho_6509" data-name="Caminho 6509" d="M4845.608,473.943l.02.434c-.682.027-4.494-2.522-5.933-6.429,1.974,3.263,4.319,5.712,5.913,5.995Z" fill="#86a945" fill-rule="evenodd"/>
        <path id="Caminho_6510" data-name="Caminho 6510" d="M4844.527,469.487l-.171-.46a6.186,6.186,0,0,1-2.974-3.35c.206,1.685,2.292,3.376,3.145,3.81Z" fill="#86a945" fill-rule="evenodd"/>
        <path id="Caminho_6511" data-name="Caminho 6511" d="M4844.83,479.365c-.277.95-1.23,1.472-1.6.059s-2.825-4.69-1.205-3.256,2.943,2.322,2.8,3.2Zm.184-3.941c.243-1-.66-.96-1.313-1-.593-.043-2.277-2.11-2.822-2.681s-.647,1.174,1.19,2.875c1.47,1.361,2.791,1.445,2.945.81Zm-1.44-4.076c1.936.7-.582-1.552-.818-1.909-.522-.8-1.808-1.048-.979.166a5.146,5.146,0,0,0,1.8,1.743Z" fill="#6b952d" fill-rule="evenodd"/>
      </g>
      <g id="Grupo_1644" data-name="Grupo 1644">
        <path id="Caminho_6512" data-name="Caminho 6512" d="M4862.555,472.628l-.322.413a6.367,6.367,0,0,1,1.677.733c.517.406.827.651,1.9,1.414a7.6,7.6,0,0,0,1.807,1l-.364.465a14.324,14.324,0,0,1,1.094.947c.323.335.729.989,1.227,1.631a2.393,2.393,0,0,0,1.035.814l-.573.3a7.141,7.141,0,0,1,.643,1.844,23.308,23.308,0,0,0,.657,2.356l-.595-.243a4.88,4.88,0,0,1-.246,2.062,18.589,18.589,0,0,1-1.061,2.532,4.483,4.483,0,0,0-2.7-3.511c-3.235-1.688-9.73-5.793-11.3-9.968-.157-.422-1.458-1.3-1.506-1.713,2.587-3.073,8.172-1.071,8.622-1.075Z" fill="#5e8031" fill-rule="evenodd"/>
        <path id="Caminho_6513" data-name="Caminho 6513" d="M4864.308,475.812c-2.226-.819-6.963.514-7.574.666l-.11-.35s5.4-1.712,7.684-.316Zm4.1,4.047c-3.788-1.574-8.948-.5-8.948-.5l-.305-.439s6.176-.953,9.253.939Zm.7,4.076a12.352,12.352,0,0,0-6.753-1.776l-.758-.653a11.921,11.921,0,0,1,7.511,2.429Z" fill="#6b952d" fill-rule="evenodd"/>
        <path id="Caminho_6514" data-name="Caminho 6514" d="M4847.314,478.785c1.261-1.087,7.2-5.03,8.487-2.569,2.03,3.894,7.911,7.587,10.939,9.168a4.7,4.7,0,0,1,2.654,3.2.416.416,0,0,0,.031-.111,3.316,3.316,0,0,0-.637-2.169l.418-.426a5.974,5.974,0,0,0-.958-.586c-.548-.261-2.481-1.436-2.481-1.436l.587-.21s-.952-.5-2.539-1.242-1.062-1.418-1.062-1.418a4.629,4.629,0,0,1-2.329-1.078c-1.294-1.012-.279-1.561-.279-1.561a10.829,10.829,0,0,1-1.459-.833c-1.575-1.079-1.06-1.458-1.344-2.408-.516-1.708-1.729-3.073-3.722-1.482a19.475,19.475,0,0,1-2.975,2.139,11.864,11.864,0,0,0-3.331,3.022Z" fill="#86a945" fill-rule="evenodd"/>
        <path id="Caminho_6515" data-name="Caminho 6515" d="M4862.006,474.054s.255.7-.418.451a6.88,6.88,0,0,0-2.813.27c-.53.136-1.272-1.118-.585-1.32s3.462.174,3.816.6Zm3.554,3.479c.393.448.177.785-.234.591a15.31,15.31,0,0,0-3.763-.423c-.675.092-1.91-.768-.937-1.181s4.2.174,4.934,1.013ZM4868,481.2c.285.415.021.954-.4.6a13.14,13.14,0,0,0-3.465-1.081c-.813-.132-1.637-.9-.884-1.1A10.122,10.122,0,0,1,4868,481.2Z" fill="#578032" fill-rule="evenodd"/>
      </g>
      <path id="Caminho_6516" data-name="Caminho 6516" d="M4855.4,470.8a3.631,3.631,0,0,1-.882-.335,83.063,83.063,0,0,0,5.659-8.485c1.809-3.178,3.045-6.367,4.993-10.266a56.77,56.77,0,0,1-3.764,9.107,88.857,88.857,0,0,1-6.006,9.979Z" fill="#6b952d" fill-rule="evenodd"/>
      <path id="Caminho_6517" data-name="Caminho 6517" d="M4855.4,470.8a3.631,3.631,0,0,1-.882-.335c.844-1.159,1.6-2.2,2.311-3.218a5.923,5.923,0,0,1-.2,1.751c-.4.6-.8,1.2-1.23,1.8Z" fill="#568031" fill-rule="evenodd"/>
      <path id="Caminho_6518" data-name="Caminho 6518" d="M4856.817,467.921c-.007.072-.017.148-.029.227a1,1,0,0,1-.131.023Z" fill="#568031" fill-rule="evenodd"/>
      <path id="Caminho_6519" data-name="Caminho 6519" d="M4857.3,466.948a14.57,14.57,0,0,0,2.138-7.339,3.005,3.005,0,0,1,.583-2.276,5.8,5.8,0,0,1,1.618,1.982c.24.867.292,1.156.292,1.156l.5-.1a3.42,3.42,0,0,1-.225,1.721,3.028,3.028,0,0,0-.426.889l.633.183a13.347,13.347,0,0,1-1.441,3.729c-.907,1.324-4.642,2.929-3.669.056Z" fill="#86a945" fill-rule="evenodd"/>
      <path id="Caminho_6520" data-name="Caminho 6520" d="M4857.3,466.948a14.57,14.57,0,0,0,2.138-7.339,3.005,3.005,0,0,1,.583-2.276s.081.069.21.183a6.322,6.322,0,0,0-.175,3.124,9.273,9.273,0,0,0,.315,1.358l.513-.091a7.349,7.349,0,0,1-.4,2.976,9.129,9.129,0,0,1-3.254,3.3,1.685,1.685,0,0,1,.075-1.233Z" fill="#95b05c" fill-rule="evenodd"/>
      <path id="Caminho_6521" data-name="Caminho 6521" d="M4861.623,466.507a7.8,7.8,0,0,1,4.939-1.122l-.294.475a6.782,6.782,0,0,1,2.283.692,8.187,8.187,0,0,1,1.757,1.1l-.73.3a6.807,6.807,0,0,1,1.135,1.2,3.286,3.286,0,0,0,1.286.962,9.314,9.314,0,0,1-2-.427c-1.025-.352-2.824-1.566-4.587-1.849s-5.8.92-3.785-1.336Z" fill="#809c26" fill-rule="evenodd"/>
      <path id="Caminho_6522" data-name="Caminho 6522" d="M4870.35,469.8c-.118-.036-.235-.072-.355-.111-1.025-.352-2.824-1.566-4.587-1.849a12.331,12.331,0,0,0-2.349.036l-.241-.56a4.819,4.819,0,0,1,4.729-.569c.517.249.141.577.141.577l2.5,2.317c.055.051.108.1.16.159Z" fill="#86a945" fill-rule="evenodd"/>
      <path id="Caminho_6523" data-name="Caminho 6523" d="M4862.066,469.088a30.23,30.23,0,0,1,3.934,1.148c.825.3.819.717.819.717s-.387.19-.163.313,0,.635-.772.514-3.818-2.692-3.818-2.692Z" fill="#6b952d" fill-rule="evenodd"/>
      <path id="Caminho_6524" data-name="Caminho 6524" d="M4855,466.244a6.452,6.452,0,0,1,1.282-1.748,4.687,4.687,0,0,1,1.615-.963l-.1.335a4.217,4.217,0,0,1,1.757-.023,4.635,4.635,0,0,0,1.286.213l-.232.25a5.14,5.14,0,0,1,1.411.716c.409.379,1.051,1.058,1.051,1.058l-.252.182a4.7,4.7,0,0,1,.309.473,4.825,4.825,0,0,1,.6,1.1c.084.313.451,1.388.451,1.388l-.273.151a2.835,2.835,0,0,0,2.853,2.263,3.165,3.165,0,0,1-2.218.254c-.526-.233-1.957-1.89-3.05-2.493-2.216-1.214-4.811,2.779-6.757,2.29-1.846-.462-.338-4.419.264-5.447Z" fill="#809c26" fill-rule="evenodd"/>
      <path id="Caminho_6525" data-name="Caminho 6525" d="M4858.982,463.754a1.978,1.978,0,0,1,.573.091,4.635,4.635,0,0,0,1.286.213l-.232.25a5.14,5.14,0,0,1,1.411.716c.409.379,1.051,1.058,1.051,1.058l-.252.182a4.7,4.7,0,0,1,.309.473,4.825,4.825,0,0,1,.6,1.1c.084.313.451,1.388.451,1.388l-.273.151a2.835,2.835,0,0,0,2.853,2.263,1.274,1.274,0,0,1-.542.234,3.62,3.62,0,0,1-2.651-1.479c-.821-.76-.077-.789-.3-1.416s.22-1.11-.85-2.1-.969-1.193-.758-1.467c.132-.168-1.351-1.04-2.68-1.656Z" fill="#95b05c" fill-rule="evenodd"/>
      <path id="Caminho_6526" data-name="Caminho 6526" d="M4856.949,469.262c.884-1.045,3.082-2.819,4.979-2.056a4.712,4.712,0,0,0-4.216,1.876l-.763.18Zm-2.4,1.128c.208-.869,1.972-4.739,5-5.534-2.532,1.086-4.4,5.069-4.4,5.069l-.6.465Z" fill="#95b05c" fill-rule="evenodd"/>
      <path id="Caminho_6527" data-name="Caminho 6527" d="M4847.176,477.939c-6.255,6.668-14.645,15.512-18.841,21.506-2.92,4.168-5.231,10.256-6.861,16.337-1.949,7.279-.319,7.934,2.44-1.99,1.4-5.027,3.333-9.983,5.987-13.59,5.4-7.336,15.577-18.874,20.408-23.96a56.616,56.616,0,0,1,4.632-4.656c2.163-1.807,4.609-3.068,7.263-2.328-1.96-1.815-6.888-.153-8.136,1.1-2.263,2.281-4.67,5.205-6.892,7.578Z" fill="#95b05c" fill-rule="evenodd"/>
      <path id="Caminho_6528" data-name="Caminho 6528" d="M4822.824,517.358c.338-.989.7-2.174,1.09-3.566,1.4-5.027,3.333-9.983,5.987-13.59,5.4-7.336,15.577-18.874,20.408-23.96a56.616,56.616,0,0,1,4.632-4.656c2.132-1.781,4.535-3.028,7.143-2.361-.037-.052-.073-.1-.106-.153a2.945,2.945,0,0,0-.741-.378,9.224,9.224,0,0,0-6.533,2.5c-2.251,2.1-7.214,6.955-8.837,8.707s-14.266,16.236-16.54,19.863c-1.953,3.117-5.653,10.21-6.5,17.6Z" fill="#82a84c" fill-rule="evenodd"/>
      <path id="Caminho_6529" data-name="Caminho 6529" d="M4846.493,494.037l.131.633c-1.169.539.029,2.957-.253,3.872-.1-.835-.759-2.415-.506-3.333a2.066,2.066,0,0,1,.628-1.172Z" fill="#95b05c" fill-rule="evenodd"/>
      <path id="Caminho_6530" data-name="Caminho 6530" d="M4841.812,481.556c0,.141,0,.282-.009.42a3.757,3.757,0,0,0-4.257.976,3.67,3.67,0,0,1,4.266-1.4Z" fill="#95b05c" fill-rule="evenodd"/>
      <g id="Grupo_1645" data-name="Grupo 1645">
        <path id="Caminho_6531" data-name="Caminho 6531" d="M4842.336,484.037c.1.09,3.1-1.9,6.029-1.27,1.477.319,4.369,2.781,5.181,4.527h-.989s.9,2.112,1.24,3.041-.332,2.038.15,2.767-.992,0-.992,0a6.246,6.246,0,0,1-.6,1.854,2.635,2.635,0,0,0-.212,1.726l-.8-.364c-.075.153-.148.3-.221.447a10.9,10.9,0,0,0-.693,2.089c-.056.647-.163,1.368-.163,1.368l-.842-.491-.068-.063a8.356,8.356,0,0,0-1.177,2.13c-.46,1.563-1.552.425-1.7-.809s-1.49-4.177-3.289-7.188-5.308-4.826-7.157-9.384a5.23,5.23,0,0,1-.357-3.689l-.352-.284c1.729-1.581,3.489-1.977,4.865-1.178,2.951,1.708.655,3.452,2.145,4.766Z" fill="#809c26" fill-rule="evenodd"/>
        <path id="Caminho_6532" data-name="Caminho 6532" d="M4842.4,484.021c.485-.178,3.254-1.833,5.961-1.254,1.477.319,4.369,2.781,5.181,4.527h-.989s.9,2.112,1.24,3.041-.332,2.038.15,2.767-.992,0-.992,0a6.246,6.246,0,0,1-.6,1.854,2.635,2.635,0,0,0-.212,1.726l-.8-.364c-.075.153-.148.3-.221.447a10.9,10.9,0,0,0-.693,2.089c-.056.647-.163,1.368-.163,1.368l-.842-.491-.068-.063a8.356,8.356,0,0,0-1.177,2.13c-.183.614-.463.812-.741.748a48.176,48.176,0,0,0-.036-5.013,45.566,45.566,0,0,0-1.822-6.318,48.027,48.027,0,0,0-3.177-7.2Z" fill="#688a2f" fill-rule="evenodd"/>
        <path id="Caminho_6533" data-name="Caminho 6533" d="M4844.112,487.352l.024.619c-1.907.717-.937,2.762-.754,3.534-1.1-2.374-.718-3.143.73-4.153Z" fill="#95b05c" fill-rule="evenodd"/>
        <path id="Caminho_6534" data-name="Caminho 6534" d="M4844.76,489.073l.287.7c2.26.755,4.417,5.333,4.308,6.83.452-1.276-1.041-4.383-2.441-5.891s-2.154-1.639-2.154-1.639Z" fill="#809c26" fill-rule="evenodd"/>
        <path id="Caminho_6535" data-name="Caminho 6535" d="M4842.736,484.341l.288.5c3.169-.025,7.329,4.974,8.047,6.881a10.644,10.644,0,0,1,.7,2.78c.406-1.993-2.068-6.7-5.452-8.751a10.532,10.532,0,0,0-3.581-1.412Z" fill="#809c26" fill-rule="evenodd"/>
        <path id="Caminho_6536" data-name="Caminho 6536" d="M4845.734,482.8c.239-.049.488-.09.741-.116a10.548,10.548,0,0,1,5.185,4.9,11.707,11.707,0,0,0-5.926-4.784Z" fill="#809c26" fill-rule="evenodd"/>
        <path id="Caminho_6537" data-name="Caminho 6537" d="M4842.5,484.143l.265.481c-1.579-.866-2.814,1.71-2.556,2.714a2.839,2.839,0,0,1,1.1-2.893,3.467,3.467,0,0,1,1.191-.3Z" fill="#95b05c" fill-rule="evenodd"/>
        <path id="Caminho_6538" data-name="Caminho 6538" d="M4842.349,484.042a1.711,1.711,0,0,0,.295-.058c1.747,2.975,5.607,12.815,4.891,16.166-.273-4.919-4.064-14-5.186-16.108Z" fill="#95b05c" fill-rule="evenodd"/>
        <path id="Caminho_6539" data-name="Caminho 6539" d="M4845.169,497.458c-.544-1.125-1.218-2.382-1.977-3.652-1.8-3.011-5.308-4.826-7.157-9.384a7.8,7.8,0,0,1-.364-1.091,3.123,3.123,0,0,0,.737.623,7.393,7.393,0,0,0,1.9,2.512c1.543,1.471,3.333,3.015,3.333,3.015l-.834.21a10.421,10.421,0,0,0,1.67,1.855,16.941,16.941,0,0,0,2.423,1.484.823.823,0,0,0-.562,1.1c.174.444.406,1.606.826,3.333Z" fill="#86a945" fill-rule="evenodd"/>
        <path id="Caminho_6540" data-name="Caminho 6540" d="M4837.426,481.02c-.277,1.028.847-.192,1.7-.278s1.686.067,1.259-.637-2.535-.641-2.957.915Zm3.559,2.32s.27.763-.451.709-1.706,2.122-1.949.77,1.556-2.676,2.4-1.479Zm.575,4.542c.451.924.368-.841.861-1.21a.633.633,0,0,0-.31-1.162c-.647-.135-1.075,1.29-.551,2.372Zm2.594,3.584c.72.5.478-1.408.051-1.442s-.617,1.044-.051,1.442Z" fill="#6b952d" fill-rule="evenodd"/>
        <path id="Caminho_6541" data-name="Caminho 6541" d="M4848.9,485.278c-1.523-1.2-3.626-.718-1.509.465s3.392,3.842,3.82,3.412-1.255-3.038-2.311-3.877Zm-1.725,4.708a2.877,2.877,0,0,1-1.169-.932c-.329-.51.283-1.444,1.859-.165s2.114,3.894,1.745,4.052-1.06-2.1-2.435-2.955Zm.3,3.337c-.374-.383-.737-.285-.149,1.164s.927,2.39,1.3,2.038-.237-2.263-1.153-3.2Z" fill="#5e8031" fill-rule="evenodd"/>
      </g>
      <g id="Grupo_1646" data-name="Grupo 1646">
        <path id="Caminho_6542" data-name="Caminho 6542" d="M4836.461,497.995c2.384-.511,5.27-.255,6.432,1.015a11.911,11.911,0,0,0,1.428,1.322l-.421-.124s1.511,1.682,2.461,2.562a8.851,8.851,0,0,1,1.26,1.348l-.335.16s1.274,1.735,1.889,2.582a8.7,8.7,0,0,0,.809,1.033l-.525.164-.122.08c1.512,2.877,2.475,5.313,2.475,5.313s-.9-.106-2.365-.31l.221.314s-1.853-.414-2.874-.613-.851.418-.851.418-2.446-.777-3.319-.934-1.85-.411-1.85-.411l.261.518a14.876,14.876,0,0,1-3.778-1.642c-1.342-.96-1.175-.437-1.175-.437s-.957-.977-1.968-2.191c-1.732-2.086-.969-6.2-1.87-7.086-1.184-1.156,3.531-2.933,4.217-3.081Z" fill="#809c26" fill-rule="evenodd"/>
        <path id="Caminho_6543" data-name="Caminho 6543" d="M4845.965,513.014a.381.381,0,0,0-.022.245s-2.446-.777-3.319-.934-1.85-.411-1.85-.411l.261.518a14.876,14.876,0,0,1-3.778-1.642c-1.342-.96-1.175-.437-1.175-.437s-.957-.977-1.968-2.191a4.516,4.516,0,0,1-.747-1.379,14.891,14.891,0,0,0,3.934,3.53c1.158.794,2.52,1.556,2.887,1.335s3.805.377,5.777,1.366Z" fill="#86a945" fill-rule="evenodd"/>
        <path id="Caminho_6544" data-name="Caminho 6544" d="M4836.461,497.995c2.384-.511,5.27-.255,6.432,1.015a11.911,11.911,0,0,0,1.428,1.322l-.421-.124s1.511,1.682,2.461,2.562a8.851,8.851,0,0,1,1.26,1.348l-.335.16s1.274,1.735,1.889,2.582a8.7,8.7,0,0,0,.809,1.033l-.525.164-.122.08c1.512,2.877,2.475,5.313,2.475,5.313l-.009,0c-1.12-1.049-3.133-2.937-4.256-3.977-1.609-1.491-5.786-5.124-7.354-6.2-1.359-.928-4.34-1.868-8-2.248-.993-1.161,3.589-2.885,4.266-3.03Z" fill="#688a2f" fill-rule="evenodd"/>
        <path id="Caminho_6545" data-name="Caminho 6545" d="M4839.692,507.686a5.835,5.835,0,0,1-1.586-2.772c-.192-1.166-1.633-1.934-1.911-1.1s.983,3.586,2.807,4.963,1.587-.146.69-1.091Z" fill="#6b952d" fill-rule="evenodd"/>
        <path id="Caminho_6546" data-name="Caminho 6546" d="M4842.768,506.272a1.03,1.03,0,0,1,.391,1.134c-.073.463,2,2.671,1.214,2.608s-3.3-2.982-3.528-3.762.53-.968,1.923.02Z" fill="#6b952d" fill-rule="evenodd"/>
        <path id="Caminho_6547" data-name="Caminho 6547" d="M4847.148,509.835s-.864-1.084-1.051-.654.866,1.538,1.683,1.873.277-.449-.632-1.219Z" fill="#6b952d" fill-rule="evenodd"/>
        <path id="Caminho_6548" data-name="Caminho 6548" d="M4844.227,506.786l.46.317c-.24.7.247,1.8,1.928,3.613-1.962-1.89-2.591-2.864-2.388-3.93Z" fill="#95b05c" fill-rule="evenodd"/>
        <path id="Caminho_6549" data-name="Caminho 6549" d="M4839.955,503.257a5.546,5.546,0,0,1,2.057.024c1.254.215,3.029,1.311,5.168,3.624-3.5-3.121-4.829-3.436-6.4-3.167l-.825-.481Zm-5.814-2.244a8.694,8.694,0,0,1,1.73-.514,16.709,16.709,0,0,1,7.061.265c-3.765-1.818-7.937-.654-9.809.047l1.018.2Z" fill="#809c26" fill-rule="evenodd"/>
        <path id="Caminho_6550" data-name="Caminho 6550" d="M4838.217,502.672l.367.255c-.741,1.346,2.489,5.761,5.828,8.19-3.033-1.705-6.8-6.181-6.2-8.445Z" fill="#95b05c" fill-rule="evenodd"/>
        <path id="Caminho_6551" data-name="Caminho 6551" d="M4834.2,501.421l.381.233c-.461,1.707,2.89,7.964,5.464,9.22-2.727-.994-5.073-5.8-5.578-7.2a4.054,4.054,0,0,1-.267-2.249Z" fill="#95b05c" fill-rule="evenodd"/>
        <path id="Caminho_6552" data-name="Caminho 6552" d="M4827.473,501.372c3.021-2.1,9.219-.353,12.146,1.284s10.865,9.455,10.865,9.455-8.967-7.7-11.891-9.175-7.479-2.02-9.2-1.319a6.948,6.948,0,0,0-2.335,1.364Z" fill="#95b05c" fill-rule="evenodd"/>
      </g>
    </g>
  </g>
</svg>
