<svg xmlns="http://www.w3.org/2000/svg" width="23.077" height="30" viewBox="0 0 23.077 30">
  <g id="Grupo_5142" data-name="Grupo 5142" transform="translate(-271.461 -825)">
    <rect id="Retângulo_1230" data-name="Retângulo 1230" width="13.846" height="2.308" transform="translate(276.077 836.308)" fill="#3c3c46"/>
    <rect id="Retângulo_1231" data-name="Retângulo 1231" width="13.846" height="2.308" transform="translate(276.077 846.462)" fill="#3c3c46"/>
    <rect id="Retângulo_1232" data-name="Retângulo 1232" width="13.846" height="2.308" transform="translate(276.077 841.385)" fill="#3c3c46"/>
    <rect id="Retângulo_1233" data-name="Retângulo 1233" width="8.077" height="2.308" transform="translate(276.077 831.231)" fill="#3c3c46"/>
    <rect id="Retângulo_1234" data-name="Retângulo 1234" width="2.308" height="2.308" transform="translate(292.231 844.154)" fill="#3c3c46"/>
    <path id="Caminho_16613" data-name="Caminho 16613" d="M288.769,830.769h2.5l-2.5-2.5Zm5.769,18v2.769A3.464,3.464,0,0,1,291.077,855H274.923a3.465,3.465,0,0,1-3.462-3.462V828.462A3.465,3.465,0,0,1,274.923,825h13.846l5.769,5.769v11.077h-2.307v-8.769h-5.77v-5.769H274.923a1.157,1.157,0,0,0-1.154,1.154v23.076a1.157,1.157,0,0,0,1.154,1.154h16.154a1.157,1.157,0,0,0,1.154-1.154v-2.769Z" fill="#3c3c46"/>
  </g>
</svg>
