<svg xmlns="http://www.w3.org/2000/svg" width="24.998" height="25" viewBox="0 0 24.998 25">
  <path id="Caminho_3665" data-name="Caminho 3665" d="M10855.5,1329.916a4.055,4.055,0,0,0-3.052-3.924,3.974,3.974,0,0,0-.582-4.943,4.014,4.014,0,0,0-2.834-1.162,4.375,4.375,0,0,0-2.108.582,9.558,9.558,0,1,0-13.3,13.444,4,4,0,0,0,3.344,6.1,4.375,4.375,0,0,0,2.108-.582,4.057,4.057,0,0,0,3.925,3.052,4.558,4.558,0,0,0,3.99-3.074,4.321,4.321,0,0,0,2.646.469,3.835,3.835,0,0,0,2.155-1.1,4.015,4.015,0,0,0,1.163-2.834,4.375,4.375,0,0,0-.582-2.108A4.12,4.12,0,0,0,10855.5,1329.916Zm-8.282-7.7a2.522,2.522,0,0,1,1.816-.726,2.865,2.865,0,0,1,1.816.726,2.543,2.543,0,0,1,0,3.634,11.9,11.9,0,0,1-4.143,1.526,4.512,4.512,0,0,0-1.018-1.017C10846.2,1324.175,10846.707,1322.649,10847.217,1322.213Zm-1.09,7.775a3.125,3.125,0,0,1-6.25,0,3.1,3.1,0,0,1,3.125-3.124A3.2,3.2,0,0,1,10846.127,1329.988Zm-3.126-11.046a2.576,2.576,0,0,1,2.544,2.545c0,.218-.146,1.236-1.89,4h-1.381c-1.744-2.762-1.891-3.778-1.891-4A2.692,2.692,0,0,1,10843,1318.942Zm-7.776,3.271a2.545,2.545,0,0,1,3.635,0c.218.218.8,1.09,1.526,4.143a4.5,4.5,0,0,0-1.018,1.017c-2.108-.508-3.707-1.017-4.144-1.526A2.544,2.544,0,0,1,10835.225,1322.213Zm-3.27,7.775a2.576,2.576,0,0,1,2.544-2.544c.218,0,1.236.146,4,1.89v1.381c-1.89,1.162-3.343,1.89-4,1.89A2.689,2.689,0,0,1,10831.955,1329.988Zm6.831,7.777a2.57,2.57,0,0,1-3.634-3.634c.218-.218,1.09-.8,4.142-1.526a4.515,4.515,0,0,0,1.018,1.018C10839.586,1336.747,10839,1337.547,10838.786,1337.765Zm4.215,3.271a2.575,2.575,0,0,1-2.544-2.544c0-.654.726-2.108,1.89-4h1.38c1.162,1.89,1.891,3.343,1.891,4A2.69,2.69,0,0,1,10843,1341.036Zm7.85-3.2a2.871,2.871,0,0,1-1.817.727h0a2.863,2.863,0,0,1-1.816-.726,11.919,11.919,0,0,1-1.525-4.143,4.521,4.521,0,0,0,1.018-1.018c3.052.727,3.924,1.309,4.142,1.527a2.519,2.519,0,0,1,.727,1.816A2.866,2.866,0,0,1,10850.851,1337.838Zm.653-5.305c-.654,0-2.107-.727-4-1.89a4.425,4.425,0,0,0,0-1.381c2.762-1.744,3.779-1.89,4-1.89a2.691,2.691,0,0,1,2.544,2.616A2.576,2.576,0,0,1,10851.5,1332.533Z" transform="translate(-10830.501 -1317.488)" fill="#3c3c46"/>
</svg>
