<svg xmlns="http://www.w3.org/2000/svg" width="23.438" height="25" viewBox="0 0 23.438 25">
  <g id="Grupo_968" data-name="Grupo 968" transform="translate(-10821.281 -467.5)">
    <g id="Grupo_967" data-name="Grupo 967">
      <path id="Caminho_3660" data-name="Caminho 3660" d="M10841.2,472.187a1.172,1.172,0,1,1,1.172-1.171,1.17,1.17,0,0,1-1.172,1.171Zm0-4.687a3.516,3.516,0,1,0,3.516,3.516A3.515,3.515,0,0,0,10841.2,467.5Z" fill="#3c3c46"/>
      <path id="Caminho_3661" data-name="Caminho 3661" d="M10835.734,474.141a1.563,1.563,0,0,1-3.125,0,1.563,1.563,0,0,1,3.125,0" fill="#3c3c46"/>
      <path id="Caminho_3662" data-name="Caminho 3662" d="M10842.375,482.344a5.079,5.079,0,0,1-5.078,5.078h-8.594a5.079,5.079,0,0,1-5.078-5.078v-1.953h18.75Zm0-4.3h-18.75v-5.86a1.953,1.953,0,0,1,3.906,0v1.172h2.344v-1.172a4.3,4.3,0,0,0-8.594,0v10.157a7.421,7.421,0,0,0,3.473,6.273l-1.617,3.883h2.539l1.234-2.96a7.424,7.424,0,0,0,1.793.226h8.594a7.424,7.424,0,0,0,1.793-.226l1.234,2.96h2.539l-1.617-3.883a7.421,7.421,0,0,0,3.473-6.273v-1.953A2.345,2.345,0,0,0,10842.375,478.047Z" fill="#3c3c46"/>
    </g>
  </g>
</svg>
